<?xml version="1.0" standalone="no"?>
<!DOCTYPE svg PUBLIC "-//W3C//DTD SVG 20010904//EN"
 "http://www.w3.org/TR/2001/REC-SVG-20010904/DTD/svg10.dtd">
<svg version="1.0" xmlns="http://www.w3.org/2000/svg"
 width="480.000000pt" height="512.000000pt" viewBox="0 0 480.000000 512.000000"
 preserveAspectRatio="xMidYMid meet">

<g transform="translate(0.000000,512.000000) scale(0.100000,-0.100000)"
fill="#000000" stroke="none">
<path d="M4595 5108 c-17 -4 -45 -22 -62 -40 -17 -18 -416 -566 -886 -1217
l-856 -1184 157 -110 c86 -60 161 -111 167 -113 5 -2 90 115 187 259 97 144
469 694 828 1222 358 528 656 976 662 997 18 61 2 96 -67 145 -67 46 -87 53
-130 41z"/>
<path d="M1511 4480 c-40 -200 -101 -262 -302 -304 -58 -12 -61 -14 -34 -21
124 -29 153 -38 196 -62 75 -40 111 -105 140 -253 l13 -65 18 85 c22 105 59
182 102 215 37 28 114 57 202 75 l59 13 -64 13 c-105 22 -162 45 -202 81 -48
44 -75 99 -97 204 l-18 84 -13 -65z"/>
<path d="M2266 3654 c-10 -38 -26 -83 -36 -99 -24 -39 -81 -71 -156 -89 -55
-13 -57 -14 -29 -21 74 -17 128 -39 155 -61 29 -25 61 -96 75 -169 l8 -40 13
62 c29 137 66 171 229 208 27 6 23 9 -44 26 -74 19 -132 53 -151 90 -6 11 -19
52 -29 90 l-18 71 -17 -68z"/>
<path d="M876 3480 c-3 -14 -14 -64 -26 -112 -37 -165 -104 -255 -217 -298
-49 -18 -118 -36 -218 -57 -38 -8 -37 -9 60 -30 249 -53 325 -122 375 -341 12
-48 23 -98 26 -112 5 -18 11 0 25 67 55 269 124 334 419 395 l65 14 -87 17
c-271 55 -342 125 -397 390 -14 67 -20 85 -25 67z"/>
<path d="M2465 2531 c-27 -12 -53 -42 -109 -124 -50 -75 -59 -124 -30 -165 9
-13 14 -25 13 -27 -2 -2 -55 -24 -117 -50 -492 -201 -1183 -239 -2010 -109
-161 25 -181 23 -202 -16 -5 -10 -10 -27 -10 -37 0 -31 107 -232 192 -360 l81
-121 62 -11 c134 -24 381 -33 566 -22 98 7 187 14 196 18 13 4 15 3 8 -5 -15
-16 -197 -87 -299 -116 -83 -24 -188 -45 -315 -63 l-55 -8 175 -175 c152 -152
364 -340 471 -416 34 -24 35 -24 109 -10 104 20 186 49 317 111 162 78 276
155 441 299 32 28 -60 -109 -137 -205 -109 -135 -302 -303 -414 -360 -21 -11
-38 -23 -38 -27 0 -16 240 -156 424 -249 140 -70 335 -153 361 -153 48 0 271
451 360 730 20 63 41 126 45 140 12 37 12 -125 0 -235 -25 -228 -79 -427 -163
-606 l-45 -97 57 -12 c123 -25 229 -40 296 -40 119 0 156 39 200 214 47 185
59 325 59 671 0 318 -14 544 -50 819 -18 141 -19 133 19 140 44 9 56 20 120
111 61 85 72 132 44 182 -7 13 -129 104 -271 204 -265 185 -299 203 -351 180z"/>
</g>
</svg>
