<?xml version="1.0" standalone="no"?>
<!DOCTYPE svg PUBLIC "-//W3C//DTD SVG 20010904//EN"
 "http://www.w3.org/TR/2001/REC-SVG-20010904/DTD/svg10.dtd">
<svg version="1.0" xmlns="http://www.w3.org/2000/svg"
 width="794.000000pt" height="445.000000pt" viewBox="0 0 794.000000 445.000000"
 preserveAspectRatio="xMidYMid meet">

<g transform="translate(0.000000,445.000000) scale(0.100000,-0.100000)"
fill="#000000" stroke="none">
<path d="M3937 3719 c-302 -44 -555 -173 -759 -387 -41 -43 -95 -107 -119
-141 -40 -56 -47 -62 -72 -57 -72 15 -221 18 -316 7 -396 -46 -738 -289 -911
-645 -202 -415 -147 -891 143 -1251 174 -215 439 -367 717 -411 82 -13 296
-14 1530 -12 l1435 3 70 22 c157 49 262 109 369 212 118 114 204 255 248 408
32 111 32 331 0 448 -97 350 -390 601 -752 645 -52 6 -95 12 -97 13 -1 1 -11
43 -22 93 -124 571 -548 974 -1106 1054 -83 11 -276 11 -358 -1z m398 -304
c357 -74 665 -366 764 -725 24 -88 32 -165 35 -310 l1 -105 189 -2 c215 -3
270 -13 380 -71 219 -115 344 -380 292 -622 -45 -213 -191 -373 -406 -446 -53
-18 -114 -19 -1495 -19 l-1440 0 -88 28 c-218 68 -375 185 -496 371 -164 252
-184 578 -50 851 191 392 652 585 1059 445 59 -20 86 -26 89 -18 2 7 23 50 47
97 140 279 435 492 749 541 83 13 274 5 370 -15z"/>
</g>
</svg>
