<svg id="Logo" xmlns="http://www.w3.org/2000/svg" viewBox="0 0 640 320"><path d="M283.91,180.67V88l23.39-13.5v27.37h25.4V30.09l23.38,13.5v92.75l-23.38,13.5V122.65H307.3V194.2Zm48.79-13L374,143.87V54l23.38,13.5v89.35l-64.65,37.3Zm-90-10.89V67.46l64.65-37.3V56.63L266,80.45v89.86Z"/><path d="M57.08,277V260.06H42.19V277h-7.6V236.85h7.6v16.52H57.08V236.85h7.59V277Z"/><path d="M92.47,277h-6l-.54-2a16.15,16.15,0,0,1-8.75,2.59c-5.36,0-7.65-3.68-7.65-8.74,0-6,2.59-8.26,8.56-8.26h7v-3.08c0-3.25-.9-4.4-5.61-4.4a41.15,41.15,0,0,0-8.13.9l-.91-5.6A38,38,0,0,1,80.53,247c9.22,0,11.94,3.26,11.94,10.61Zm-7.36-11.09H79.69c-2.42,0-3.08.66-3.08,2.9,0,2.05.66,2.95,3,2.95a11.5,11.5,0,0,0,5.55-1.51Z"/><path d="M106.69,277.61a34.71,34.71,0,0,1-10.12-1.69l1-5.61a32.6,32.6,0,0,0,8.74,1.27c3.26,0,3.74-.72,3.74-3,0-1.8-.36-2.71-5.12-3.85-7.18-1.75-8-3.56-8-9.23,0-5.91,2.59-8.5,11-8.5a38.25,38.25,0,0,1,8.8,1l-.72,5.84a52,52,0,0,0-8.08-.84c-3.19,0-3.74.72-3.74,2.53,0,2.35.18,2.53,4.16,3.56,8.2,2.17,9,3.26,9,9.28C117.31,274.11,115.56,277.61,106.69,277.61Z"/><path d="M139.19,277V256.51c0-1.57-.66-2.35-2.35-2.35s-5,1.08-7.66,2.47V277h-7.35V235.65l7.35-1v15.26A25.92,25.92,0,0,1,139.91,247c4.89,0,6.64,3.44,6.64,8.68V277Z"/><path d="M152,243.48V235h7.36v8.5ZM152,277V247.64h7.36V277Z"/><path d="M164.45,247.89c0-7.36,4.28-11.64,14.29-11.64a45.1,45.1,0,0,1,10.91,1.33l-.84,6.57a58.61,58.61,0,0,0-9.83-1c-5.24,0-6.93,1.81-6.93,6.09v15.44c0,4.28,1.69,6.08,6.93,6.08a59.6,59.6,0,0,0,9.83-1l.84,6.57a45.1,45.1,0,0,1-10.91,1.33c-10,0-14.29-4.28-14.29-11.64Z"/><path d="M204.72,277.61c-10.06,0-12.78-5.55-12.78-11.58v-7.41c0-6,2.72-11.58,12.78-11.58s12.79,5.55,12.79,11.58V266C217.51,272.06,214.79,277.61,204.72,277.61Zm0-24.3c-3.91,0-5.42,1.75-5.42,5.07v7.89c0,3.32,1.51,5.07,5.42,5.07s5.43-1.75,5.43-5.07v-7.89C210.15,255.06,208.64,253.31,204.72,253.31Z"/><path d="M237,253.79a59,59,0,0,0-7.78,4.28V277h-7.35V247.64h6.21l.48,3.26a33.26,33.26,0,0,1,7.72-3.86Z"/><path d="M264.93,267.24c0,6.51-2.9,10.37-9.71,10.37a40,40,0,0,1-7.84-.85v12.12l-7.35,1V247.64h5.85l.72,2.48a15.45,15.45,0,0,1,9.28-3.08c5.91,0,9.05,3.5,9.05,10.19Zm-17.55,3.31a32,32,0,0,0,6.51.79c2.66,0,3.68-1.27,3.68-3.92V257.05c0-2.41-.9-3.74-3.62-3.74a10.44,10.44,0,0,0-6.57,2.65Z"/><path d="M285.05,265.77c0,5.46,2.11,7.22,8.51,7.22a59.77,59.77,0,0,0,9.15-.83h0l.53,4.35a50.61,50.61,0,0,1-9.86,1.05c-9.57,0-13.38-4.11-13.38-11.5V248.81c0-7.4,3.81-11.51,13.38-11.51a49.86,49.86,0,0,1,9.86,1.06l-.53,4.34h0a59.66,59.66,0,0,0-9.15-.82c-6.4,0-8.51,1.76-8.51,7.22Z"/><path d="M309.05,277V236.71L314,236v41Z"/><path d="M331.47,277.56c-8.33,0-11.62-4.75-11.62-10.74v-8.27c0-6,3.29-10.74,11.62-10.74s11.62,4.75,11.62,10.74v8.27C343.09,272.81,339.81,277.56,331.47,277.56Zm0-25.47c-4.46,0-6.69,2.11-6.69,6.28V267c0,4.17,2.23,6.28,6.69,6.28s6.69-2.11,6.69-6.28v-8.63C338.16,254.2,335.93,252.09,331.47,252.09Z"/><path d="M353.6,248.39v21.84c0,1.88.94,2.64,2.76,2.64,2.12,0,6.52-1.29,9.57-2.88v-21.6h4.93V277h-4l-.47-2.47h0c-3.17,1.53-8.1,3.05-11.5,3.05-4.58,0-6.23-2.87-6.23-7.27v-21.9Z"/><path d="M376.61,257.14c0-5.7,2.59-9.33,9.28-9.33a45.72,45.72,0,0,1,8.16.88v-12L399,236v41h-4.17l-.41-2.59h0a15.22,15.22,0,0,1-9.45,3.17c-5.64,0-8.34-3-8.34-8.74ZM394.05,253h0a45.88,45.88,0,0,0-7.87-.88c-3.29,0-4.64,1.53-4.64,5v11.68c0,2.93.94,4.4,4.41,4.4a13.29,13.29,0,0,0,8.1-3.4Z"/><path d="M415.74,237.89h14.14c8.39,0,11.33,3.64,11.33,9.62v5.81c0,6.05-2.94,9.69-11.33,9.69h-9.1v14h-5Zm14,4.52h-8.92v16.08h8.92c4.82,0,6.46-1.35,6.46-5.17v-5.75C436.16,243.7,434.52,242.41,429.7,242.41Z"/><path d="M446.08,277V236.71L451,236v41Z"/><path d="M478,276.87h-4.17l-.29-2.11h0a16.26,16.26,0,0,1-9.27,2.7c-5.34,0-7.58-3.17-7.58-8.22,0-5.92,3-8,8.75-8h7.63v-4.46c0-3.58-1.58-4.81-6.22-4.81a47.21,47.21,0,0,0-8.57.94l-.53-3.93a40,40,0,0,1,9.39-1.24c8.16,0,10.86,3.17,10.86,9.28Zm-4.93-11.56h-7.28c-3,0-4.17.94-4.17,3.82s.53,4.11,4,4.11a14.27,14.27,0,0,0,7.4-2.35Z"/><path d="M499.52,276.51a17.9,17.9,0,0,1-6,1.05c-4.82,0-7.11-1.76-7.11-6.51V252.5h-5v-4.11h5v-7l4.93-.7v7.74h7.86l-.41,4.11h-7.45v17.73c0,2.11.3,3.17,2.94,3.17a18.18,18.18,0,0,0,4.58-.71h0Z"/><path d="M519.83,240.18a28.72,28.72,0,0,0-4.75-.53c-3.06,0-3.82,1.06-3.82,3.93v4.81h8.16L519,252.5h-7.75V277h-4.93V252.5h-5.05l.41-4.11h4.64v-5.28c0-5.05,2.82-7.57,8.1-7.57a20.38,20.38,0,0,1,5.81.82Z"/><path d="M532.45,277.56c-8.33,0-11.62-4.75-11.62-10.74v-8.27c0-6,3.29-10.74,11.62-10.74s11.62,4.75,11.62,10.74v8.27C544.07,272.81,540.79,277.56,532.45,277.56Zm0-25.47c-4.46,0-6.69,2.11-6.69,6.28V267c0,4.17,2.23,6.28,6.69,6.28s6.69-2.11,6.69-6.28v-8.63C539.14,254.2,536.91,252.09,532.45,252.09Z"/><path d="M563,252.33a62,62,0,0,0-8.16,4.93V277h-4.93V248.39h4.29l.29,4a36.53,36.53,0,0,1,7.87-4.57l.64,4.52Z"/><path d="M600.48,277V255.14c0-1.88-.94-2.64-2.76-2.64-2.35,0-6.51,1.29-9.56,2.88V277h-4.94V255.14c0-1.88-.93-2.64-2.75-2.64-2.12,0-6.52,1.29-9.57,2.88V277H566V248.39h4l.47,2.47h0c3.17-1.53,8.1-3.05,11.5-3.05,2.94,0,4.64,1.11,5.46,3.05a30.49,30.49,0,0,1,11.8-3.05c4.58,0,6.22,2.87,6.22,7.27V277Z"/></svg>