<?xml version="1.0" encoding="UTF-8"?>
<svg width="256px" height="256px" viewBox="0 0 256 256" version="1.1" xmlns="http://www.w3.org/2000/svg" xmlns:xlink="http://www.w3.org/1999/xlink">
    <title>image_config</title>
    <g id="image_config" stroke="none" stroke-width="1" fill="none" fill-rule="evenodd">
        <path d="M75.9166667,36 C63.2583333,36 53,46.2780246 53,58.9793233 L53,196.855263 C53,209.556562 63.2583333,219.834586 75.9166667,219.834586 L180.083333,219.834586 C192.741667,219.834586 203,209.556562 203,196.855263 L203,100.007861 C203,96.1640465 201.466667,92.4037936 198.725,89.729836 L149.441667,40.26162 C146.708333,37.5041012 143,36 139.133333,36 L75.9166667,36 Z" id="Union_237-path" fill="#000001"></path>
        <path d="M65.5,58.9793233 C65.5,53.2136022 70.1666667,48.5341763 75.9166667,48.5341763 L136.333333,48.5341763 L136.333333,96.5818524 C136.333333,100.007861 139.133333,102.848941 142.583333,102.848941 L190.5,102.848941 L190.5,196.855263 C190.5,202.620984 185.833333,207.30041 180.083333,207.30041 L75.9166667,207.30041 C70.1666667,207.30041 65.5,202.620984 65.5,196.855263 L65.5,58.9793233 Z" id="Union_237-path" fill="#D4F2FF"></path>
        <polygon id="Union_237-path" fill="#63D0FF" points="181.658333 90.3147642 148.833333 57.391661 148.833333 90.3147642"></polygon>
        <path d="M87.5,127.5 L162.5,127.5 M87.5,152.5 L162.5,152.5 M87.5,176.5 L137.5,176.5 M87.5,102.5 L112.5,102.5" id="Combined-Shape" stroke="#000001" stroke-width="10" stroke-linecap="round"></path>
    </g>
</svg>