<?xml version="1.0" encoding="UTF-8"?>
<svg width="256px" height="256px" viewBox="0 0 256 256" version="1.1" xmlns="http://www.w3.org/2000/svg" xmlns:xlink="http://www.w3.org/1999/xlink">
    <title>process</title>
    <g id="process" stroke="none" stroke-width="1" fill="none" fill-rule="evenodd">
        <path id="Path-2" d="M121.713779,-2.32040564 L162.705196,27.1459525 C165.811358,29.3787928 165.348853,34.1018299 161.940739,35.7184161 L161.740853,35.8081944 L115.272577,55.5379134 L111.364409,46.3332287 L140.264,34.062 L116.278,31.392 L115.811984,31.4210319 C98.4009185,32.5639384 82.7221834,38.1286149 68.674916,48.1466087 L67.9739118,48.6512196 C44.061639,66.0245027 30.9548828,92.039543 28.624225,127.119411 L28.5568974,128.185212 L18.5748012,127.587085 C20.8801811,89.1127991 35.3973733,59.9587804 62.0960592,40.5610496 C78.1112836,28.9253081 96.1547002,22.5212789 116.11502,21.3837703 C116.301269,21.3731562 116.487893,21.3729781 116.674017,21.3832124 L116.952719,21.4063701 L141.369,24.124 L115.876925,5.79939345 L121.713779,-2.32040564 Z" fill="#000001" fill-rule="nonzero"></path>
        <path id="Path-2" d="M182.42107,36.026463 C214.588089,57.2601235 232.577614,84.4093901 236.027199,117.229996 C238.096434,136.917458 234.620778,155.745529 225.625729,173.600428 C225.541797,173.767031 225.448639,173.928741 225.346714,174.084812 L225.187308,174.314596 L210.625,194.1 L239.241243,181.18642 L243.354768,190.301183 L197.340445,211.067612 C193.848962,212.643331 189.984234,209.871685 190.299956,206.104114 L190.320895,205.901346 L196.468595,155.793779 L206.39417,157.011548 L202.571,188.172 L216.877,168.734 L217.084724,168.31936 C224.800471,152.669482 227.820687,136.308961 226.168483,119.134673 L226.08198,118.27528 C222.992412,88.8800031 207.016104,64.5216992 177.801376,44.9633563 L176.912029,44.3721482 L182.42107,36.026463 Z" fill="#000001" fill-rule="nonzero"></path>
        <path id="Path-2" d="M29.7872538,144.16888 L29.9553572,144.29046 L70.2759331,174.668308 L64.2585265,182.655223 L39.183,163.763 L48.865,185.873 L49.1203973,186.259608 C58.8157162,200.76658 71.474235,211.562425 87.1737058,218.718718 L87.9612138,219.0735 C114.963055,231.095494 144.046119,229.438758 175.591504,213.917233 L176.548179,213.442639 L181.021234,222.386452 C146.548835,239.627077 114.042118,241.63183 83.8938474,228.208955 C65.8093874,220.157234 51.2416271,207.733192 40.2763559,191.015802 C40.1740394,190.859813 40.0805732,190.698281 39.9963743,190.531975 L39.8770784,190.279033 L30.022,167.774 L26.8989371,199.014187 L16.9485578,198.019222 L21.9714642,147.786435 C22.3524717,143.976078 26.6825108,142.014984 29.7872538,144.16888 Z" fill="#000001" fill-rule="nonzero"></path>
        <path d="M104,102.433218 L104,155.566782 C104,158.328206 106.238576,160.566782 109,160.566782 C109.838447,160.566782 110.663432,160.355935 111.399062,159.953638 L159.978321,133.386856 C162.401115,132.061891 163.29108,129.023732 161.966115,126.600938 C161.507252,125.761875 160.817384,125.072007 159.978321,124.613144 L111.399062,98.0463619 C108.976268,96.7213967 105.938109,97.6113624 104.613144,100.034156 C104.210847,100.769785 104,101.59477 104,102.433218 Z" id="Path-6" stroke="#000000" fill="#D4F2FF"></path>
    </g>
</svg>