<svg width="151" height="32" viewBox="0 0 151 32" fill="none" xmlns="http://www.w3.org/2000/svg">
<path fill-rule="evenodd" clip-rule="evenodd" d="M0 3.79272L10.0542 9.60481V31.0288L0 25.2168V3.79272Z" fill="#02A8EF"/>
<path d="M15.0332 6.29771L4.10278 0V4.36806L11.5388 8.66417V21.7812L15.0358 23.7905C17.1992 25.0392 18.9696 24.3044 18.9696 22.1281V12.5029C18.967 10.3394 17.1915 7.54903 15.0332 6.29771Z" fill="#02A8EF"/>
<path d="M49.4814 24.0144V6.0324H46.0794V13.4304H39.4104V6.0324H36.0084V24.0144H39.4104V16.4274H46.0794V24.0144H49.4814ZM51.7876 19.0734C51.7876 22.3674 53.7046 24.2844 58.1866 24.2844C59.8606 24.2844 61.5886 24.0684 63.0736 23.6904L62.6956 20.7474C61.2376 21.0174 59.5366 21.2064 58.2946 21.2064C55.9456 21.2064 55.1896 20.3964 55.1896 18.4794V11.5674C55.1896 9.6504 55.9456 8.8404 58.2946 8.8404C59.5366 8.8404 61.2376 9.0294 62.6956 9.2994L63.0736 6.3564C61.5886 5.9784 59.8606 5.7624 58.1866 5.7624C53.7046 5.7624 51.7876 7.6794 51.7876 10.9734V19.0734ZM64.9754 24.0144H68.3774V18.1824H71.8334C76.0184 18.1824 77.6924 16.4814 77.6924 13.3494V10.8924C77.6924 7.7334 76.1534 6.0324 71.9954 6.0324H64.9754V24.0144ZM74.2904 11.1624V12.9984C74.2904 14.4834 73.7234 15.1854 71.8064 15.1854H68.3774V9.0294H71.8064C73.6694 9.0294 74.2904 9.6774 74.2904 11.1624ZM83.501 24.0144H86.903V18.1824H90.359C94.544 18.1824 96.218 16.4814 96.218 13.3494V10.8924C96.218 7.7334 94.679 6.0324 90.521 6.0324H83.501V24.0144ZM92.816 11.1624V12.9984C92.816 14.4834 92.249 15.1854 90.332 15.1854H86.903V9.0294H90.332C92.195 9.0294 92.816 9.6774 92.816 11.1624ZM107.188 15.3474C107.188 12.0534 105.973 10.5954 101.842 10.5954C100.384 10.5954 98.5748 10.8384 97.3328 11.2164L97.7378 13.7274C98.8988 13.4844 100.195 13.3224 101.383 13.3224C103.489 13.3224 103.894 13.8354 103.894 15.2934V16.6704H100.735C98.0618 16.6704 96.9008 17.6964 96.9008 20.3694C96.9008 22.6374 97.9268 24.2844 100.33 24.2844C101.653 24.2844 103.057 23.9064 104.245 23.1234L104.488 24.0144H107.188V15.3474ZM103.894 20.9904C103.273 21.3414 102.382 21.6654 101.41 21.6654C100.384 21.6654 100.087 21.2604 100.087 20.3424C100.087 19.3434 100.384 19.0464 101.464 19.0464H103.894V20.9904ZM114.429 24.2844C115.509 24.2844 116.778 24.0954 117.642 23.7984L117.237 21.0984C116.292 21.3414 115.347 21.4494 114.51 21.4494C112.62 21.4494 112.053 20.8824 112.053 19.2624V15.6174C112.053 13.9974 112.62 13.4304 114.51 13.4304C115.158 13.4304 116.346 13.5384 117.237 13.7814L117.642 11.0814C116.67 10.7574 115.347 10.5954 114.429 10.5954C110.298 10.5954 108.759 12.1074 108.759 15.6444V19.2354C108.759 22.7724 110.298 24.2844 114.429 24.2844ZM122.609 24.0144V5.0334L119.315 5.4924V24.0144H122.609ZM126.821 10.8654L123.068 17.3724L127.037 24.0144H130.655L126.632 17.3724L130.493 10.8654H126.821ZM134.112 19.3704V18.6954H141.429V15.8874C141.429 13.0524 140.484 10.5954 136.272 10.5954C132.06 10.5954 130.818 12.9444 130.818 15.7254V19.2084C130.818 22.3674 132.249 24.2844 136.38 24.2844C137.946 24.2844 139.728 24.0144 141.213 23.4474L140.7 20.9634C139.269 21.3954 137.946 21.5844 136.677 21.5844C134.679 21.5844 134.112 20.9634 134.112 19.3704ZM134.112 15.4014C134.112 14.1594 134.679 13.2954 136.299 13.2954C137.919 13.2954 138.297 14.1594 138.297 15.4014V16.0494H134.112V15.4014ZM149.514 10.5954C148.353 10.9194 146.787 11.8374 146.058 12.3234L145.842 10.8654H143.061V24.0144H146.355V15.5364C147.543 14.7804 148.569 14.1864 149.838 13.6194L149.514 10.5954Z" fill="black"/>
</svg>
