<?xml version="1.0" standalone="no"?>
<!DOCTYPE svg PUBLIC "-//W3C//DTD SVG 20010904//EN"
 "http://www.w3.org/TR/2001/REC-SVG-20010904/DTD/svg10.dtd">
<svg version="1.0" xmlns="http://www.w3.org/2000/svg"
 width="1690.000000pt" height="686.000000pt" viewBox="0 0 1690.000000 686.000000"
 preserveAspectRatio="xMidYMid meet">

<g transform="translate(0.000000,686.000000) scale(0.100000,-0.100000)"
fill="#000000" stroke="none">
<path d="M13 6843 c-10 -4 -13 -698 -13 -3424 0 -2728 3 -3419 13 -3419 9 0
12 624 12 3087 l0 3088 8420 0 8420 0 3 -3074 c1 -2264 -1 -3077 -9 -3087 -9
-11 -6 -14 15 -14 l26 0 0 3409 0 3410 -22 15 c-20 14 -837 16 -8438 15 -4628
0 -8421 -3 -8427 -6z m7873 -319 c1 -108 -2 -134 -17 -134 -5 0 -9 53 -9 121
0 92 3 120 13 116 8 -3 12 -33 13 -103z m3284 101 c0 -3 -10 -15 -22 -27 l-21
-21 22 -18 c22 -18 22 -18 1 -29 -17 -9 -20 -21 -20 -75 0 -86 -18 -84 -22 3
-3 66 -3 67 -33 70 -37 5 -55 -19 -55 -74 0 -25 -6 -47 -15 -54 -13 -11 -15
-2 -15 69 l0 81 55 0 c51 0 55 2 61 28 9 36 23 52 45 52 11 0 19 -2 19 -5z
m-9419 -16 c37 -19 8 -29 -85 -29 -97 0 -113 4 -95 27 14 16 151 18 180 2z
m8665 -24 c7 -19 14 -50 14 -70 0 -38 2 -40 31 -25 14 8 19 21 19 48 0 39 22
83 35 70 4 -4 -4 -53 -17 -110 -26 -108 -45 -131 -61 -73 -23 81 -33 105 -42
104 -5 -1 -16 -22 -23 -48 -22 -73 -31 -93 -44 -89 -21 7 -63 196 -47 212 10
11 17 -4 27 -64 6 -35 12 -45 27 -45 15 0 21 10 27 42 7 42 24 83 34 83 3 0
12 -16 20 -35z m-10141 -5 c16 -16 34 -30 40 -30 6 0 24 14 40 30 16 17 34 30
41 30 23 0 24 -17 1 -41 -51 -55 -51 -54 -11 -99 27 -30 34 -44 26 -52 -8 -8
-22 -1 -52 25 -22 21 -43 37 -46 37 -3 0 -21 -16 -41 -35 -20 -19 -40 -35 -45
-35 -16 0 -8 37 13 56 40 36 42 51 9 85 -16 18 -30 38 -30 45 0 23 25 16 55
-16z m7160 18 c2 -7 6 -29 9 -49 8 -44 32 -82 39 -59 3 8 10 35 18 60 7 25 16
49 20 54 14 15 39 -15 39 -46 0 -28 25 -78 40 -78 4 0 10 23 13 51 6 51 20 79
39 79 6 0 8 -10 5 -22 -3 -13 -14 -60 -25 -106 -10 -45 -22 -85 -25 -88 -14
-15 -37 21 -43 67 -4 27 -14 55 -25 65 -21 19 -20 22 -42 -71 -15 -64 -36 -79
-48 -35 -4 14 -15 50 -23 81 -18 64 -21 109 -6 109 6 0 12 -6 15 -12z m2535
-70 c-6 -77 -24 -79 -28 -2 -4 68 3 91 21 76 8 -7 11 -30 7 -74z m-1110 48 c0
-8 7 -17 16 -20 15 -6 15 -8 -1 -26 -17 -19 -18 -83 -1 -122 6 -13 4 -18 -8
-18 -23 0 -36 32 -36 89 0 28 -5 51 -12 53 -7 3 -5 13 7 31 19 29 35 35 35 13z
m1905 -13 c12 -18 14 -28 7 -31 -15 -5 -16 -96 -2 -123 9 -16 7 -19 -9 -19
-24 0 -31 19 -31 80 0 30 -6 52 -15 60 -13 10 -12 15 3 36 22 30 26 30 47 -3z
m-9074 -13 l80 0 -3 -67 -3 -68 -100 0 -100 0 -3 64 c-3 65 7 87 36 76 8 -3
49 -5 93 -5z m6115 -29 c19 -37 7 -51 -41 -51 -49 0 -64 -19 -36 -44 20 -18
47 -21 56 -6 4 6 11 8 16 4 13 -8 -6 -30 -30 -37 -27 -7 -78 21 -85 46 -10 39
-6 64 15 91 28 36 87 34 105 -3z m248 7 c14 -23 -2 -37 -18 -15 -16 21 -34 22
-58 0 -24 -21 -23 -65 2 -88 18 -16 23 -17 45 -5 30 16 45 6 23 -16 -23 -23
-66 -20 -91 5 -28 28 -29 91 -2 121 23 25 82 24 99 -2z m189 -20 c16 -33 16
-40 4 -71 -19 -45 -64 -63 -99 -39 -33 23 -38 32 -38 76 0 55 23 78 74 74 36
-3 43 -8 59 -40z m274 23 c14 -18 18 -141 4 -141 -13 0 -21 26 -21 66 0 45
-16 74 -39 74 -24 0 -31 -19 -31 -81 0 -35 -4 -49 -14 -49 -18 0 -25 20 -19
51 7 36 -13 79 -36 79 -26 0 -33 -13 -40 -78 -3 -31 -12 -57 -18 -60 -10 -3
-13 17 -13 77 l0 81 107 -2 c86 -1 110 -4 120 -17z m167 0 c30 -33 17 -56 -32
-59 -47 -3 -63 -22 -41 -48 9 -11 22 -14 41 -10 32 6 37 -8 8 -24 -24 -13 -55
0 -82 34 -24 29 -22 66 4 99 27 33 76 37 102 8z m380 -22 c17 -32 18 -40 6
-69 -35 -84 -140 -60 -140 32 0 55 23 78 75 75 35 -2 43 -7 59 -38z m252 24
c15 -20 19 -143 5 -143 -13 0 -21 27 -21 74 0 45 -13 66 -41 66 -22 0 -29 -20
-29 -80 0 -49 -13 -73 -24 -44 -3 9 -6 45 -6 80 l0 64 51 0 c38 0 55 -5 65
-17z m184 -68 c0 -108 -14 -135 -71 -135 -50 0 -60 18 -12 22 44 3 54 31 13
36 -61 9 -92 87 -54 140 12 18 25 22 70 22 l54 0 0 -85z m70 10 c0 -60 -3 -75
-15 -75 -12 0 -15 15 -15 75 0 60 3 75 15 75 12 0 15 -15 15 -75z m166 58 c16
-21 19 -143 4 -143 -11 0 -18 28 -22 84 -2 25 -10 43 -21 50 -27 16 -47 -17
-47 -76 0 -36 -4 -48 -15 -48 -12 0 -15 15 -15 75 l0 75 51 0 c38 0 55 -5 65
-17z m91 -5 l23 -22 16 22 c8 12 22 22 30 22 13 0 12 -6 -6 -34 -20 -34 -20
-86 1 -86 5 0 9 -9 9 -20 0 -11 -3 -20 -8 -20 -4 0 -13 9 -20 20 -7 11 -18 20
-25 20 -7 0 -18 -9 -25 -20 -13 -22 -32 -27 -32 -9 0 6 9 23 20 38 19 28 19
28 0 64 -30 55 -24 63 17 25z m837 -10 c11 -22 16 -49 14 -78 -3 -45 -3 -45
-46 -51 -65 -8 -96 22 -76 75 3 9 16 16 27 16 16 0 18 -3 9 -12 -17 -17 -15
-48 4 -55 8 -3 23 1 32 10 13 14 14 20 2 41 -10 19 -10 29 -2 39 7 8 9 17 5
20 -11 11 -48 8 -61 -5 -9 -9 -12 -9 -12 3 0 23 10 29 50 29 31 0 39 -5 54
-32z m268 19 c16 -13 22 -29 19 -54 -1 -14 -61 -18 -61 -4 0 5 7 14 15 21 20
16 10 30 -22 30 -22 0 -24 -3 -19 -25 4 -14 2 -34 -4 -45 -15 -27 14 -54 51
-46 21 4 27 2 23 -8 -8 -21 -44 -26 -74 -11 -44 23 -54 94 -18 132 24 25 63
30 90 10z m397 -13 c27 -35 27 -77 -1 -108 -37 -40 -64 -42 -98 -7 -54 54 -26
141 45 141 24 0 39 -7 54 -26z m95 4 l16 -22 23 22 c37 35 52 28 27 -12 -20
-34 -20 -86 1 -86 5 0 9 -9 9 -20 0 -11 -3 -20 -8 -20 -4 0 -13 9 -20 20 -16
26 -30 25 -52 -2 -25 -31 -38 -14 -17 21 22 38 21 57 -4 92 -16 23 -17 29 -5
29 8 0 22 -10 30 -22z m-1274 -48 c0 -5 -9 -10 -20 -10 -11 0 -20 5 -20 10 0
6 9 10 20 10 11 0 20 -4 20 -10z m-9060 -50 c0 -19 -7 -20 -100 -20 -77 0
-100 3 -100 13 0 24 12 27 107 27 86 0 93 -1 93 -20z"/>
<path d="M1600 6480 c0 -30 0 -30 59 -30 51 0 61 3 66 20 10 32 -3 40 -66 40
-59 0 -59 0 -59 -30z"/>
<path d="M7724 6519 c-3 -6 -2 -15 4 -21 15 -15 46 -5 50 15 3 12 -3 17 -22
17 -14 0 -28 -5 -32 -11z"/>
<path d="M8150 6514 c-8 -8 -13 -28 -13 -44 0 -61 52 -81 78 -30 14 27 14 33
0 60 -17 33 -45 39 -65 14z"/>
<path d="M8610 6515 c0 -22 37 -38 44 -19 10 27 7 34 -19 34 -15 0 -25 -6 -25
-15z"/>
<path d="M8972 6518 c-17 -17 -15 -83 3 -98 21 -18 48 -8 63 23 24 50 -29 112
-66 75z"/>
<path d="M9396 6500 c-16 -29 -16 -33 -2 -55 9 -13 24 -29 35 -34 15 -8 20 -6
30 15 14 31 14 59 1 85 -16 28 -43 23 -64 -11z"/>
<path d="M11242 6510 c-18 -29 -15 -64 9 -86 24 -22 49 -11 63 29 20 56 -42
105 -72 57z"/>
<path d="M450 5905 c0 -15 4 -24 10 -20 6 3 10 12 10 20 0 8 -4 17 -10 20 -6
4 -10 -5 -10 -20z"/>
<path d="M4942 5878 c-8 -21 -19 -28 -39 -29 -28 -1 -28 -1 5 -10 27 -8 32
-14 32 -39 0 -40 18 -38 22 2 2 25 9 34 28 39 l25 7 -27 1 c-21 1 -27 7 -30
29 l-4 27 -12 -27z"/>
<path d="M1763 5883 c-20 -8 -15 -23 7 -23 11 0 20 7 20 15 0 15 -6 17 -27 8z"/>
<path d="M1230 5805 c0 -38 2 -66 4 -64 8 7 10 118 3 126 -4 3 -7 -24 -7 -62z"/>
<path d="M2402 5850 c0 -14 2 -19 5 -12 2 6 2 18 0 25 -3 6 -5 1 -5 -13z"/>
<path d="M2550 5803 c0 -36 2 -64 4 -62 9 11 15 129 6 129 -6 0 -10 -30 -10
-67z"/>
<path d="M1330 5835 c0 -8 2 -15 4 -15 2 0 6 7 10 15 3 8 1 15 -4 15 -6 0 -10
-7 -10 -15z"/>
<path d="M1600 5829 c0 -11 4 -18 10 -14 5 3 7 12 3 20 -7 21 -13 19 -13 -6z"/>
<path d="M4220 5840 c0 -5 5 -10 10 -10 6 0 10 5 10 10 0 6 -4 10 -10 10 -5 0
-10 -4 -10 -10z"/>
<path d="M2303 5800 c0 -25 2 -35 4 -22 2 12 2 32 0 45 -2 12 -4 2 -4 -23z"/>
<path d="M1500 5798 c0 -25 3 -29 10 -18 13 20 13 50 0 50 -5 0 -10 -15 -10
-32z"/>
<path d="M2765 5820 c-9 -14 4 -52 16 -45 12 8 12 42 0 50 -5 3 -12 1 -16 -5z"/>
<path d="M1851 5804 c0 -11 3 -14 6 -6 3 7 2 16 -1 19 -3 4 -6 -2 -5 -13z"/>
<path d="M392 5778 c-15 -15 -16 -38 -2 -38 12 0 23 25 18 40 -2 7 -7 7 -16
-2z"/>
<path d="M522 5778 c-15 -15 -16 -38 -2 -38 12 0 23 25 18 40 -2 7 -7 7 -16
-2z"/>
<path d="M2403 5725 c0 -22 2 -30 4 -17 2 12 2 30 0 40 -3 9 -5 -1 -4 -23z"/>
<path d="M16310 5282 c-6 -2 -8 -8 -4 -13 8 -13 237 -12 232 2 -3 9 -204 19
-228 11z"/>
<path d="M420 5225 l-55 -55 57 -57 c32 -31 61 -54 65 -49 4 4 -12 25 -35 47
-23 22 -42 49 -42 59 0 11 18 36 40 56 38 36 49 54 32 54 -4 0 -32 -25 -62
-55z"/>
<path d="M950 5195 c-19 -19 -37 -35 -42 -35 -4 0 -23 14 -41 30 -19 17 -40
30 -46 30 -24 0 -9 -30 35 -69 51 -45 47 -46 112 14 17 16 32 35 32 42 0 25
-18 21 -50 -12z"/>
<path d="M4435 5210 c-7 -12 2 -30 16 -30 12 0 12 27 0 35 -5 3 -12 1 -16 -5z"/>
<path d="M3901 5180 c0 -29 1 -32 10 -17 7 11 7 23 0 35 -9 14 -10 11 -10 -18z"/>
<path d="M16300 5170 c0 -6 47 -10 120 -10 73 0 120 4 120 10 0 6 -47 10 -120
10 -73 0 -120 -4 -120 -10z"/>
<path d="M3744 5115 c1 -59 16 -59 16 0 0 25 -4 45 -9 45 -5 0 -8 -20 -7 -45z"/>
<path d="M16305 5070 c-10 -17 17 -21 125 -18 72 2 105 7 108 16 5 15 -223 18
-233 2z"/>
<path d="M3590 4191 c-11 -21 -14 -409 -4 -448 5 -18 14 -23 38 -23 18 0 37 5
44 12 15 15 17 430 2 459 -7 12 -21 19 -40 19 -19 0 -33 -7 -40 -19z"/>
<path d="M7420 4195 c-6 -8 -10 -22 -8 -32 3 -14 13 -18 48 -18 35 0 45 4 48
18 5 26 -16 47 -48 47 -15 0 -33 -7 -40 -15z"/>
<path d="M2561 4181 c-9 -6 -11 -16 -6 -27 4 -11 11 -35 15 -54 16 -69 88
-345 95 -362 5 -14 19 -18 55 -18 26 0 52 6 57 13 8 10 49 169 68 265 13 66
32 36 60 -93 9 -44 24 -104 32 -132 l14 -53 48 0 c27 0 53 6 58 13 9 11 17 37
58 192 66 248 67 258 22 263 -35 4 -67 -22 -67 -54 0 -12 -6 -49 -14 -81 -7
-32 -19 -85 -26 -118 -7 -33 -16 -66 -20 -74 -8 -16 -9 -15 -30 74 -15 68 -26
109 -47 185 l-18 65 -40 3 c-22 1 -46 -2 -53 -6 -10 -7 -81 -279 -82 -314 0
-5 -4 -8 -8 -8 -9 0 -26 51 -41 122 -28 131 -42 182 -52 194 -13 16 -57 18
-78 5z"/>
<path d="M8432 4177 c-7 -8 -8 -60 -4 -157 l7 -145 36 -3 36 -3 5 148 c3 89 1
153 -5 161 -12 16 -62 16 -75 -1z"/>
<path d="M5756 4125 c-9 -20 -26 -39 -41 -45 -33 -13 -33 -47 0 -62 25 -11 25
-13 25 -130 0 -113 1 -120 25 -143 33 -33 109 -36 125 -4 16 28 6 49 -24 49
-30 0 -36 20 -36 133 0 62 4 87 13 88 6 1 19 2 27 3 9 0 16 13 18 33 3 28 0
32 -25 35 -24 3 -28 8 -31 41 -3 34 -6 37 -32 37 -24 0 -32 -6 -44 -35z"/>
<path d="M3280 4066 c-21 -8 -46 -29 -63 -53 -25 -35 -29 -49 -29 -112 0 -61
4 -78 27 -112 27 -42 55 -58 116 -66 65 -9 159 37 159 78 0 15 -7 19 -33 19
-18 0 -42 -7 -53 -15 -48 -37 -119 -5 -112 52 l3 28 100 3 c55 1 104 7 109 12
5 5 3 29 -4 58 -23 100 -116 145 -220 108z m114 -68 c15 -14 23 -28 18 -35 -6
-9 -66 -17 -109 -14 -21 2 -15 39 9 55 31 22 52 20 82 -6z"/>
<path d="M3840 4057 c-116 -61 -115 -255 0 -314 54 -28 101 -29 157 -3 41 18
88 74 77 92 -3 4 -23 8 -44 8 -31 0 -43 -5 -56 -25 -21 -32 -72 -34 -99 -5
-26 29 -32 127 -11 168 14 27 22 32 53 32 26 0 42 -7 59 -26 18 -19 32 -24 57
-22 41 4 46 26 13 65 -46 54 -136 67 -206 30z"/>
<path d="M4242 4067 c-121 -38 -149 -225 -48 -309 79 -64 221 -40 271 47 41
68 30 181 -22 227 -48 44 -130 58 -201 35z m127 -83 c16 -20 21 -41 21 -84 0
-76 -25 -110 -79 -110 -58 0 -76 26 -76 110 0 84 18 110 76 110 29 0 42 -6 58
-26z"/>
<path d="M4574 4067 c-2 -7 -3 -87 -2 -177 l3 -165 39 -3 c24 -2 42 2 47 10 5
7 9 63 9 124 0 102 2 112 23 132 59 56 87 14 87 -129 0 -59 3 -114 6 -123 7
-19 69 -22 80 -5 4 7 6 44 5 83 -3 124 22 195 70 196 35 0 44 -30 49 -159 l5
-126 35 -3 c21 -2 38 2 45 11 6 9 8 64 5 151 l-5 138 -34 30 c-29 26 -39 29
-74 25 -24 -3 -50 -16 -67 -32 l-28 -27 -20 20 c-47 47 -88 53 -142 21 l-34
-21 -14 21 c-16 24 -79 30 -88 8z"/>
<path d="M5245 4068 c-43 -16 -65 -37 -86 -86 -23 -53 -24 -94 -3 -154 23 -70
79 -108 157 -108 62 0 150 61 132 90 -10 15 -71 12 -85 -5 -7 -8 -29 -15 -50
-15 -32 0 -39 5 -55 34 -31 58 -20 65 102 68 l108 3 -3 40 c-4 48 -27 90 -64
118 -31 23 -110 31 -153 15z m106 -67 c19 -16 22 -23 13 -37 -8 -14 -21 -18
-60 -15 -71 4 -78 12 -44 49 26 27 60 28 91 3z"/>
<path d="M6051 4066 c-116 -42 -147 -199 -59 -292 73 -78 225 -65 280 24 18
29 22 51 22 109 0 65 -2 75 -30 109 -47 59 -134 79 -213 50z m121 -68 c27 -21
41 -93 27 -136 -17 -55 -37 -72 -80 -72 -52 0 -79 38 -79 113 0 72 26 107 79
107 20 0 44 -6 53 -12z"/>
<path d="M6577 4073 c-9 -8 -9 -316 -1 -337 4 -11 19 -16 44 -16 47 0 50 9 50
143 0 91 2 100 25 122 29 30 58 32 85 5 17 -17 20 -33 20 -122 0 -139 3 -148
50 -148 46 0 50 10 49 130 0 170 -29 225 -117 225 -33 0 -57 -7 -79 -23 l-33
-23 -10 25 c-8 21 -16 26 -43 26 -19 0 -37 -3 -40 -7z"/>
<path d="M7055 4066 c-40 -17 -61 -51 -73 -117 -18 -96 10 -184 69 -215 39
-20 78 -18 117 6 18 11 37 18 43 15 21 -13 4 -88 -25 -107 -22 -15 -73 -8 -91
12 -19 21 -60 26 -84 11 -12 -8 -13 -14 -3 -36 24 -53 144 -76 223 -42 20 8
45 30 58 50 20 33 21 45 19 234 l-3 198 -31 3 c-20 2 -36 -4 -48 -17 -18 -19
-18 -19 -49 0 -37 22 -79 24 -122 5z m141 -77 c27 -30 27 -148 0 -178 -29 -31
-81 -28 -103 6 -26 39 -25 144 1 172 25 28 77 28 102 0z"/>
<path d="M7416 4065 c-9 -25 -7 -318 3 -333 5 -8 23 -12 47 -10 l39 3 0 175 0
175 -41 3 c-31 2 -43 -1 -48 -13z"/>
<path d="M7608 4064 c-2 -9 -1 -89 2 -178 l5 -161 37 -3 c45 -4 46 -1 50 146
3 97 5 104 28 122 33 25 62 25 86 -1 18 -20 23 -74 24 -256 0 -20 76 -17 84 3
12 32 6 234 -8 268 -18 43 -61 76 -100 76 -29 0 -40 -5 -95 -38 -19 -11 -22
-10 -31 13 -8 20 -16 25 -44 25 -24 0 -36 -5 -38 -16z"/>
<path d="M8010 4065 c0 -8 23 -46 50 -84 28 -38 50 -72 50 -76 0 -4 -25 -41
-55 -83 -30 -42 -55 -82 -55 -89 0 -8 14 -13 39 -13 42 0 57 13 93 79 9 17 23
31 31 31 8 0 31 -25 51 -55 34 -51 39 -55 76 -55 54 0 52 15 -10 101 -27 38
-50 77 -50 87 0 9 23 49 50 87 28 38 50 73 50 77 0 5 -19 8 -42 8 -40 0 -45
-3 -77 -50 -19 -28 -40 -50 -47 -50 -8 0 -21 14 -29 31 -26 49 -52 69 -90 69
-25 0 -35 -5 -35 -15z"/>
<path d="M8427 3803 c-9 -8 -9 -46 -1 -67 4 -11 19 -16 44 -16 31 0 39 4 43
22 4 12 4 33 1 45 -5 19 -13 23 -43 23 -21 0 -41 -3 -44 -7z"/>
<path d="M2667 3042 c-18 -36 -9 -213 11 -220 9 -3 12 15 12 68 0 39 5 80 11
91 7 15 7 24 0 33 -8 10 -7 17 4 26 8 7 12 16 9 21 -11 18 -33 8 -47 -19z"/>
<path d="M4176 3062 c-3 -5 -6 -60 -7 -123 -1 -91 1 -114 12 -114 10 0 16 20
20 67 3 37 11 74 18 82 11 13 10 17 -3 22 -9 4 -16 18 -16 34 0 29 -14 48 -24
32z"/>
<path d="M7516 3063 c-9 -9 -7 -216 2 -228 4 -5 29 -11 56 -13 69 -5 86 14 86
93 0 74 -19 98 -72 93 -29 -3 -33 0 -36 24 -3 25 -24 43 -36 31z m100 -94 c12
-13 18 -34 18 -60 -3 -98 -84 -90 -84 9 0 28 24 72 39 72 4 0 16 -9 27 -21z"/>
<path d="M10373 3044 c-13 -21 -17 -44 -15 -103 3 -90 8 -111 28 -111 11 0 14
16 14 73 0 39 4 79 10 87 5 9 5 19 -1 26 -6 8 -5 17 5 27 14 13 14 16 0 21
-22 9 -22 9 -41 -20z"/>
<path d="M10635 3059 c-10 -26 -1 -234 10 -232 13 4 19 223 6 236 -7 7 -12 5
-16 -4z"/>
<path d="M11857 3063 c-6 -11 -6 -193 0 -220 13 -56 23 -13 23 96 0 105 -8
149 -23 124z"/>
<path d="M12903 3063 c-7 -3 -13 -17 -13 -33 0 -16 -6 -30 -12 -32 -10 -4 -10
-10 0 -32 6 -15 12 -38 12 -51 0 -33 -20 -75 -36 -75 -19 0 -43 28 -50 57 -8
30 21 93 43 93 7 0 13 5 13 10 0 17 -46 11 -63 -8 -12 -13 -17 -37 -17 -79 0
-77 16 -93 88 -90 61 2 61 3 59 144 -2 95 -4 103 -24 96z"/>
<path d="M13605 3057 c-10 -24 -1 -232 10 -232 5 0 12 13 15 30 7 43 33 43 60
1 22 -36 40 -47 40 -23 0 7 -12 30 -26 51 -23 34 -25 41 -13 62 7 13 16 24 21
24 4 0 8 10 8 23 -1 21 -3 20 -29 -10 -43 -51 -61 -44 -61 21 0 53 -14 82 -25
53z"/>
<path d="M2579 3056 c-9 -9 6 -231 16 -231 6 0 11 48 13 118 2 93 0 117 -11
117 -8 0 -16 -2 -18 -4z"/>
<path d="M5712 2945 c3 -121 21 -161 26 -58 4 92 29 125 65 85 12 -13 17 -37
17 -80 0 -48 3 -62 15 -62 22 0 21 127 -1 158 -16 23 -58 30 -69 12 -11 -18
-25 0 -25 31 0 19 -5 29 -15 29 -13 0 -15 -17 -13 -115z"/>
<path d="M6558 3053 c7 -3 16 -2 19 1 4 3 -2 6 -13 5 -11 0 -14 -3 -6 -6z"/>
<path d="M10712 2948 c3 -98 5 -113 21 -116 15 -3 17 7 17 112 0 110 -1 116
-20 116 -20 0 -21 -5 -18 -112z"/>
<path d="M11770 2956 c0 -105 5 -136 21 -136 5 0 9 54 9 120 0 100 -2 120 -15
120 -12 0 -15 -18 -15 -104z"/>
<path d="M12240 3037 c0 -13 -5 -28 -11 -34 -7 -7 -7 -22 1 -50 24 -80 -24
-148 -64 -91 -30 43 -10 128 30 128 8 0 12 5 9 10 -10 16 -41 11 -60 -10 -27
-29 -26 -123 1 -151 18 -17 28 -19 72 -13 l52 7 0 113 c0 95 -3 114 -15 114
-9 0 -15 -9 -15 -23z"/>
<path d="M11503 3028 c-14 -17 -2 -183 14 -199 6 -6 19 -9 29 -5 15 6 16 8 0
24 -19 22 -22 122 -4 140 10 10 8 17 -8 33 -17 16 -23 18 -31 7z"/>
<path d="M4082 3017 c-7 -8 -7 -18 -2 -27 6 -8 10 -44 10 -80 0 -65 10 -90 37
-90 7 0 13 7 13 15 0 8 -4 15 -10 15 -14 0 -13 123 2 138 8 8 8 15 -2 27 -15
18 -34 19 -48 2z"/>
<path d="M5623 3018 c-11 -19 -3 -158 10 -180 7 -10 22 -18 34 -18 26 0 31 15
8 24 -11 4 -15 21 -15 68 0 35 4 70 10 78 5 9 5 19 -2 27 -13 16 -35 17 -45 1z"/>
<path d="M3012 2990 c-17 -17 -22 -32 -22 -75 0 -43 5 -58 22 -75 28 -26 68
-26 102 1 22 18 26 28 26 74 0 46 -4 56 -26 74 -34 27 -74 27 -102 1z m82 -22
c28 -40 10 -128 -26 -128 -44 0 -66 94 -31 132 21 24 39 23 57 -4z"/>
<path d="M3472 2994 c-36 -25 -25 -55 31 -84 35 -19 47 -30 45 -45 -4 -25 -33
-31 -64 -14 -30 16 -44 4 -18 -16 31 -23 77 -19 104 10 31 33 21 52 -44 83
-41 20 -45 24 -36 42 12 23 23 25 50 8 26 -16 40 0 16 18 -26 18 -56 18 -84
-2z"/>
<path d="M3646 2989 c-22 -17 -26 -28 -26 -73 0 -42 5 -57 23 -74 29 -28 78
-29 102 -2 16 17 16 20 2 20 -9 0 -19 -4 -22 -10 -11 -18 -50 -11 -63 11 -17
28 -11 33 51 39 48 5 52 7 55 32 2 20 -4 35 -24 53 -33 30 -63 32 -98 4z m75
-15 c27 -25 13 -54 -27 -54 -42 0 -54 22 -29 50 22 24 33 25 56 4z"/>
<path d="M3843 2998 c-40 -19 -44 -135 -6 -164 24 -18 78 -18 93 1 16 19 5 34
-12 17 -18 -18 -43 -15 -63 8 -25 27 -11 38 50 42 45 3 50 5 53 29 2 17 -6 34
-24 52 -28 28 -54 33 -91 15z m61 -21 c28 -21 17 -51 -20 -55 -39 -4 -53 22
-28 49 20 23 25 23 48 6z"/>
<path d="M4240 3005 c0 -3 9 -15 20 -27 15 -16 20 -36 20 -74 0 -56 7 -84 21
-84 5 0 9 35 9 78 0 64 -4 82 -18 95 -17 16 -52 23 -52 12z"/>
<path d="M4365 2989 c-9 -37 -1 -164 10 -162 13 4 19 163 6 176 -7 7 -12 2
-16 -14z"/>
<path d="M4460 2992 c-36 -29 -21 -65 35 -87 37 -14 46 -21 43 -38 -4 -26 -32
-33 -64 -16 -30 15 -40 7 -19 -15 23 -22 78 -20 99 3 30 32 17 63 -36 88 -51
24 -57 33 -33 53 12 10 21 10 42 1 32 -15 45 -4 19 15 -27 19 -59 18 -86 -4z"/>
<path d="M4760 3002 c0 -4 10 -12 23 -17 46 -21 29 -145 -20 -145 -22 0 -35
51 -29 108 6 51 5 53 -16 50 -22 -3 -23 -7 -26 -116 -2 -104 -1 -113 15 -110
10 2 19 13 21 26 3 18 10 22 41 22 54 0 71 23 71 97 0 45 -4 64 -18 76 -19 17
-62 23 -62 9z"/>
<path d="M4910 2995 c-18 -22 -4 -31 25 -15 20 11 27 11 40 0 24 -20 13 -34
-30 -40 -30 -4 -43 -12 -55 -32 -13 -25 -13 -31 0 -55 16 -28 70 -46 70 -24 0
6 -6 11 -14 11 -26 0 -40 28 -28 55 9 19 19 25 42 25 25 0 30 -4 30 -24 0 -14
-5 -28 -11 -32 -8 -4 -4 -13 12 -25 34 -26 53 -25 44 4 -4 12 -9 48 -12 80 -4
43 -11 61 -26 72 -28 19 -71 19 -87 0z"/>
<path d="M5092 2987 c-17 -18 -22 -36 -22 -76 0 -69 23 -96 75 -88 26 4 35 2
35 -8 0 -20 -31 -34 -63 -28 -37 7 -35 -14 3 -22 43 -9 82 13 92 53 5 18 8 65
6 105 -3 71 -4 72 -30 72 -14 0 -30 3 -34 8 -14 14 -41 7 -62 -16z m81 -26
c21 -36 21 -54 2 -91 -18 -34 -35 -38 -58 -12 -27 29 -29 64 -7 100 24 40 41
41 63 3z"/>
<path d="M5286 2985 c-34 -31 -37 -99 -5 -139 26 -33 77 -36 104 -6 16 17 16
20 2 20 -9 0 -19 -4 -22 -10 -10 -17 -41 -11 -60 10 -25 27 -11 38 50 42 48 3
50 4 53 34 2 25 -3 37 -24 53 -35 28 -65 27 -98 -4z m75 -11 c26 -23 8 -54
-30 -54 -36 0 -48 26 -25 51 21 23 32 24 55 3z"/>
<path d="M5915 2985 c-35 -34 -35 -112 -2 -143 27 -26 81 -29 104 -7 22 22 12
27 -25 13 -29 -11 -34 -10 -54 10 -28 27 -19 35 45 42 50 5 52 6 55 36 2 25
-3 37 -24 53 -35 28 -69 27 -99 -4z m80 -15 c24 -26 13 -50 -24 -50 -39 0 -56
28 -34 52 21 23 36 23 58 -2z"/>
<path d="M6240 3002 c0 -4 9 -13 20 -20 16 -10 20 -23 20 -71 0 -63 6 -91 21
-91 5 0 9 35 9 78 0 64 -4 82 -18 95 -19 17 -52 23 -52 9z"/>
<path d="M6376 2991 c-25 -27 -25 -124 -1 -151 10 -11 29 -20 42 -20 29 0 30
12 1 25 -42 19 -46 109 -6 134 32 20 53 -8 51 -67 -1 -26 -3 -63 -3 -82 -1
-41 -12 -50 -57 -43 -41 7 -45 -13 -4 -22 39 -8 79 3 92 27 14 25 24 148 15
183 -6 24 -11 27 -36 21 -17 -3 -30 -1 -30 4 0 17 -46 11 -64 -9z"/>
<path d="M6717 2992 c19 -14 23 -29 25 -87 2 -57 6 -70 21 -73 15 -3 17 5 17
58 0 83 -20 120 -65 120 -19 0 -19 -1 2 -18z"/>
<path d="M6820 2998 c0 -7 9 -24 20 -38 20 -25 27 -70 12 -70 -10 0 -32 -45
-32 -63 1 -7 13 3 29 21 30 35 55 35 66 2 7 -22 35 -35 35 -16 0 7 -9 25 -20
39 -24 30 -25 55 -5 81 8 11 15 26 15 33 0 21 -21 15 -27 -7 -6 -22 -53 -29
-53 -7 0 7 -9 18 -20 25 -16 10 -20 10 -20 0z"/>
<path d="M7161 2991 c-6 -11 -15 -37 -19 -57 -14 -67 -28 -54 -58 54 -5 18
-24 14 -24 -5 0 -10 7 -38 15 -63 8 -25 17 -58 20 -73 9 -45 35 -30 55 33 9
30 21 54 26 53 5 -1 15 -27 23 -57 14 -58 32 -71 51 -37 5 11 10 30 10 43 0
13 4 28 9 33 5 6 12 26 16 46 8 44 -11 64 -21 22 -9 -40 -34 -93 -44 -93 -4 0
-11 22 -15 49 -8 59 -28 83 -44 52z"/>
<path d="M7352 2990 c-43 -40 -41 -125 3 -154 31 -20 79 -21 95 -1 18 22 8 26
-28 13 -27 -11 -34 -10 -48 4 -28 27 -10 48 39 48 56 0 72 17 55 56 -25 56
-76 71 -116 34z m72 -19 c25 -27 11 -53 -28 -49 -37 4 -47 32 -19 53 24 19 27
18 47 -4z"/>
<path d="M7808 2996 c-10 -7 -18 -25 -18 -40 0 -23 8 -30 50 -48 28 -11 50
-24 50 -29 0 -37 -33 -50 -70 -27 -24 15 -37 4 -20 -17 18 -22 83 -19 105 5
28 31 13 66 -41 89 -34 16 -45 25 -40 37 3 8 6 18 6 20 0 8 31 4 50 -8 26 -16
40 0 16 18 -25 17 -65 18 -88 0z"/>
<path d="M7982 2990 c-34 -32 -33 -125 1 -152 27 -22 80 -23 97 -3 16 19 5 34
-12 17 -28 -28 -88 -2 -75 32 4 10 24 16 59 18 49 3 53 5 56 29 4 33 -41 79
-77 79 -15 0 -37 -9 -49 -20z m78 -21 c18 -32 5 -51 -32 -47 -39 4 -50 32 -21
53 25 20 41 18 53 -6z"/>
<path d="M8185 3001 l-30 -6 -3 -83 c-2 -68 0 -82 13 -82 12 0 15 13 15 59 0
71 26 115 54 92 8 -7 20 -27 25 -45 39 -126 63 -144 90 -66 9 25 19 50 22 55
4 6 10 25 14 43 12 59 -19 37 -39 -28 -11 -33 -24 -59 -30 -57 -6 2 -18 24
-26 49 -26 77 -37 84 -105 69z"/>
<path d="M8457 2999 c-28 -16 -50 -68 -43 -102 14 -69 90 -102 131 -57 14 16
15 20 4 20 -8 0 -20 -5 -26 -11 -15 -15 -59 -4 -67 18 -9 22 10 33 60 33 46 0
58 15 48 55 -11 44 -68 67 -107 44z m64 -25 c27 -24 13 -54 -26 -54 -39 0 -51
24 -27 53 19 21 30 22 53 1z"/>
<path d="M8613 2994 c-8 -22 2 -169 12 -167 6 1 13 30 16 63 3 34 13 68 22 78
10 10 17 23 17 29 0 14 -61 11 -67 -3z"/>
<path d="M8902 2990 c-37 -35 -28 -58 33 -82 31 -12 40 -21 40 -39 0 -30 -38
-38 -64 -15 -23 21 -36 8 -14 -16 30 -33 109 -18 113 22 5 38 -2 48 -45 64
-53 21 -59 27 -41 51 12 17 17 17 45 5 37 -15 53 -6 25 15 -27 21 -67 18 -92
-5z"/>
<path d="M9152 2990 c-12 -12 -22 -23 -22 -26 0 -18 24 -43 52 -54 47 -19 57
-28 51 -50 -6 -22 -33 -26 -65 -9 -25 13 -35 5 -18 -16 7 -9 29 -15 51 -15 49
0 79 36 61 75 -7 14 -16 25 -21 25 -5 0 -25 7 -45 15 -32 14 -35 17 -24 35 15
23 30 25 58 8 26 -16 40 0 16 18 -28 20 -69 17 -94 -6z"/>
<path d="M9317 3003 c-4 -3 -7 -39 -7 -78 0 -93 14 -109 89 -99 l51 7 0 83 c0
68 -3 84 -15 84 -11 0 -15 -11 -15 -42 0 -64 -18 -118 -38 -118 -31 0 -42 22
-42 85 0 59 -10 92 -23 78z"/>
<path d="M9516 2984 c-53 -54 -23 -164 45 -164 34 0 78 33 59 45 -6 4 -19 0
-29 -9 -50 -45 -100 65 -51 114 17 17 22 18 47 5 33 -17 45 -2 17 20 -29 22
-59 18 -88 -11z"/>
<path d="M9686 2989 c-22 -17 -26 -28 -26 -73 0 -42 5 -57 23 -74 29 -27 68
-28 91 -3 22 24 3 39 -20 17 -21 -21 -30 -20 -48 6 -22 31 -20 91 2 111 16 15
20 15 40 1 30 -20 49 -8 26 17 -22 25 -55 24 -88 -2z"/>
<path d="M9856 2989 c-22 -17 -26 -28 -26 -73 0 -42 5 -57 23 -74 29 -28 78
-29 102 -2 16 17 16 20 2 20 -9 0 -19 -4 -22 -10 -10 -17 -41 -11 -60 10 -25
27 -11 38 50 42 46 3 50 5 53 30 4 34 -36 78 -71 78 -13 0 -36 -9 -51 -21z
m75 -15 c26 -24 8 -54 -32 -54 -37 0 -48 24 -24 50 22 24 33 25 56 4z"/>
<path d="M10040 2992 c-35 -29 -21 -63 35 -86 37 -15 45 -23 43 -40 -3 -24
-43 -35 -61 -17 -6 6 -17 11 -24 11 -11 0 -11 -4 -1 -20 17 -27 77 -27 106 0
12 12 22 23 22 26 0 20 -27 46 -64 63 -37 16 -44 23 -39 40 6 22 37 29 48 11
3 -5 16 -10 27 -10 20 0 21 1 3 20 -23 25 -66 26 -95 2z"/>
<path d="M10208 2997 c-16 -13 -22 -29 -19 -55 0 -7 21 -21 45 -32 49 -21 59
-31 50 -54 -7 -19 -37 -21 -64 -4 -24 15 -37 4 -20 -17 18 -22 83 -19 104 4
29 32 17 63 -34 87 -25 12 -45 26 -44 33 2 27 5 31 19 31 8 0 24 -5 35 -12 26
-16 40 0 16 18 -24 17 -65 18 -88 1z"/>
<path d="M11058 2994 c-6 -33 4 -174 13 -174 12 0 12 177 0 185 -5 3 -11 -2
-13 -11z"/>
<path d="M11210 3002 c0 -4 9 -13 20 -19 16 -10 20 -26 22 -85 2 -40 8 -73 13
-73 6 0 11 33 13 74 2 58 -1 77 -14 92 -17 19 -54 26 -54 11z"/>
<path d="M11348 2996 c-10 -7 -18 -25 -18 -40 0 -23 8 -30 48 -48 58 -25 55
-22 47 -47 -4 -15 -15 -21 -36 -21 -16 0 -29 5 -29 10 0 6 -7 10 -15 10 -8 0
-15 -4 -15 -8 0 -35 86 -44 115 -12 28 31 13 64 -40 85 -30 13 -45 25 -45 37
0 25 26 33 56 18 30 -17 44 -5 18 15 -24 18 -63 19 -86 1z"/>
<path d="M11608 2996 c-23 -17 -23 -26 2 -26 11 0 20 5 20 11 0 21 45 4 48
-18 3 -20 -1 -23 -30 -23 -46 -1 -68 -20 -68 -62 0 -39 15 -58 46 -58 32 0 39
17 10 24 -29 7 -36 23 -25 54 6 16 16 22 40 22 31 0 32 -1 27 -38 -5 -33 -2
-39 20 -50 31 -14 45 -7 32 18 -5 10 -10 39 -10 63 0 78 -60 123 -112 83z"/>
<path d="M11956 2984 c-36 -37 -37 -104 -1 -139 28 -29 85 -34 105 -10 18 22
8 26 -29 12 -29 -11 -34 -10 -47 8 -22 29 -12 40 42 45 46 5 49 7 52 37 7 66
-72 96 -122 47z m77 -9 c30 -22 18 -50 -23 -50 -40 0 -51 22 -25 49 20 19 25
19 48 1z"/>
<path d="M12428 2996 c-23 -17 -23 -26 2 -26 11 0 20 5 20 11 0 21 45 4 48
-18 3 -20 -1 -23 -31 -23 -41 0 -67 -25 -67 -66 0 -36 16 -54 46 -54 33 0 38
17 8 24 -21 6 -25 12 -22 39 3 29 6 32 38 32 36 0 40 -7 27 -50 -5 -15 0 -23
20 -32 27 -13 48 -8 37 8 -3 6 -10 40 -14 76 -9 70 -26 92 -70 92 -14 0 -33
-6 -42 -13z"/>
<path d="M12678 2993 c19 -13 22 -24 22 -78 0 -35 3 -70 6 -79 13 -33 24 -2
24 68 0 78 -15 107 -56 105 -17 0 -17 -1 4 -16z"/>
<path d="M13142 2998 c-14 -14 -16 -78 -3 -78 36 0 51 32 35 74 -7 19 -16 20
-32 4z"/>
<path d="M13325 2985 c-19 -18 -25 -35 -25 -68 0 -82 62 -122 125 -81 22 14
25 23 25 79 0 56 -3 65 -25 79 -35 23 -72 20 -100 -9z m77 -12 c26 -30 30 -60
12 -98 -19 -41 -45 -46 -68 -13 -21 29 -20 72 0 103 19 29 35 31 56 8z"/>
<path d="M13527 3003 l-28 -4 3 -85 c4 -101 22 -117 26 -23 2 51 7 71 22 84
20 18 27 36 13 34 -5 -1 -21 -4 -36 -6z"/>
<path d="M13776 2994 c-3 -9 -6 -44 -6 -79 0 -69 7 -98 21 -89 5 3 9 43 9 89
0 79 -11 114 -24 79z"/>
<path d="M13855 2988 c-9 -36 -1 -163 10 -163 6 0 13 25 16 55 4 30 10 67 14
82 5 21 2 29 -14 37 -18 10 -21 8 -26 -11z"/>
<path d="M13943 2984 c22 -22 27 -37 29 -90 4 -88 22 -87 26 2 3 78 -15 114
-58 114 l-23 0 26 -26z"/>
<path d="M14068 2996 c-36 -27 -39 -121 -5 -163 11 -15 53 -17 62 -3 3 6 -1
10 -9 10 -27 0 -46 30 -46 74 0 41 21 76 47 76 20 0 33 -48 31 -122 -2 -84 -2
-83 -60 -79 -16 1 -28 -2 -28 -8 0 -15 38 -24 76 -17 28 6 35 13 44 44 6 20
10 71 8 112 -3 74 -3 75 -30 75 -15 1 -30 4 -34 8 -11 11 -37 8 -56 -7z"/>
<path d="M2810 2988 c0 -7 6 -24 13 -38 7 -14 22 -49 32 -79 l20 -53 -28 -22
c-25 -20 -27 -36 -6 -36 16 0 49 44 60 79 6 20 17 50 24 66 7 17 17 43 24 59
13 32 9 41 -14 33 -8 -4 -15 -16 -15 -27 0 -12 -7 -34 -15 -50 -16 -31 -35
-40 -35 -18 0 25 -35 98 -47 98 -7 0 -13 -6 -13 -12z"/>
<path d="M3180 2932 c0 -95 15 -114 83 -109 l52 4 3 88 c2 67 0 86 -10 83 -7
-3 -14 -23 -16 -49 -5 -95 -10 -109 -41 -109 -34 0 -41 17 -41 103 0 44 -3 57
-15 57 -12 0 -15 -14 -15 -68z"/>
<path d="M6172 2916 c2 -48 8 -87 13 -89 6 -1 13 27 17 63 4 36 8 74 10 85 2
14 -3 21 -20 23 -22 3 -23 2 -20 -82z"/>
<path d="M6548 2988 c-2 -7 -2 -46 0 -85 3 -55 7 -73 18 -73 11 0 14 18 14 85
0 66 -3 85 -14 85 -8 0 -16 -6 -18 -12z"/>
<path d="M6638 2988 c-6 -23 3 -168 12 -168 4 0 10 30 13 68 3 37 7 76 9 87 3
22 -27 34 -34 13z"/>
<path d="M8806 2984 c-8 -20 -8 -112 0 -141 13 -49 24 -19 24 67 0 83 -9 112
-24 74z"/>
<path d="M10440 2933 c3 -38 11 -78 18 -91 12 -20 19 -22 65 -19 l52 4 3 87
c2 55 -1 86 -8 86 -5 0 -10 -22 -10 -49 0 -26 -5 -62 -11 -80 -9 -27 -16 -32
-38 -29 -24 3 -26 7 -29 58 -3 78 -10 100 -30 100 -15 0 -17 -8 -12 -67z"/>
<path d="M10790 2993 c0 -5 14 -43 30 -86 24 -61 28 -82 20 -97 -6 -11 -15
-20 -20 -20 -6 0 -10 -7 -10 -15 0 -8 4 -15 10 -15 19 0 49 43 71 103 12 34
26 67 30 72 12 17 15 58 4 62 -6 2 -19 -22 -30 -52 -10 -30 -22 -55 -26 -55
-10 0 -34 46 -43 83 -5 23 -36 40 -36 20z"/>
<path d="M11140 2916 c0 -66 3 -86 14 -86 9 0 15 20 18 68 3 37 7 74 9 82 3 9
-5 16 -18 18 -22 3 -23 1 -23 -82z"/>
<path d="M12594 2987 c-9 -25 0 -150 12 -154 7 -2 13 20 17 59 4 35 8 72 9 83
4 23 -29 34 -38 12z"/>
<path d="M13044 2968 c16 -85 40 -149 55 -146 11 2 17 17 19 45 3 37 1 41 -17
36 -17 -4 -21 -1 -21 20 0 35 -17 77 -31 77 -8 0 -9 -11 -5 -32z"/>
<path d="M13240 2981 c-5 -11 -10 -31 -10 -45 0 -13 -3 -32 -7 -41 -5 -15 -8
-15 -24 6 l-19 24 0 -41 c0 -41 19 -72 38 -60 5 3 14 24 21 48 7 24 17 57 22
74 5 17 9 36 9 42 0 19 -18 14 -30 -7z"/>
<path d="M5466 2845 c-7 -19 3 -47 15 -39 5 3 9 14 9 24 0 24 -16 34 -24 15z"/>
<path d="M14255 2847 c-4 -10 -5 -21 -1 -24 10 -10 18 4 13 24 -4 17 -4 17
-12 0z"/>
<path d="M2582 2712 c-20 -13 -13 -237 8 -237 10 0 16 12 18 35 5 50 18 60 73
60 69 0 61 18 -8 22 l-58 3 0 45 0 45 50 3 c28 1 57 5 65 8 13 4 13 6 0 14
-18 12 -130 13 -148 2z"/>
<path d="M3167 2703 c-4 -3 -7 -53 -7 -110 0 -76 -3 -103 -12 -103 -9 0 -8 -4
2 -10 31 -20 38 -10 42 61 4 75 16 93 52 79 18 -6 21 -17 24 -79 2 -51 6 -71
15 -68 15 4 21 135 8 156 -5 8 -27 15 -53 15 -41 1 -43 2 -46 34 -3 31 -11 39
-25 25z"/>
<path d="M4286 2683 c-10 -21 -12 -50 -7 -117 8 -117 27 -127 35 -19 10 157 8
148 38 148 15 1 30 4 34 8 4 4 -14 7 -39 7 -41 0 -48 -3 -61 -27z"/>
<path d="M5208 2703 c7 -3 16 -2 19 1 4 3 -2 6 -13 5 -11 0 -14 -3 -6 -6z"/>
<path d="M5758 2703 c7 -3 16 -2 19 1 4 3 -2 6 -13 5 -11 0 -14 -3 -6 -6z"/>
<path d="M6765 2700 c4 -6 11 -8 16 -5 14 9 11 15 -7 15 -8 0 -12 -5 -9 -10z"/>
<path d="M7248 2678 c-3 -32 -5 -33 -45 -33 -23 0 -47 -5 -54 -12 -17 -17 -17
-126 0 -146 10 -12 30 -17 72 -17 l59 0 0 120 c0 98 -3 120 -14 120 -9 0 -16
-12 -18 -32z m-20 -56 c33 -21 21 -132 -14 -132 -50 0 -73 81 -34 120 22 22
29 24 48 12z"/>
<path d="M3075 2660 c-15 -16 -29 -21 -60 -18 l-40 3 -3 -88 c-2 -73 0 -87 13
-87 12 0 15 13 15 60 0 47 4 64 21 81 31 31 44 19 49 -52 6 -73 13 -89 41 -89
21 0 26 15 8 26 -7 4 -10 37 -8 92 4 92 -4 107 -36 72z"/>
<path d="M5123 2669 c-8 -8 -10 -37 -7 -83 8 -104 11 -116 35 -116 16 0 19 4
13 18 -13 30 -16 109 -5 131 9 15 9 27 1 41 -12 23 -21 25 -37 9z"/>
<path d="M2896 2643 c-3 -3 -6 -32 -6 -64 0 -75 -6 -89 -40 -89 -34 0 -40 14
-40 92 0 50 -3 59 -17 56 -14 -2 -16 -14 -14 -68 4 -93 9 -100 81 -99 l60 1 0
83 c0 77 -7 104 -24 88z"/>
<path d="M3393 2643 c-52 -10 -71 -97 -32 -147 17 -21 29 -26 66 -26 31 0 43
4 40 13 -2 7 -16 11 -33 9 -20 -2 -36 4 -48 17 -22 24 -15 29 54 33 43 3 45 5
48 36 2 17 -3 38 -10 45 -16 16 -55 25 -85 20z m65 -50 c3 -21 -1 -23 -36 -23
-47 0 -55 6 -39 31 17 29 71 22 75 -8z"/>
<path d="M3544 2641 c-2 -2 -4 -42 -4 -88 0 -67 3 -83 15 -83 12 0 15 13 15
59 0 68 6 91 26 91 8 0 14 6 14 13 0 11 -56 18 -66 8z"/>
<path d="M3770 2643 c-51 -19 -68 -96 -34 -148 21 -32 82 -35 109 -5 18 19 17
20 -3 20 -11 0 -24 -4 -27 -10 -12 -19 -42 -10 -53 15 -24 52 -7 105 33 105
13 0 27 -4 30 -10 7 -12 25 -13 25 -2 -1 26 -48 47 -80 35z"/>
<path d="M3940 2643 c-36 -14 -50 -37 -50 -82 0 -66 20 -91 74 -91 59 0 76 21
76 92 0 34 -5 60 -13 67 -17 14 -67 22 -87 14z m65 -33 c11 -18 8 -90 -5 -105
-17 -20 -50 -19 -66 3 -17 21 -18 84 -2 100 15 15 64 16 73 2z"/>
<path d="M4096 2642 c-3 -3 -6 -43 -6 -89 0 -63 3 -84 13 -81 7 3 14 31 17 74
3 38 8 74 12 80 8 12 -26 27 -36 16z"/>
<path d="M4462 2635 c-18 -13 -22 -25 -22 -71 0 -78 12 -95 60 -92 47 2 55 -4
40 -31 -11 -21 -50 -30 -50 -11 0 6 -9 10 -20 10 -11 0 -20 -3 -20 -6 0 -13
35 -33 57 -34 62 -1 83 38 83 155 l0 85 -39 0 c-22 0 -45 2 -53 5 -7 3 -23 -2
-36 -10z m86 -47 c12 -47 -5 -98 -33 -98 -32 0 -45 19 -45 65 0 46 13 65 47
65 17 0 24 -8 31 -32z"/>
<path d="M4963 2643 c-39 -8 -25 -23 21 -23 51 0 70 -17 29 -25 -72 -15 -103
-48 -87 -92 10 -30 49 -42 81 -25 11 7 23 6 34 -1 22 -14 57 -1 41 15 -7 7
-12 33 -12 59 0 71 -40 106 -107 92z m66 -86 c16 -20 -8 -67 -35 -67 -34 0
-50 26 -34 55 15 27 51 33 69 12z"/>
<path d="M5309 2631 c-20 -16 -24 -28 -24 -76 0 -66 17 -85 76 -85 29 0 42 6
58 26 40 51 17 136 -40 148 -44 8 -44 8 -70 -13z m92 -43 c10 -25 9 -35 -4
-64 -28 -58 -87 -36 -87 32 0 69 66 93 91 32z"/>
<path d="M5561 2640 c-11 -6 -9 -10 8 -19 18 -10 21 -20 21 -82 0 -52 3 -70
13 -67 13 5 22 97 12 135 -6 27 -36 45 -54 33z"/>
<path d="M5863 2642 c-22 -3 -39 -44 -27 -63 3 -6 26 -19 50 -29 33 -14 44
-25 44 -41 0 -20 -4 -21 -45 -16 -32 3 -45 1 -42 -7 5 -15 85 -20 103 -5 32
27 6 88 -38 89 -9 0 -24 7 -33 16 -22 23 -4 39 40 36 19 -2 35 2 35 7 0 10
-52 18 -87 13z"/>
<path d="M6095 2642 c-3 -3 -5 -43 -5 -89 0 -63 3 -84 13 -81 7 3 14 31 17 71
4 50 10 70 24 80 18 13 18 14 -12 19 -18 2 -34 2 -37 0z"/>
<path d="M6408 2643 c-18 -5 -38 -52 -38 -90 0 -13 7 -37 15 -53 14 -26 21
-30 60 -30 43 0 45 -1 45 -30 0 -20 5 -30 15 -30 12 0 15 19 15 115 l0 115
-34 0 c-19 0 -40 2 -48 4 -7 2 -21 2 -30 -1z m66 -29 c16 -16 21 -61 10 -101
-4 -15 -14 -23 -28 -23 -34 0 -46 19 -46 72 0 48 3 52 47 67 1 1 9 -6 17 -15z"/>
<path d="M6569 2637 c-3 -46 4 -134 12 -149 8 -14 22 -18 69 -18 l60 0 0 85
c0 69 -3 85 -15 85 -11 0 -15 -13 -15 -52 0 -80 -8 -98 -40 -98 -34 0 -40 14
-40 90 0 42 -4 59 -15 64 -8 3 -15 0 -16 -7z"/>
<path d="M6766 2643 c-3 -3 -6 -44 -6 -90 0 -67 3 -83 15 -83 12 0 15 16 15
84 0 78 -7 105 -24 89z"/>
<path d="M7000 2642 c-57 -8 -80 -94 -39 -146 18 -23 27 -27 68 -24 25 2 44 7
41 13 -3 5 -20 8 -39 6 -20 -2 -37 3 -42 11 -18 28 -9 37 44 40 48 3 52 5 55
30 6 54 -25 79 -88 70z m58 -49 c3 -21 -1 -23 -37 -23 -33 0 -41 4 -41 18 0
27 10 33 45 30 22 -2 31 -9 33 -25z"/>
<path d="M4180 2620 c16 -16 20 -33 20 -86 0 -48 3 -65 13 -62 16 6 22 121 7
148 -6 12 -21 20 -35 20 l-25 0 20 -20z"/>
<path d="M4358 2568 c4 -83 7 -98 22 -98 6 0 10 33 10 85 0 75 -2 85 -18 85
-16 0 -17 -8 -14 -72z"/>
<path d="M4638 2633 c-3 -5 -2 -42 1 -83 l6 -75 64 0 64 0 0 80 c-1 64 -4 81
-17 83 -12 3 -16 -10 -18 -70 l-3 -73 -31 -3 c-37 -4 -44 12 -44 96 0 45 -11
68 -22 45z"/>
<path d="M4820 2554 c0 -76 2 -85 18 -82 14 3 17 15 19 68 1 46 6 67 17 76 24
17 19 24 -19 24 l-35 0 0 -86z"/>
<path d="M5200 2638 c0 -2 -2 -40 -3 -85 -2 -73 0 -83 15 -83 16 0 18 11 18
85 0 69 -3 85 -15 85 -8 0 -15 -1 -15 -2z"/>
<path d="M5470 2561 c0 -75 11 -105 30 -85 4 5 10 44 12 87 5 75 5 77 -19 77
-22 0 -23 -3 -23 -79z"/>
<path d="M5744 2627 c-3 -8 -4 -45 -2 -83 2 -56 6 -69 21 -72 15 -3 17 6 17
82 0 71 -3 86 -15 86 -9 0 -18 -6 -21 -13z"/>
<path d="M6202 2624 c-7 -8 -13 -37 -14 -65 0 -69 20 -91 81 -87 26 2 45 8 43
13 -2 6 -16 9 -33 7 -32 -4 -59 12 -59 34 0 10 13 14 44 14 59 0 76 8 76 34 0
43 -27 66 -78 66 -29 -1 -52 -7 -60 -16z m97 -23 c14 -25 5 -31 -41 -31 -38 0
-43 5 -32 34 9 23 61 21 73 -3z"/>
<path d="M6840 2554 c0 -76 2 -85 18 -82 13 3 16 12 14 35 -4 38 15 113 28
113 6 0 10 5 10 10 0 6 -16 10 -35 10 l-35 0 0 -86z"/>
<path d="M7340 2486 c0 -9 5 -16 10 -16 6 0 10 4 10 9 0 6 -4 13 -10 16 -5 3
-10 -1 -10 -9z"/>
<path d="M2577 2013 c-4 -3 -7 -57 -7 -120 0 -105 1 -113 19 -113 16 0 20 8
23 43 l3 42 58 3 c87 5 71 32 -19 32 l-44 0 0 39 c0 44 19 66 50 56 26 -8 82
4 74 16 -6 10 -147 13 -157 2z"/>
<path d="M3545 2009 c-10 -26 -1 -234 10 -232 13 4 19 223 6 236 -7 7 -12 5
-16 -4z"/>
<path d="M3625 2010 c-3 -5 1 -10 10 -10 9 0 13 5 10 10 -3 6 -8 10 -10 10 -2
0 -7 -4 -10 -10z"/>
<path d="M4287 2013 c-4 -3 -7 -19 -7 -34 0 -15 -7 -29 -16 -33 -14 -5 -14 -8
0 -28 32 -45 8 -136 -32 -121 -48 18 -57 90 -17 125 30 26 32 38 7 38 -34 0
-56 -37 -56 -95 -1 -77 21 -99 92 -89 l52 7 0 118 c0 109 -5 131 -23 112z"/>
<path d="M5920 2010 c0 -5 5 -10 11 -10 5 0 7 5 4 10 -3 6 -8 10 -11 10 -2 0
-4 -4 -4 -10z"/>
<path d="M6967 2014 c-4 -4 -7 -18 -7 -30 0 -13 -7 -27 -16 -32 -14 -8 -14
-12 2 -45 15 -32 16 -40 3 -73 -17 -45 -29 -50 -59 -26 -33 26 -33 82 0 117
29 31 19 45 -18 24 -24 -13 -27 -21 -30 -80 -2 -54 0 -68 17 -83 16 -15 28
-16 73 -9 l53 8 3 109 c2 101 -4 137 -21 120z"/>
<path d="M8512 1901 c4 -159 23 -163 23 -4 0 86 -3 117 -13 121 -10 3 -12 -22
-10 -117z"/>
<path d="M9717 1993 c-10 -20 -13 -54 -9 -121 4 -79 7 -93 21 -90 12 3 16 17
18 68 3 97 7 138 16 146 13 13 7 24 -13 24 -11 0 -25 -11 -33 -27z"/>
<path d="M5564 1972 c-7 -18 -6 -145 2 -174 5 -18 31 -31 46 -22 5 3 2 14 -7
24 -13 14 -16 32 -12 72 2 29 7 62 11 73 9 27 -28 53 -40 27z"/>
<path d="M5838 1973 c-11 -12 -13 -25 -8 -38 5 -11 9 -47 9 -80 1 -60 12 -85
38 -85 16 0 17 27 2 32 -17 6 -20 98 -4 129 13 24 12 28 -4 43 -16 15 -19 15
-33 -1z"/>
<path d="M8140 1968 c-19 -10 -50 -18 -67 -18 l-33 0 0 -85 c0 -78 2 -85 20
-85 18 0 20 7 20 63 0 49 5 69 20 87 31 35 47 13 52 -70 4 -73 16 -97 43 -86
15 5 15 8 1 28 -19 26 -21 96 -4 133 9 21 9 28 -3 39 -11 10 -20 9 -49 -6z"/>
<path d="M10176 1975 c-14 -11 -17 -20 -11 -42 4 -15 8 -54 9 -85 1 -61 14
-85 41 -74 15 5 15 8 1 28 -19 26 -21 82 -5 127 9 26 9 36 -2 46 -12 12 -17
12 -33 0z"/>
<path d="M2820 1953 c-61 -22 -65 -134 -6 -175 20 -14 64 -8 87 11 19 16 23
28 23 76 0 48 -3 59 -24 76 -25 18 -51 22 -80 12z m75 -66 c10 -50 -9 -87 -43
-87 -44 0 -64 52 -41 104 22 48 74 37 84 -17z"/>
<path d="M2997 1953 l-28 -4 3 -85 c2 -46 8 -85 13 -87 6 -1 13 29 16 67 4 48
11 73 22 81 17 12 24 36 10 34 -5 -1 -21 -4 -36 -6z"/>
<path d="M3189 1947 c-39 -30 -50 -87 -24 -136 42 -82 145 -38 145 62 0 65
-74 110 -121 74z m66 -21 c13 -9 18 -26 18 -58 0 -56 -7 -68 -43 -68 -21 0
-31 6 -36 23 -12 38 -6 89 13 103 23 17 25 17 48 0z"/>
<path d="M3438 1940 c11 -14 19 -44 22 -93 3 -39 10 -72 15 -72 6 0 11 33 13
74 3 79 -11 111 -49 111 -18 0 -18 -1 -1 -20z"/>
<path d="M3798 1937 c18 -19 22 -35 22 -90 0 -55 3 -67 16 -67 14 0 16 11 12
76 -4 78 -18 104 -57 104 -11 0 -9 -6 7 -23z"/>
<path d="M3933 1950 c-49 -20 -60 -114 -18 -155 28 -29 76 -33 99 -9 22 22 21
22 -27 17 -31 -4 -46 -1 -56 10 -21 26 -4 37 55 37 l54 0 0 34 c0 25 -7 40
-26 55 -29 23 -46 25 -81 11z m62 -30 c25 -28 13 -50 -29 -50 -43 0 -53 14
-32 45 20 30 37 32 61 5z"/>
<path d="M4382 1940 c-27 -25 -37 -76 -22 -114 35 -93 150 -63 150 39 0 79
-76 123 -128 75z m68 -10 c24 -13 33 -55 20 -96 -10 -28 -17 -34 -40 -34 -32
0 -40 14 -40 72 0 27 6 45 18 54 21 16 19 16 42 4z"/>
<path d="M4590 1953 c-53 -19 -68 -116 -25 -158 13 -14 34 -25 45 -25 30 0 60
18 60 35 0 17 -16 20 -25 5 -10 -16 -47 -12 -61 8 -16 21 -18 66 -4 93 12 21
49 26 67 8 8 -8 13 -7 18 2 15 24 -36 46 -75 32z"/>
<path d="M4720 1883 c0 -101 12 -115 88 -106 l52 6 0 84 c0 63 -3 84 -12 81
-8 -3 -16 -30 -19 -64 -8 -73 -16 -94 -38 -94 -30 0 -41 22 -41 86 0 42 -5 65
-15 74 -13 11 -15 2 -15 -67z"/>
<path d="M4990 1938 c16 -17 20 -35 20 -89 0 -37 5 -71 10 -74 14 -8 18 8 23
92 4 67 3 72 -20 82 -42 19 -57 14 -33 -11z"/>
<path d="M5088 1940 c11 -14 19 -44 22 -93 3 -40 9 -71 15 -70 6 2 11 37 13
79 3 80 -8 103 -50 104 -17 0 -17 -1 0 -20z"/>
<path d="M5214 1948 c-48 -23 -57 -94 -18 -145 28 -36 66 -44 100 -19 24 18
14 29 -17 18 -31 -11 -56 -5 -63 14 -10 26 3 34 54 34 39 0 50 4 55 19 8 26
-13 67 -42 80 -29 13 -41 13 -69 -1z m60 -21 c29 -21 16 -51 -22 -55 -40 -4
-53 20 -27 48 21 24 26 24 49 7z"/>
<path d="M5460 1938 c16 -17 20 -35 20 -90 0 -54 3 -68 15 -68 12 0 15 15 15
73 0 78 -15 107 -54 107 -15 0 -14 -3 4 -22z"/>
<path d="M5671 1946 c-17 -9 -20 -15 -11 -21 6 -4 23 -2 36 6 18 9 27 10 36 1
18 -18 1 -42 -29 -42 -42 -1 -63 -22 -63 -64 0 -29 5 -39 24 -48 14 -6 33 -7
43 -3 16 7 15 9 -9 18 -45 17 -35 77 12 77 35 0 43 -11 31 -43 -8 -21 -6 -28
14 -41 13 -9 31 -13 40 -9 11 4 13 8 6 13 -6 3 -15 37 -20 75 -10 90 -46 116
-110 81z"/>
<path d="M6034 1948 c-48 -23 -58 -100 -18 -147 52 -62 123 -31 131 56 5 45 2
55 -20 77 -27 27 -57 32 -93 14z m76 -39 c26 -48 4 -109 -40 -109 -23 0 -30 6
-40 34 -24 73 46 139 80 75z"/>
<path d="M6286 1933 c11 -17 18 -50 20 -86 1 -32 7 -64 13 -70 16 -16 24 16
19 83 -4 61 -26 100 -56 100 -12 0 -11 -5 4 -27z"/>
<path d="M6491 1946 c-17 -9 -20 -15 -11 -21 6 -4 23 -1 37 6 22 12 27 11 39
-5 18 -25 9 -36 -30 -36 -19 0 -40 -8 -49 -18 -33 -37 -12 -102 33 -102 29 0
32 16 5 28 -43 20 -26 72 22 72 28 0 39 -21 24 -48 -9 -17 -6 -23 14 -36 14
-9 29 -14 34 -12 8 5 5 74 -5 124 -11 53 -63 76 -113 48z"/>
<path d="M6746 1939 c13 -15 20 -40 22 -90 3 -53 8 -69 19 -69 13 0 15 13 11
77 -5 78 -19 103 -56 103 -12 0 -11 -4 4 -21z"/>
<path d="M7131 1941 c-34 -26 -24 -52 32 -80 30 -15 47 -30 47 -41 0 -25 -28
-33 -61 -16 -34 17 -45 9 -22 -16 23 -25 77 -24 103 4 11 12 20 26 20 31 0 19
-22 47 -36 47 -19 0 -74 31 -74 42 0 17 40 29 61 17 15 -7 24 -8 32 0 7 7 2
13 -17 21 -38 14 -57 12 -85 -9z"/>
<path d="M7565 1935 c19 -18 25 -35 25 -67 0 -52 -7 -64 -41 -73 -22 -5 -27
-2 -33 17 -10 38 -7 103 6 116 9 9 7 13 -5 18 -36 13 -40 1 -40 -112 1 -89 4
-110 16 -112 11 -2 17 6 19 25 2 21 8 27 23 26 42 -5 66 8 81 44 27 63 -5 143
-56 143 -18 0 -17 -2 5 -25z"/>
<path d="M7755 1934 c32 -35 35 -102 5 -129 -26 -23 -45 -14 -59 28 -10 29 -9
42 3 72 13 31 14 37 1 42 -8 3 -22 2 -30 -1 -13 -5 -15 -24 -13 -116 3 -106
17 -148 28 -84 5 27 8 29 44 26 58 -5 76 17 76 94 0 54 -3 65 -22 78 -12 9
-30 16 -40 16 -14 0 -13 -4 7 -26z"/>
<path d="M7887 1949 c-31 -18 -48 -72 -36 -111 24 -71 81 -88 130 -39 72 72
-8 200 -94 150z m79 -54 c3 -14 3 -41 0 -60 -6 -31 -11 -35 -36 -35 -50 0 -70
80 -30 120 25 25 56 13 66 -25z"/>
<path d="M8409 1937 c22 -25 30 -74 17 -114 -8 -26 -43 -40 -59 -24 -12 12
-16 89 -7 126 4 16 0 20 -20 20 l-25 0 0 -110 c0 -90 3 -110 15 -110 8 0 17
11 20 25 5 21 11 25 39 22 52 -5 71 19 71 93 0 66 -17 95 -55 95 -17 0 -17 -2
4 -23z"/>
<path d="M8613 1936 c-23 -20 -28 -32 -28 -71 0 -39 5 -51 28 -71 35 -30 82
-32 98 -3 10 19 9 20 -13 13 -32 -10 -60 -7 -69 8 -15 24 -3 33 48 36 30 2 53
8 56 16 11 27 -6 67 -34 81 -39 20 -53 19 -86 -9z m87 -43 c0 -20 -5 -23 -35
-23 -45 0 -58 25 -26 51 18 15 26 16 42 6 10 -6 19 -22 19 -34z"/>
<path d="M8804 1946 c-26 -19 -11 -32 21 -18 30 14 57 5 53 -17 -2 -9 -17 -18
-38 -21 -51 -9 -60 -17 -60 -55 0 -37 21 -65 50 -65 30 0 33 19 5 26 -22 5
-26 11 -23 38 2 24 8 32 26 34 41 6 53 -4 41 -35 -9 -23 -7 -30 13 -45 26 -19
45 -18 39 3 -2 8 -7 43 -11 78 -8 70 -24 91 -70 91 -14 0 -35 -6 -46 -14z"/>
<path d="M8993 1948 c-48 -23 -38 -60 23 -88 52 -24 61 -37 41 -58 -13 -13
-21 -13 -42 -4 -38 17 -47 15 -35 -8 13 -25 66 -27 98 -4 39 27 26 64 -30 91
-51 24 -57 33 -34 52 11 9 20 10 36 1 28 -15 49 -1 25 17 -22 15 -51 16 -82 1z"/>
<path d="M9173 1950 c-32 -13 -46 -47 -40 -97 8 -70 79 -110 121 -67 22 21 20
27 -6 18 -35 -11 -59 -7 -73 13 -18 24 -3 33 58 33 47 0 47 0 47 34 0 25 -7
40 -26 55 -29 23 -46 25 -81 11z m62 -30 c26 -28 13 -52 -27 -48 -39 4 -50 32
-21 53 24 19 27 18 48 -5z"/>
<path d="M9560 1953 c-53 -19 -68 -116 -25 -158 28 -29 76 -33 100 -9 20 21
14 27 -16 16 -27 -10 -58 -5 -60 9 -6 31 -1 34 46 39 38 4 51 9 53 23 11 58
-41 101 -98 80z m53 -28 c30 -22 18 -50 -23 -50 -26 0 -36 5 -38 19 -2 11 4
26 14 33 22 16 24 16 47 -2z"/>
<path d="M9823 1948 c-23 -11 -43 -55 -43 -95 0 -57 97 -108 130 -68 17 21 8
27 -21 17 -31 -11 -56 -5 -63 14 -10 26 3 34 54 34 38 0 49 4 52 18 7 34 -5
63 -33 77 -32 17 -46 18 -76 3z m77 -55 c0 -20 -5 -23 -35 -23 -45 0 -58 25
-26 51 18 15 26 16 42 6 10 -6 19 -22 19 -34z"/>
<path d="M10015 1950 l-30 -5 0 -83 c0 -99 18 -111 25 -16 4 48 10 69 24 79
26 19 16 32 -19 25z"/>
<path d="M10283 1948 c-12 -6 -24 -20 -27 -32 -29 -109 46 -186 120 -123 22
19 27 33 28 71 1 41 -3 51 -27 72 -30 25 -58 29 -94 12z m88 -56 c14 -38 -12
-92 -44 -92 -34 0 -47 19 -47 66 0 75 65 94 91 26z"/>
<path d="M3350 1861 c0 -73 3 -89 14 -85 9 4 15 28 18 72 3 37 7 74 9 82 2 9
-4 16 -18 18 -22 3 -23 1 -23 -87z"/>
<path d="M3622 1866 c4 -111 23 -115 23 -4 0 57 -4 83 -13 86 -10 3 -12 -15
-10 -82z"/>
<path d="M3710 1866 c0 -68 3 -86 14 -86 11 0 15 18 18 68 2 37 6 74 8 82 3 9
-3 16 -17 18 -22 3 -23 1 -23 -82z"/>
<path d="M4910 1865 c0 -69 3 -85 15 -85 12 0 15 14 15 63 0 34 3 72 6 85 5
18 2 22 -15 22 -20 0 -21 -5 -21 -85z"/>
<path d="M5370 1866 c0 -67 3 -86 14 -86 10 0 15 19 19 63 3 34 7 71 9 82 2
14 -3 21 -19 23 -22 3 -23 1 -23 -82z"/>
<path d="M5919 1946 c-7 -7 -3 -161 4 -163 24 -9 28 2 25 79 -3 71 -13 100
-29 84z"/>
<path d="M6190 1866 c0 -67 3 -86 14 -86 10 0 15 19 19 63 3 34 7 71 9 82 2
14 -3 21 -19 23 -22 3 -23 1 -23 -82z"/>
<path d="M6660 1866 c0 -70 3 -86 15 -86 12 0 15 15 17 70 0 39 1 76 2 82 1 7
-7 14 -16 16 -16 3 -18 -6 -18 -82z"/>
<path d="M7290 1877 c0 -95 13 -109 88 -100 l52 6 0 84 c0 75 -2 84 -17 81
-14 -2 -18 -15 -19 -58 -1 -72 -11 -100 -34 -100 -32 0 -52 43 -48 101 2 35
-1 53 -9 56 -10 4 -13 -15 -13 -70z"/>
<path d="M9410 1865 c0 -69 3 -85 15 -85 11 0 15 12 15 44 0 48 17 106 31 106
5 0 9 5 9 10 0 6 -16 10 -35 10 l-35 0 0 -85z"/>
<path d="M10537 1944 c-10 -11 -8 -152 2 -158 5 -3 11 22 14 57 3 34 7 71 9
81 3 19 -13 32 -25 20z"/>
<path d="M10726 1925 c-9 -13 -16 -40 -16 -60 0 -52 25 -85 64 -84 20 1 24 3
11 6 -51 12 -70 81 -35 125 18 23 18 38 -1 38 -3 0 -14 -11 -23 -25z"/>
<path d="M10823 1943 c-9 -3 -10 -10 -3 -23 14 -26 9 -168 -7 -182 -21 -17
-15 -30 13 -26 25 3 25 3 25 108 1 145 3 136 -28 123z"/>
<path d="M10910 1866 c0 -51 4 -86 10 -86 6 0 10 33 10 79 0 44 -4 83 -10 86
-6 4 -10 -25 -10 -79z"/>
<path d="M11005 1942 c-12 -8 -7 -162 4 -162 10 0 21 152 12 162 -3 4 -11 4
-16 0z"/>
<path d="M11187 1943 c-3 -5 3 -17 14 -26 25 -22 24 -67 -2 -101 -12 -15 -18
-30 -14 -34 4 -4 10 -1 12 6 3 7 14 22 26 32 19 19 22 19 39 3 10 -9 18 -22
18 -30 0 -7 5 -13 10 -13 6 0 10 7 10 15 0 8 -4 15 -9 15 -5 0 -14 14 -21 30
-13 33 -2 80 20 80 5 0 10 8 10 18 -1 14 -5 12 -25 -10 -30 -35 -38 -35 -63
-1 -10 14 -22 22 -25 16z"/>
<path d="M11637 1944 c-10 -11 -8 -164 2 -164 5 0 11 30 13 68 3 37 7 73 9 81
4 15 -13 26 -24 15z"/>
<path d="M11748 1939 c-14 -8 -18 -24 -18 -72 0 -71 10 -87 55 -86 30 0 30 0
5 10 -13 6 -28 15 -32 22 -14 21 -9 94 7 107 29 24 16 39 -17 19z"/>
<path d="M11843 1943 c-21 -4 -21 -6 -7 -45 10 -29 11 -45 3 -60 -6 -11 -8
-35 -5 -53 5 -22 2 -36 -9 -45 -19 -16 -10 -30 18 -30 21 0 22 4 25 120 2 66
2 119 0 119 -1 -1 -13 -4 -25 -6z"/>
<path d="M10635 1923 c5 -10 10 -46 13 -80 2 -35 8 -63 13 -63 13 0 11 117 -1
141 -13 24 -35 26 -25 2z"/>
<path d="M11098 1928 c7 -7 12 -40 12 -80 0 -39 4 -68 10 -68 11 0 14 118 4
144 -3 9 -13 16 -22 16 -12 0 -13 -3 -4 -12z"/>
<path d="M11440 1921 c-18 -35 -12 -98 12 -121 25 -23 74 -26 102 -5 22 17 33
93 17 124 -12 21 -41 29 -41 11 0 -5 4 -10 10 -10 18 0 22 -66 6 -99 -30 -58
-96 -28 -96 44 0 17 7 41 16 53 13 20 13 22 0 22 -8 0 -20 -9 -26 -19z"/>
<path d="M11930 1785 c0 -9 5 -15 11 -13 6 2 11 8 11 13 0 5 -5 11 -11 13 -6
2 -11 -4 -11 -13z"/>
<path d="M10715 1730 c-8 -13 20 -24 41 -16 20 8 9 26 -16 26 -10 0 -22 -5
-25 -10z"/>
<path d="M11730 1725 c0 -9 9 -15 25 -15 16 0 25 6 25 15 0 9 -9 15 -25 15
-16 0 -25 -6 -25 -15z"/>
<path d="M2623 1650 c-43 -26 -53 -48 -53 -115 0 -49 4 -60 29 -86 25 -24 38
-29 78 -29 39 0 54 5 71 23 30 32 17 40 -26 16 -48 -25 -58 -24 -93 10 -40 40
-41 106 -3 145 32 31 56 33 100 6 30 -19 51 -16 36 6 -13 19 -62 44 -84 44
-13 0 -37 -9 -55 -20z"/>
<path d="M6917 1663 c-4 -3 -7 -59 -7 -123 l0 -116 59 -1 c53 -2 61 1 75 22
20 31 20 104 0 130 -11 14 -27 20 -57 20 -39 0 -42 2 -48 33 -8 37 -13 45 -22
35z m103 -123 c22 -53 -18 -119 -57 -94 -24 15 -30 96 -9 117 22 21 52 10 66
-23z"/>
<path d="M4294 1647 c-2 -7 -3 -60 -2 -118 2 -84 6 -104 18 -104 12 0 16 19
18 95 2 52 0 105 -3 118 -6 24 -23 29 -31 9z"/>
<path d="M6638 1550 c-3 -117 -2 -130 13 -130 5 0 9 54 9 120 0 68 -4 120 -9
120 -6 0 -11 -50 -13 -110z"/>
<path d="M7097 1654 c-10 -10 -9 -222 1 -228 4 -2 14 -1 20 3 9 5 12 38 10
116 -3 100 -11 129 -31 109z"/>
<path d="M5496 1611 c-13 -14 -29 -19 -59 -18 l-42 2 0 -82 c0 -98 18 -116 25
-26 6 71 28 105 58 87 12 -8 18 -26 20 -60 4 -77 10 -94 33 -94 16 0 19 4 13
18 -13 30 -16 109 -5 131 9 15 9 27 1 41 -13 25 -22 25 -44 1z"/>
<path d="M7650 1615 c-15 -18 -14 -132 0 -171 6 -14 18 -24 30 -24 21 0 27 14
10 25 -13 8 -13 118 1 132 8 8 7 17 -3 32 -15 25 -21 26 -38 6z"/>
<path d="M2842 1584 c-18 -13 -22 -25 -22 -73 0 -71 17 -91 78 -91 51 0 72 26
72 90 0 36 -5 52 -23 68 -27 26 -73 29 -105 6z m80 -21 c23 -20 24 -85 2 -107
-44 -44 -98 16 -73 82 17 44 41 52 71 25z"/>
<path d="M3015 1590 c-7 -14 4 -165 13 -168 5 -1 11 27 14 67 4 82 16 100 53
83 23 -11 25 -16 25 -83 0 -52 3 -70 13 -67 8 3 13 32 15 86 2 68 0 82 -13 83
-47 4 -117 3 -120 -1z"/>
<path d="M3182 1593 c-10 -4 -7 -9 10 -17 20 -10 23 -19 26 -84 2 -51 7 -72
15 -69 8 2 11 28 8 83 -3 88 -15 105 -59 87z"/>
<path d="M3293 1584 c-8 -21 2 -159 12 -159 6 0 12 32 15 72 3 39 8 75 12 78
4 4 18 5 32 1 24 -6 25 -11 28 -79 2 -39 8 -72 13 -72 13 0 25 147 14 159 -12
13 -121 13 -126 0z"/>
<path d="M3455 1591 c-17 -7 -17 -8 7 -14 26 -7 27 -10 30 -80 2 -39 8 -72 13
-72 6 0 11 32 13 71 2 56 -1 75 -13 88 -18 18 -21 18 -50 7z"/>
<path d="M3592 1593 c-17 -7 -42 -57 -42 -85 0 -13 9 -38 20 -56 19 -31 24
-33 68 -30 27 2 45 7 42 13 -3 6 -14 9 -25 7 -40 -6 -66 7 -63 31 3 19 10 22
61 25 63 3 68 11 42 61 -19 38 -60 51 -103 34z m76 -51 c-5 -24 -71 -24 -76 1
-4 22 36 39 61 25 10 -5 17 -17 15 -26z"/>
<path d="M3773 1593 c-22 -4 -23 -9 -23 -90 0 -63 3 -84 13 -81 7 3 14 32 18
73 4 48 11 70 23 77 15 8 14 30 -2 27 -4 -1 -17 -4 -29 -6z"/>
<path d="M3889 1593 c-41 -11 -55 -99 -24 -147 28 -42 115 -33 115 12 0 12 -5
11 -25 -2 -33 -22 -61 -13 -74 24 -15 44 3 90 36 90 13 0 33 -5 44 -10 23 -13
26 2 3 24 -15 15 -41 19 -75 9z"/>
<path d="M4027 1594 c-4 -4 -7 -45 -7 -91 0 -63 3 -84 13 -81 8 3 13 31 15 83
3 73 -5 105 -21 89z"/>
<path d="M4133 1593 c-27 -10 -11 -23 27 -21 22 1 43 -1 46 -5 10 -10 -6 -27
-26 -27 -57 0 -93 -47 -73 -93 9 -20 18 -22 82 -22 67 0 72 1 66 20 -3 11 -10
46 -14 78 -4 33 -14 63 -22 68 -15 9 -66 11 -86 2z m77 -90 c0 -41 -13 -63
-35 -63 -35 0 -51 25 -35 55 16 31 70 36 70 8z"/>
<path d="M4490 1593 c-53 -20 -26 -83 41 -97 23 -4 29 -11 29 -31 0 -20 -5
-25 -26 -25 -14 0 -34 5 -46 11 -17 9 -19 8 -16 -8 2 -13 14 -19 40 -21 51 -4
78 12 78 46 0 33 -16 52 -45 52 -19 0 -55 27 -55 42 0 12 43 16 66 8 18 -7 24
-6 24 4 0 23 -51 33 -90 19z"/>
<path d="M4644 1593 c-14 -5 -6 -155 9 -165 8 -5 81 -4 117 1 10 2 1 154 -9
164 -14 14 -20 -5 -23 -83 -3 -60 -5 -65 -27 -68 -35 -5 -45 12 -51 87 -3 43
-9 66 -16 64z"/>
<path d="M4824 1591 c-2 -2 -4 -55 -4 -118 0 -94 3 -113 15 -113 9 0 15 9 15
23 0 33 18 46 55 40 42 -7 65 24 65 87 0 68 -16 83 -84 84 -32 1 -60 -1 -62
-3z m100 -27 c9 -9 16 -32 16 -54 0 -71 -61 -98 -79 -35 -20 74 21 132 63 89z"/>
<path d="M5014 1591 c-6 -7 -5 -208 2 -225 8 -22 24 -10 24 18 0 32 18 46 52
39 46 -9 68 18 68 87 0 72 -14 85 -87 85 -30 0 -57 -2 -59 -4z m100 -27 c18
-18 21 -76 6 -105 -15 -28 -54 -24 -68 6 -33 73 14 148 62 99z"/>
<path d="M5232 1593 c-7 -3 -19 -18 -27 -33 -36 -69 -3 -140 65 -140 44 0 66
17 75 60 8 37 -2 85 -22 105 -14 14 -64 19 -91 8z m84 -58 c16 -85 -49 -132
-83 -61 -13 29 -14 39 -4 65 22 51 77 49 87 -4z"/>
<path d="M5664 1587 c-10 -27 1 -160 14 -165 9 -3 12 18 12 82 0 78 -12 118
-26 83z"/>
<path d="M5763 1585 c-13 -9 -23 -22 -23 -29 0 -17 43 -56 62 -56 9 0 24 -7
33 -16 26 -26 0 -47 -47 -40 -38 6 -53 -6 -22 -18 51 -19 114 6 114 46 0 20
-28 44 -61 52 -30 7 -46 35 -27 47 6 4 25 5 41 2 23 -5 29 -3 25 8 -7 20 -69
23 -95 4z"/>
<path d="M6033 1593 c-26 -10 -13 -25 16 -20 17 4 36 0 47 -8 18 -13 17 -14
-11 -20 -50 -10 -79 -29 -89 -58 -16 -44 10 -62 94 -63 65 0 84 6 60 21 -5 3
-10 31 -10 61 0 41 -5 59 -20 74 -19 19 -59 25 -87 13z m72 -84 c4 -5 1 -24
-5 -40 -10 -24 -18 -29 -39 -27 -49 6 -36 78 15 78 12 0 26 -5 29 -11z"/>
<path d="M6184 1593 c-11 -4 -1 -49 17 -78 4 -5 10 -24 13 -42 14 -63 59 -70
71 -11 4 18 11 38 15 43 4 6 10 19 12 30 3 11 9 28 13 38 5 13 2 17 -14 17
-14 0 -21 -6 -21 -19 0 -24 -28 -91 -38 -91 -4 0 -16 24 -26 53 -21 59 -26 66
-42 60z"/>
<path d="M6383 1593 c-27 -10 -12 -25 20 -20 37 6 63 -5 53 -22 -4 -6 -17 -11
-29 -11 -12 0 -32 -8 -45 -18 -19 -15 -23 -26 -20 -58 l3 -39 72 0 72 0 -5 45
c-10 92 -15 110 -34 120 -19 10 -66 12 -87 3z m77 -100 c0 -39 -13 -55 -41
-51 -48 6 -32 78 17 78 20 0 24 -5 24 -27z"/>
<path d="M6743 1593 c-27 -10 -12 -25 20 -19 35 6 63 -6 53 -23 -4 -6 -16 -11
-26 -11 -57 0 -93 -47 -73 -93 9 -20 18 -22 82 -22 67 0 72 1 67 20 -3 11 -6
41 -6 66 0 57 -27 89 -73 88 -18 0 -38 -3 -44 -6z m72 -83 c12 -20 -6 -70 -25
-70 -48 0 -62 22 -38 60 14 21 52 27 63 10z"/>
<path d="M7201 1581 c-44 -44 -29 -143 22 -156 35 -9 80 -2 85 13 3 9 -6 11
-35 6 -29 -4 -42 -2 -52 10 -25 30 -6 46 54 46 52 0 55 1 55 25 0 60 -87 98
-129 56z m74 -15 c27 -19 13 -46 -25 -46 -38 0 -52 27 -25 46 10 8 22 14 25
14 3 0 15 -6 25 -14z"/>
<path d="M7483 1593 c-27 -10 -11 -23 27 -21 22 1 43 -1 46 -5 12 -12 -8 -27
-35 -27 -52 0 -88 -58 -61 -100 12 -19 150 -22 150 -3 0 6 -4 15 -10 18 -5 3
-10 30 -10 60 0 44 -4 57 -22 69 -22 16 -60 20 -85 9z m77 -90 c0 -45 -12 -63
-41 -63 -35 0 -46 21 -31 56 14 30 72 36 72 7z"/>
<path d="M7814 1585 c-9 -22 1 -160 11 -160 6 0 13 30 16 67 3 37 11 73 17 81
10 12 8 15 -14 20 -15 2 -27 0 -30 -8z"/>
<path d="M8028 1590 c-27 -17 -41 -72 -28 -119 11 -43 13 -44 70 -45 41 -1 53
-28 19 -46 -17 -9 -27 -9 -45 1 -19 10 -27 10 -36 1 -8 -8 -49 -12 -116 -12
-66 0 -101 -4 -97 -10 4 -7 270 -10 766 -10 499 0 759 3 759 10 0 7 -203 10
-590 10 l-590 0 0 110 0 110 -34 0 c-19 0 -40 2 -48 5 -7 2 -21 0 -30 -5z m72
-29 c11 -22 13 -80 4 -105 -4 -9 -18 -16 -34 -16 -23 0 -30 6 -40 34 -13 40
-5 82 19 96 25 14 39 12 51 -9z"/>
<path d="M8468 1595 c-4 -4 4 -24 18 -45 25 -38 25 -39 8 -67 -10 -15 -23 -31
-29 -35 -6 -5 -6 -11 2 -19 8 -8 15 -5 28 15 22 33 40 33 61 1 24 -37 38 -19
14 19 -25 42 -25 61 0 93 11 14 17 30 13 36 -3 6 -14 -1 -25 -16 -24 -34 -37
-34 -63 -1 -11 14 -23 22 -27 19z"/>
<path d="M8760 1593 c-36 -13 -50 -36 -50 -83 0 -36 5 -52 23 -68 31 -29 82
-29 98 0 10 19 9 20 -7 13 -40 -16 -52 -16 -68 0 -41 41 -2 146 44 117 25 -15
30 -15 30 2 0 19 -40 30 -70 19z"/>
<path d="M8902 1575 c-28 -36 -29 -94 -1 -129 16 -20 29 -26 58 -26 52 0 71
23 71 89 0 62 -15 81 -69 88 -32 4 -41 1 -59 -22z m88 -17 c24 -26 26 -65 4
-96 -17 -24 -53 -29 -72 -10 -18 18 -15 88 5 110 21 24 38 23 63 -4z"/>
<path d="M9083 1584 c-8 -21 2 -159 12 -159 6 0 11 32 13 70 3 79 10 90 46 81
24 -6 25 -11 28 -79 4 -99 22 -92 26 11 2 73 1 82 -15 83 -10 0 -38 1 -62 2
-24 1 -45 -3 -48 -9z"/>
<path d="M9245 1591 c-17 -7 -17 -8 7 -14 26 -7 27 -10 30 -80 2 -39 8 -72 13
-72 6 0 11 32 13 71 2 56 -1 75 -13 88 -18 18 -21 18 -50 7z"/>
<path d="M6545 1511 c0 -68 3 -81 18 -85 15 -4 17 5 17 80 0 73 -2 84 -17 84
-16 0 -18 -10 -18 -79z"/>
<path d="M7897 1580 c22 -9 30 -34 35 -113 2 -20 8 -38 13 -40 15 -3 18 82 5
126 -10 33 -14 37 -43 36 -29 0 -30 -1 -10 -9z"/>
<path d="M8190 1504 c0 -64 3 -85 13 -82 8 3 13 32 15 86 2 68 0 82 -13 82
-12 0 -15 -15 -15 -86z"/>
<path d="M8280 1511 c0 -44 5 -83 10 -86 14 -9 18 9 22 93 3 64 2 72 -14 72
-16 0 -18 -10 -18 -79z"/>
<path d="M8345 1583 c39 -10 45 -24 45 -96 0 -50 3 -68 10 -61 6 6 10 43 8 85
l-3 74 -40 2 c-22 1 -31 -1 -20 -4z"/>
<path d="M9360 1435 c0 -9 5 -15 11 -13 6 2 11 8 11 13 0 5 -5 11 -11 13 -6 2
-11 -4 -11 -13z"/>
<path d="M8640 1430 c0 -13 11 -13 30 0 12 8 11 10 -7 10 -13 0 -23 -4 -23
-10z"/>
<path d="M2590 960 c0 -5 11 -10 25 -10 40 0 41 -5 9 -182 -5 -30 -3 -38 9
-38 16 0 37 67 37 120 0 17 7 46 14 65 13 29 20 35 45 35 17 0 31 5 31 10 0 6
-35 10 -85 10 -50 0 -85 -4 -85 -10z"/>
<path d="M2813 958 c-10 -14 -43 -172 -43 -208 0 -42 24 -13 37 45 7 32 18 64
24 72 14 17 59 17 60 1 2 -25 -2 -83 -7 -110 -4 -21 -2 -28 10 -28 18 0 34 83
27 151 -1 19 -41 33 -55 19 -19 -19 -37 2 -30 36 6 35 -5 45 -23 22z"/>
<path d="M3376 958 c-9 -33 -28 -138 -33 -182 -5 -39 -3 -48 8 -44 8 2 15 17
17 31 5 39 44 37 59 -3 6 -16 18 -30 27 -30 20 0 20 2 -4 47 -26 48 -25 55 5
83 14 13 25 27 25 32 0 16 -21 8 -44 -17 -36 -39 -50 -33 -43 19 4 24 8 50 9
56 4 17 -21 25 -26 8z"/>
<path d="M4268 945 c-6 -14 -15 -25 -19 -25 -4 0 -9 -35 -11 -77 -3 -43 -8
-86 -13 -97 -6 -14 -4 -17 11 -14 15 2 21 17 29 64 5 34 16 69 24 78 7 9 11
27 8 42 -3 16 0 27 9 31 21 8 17 23 -6 23 -12 0 -25 -10 -32 -25z"/>
<path d="M5090 960 c0 -5 5 -10 10 -10 6 0 10 5 10 10 0 6 -4 10 -10 10 -5 0
-10 -4 -10 -10z"/>
<path d="M3022 902 c-35 -10 -26 -27 15 -27 20 0 38 -6 40 -12 3 -9 -7 -13
-31 -13 -43 0 -86 -33 -86 -66 0 -43 10 -54 49 -53 l36 1 -27 11 c-48 19 -26
92 26 85 18 -3 21 -10 21 -48 0 -42 2 -45 29 -48 26 -3 28 -2 17 11 -9 12 -10
25 -1 58 15 54 6 87 -26 99 -28 11 -29 11 -62 2z"/>
<path d="M3261 888 c7 -13 10 -48 7 -90 -7 -94 15 -92 32 4 12 70 12 72 -10
90 -30 24 -43 23 -29 -4z"/>
<path d="M3830 902 c-38 -6 -58 -30 -66 -78 -9 -65 12 -94 71 -94 40 0 47 4
65 33 23 36 26 95 8 119 -15 18 -43 25 -78 20z m41 -22 c45 -25 12 -130 -41
-130 -47 0 -56 70 -15 114 27 29 29 30 56 16z"/>
<path d="M4709 884 c-7 -16 -13 -56 -13 -89 l-1 -60 61 -3 61 -3 11 43 c17 63
19 120 5 125 -6 2 -14 -13 -18 -39 -4 -24 -14 -60 -23 -81 -12 -32 -19 -38
-36 -33 -12 3 -24 6 -28 6 -12 0 -10 44 4 95 9 34 9 48 0 57 -8 8 -14 4 -23
-18z"/>
<path d="M4920 897 c-37 -18 -37 -51 -2 -76 17 -12 35 -21 41 -21 6 0 11 -12
11 -26 0 -26 -2 -26 -45 -21 -32 3 -45 1 -42 -7 6 -18 95 -20 113 -2 24 25 13
59 -25 78 -49 24 -57 34 -41 53 13 16 24 16 63 0 12 -5 17 -3 17 8 0 8 -10 17
-22 21 -32 8 -40 7 -68 -7z"/>
<path d="M5236 903 c-3 -4 1 -15 11 -25 14 -15 14 -24 5 -57 -16 -50 -15 -94
0 -89 14 5 43 121 35 142 -7 18 -42 38 -51 29z"/>
<path d="M5367 899 c-26 -15 -47 -63 -47 -107 0 -47 14 -62 58 -62 26 0 33 -4
30 -16 -5 -28 -35 -41 -58 -26 -25 16 -30 15 -30 -3 0 -18 41 -29 75 -21 36 9
54 44 74 141 19 93 15 104 -29 92 -11 -3 -23 -1 -26 4 -7 12 -25 11 -47 -2z
m71 -62 c4 -48 -28 -98 -58 -90 -24 6 -35 42 -25 80 10 40 25 54 54 51 22 -3
26 -9 29 -41z"/>
<path d="M5700 895 c0 -8 5 -17 11 -20 10 -7 8 -39 -7 -117 -4 -21 -2 -28 10
-28 9 0 18 10 20 23 10 46 14 108 9 126 -6 23 -43 36 -43 16z"/>
<path d="M5833 900 c-38 -15 -62 -95 -43 -144 8 -22 16 -26 50 -26 43 0 47 -5
26 -32 -15 -20 -37 -23 -53 -7 -17 17 -37 1 -22 -17 17 -20 62 -17 92 6 24 19
52 105 59 185 3 27 0 30 -27 31 -16 1 -37 4 -45 7 -8 3 -25 2 -37 -3z m72 -51
c9 -27 -26 -111 -43 -104 -8 3 -20 5 -28 5 -20 0 -28 44 -14 85 19 57 69 65
85 14z"/>
<path d="M6160 895 c0 -8 5 -15 11 -15 12 0 7 -75 -7 -127 -11 -42 22 -26 34
16 19 61 15 118 -7 131 -26 13 -31 13 -31 -5z"/>
<path d="M3162 832 c-6 -38 -14 -76 -18 -85 -4 -11 -1 -17 9 -17 16 0 37 48
37 85 0 11 7 30 15 41 21 28 18 44 -8 44 -21 0 -24 -7 -35 -68z"/>
<path d="M3604 873 c17 -78 24 -135 19 -150 -4 -10 -18 -27 -32 -40 -23 -19
-24 -22 -7 -23 22 0 80 61 97 104 7 17 15 33 18 36 8 7 51 87 51 94 0 4 -6 6
-13 6 -8 0 -22 -19 -33 -42 -37 -84 -60 -86 -66 -8 -2 35 -7 46 -22 48 -16 3
-18 0 -12 -25z"/>
<path d="M3961 830 c-16 -90 -10 -100 68 -100 l57 0 13 78 c15 88 15 87 -1 87
-7 0 -16 -18 -21 -40 -4 -22 -10 -49 -13 -60 -8 -36 -31 -57 -54 -50 -20 6
-21 12 -18 78 4 93 -14 97 -31 7z"/>
<path d="M4335 880 c-26 -29 -32 -106 -10 -130 26 -29 85 -27 114 4 31 33 40
106 16 129 -24 24 -97 23 -120 -3z m88 -4 c21 -16 22 -57 2 -96 -12 -23 -23
-30 -44 -30 -32 0 -41 14 -41 65 0 24 7 39 26 54 31 24 33 25 57 7z"/>
<path d="M4511 838 c-6 -35 -14 -73 -17 -85 -5 -16 -2 -23 8 -23 15 0 38 59
38 97 0 10 7 28 15 39 20 27 19 34 -9 34 -22 0 -25 -6 -35 -62z"/>
<path d="M5065 873 c-4 -16 -10 -47 -16 -70 -12 -57 -11 -73 4 -73 15 0 37 81
37 136 0 41 -17 45 -25 7z"/>
<path d="M5155 890 c-4 -6 -10 -36 -15 -68 -4 -31 -11 -65 -15 -74 -5 -14 -2
-18 14 -18 17 0 21 6 21 33 1 17 8 50 16 72 8 22 16 44 17 49 3 14 -30 19 -38
6z"/>
<path d="M5616 888 c-16 -60 -26 -113 -26 -134 0 -46 24 -20 40 43 8 33 21 67
27 75 7 8 10 18 6 21 -11 12 -43 8 -47 -5z"/>
<path d="M5987 858 c-3 -24 -9 -62 -13 -85 -5 -30 -3 -43 5 -43 16 0 27 34 34
108 5 49 4 62 -7 62 -8 0 -16 -16 -19 -42z"/>
<path d="M6075 878 c-13 -62 -24 -142 -20 -146 14 -14 35 11 35 41 0 19 7 51
15 70 20 48 19 57 -5 57 -12 0 -21 -8 -25 -22z"/>
<path d="M6267 894 c-3 -4 0 -16 8 -28 22 -31 18 -57 -16 -96 -19 -22 -25 -36
-17 -39 6 -2 22 9 34 24 25 31 52 29 61 -5 3 -11 12 -20 20 -20 15 0 10 35 -8
54 -16 17 -10 44 17 76 34 40 23 52 -15 16 l-29 -28 -17 26 c-18 26 -27 31
-38 20z"/>
<path d="M6420 740 c0 -5 7 -10 16 -10 8 0 12 5 9 10 -3 6 -10 10 -16 10 -5 0
-9 -4 -9 -10z"/>
</g>
</svg>
