<svg id="LOGOS" xmlns="http://www.w3.org/2000/svg" viewBox="0 0 183 258"><defs><style>.cls-1,.cls-2{fill:#02a8ef;}.cls-1{fill-rule:evenodd;}</style></defs><path d="M32.46,189.76v-4.83H28v4.83H25.79v-11.6H28V183h4.42v-4.86h2.25v11.6Zm10.52,0H41.19l-.16-.57a4.91,4.91,0,0,1-2.6.74c-1.59,0-2.27-1.05-2.27-2.49,0-1.7.77-2.35,2.54-2.35h2.1v-.88c0-.93-.27-1.25-1.67-1.25a13.05,13.05,0,0,0-2.41.25l-.27-1.59a11.37,11.37,0,0,1,3-.4c2.73,0,3.54.93,3.54,3ZM40.8,186.6H39.19c-.72,0-.92.19-.92.82s.2.84.88.84a3.52,3.52,0,0,0,1.65-.43Zm6.75,3.33a10.9,10.9,0,0,1-3-.48l.31-1.6a9.94,9.94,0,0,0,2.59.36c1,0,1.11-.21,1.11-.84s-.11-.77-1.52-1.1c-2.13-.5-2.38-1-2.38-2.63s.77-2.42,3.26-2.42a11.86,11.86,0,0,1,2.61.29l-.22,1.67a15.87,15.87,0,0,0-2.39-.24c-.95,0-1.11.2-1.11.72,0,.67.05.72,1.23,1,2.44.62,2.67.93,2.67,2.65S50.18,189.93,47.55,189.93Zm10-.17v-5.84c0-.45-.2-.67-.7-.67a6.33,6.33,0,0,0-2.27.7v5.81H52.39V178l2.18.32V182a8,8,0,0,1,3.19-.81c1.44,0,2,1,2,2.47v6.07Zm4-9.55v-2.05h2.18v2.05Zm0,9.55v-8.37h2.18v8.37Zm3.92-8.3c0-2.09,1.27-3.31,4.24-3.31a14,14,0,0,1,3.24.37l-.25,1.88a17.44,17.44,0,0,0-2.92-.3c-1.55,0-2.05.52-2.05,1.74v4.4c0,1.22.5,1.73,2.05,1.73a18.48,18.48,0,0,0,2.92-.29l.25,1.87a14,14,0,0,1-3.24.38c-3,0-4.24-1.22-4.24-3.32Zm12.3,8.47c-3,0-3.79-1.58-3.79-3.3v-2.11c0-1.72.8-3.3,3.79-3.3s3.79,1.58,3.79,3.3v2.11C81.57,188.35,80.77,189.93,77.78,189.93Zm0-6.92c-1.16,0-1.61.49-1.61,1.44v2.25c0,.94.45,1.44,1.61,1.44s1.61-.5,1.61-1.44v-2.25C79.39,183.5,78.94,183,77.78,183Zm9.94.13a17.6,17.6,0,0,0-2.31,1.22v5.4H83.23v-8.37h1.84l.14.93a10.39,10.39,0,0,1,2.29-1.1ZM96.44,187c0,1.86-.86,3-2.88,3a12.23,12.23,0,0,1-2.32-.24v3.42l-2.18.32v-12h1.73l.22.71a4.63,4.63,0,0,1,2.75-.88c1.75,0,2.68,1,2.68,2.9Zm-5.2.95a10,10,0,0,0,1.93.22c.79,0,1.09-.36,1.09-1.11v-3c0-.69-.27-1.06-1.07-1.06a3.14,3.14,0,0,0-2,.75Z"/><path d="M25.79,198.2H39.21c7.95,0,10.89,3.25,10.89,9.29v4.7c0,6-3.2,9.24-11.2,9.24H32.29v11.15h-6.5Zm13.06,5.73H32.29V215.7h6.56c3.66,0,4.75-1.34,4.75-4.18V208C43.6,205.17,42.41,203.93,38.85,203.93Z"/><path d="M72.09,232.58H66.93l-.46-1.7A13.84,13.84,0,0,1,59,233.1c-4.59,0-6.56-3.15-6.56-7.49,0-5.11,2.22-7.07,7.33-7.07h6v-2.63c0-2.79-.77-3.77-4.8-3.77a35.51,35.51,0,0,0-7,.77l-.77-4.8a32.87,32.87,0,0,1,8.62-1.19c7.9,0,10.22,2.79,10.22,9.09Zm-6.3-9.5H61.15c-2.07,0-2.64.57-2.64,2.48,0,1.75.57,2.53,2.53,2.53a9.89,9.89,0,0,0,4.75-1.29Z"/><path d="M75.86,223.44v-6.86c0-6.77,2.94-9.66,10.84-9.66a21.54,21.54,0,0,1,6.14.93L92.07,213a23.15,23.15,0,0,0-5.21-.67c-3.62,0-4.7,1.09-4.7,4.19v7c0,3.1,1.08,4.19,4.7,4.19a21.47,21.47,0,0,0,5.21-.67l.77,5.16a20.6,20.6,0,0,1-6.14.93C78.8,233.1,75.86,230.21,75.86,223.44Z"/><path d="M96.82,232.58V197.17l6.3-.88v36.29Zm21.37-25.14-7.38,12.44,7.69,12.7h-6.92L104,219.88l7.18-12.44Z"/><path d="M131.3,227.93a26.47,26.47,0,0,0,7.69-1.18l1,4.75a27.06,27.06,0,0,1-9.24,1.6c-7.9,0-10.63-3.67-10.63-9.71v-6.66c0-5.32,2.37-9.81,10.43-9.81s9.86,4.7,9.86,10.12v5.37h-14v1.29C126.4,226.75,127.48,227.93,131.3,227.93Zm-4.9-10.58h8v-1.24c0-2.37-.73-4-3.82-4s-4.18,1.65-4.18,4Z"/><path d="M157.21,212.71a49.72,49.72,0,0,0-6.66,3.66v16.21h-6.29V207.44h5.31l.42,2.79a28,28,0,0,1,6.6-3.31Z"/><polygon class="cls-1" points="47.5 31.52 94.15 58.47 94.15 157.86 47.5 130.91 47.5 31.52"/><path class="cls-2" d="M117.25,43.13,66.54,13.92V34.21L101,54.12V115l16.23,9.32c10,5.8,18.25,2.32,18.25-7.72V71.93C135.5,61.89,127.29,48.93,117.25,43.13Z"/></svg>