<?xml version="1.0" standalone="no"?>
<!DOCTYPE svg PUBLIC "-//W3C//DTD SVG 20010904//EN"
 "http://www.w3.org/TR/2001/REC-SVG-20010904/DTD/svg10.dtd">
<svg version="1.0" xmlns="http://www.w3.org/2000/svg"
 width="1614.000000pt" height="514.000000pt" viewBox="0 0 1614.000000 514.000000"
 preserveAspectRatio="xMidYMid meet">

<g transform="translate(0.000000,514.000000) scale(0.100000,-0.100000)"
fill="#000000" stroke="none">
<path d="M395 4728 c-11 -6 -23 -16 -27 -22 -4 -6 -8 -88 -8 -183 0 -143 3
-174 16 -187 23 -24 365 -24 388 0 13 13 16 44 16 187 0 95 -4 177 -8 183 -18
28 -56 34 -204 34 -95 0 -161 -5 -173 -12z m307 -75 c25 -22 23 -30 -27 -98
-24 -33 -60 -83 -80 -112 -19 -29 -40 -55 -46 -58 -5 -4 -27 8 -47 27 -21 18
-53 45 -72 60 l-34 28 24 25 c29 31 37 31 71 -1 32 -30 50 -27 76 13 42 66 94
133 105 133 6 0 20 -7 30 -17z"/>
<path d="M1357 4693 c-11 -11 -8 -283 3 -304 12 -21 55 -26 66 -7 4 6 0 16 -9
23 -14 10 -17 33 -17 138 0 69 -3 132 -6 141 -6 16 -26 21 -37 9z"/>
<path d="M1482 4688 c-17 -17 -16 -254 1 -288 14 -28 67 -42 67 -17 0 8 -7 20
-15 27 -11 9 -15 43 -17 148 -3 133 -9 157 -36 130z"/>
<path d="M3817 4682 c-9 -10 -17 -33 -17 -51 0 -24 -6 -34 -25 -41 -31 -12
-32 -28 -2 -32 21 -3 22 -8 25 -95 2 -84 5 -93 22 -93 17 0 20 9 22 93 l3 92
45 0 45 0 3 -93 c3 -90 4 -93 25 -90 21 3 22 9 25 96 l3 93 47 -3 47 -3 3 -92
c2 -85 4 -93 22 -93 19 0 20 7 20 110 l0 109 -67 3 c-68 3 -68 3 -68 32 0 25
5 31 33 38 28 8 32 11 22 23 -15 19 -60 19 -84 2 -10 -8 -21 -31 -25 -53 -6
-37 -8 -39 -45 -42 -46 -4 -61 8 -52 42 4 18 14 26 34 28 41 5 35 32 -9 36
-24 2 -40 -3 -52 -16z"/>
<path d="M4551 4681 c-12 -12 -21 -34 -21 -52 0 -22 -5 -32 -20 -36 -11 -3
-20 -11 -20 -18 0 -7 9 -15 20 -18 18 -5 20 -14 20 -97 0 -89 1 -91 23 -88 21
3 22 8 25 96 l3 92 29 0 c39 0 41 27 3 32 -24 2 -28 8 -28 33 0 23 5 30 25 35
36 9 32 34 -7 38 -22 2 -38 -3 -52 -17z"/>
<path d="M1151 4663 c-9 -18 -111 -283 -111 -290 0 -1 11 -3 23 -3 19 0 28 9
40 40 l15 40 60 0 59 0 16 -40 c11 -29 21 -40 36 -40 12 0 21 5 21 10 0 20
-104 285 -114 292 -18 13 -35 9 -45 -9z m44 -90 c33 -77 32 -83 -12 -83 -22 0
-42 3 -45 6 -3 3 0 22 7 42 8 20 16 45 19 55 8 25 14 21 31 -20z"/>
<path d="M2327 4660 c-56 -44 -42 -112 30 -144 77 -35 83 -39 83 -62 0 -37
-39 -56 -99 -48 -30 4 -51 3 -51 -3 0 -22 28 -33 86 -33 75 0 114 28 114 82 0
47 -10 58 -82 93 -45 21 -64 36 -66 52 -4 30 30 47 84 39 38 -5 44 -3 44 13 0
23 -19 31 -74 31 -28 0 -52 -7 -69 -20z"/>
<path d="M2585 4668 c-31 -17 -45 -39 -45 -72 0 -44 8 -52 81 -89 53 -26 64
-36 64 -57 0 -36 -44 -55 -97 -42 -32 8 -40 8 -45 -5 -9 -23 16 -33 84 -33 56
0 63 2 87 31 47 56 27 105 -57 143 -29 12 -58 30 -66 40 -12 14 -11 19 5 37
16 18 27 20 72 16 45 -5 52 -3 52 13 0 29 -92 42 -135 18z"/>
<path d="M2807 4674 c-4 -4 -7 -74 -7 -156 0 -141 1 -148 20 -148 18 0 20 7
20 54 0 84 2 86 81 86 l68 0 3 -67 c3 -60 5 -68 23 -68 19 0 20 8 23 144 1 86
-1 148 -7 154 -20 20 -40 -13 -43 -71 l-3 -57 -67 -3 c-76 -3 -75 -4 -80 87
-3 42 -16 60 -31 45z"/>
<path d="M4083 4664 c-6 -17 14 -36 32 -31 6 2 11 13 13 25 3 17 -2 22 -18 22
-11 0 -23 -7 -27 -16z"/>
<path d="M3237 4620 c-5 -21 -12 -30 -27 -30 -26 0 -26 -26 0 -33 17 -4 20
-14 20 -69 0 -88 14 -112 68 -116 36 -3 42 0 42 17 0 14 -8 21 -27 23 -28 3
-28 4 -28 73 0 69 0 70 28 73 15 2 27 9 27 17 0 8 -12 15 -27 17 -22 2 -29 9
-31 31 -5 39 -38 37 -45 -3z"/>
<path d="M1639 4585 c-35 -19 -53 -65 -46 -121 7 -64 37 -94 94 -94 25 0 53 5
64 10 42 23 63 109 38 163 -23 50 -97 71 -150 42z m93 -42 c26 -23 25 -96 -2
-123 -24 -24 -38 -25 -67 -5 -27 19 -37 63 -23 101 18 47 57 59 92 27z"/>
<path d="M3573 4590 c-39 -16 -25 -29 35 -32 54 -3 57 -4 60 -30 3 -27 1 -28
-38 -28 -51 0 -78 -14 -90 -46 -12 -31 6 -73 34 -79 12 -3 48 -4 81 -2 l60 3
3 87 c3 81 1 89 -22 112 -27 27 -79 33 -123 15z m95 -147 c6 -43 -72 -57 -85
-16 -7 19 28 44 56 41 18 -2 27 -10 29 -25z"/>
<path d="M4243 4585 c-41 -18 -53 -42 -53 -107 0 -47 4 -58 29 -82 24 -23 35
-27 77 -24 36 2 50 7 52 20 3 14 -4 17 -36 15 -22 0 -47 5 -56 12 -22 18 -30
74 -15 102 17 33 28 39 72 39 43 0 49 16 11 30 -33 13 -42 12 -81 -5z"/>
<path d="M4752 4585 c-19 -9 -32 -10 -32 -4 0 6 -10 9 -22 7 -22 -3 -23 -7
-23 -108 0 -101 1 -105 23 -108 21 -3 22 -1 22 78 l0 82 40 15 c37 15 51 35
32 47 -4 2 -22 -2 -40 -9z"/>
<path d="M4867 4583 c-52 -34 -59 -142 -11 -190 18 -18 34 -23 73 -23 43 0 53
4 75 31 35 41 37 121 3 162 -29 37 -98 47 -140 20z m103 -38 c7 -9 14 -35 14
-59 2 -74 -50 -110 -94 -66 -25 25 -27 95 -3 122 20 22 66 24 83 3z"/>
<path d="M5165 4591 c-11 -5 -32 -6 -47 -4 l-28 6 0 -112 c0 -104 1 -111 20
-111 18 0 20 7 20 83 0 91 8 107 52 107 38 0 48 -24 48 -114 0 -69 2 -76 20
-76 18 0 20 7 20 85 0 90 8 105 59 105 30 0 41 -30 41 -114 0 -69 2 -76 20
-76 19 0 20 7 20 99 0 121 -10 137 -74 126 -48 -8 -79 -9 -121 -1 -16 3 -39 2
-50 -3z"/>
<path d="M1830 4574 c0 -21 51 -175 63 -191 5 -7 18 -13 27 -13 14 0 22 16 36
70 18 67 30 85 39 58 2 -7 11 -39 20 -70 14 -49 20 -58 39 -58 20 0 27 12 55
98 36 113 37 122 13 122 -15 0 -24 -17 -41 -75 -12 -41 -23 -75 -25 -75 -5 0
-20 44 -36 108 -9 35 -15 42 -35 42 -21 0 -25 -8 -41 -70 -10 -38 -22 -70 -26
-70 -4 0 -17 32 -29 70 -16 55 -25 70 -40 70 -11 0 -19 -7 -19 -16z"/>
<path d="M3390 4480 c0 -103 1 -110 20 -110 18 0 20 7 20 79 0 86 5 94 58 106
18 4 31 12 29 18 -5 16 -55 21 -72 7 -9 -7 -15 -8 -20 0 -3 5 -13 10 -21 10
-11 0 -14 -21 -14 -110z"/>
<path d="M9700 4285 c0 -158 1 -165 20 -165 18 0 20 7 20 83 0 93 7 107 57
107 42 0 53 -25 53 -121 0 -62 2 -70 18 -67 14 3 17 17 20 92 4 115 -10 141
-72 133 -22 -3 -49 -8 -58 -12 -16 -6 -18 0 -18 54 0 54 -2 61 -20 61 -19 0
-20 -7 -20 -165z"/>
<path d="M8670 4398 c-11 -18 -20 -38 -20 -43 0 -6 -18 -57 -40 -114 -21 -57
-37 -108 -34 -113 13 -20 37 -5 51 32 l16 40 61 0 61 0 17 -40 c15 -37 40 -52
52 -32 5 9 -90 269 -107 290 -16 21 -36 14 -57 -20z m73 -150 c-6 -11 -71 -10
-77 1 -3 4 3 32 14 62 11 29 20 56 21 59 0 3 11 -22 24 -55 12 -33 21 -63 18
-67z"/>
<path d="M8955 4340 c-11 -4 -33 -5 -48 -3 l-28 6 3 -109 c2 -89 6 -109 18
-109 12 0 16 17 18 80 2 43 8 85 14 93 7 7 26 12 47 10 42 -4 49 -19 50 -121
1 -60 3 -68 19 -65 26 5 31 182 6 209 -18 20 -63 24 -99 9z"/>
<path d="M9988 4334 c-55 -30 -62 -143 -11 -190 41 -38 153 -31 153 9 0 5 -17
7 -39 3 -46 -7 -88 8 -97 36 -8 27 1 33 54 34 86 3 82 1 82 43 0 69 -74 103
-142 65z m94 -38 c7 -10 11 -35 6 -37 -2 0 -22 -2 -46 -5 -33 -4 -44 -2 -49
12 -15 39 65 66 89 30z"/>
<path d="M10265 4340 c-11 -5 -35 -6 -53 -3 l-33 5 3 -108 c3 -101 4 -109 23
-109 18 0 20 8 23 81 3 76 4 82 28 93 14 6 32 11 40 11 9 0 14 7 12 17 -4 20
-17 24 -43 13z"/>
<path d="M10378 4334 c-55 -29 -61 -144 -11 -190 41 -38 153 -31 153 9 0 5
-17 7 -39 3 -46 -7 -88 8 -97 36 -9 28 1 33 69 33 l62 0 3 41 c3 35 -1 45 -24
63 -31 24 -77 27 -116 5z m94 -38 c20 -29 1 -46 -53 -46 -40 0 -50 27 -19 52
23 19 58 16 72 -6z"/>
<path d="M9100 4336 c0 -2 18 -50 41 -106 46 -116 46 -145 -2 -162 -37 -13
-33 -32 7 -36 19 -2 35 3 45 15 13 15 119 272 119 288 0 3 -10 5 -23 5 -17 0
-25 -9 -35 -42 -7 -23 -20 -57 -28 -77 -18 -42 -23 -36 -55 57 -18 53 -24 62
-45 62 -13 0 -24 -2 -24 -4z"/>
<path d="M9340 4328 c0 -7 14 -55 31 -106 43 -128 69 -134 100 -25 8 31 20 58
25 60 5 2 18 -28 28 -67 14 -54 22 -70 36 -70 25 0 32 13 64 110 16 47 31 91
33 98 3 7 -4 12 -20 12 -16 0 -27 -7 -30 -17 -3 -10 -10 -39 -17 -66 -7 -26
-17 -50 -21 -53 -10 -6 -11 -4 -34 79 -13 49 -19 57 -40 57 -14 0 -25 -7 -28
-17 -3 -10 -10 -39 -17 -66 -7 -26 -16 -50 -21 -53 -4 -2 -17 27 -29 66 -17
56 -25 70 -40 70 -11 0 -20 -6 -20 -12z"/>
<path d="M14727 4146 c-8 -20 126 -211 148 -211 21 0 147 181 143 204 -5 23
-283 29 -291 7z"/>
<path d="M1540 3945 c0 -116 1 -125 21 -135 25 -14 41 -3 16 11 -15 9 -17 26
-17 129 0 73 -4 120 -10 120 -6 0 -10 -48 -10 -125z"/>
<path d="M1072 3930 c3 -126 19 -166 28 -70 l5 55 64 3 c75 4 81 -2 81 -71 0
-30 4 -46 10 -42 13 8 13 232 1 240 -6 3 -11 -17 -13 -47 l-3 -53 -70 0 -70 0
-3 53 c-2 38 -7 52 -18 52 -12 0 -14 -20 -12 -120z"/>
<path d="M5600 4040 c0 -5 7 -10 15 -10 8 0 15 5 15 10 0 6 -7 10 -15 10 -8 0
-15 -4 -15 -10z"/>
<path d="M4300 4010 c0 -21 -5 -30 -17 -30 -15 0 -15 -1 0 -18 12 -13 17 -37
17 -81 0 -55 2 -63 24 -72 17 -8 29 -8 42 0 17 9 16 10 -7 11 -31 0 -39 15
-39 75 0 57 8 75 34 76 19 1 18 2 -4 8 -18 5 -26 15 -28 34 -4 37 -22 34 -22
-3z"/>
<path d="M6101 4017 c-1 -21 -7 -31 -22 -34 -20 -6 -21 -7 -5 -18 12 -9 18
-32 21 -80 2 -41 9 -71 17 -76 18 -12 46 -11 53 1 3 6 -3 10 -15 10 -24 0 -40
34 -40 84 0 34 15 60 40 69 10 4 8 6 -6 6 -15 1 -24 11 -32 34 l-10 32 -1 -28z"/>
<path d="M4060 4010 c0 -10 -7 -23 -16 -28 -14 -8 -14 -10 0 -21 12 -10 16
-32 16 -77 0 -59 2 -65 25 -76 19 -9 28 -9 37 0 9 9 7 12 -9 12 -26 0 -33 18
-33 85 0 49 2 54 28 63 25 10 25 10 4 11 -14 1 -26 10 -32 26 -11 30 -20 32
-20 5z"/>
<path d="M3723 3982 c-55 -9 -82 -101 -45 -150 21 -27 89 -40 118 -23 16 8 9
10 -33 11 -45 0 -55 4 -69 25 -23 35 -10 45 57 45 58 0 59 0 59 28 0 43 -40
72 -87 64z m52 -32 c29 -32 13 -52 -42 -48 -54 3 -62 15 -33 46 26 27 51 28
75 2z"/>
<path d="M6258 3982 c-16 -2 -28 -7 -28 -12 0 -4 17 -6 38 -3 34 5 39 2 50
-21 19 -41 15 -46 -31 -46 -30 0 -49 -6 -60 -18 -41 -45 0 -95 60 -74 19 6 36
6 46 0 15 -8 17 -1 17 70 0 96 -16 113 -92 104z m65 -114 c16 -24 -9 -48 -49
-48 -33 0 -39 7 -34 40 5 33 64 39 83 8z"/>
<path d="M1358 3963 c-37 -43 -25 -137 18 -153 33 -13 81 -13 89 0 4 6 -11 10
-37 10 -49 0 -68 13 -68 47 0 21 4 23 60 23 56 0 60 2 60 23 0 12 -7 33 -16
45 -19 28 -83 31 -106 5z m87 -13 c28 -31 13 -50 -40 -50 -40 0 -45 2 -45 23
0 47 52 64 85 27z"/>
<path d="M1650 3853 c0 -71 4 -123 9 -123 6 0 11 19 13 43 2 31 7 41 18 38 49
-12 59 -11 85 12 24 20 28 32 28 70 0 69 -21 88 -95 85 l-58 -3 0 -122z m112
100 c22 -19 24 -89 4 -115 -15 -21 -66 -24 -84 -6 -20 20 -15 115 6 127 25 15
53 13 74 -6z"/>
<path d="M1872 3968 c-28 -28 -5 -66 51 -87 21 -8 28 -17 25 -34 -2 -18 -10
-23 -46 -25 -50 -4 -47 -22 4 -22 41 0 75 29 67 59 -3 11 -24 29 -49 40 -62
29 -56 64 11 74 25 3 24 4 -10 6 -23 0 -46 -4 -53 -11z"/>
<path d="M2110 3975 c0 -3 16 -44 36 -91 39 -95 37 -125 -8 -144 -21 -9 -21
-10 6 -7 16 1 33 9 37 17 19 36 39 84 39 93 0 5 6 23 14 40 30 71 37 90 32 94
-10 11 -26 -10 -32 -42 -3 -20 -10 -38 -15 -41 -5 -3 -9 -13 -9 -24 0 -18 -26
-35 -33 -22 -2 4 -13 35 -23 69 -10 35 -25 63 -31 63 -7 0 -13 -2 -13 -5z"/>
<path d="M2326 3958 c-21 -30 -21 -112 0 -132 23 -24 61 -30 94 -16 50 21 63
106 22 153 -23 26 -96 23 -116 -5z m103 -14 c41 -52 15 -124 -45 -124 -39 0
-54 21 -54 76 0 70 59 99 99 48z"/>
<path d="M2530 3906 c0 -89 15 -112 64 -101 17 3 41 6 54 7 21 0 22 4 22 84 0
49 -4 84 -10 84 -6 0 -10 -31 -10 -74 0 -79 -5 -86 -56 -86 -31 0 -44 32 -44
106 0 30 -4 54 -10 54 -6 0 -10 -31 -10 -74z"/>
<path d="M2856 3958 c-21 -30 -21 -112 0 -132 22 -22 61 -30 87 -18 20 10 19
11 -14 11 -45 1 -69 26 -69 72 0 46 18 69 60 79 l35 8 -42 1 c-33 1 -45 -4
-57 -21z"/>
<path d="M3025 3960 c-21 -23 -25 -93 -7 -127 15 -28 74 -41 107 -23 47 25 58
93 24 141 -17 24 -27 29 -63 29 -30 0 -48 -6 -61 -20z m108 -32 c16 -33 17
-40 3 -72 -13 -31 -20 -36 -48 -36 -45 0 -58 15 -58 69 0 85 68 111 103 39z"/>
<path d="M3230 3895 c0 -101 18 -115 22 -18 3 62 5 69 30 83 46 25 62 6 66
-79 2 -54 6 -71 17 -71 12 0 15 14 15 63 0 98 -5 107 -54 107 -23 0 -47 -5
-53 -11 -8 -8 -13 -8 -17 0 -18 28 -26 4 -26 -74z"/>
<path d="M3450 3893 c0 -49 4 -83 10 -83 6 0 10 29 10 68 0 64 2 70 25 80 62
28 82 1 84 -115 2 -62 21 -33 21 30 0 107 -2 109 -81 105 l-69 -3 0 -82z"/>
<path d="M3884 3959 c-22 -25 -25 -108 -5 -133 17 -20 66 -30 88 -17 15 9 12
10 -17 11 -48 0 -60 15 -60 71 0 52 12 67 63 79 l32 8 -41 1 c-30 1 -46 -5
-60 -20z"/>
<path d="M4445 3960 c-13 -15 -19 -35 -18 -70 1 -58 13 -76 54 -85 78 -17 129
57 92 133 -16 34 -22 37 -64 40 -35 2 -49 -1 -64 -18z m101 -16 c19 -28 21
-73 4 -103 -12 -24 -68 -29 -88 -9 -18 18 -15 98 5 120 23 26 59 23 79 -8z"/>
<path d="M4730 3970 c1 -8 14 -49 30 -90 17 -41 30 -82 30 -91 0 -17 -24 -42
-50 -52 -8 -4 -2 -5 13 -4 19 1 33 11 42 27 24 43 45 93 45 104 0 6 6 23 14
37 18 35 28 79 18 79 -5 0 -17 -21 -26 -47 -37 -101 -36 -100 -52 -78 -8 11
-20 38 -26 60 -12 44 -38 81 -38 55z"/>
<path d="M4945 3960 c-29 -32 -26 -117 4 -141 30 -25 72 -24 105 2 21 17 26
29 26 68 0 66 -20 91 -74 91 -30 0 -48 -6 -61 -20z m101 -16 c19 -28 21 -73 4
-103 -12 -24 -68 -29 -88 -9 -18 18 -15 98 5 120 23 26 59 23 79 -8z"/>
<path d="M5152 3899 c3 -92 14 -108 64 -94 29 9 29 9 4 13 -42 7 -50 20 -50
88 0 34 -5 66 -10 69 -7 5 -10 -20 -8 -76z"/>
<path d="M5270 3912 c0 -37 -5 -73 -11 -79 -8 -8 -5 -14 10 -22 21 -12 21 -10
21 79 0 53 -4 90 -10 90 -6 0 -10 -29 -10 -68z"/>
<path d="M5360 3895 c0 -50 4 -85 10 -85 6 0 10 26 10 58 0 64 18 92 58 92 12
0 22 5 22 10 0 14 -33 13 -48 -2 -9 -9 -15 -9 -24 0 -23 23 -28 11 -28 -73z"/>
<path d="M5600 3889 c0 -57 4 -88 10 -84 6 3 10 44 10 91 0 49 -4 84 -10 84
-6 0 -10 -37 -10 -91z"/>
<path d="M5700 3893 c0 -49 4 -83 10 -83 6 0 10 28 10 64 0 56 3 67 22 80 53
37 88 3 88 -86 0 -31 5 -60 10 -63 17 -10 13 150 -4 164 -8 7 -39 11 -75 9
l-61 -3 0 -82z"/>
<path d="M5922 3968 c-16 -16 -15 -53 1 -65 6 -6 26 -15 42 -20 22 -7 30 -16
30 -34 0 -21 -5 -24 -43 -27 -23 -2 -40 -7 -37 -13 10 -15 72 -10 89 7 32 31
14 66 -46 92 -35 14 -38 49 -5 56 12 3 31 7 42 9 11 3 2 5 -20 6 -23 0 -46 -4
-53 -11z"/>
<path d="M6420 3896 c0 -47 5 -88 10 -91 6 -4 10 20 10 64 0 61 3 72 22 85 54
38 88 6 88 -82 0 -35 4 -62 10 -62 15 0 13 143 -2 158 -15 15 -80 16 -95 1 -8
-8 -13 -8 -17 0 -18 28 -26 4 -26 -73z"/>
<path d="M6651 3954 c-30 -38 -28 -98 4 -129 25 -26 59 -32 85 -15 11 7 6 10
-22 10 -43 0 -68 27 -68 73 0 38 43 81 76 74 13 -2 24 0 24 4 0 5 -18 9 -39 9
-31 0 -44 -6 -60 -26z"/>
<path d="M6816 3958 c-9 -13 -16 -43 -16 -69 0 -39 5 -51 26 -68 28 -22 79
-27 104 -11 11 7 0 10 -37 10 -41 0 -54 4 -63 19 -22 42 -14 51 50 51 58 0 60
1 60 26 0 48 -17 64 -65 64 -34 0 -47 -5 -59 -22z m85 2 c11 -6 19 -21 19 -35
0 -23 -4 -25 -45 -25 -53 0 -68 19 -40 50 20 22 37 25 66 10z"/>
<path d="M9852 3858 c-6 -6 -12 -18 -12 -26 0 -8 -6 -28 -14 -45 -7 -18 -21
-52 -31 -77 -10 -25 -24 -59 -31 -77 -8 -17 -14 -37 -14 -45 0 -8 -6 -20 -12
-27 -11 -10 -9 -12 7 -9 11 2 21 12 23 23 2 11 10 34 17 50 29 65 86 228 83
237 -2 5 -9 3 -16 -4z"/>
<path d="M8615 3824 c-22 -23 -25 -36 -25 -99 0 -65 3 -75 27 -99 36 -36 87
-33 117 7 17 23 21 43 21 97 0 59 -4 72 -24 94 -33 36 -83 35 -116 0z m99 -10
c12 -11 16 -35 16 -86 0 -81 -15 -108 -60 -108 -39 0 -60 36 -60 105 0 69 21
105 60 105 16 0 36 -7 44 -16z"/>
<path d="M8930 3824 c-21 -22 -24 -35 -24 -99 0 -64 3 -77 24 -99 41 -45 107
-30 130 28 22 59 8 155 -28 182 -29 22 -76 17 -102 -12z m105 -24 c8 -16 15
-50 15 -75 0 -68 -22 -105 -63 -105 -42 0 -67 39 -67 105 0 72 22 105 72 105
20 0 31 -8 43 -30z"/>
<path d="M9246 3831 c-42 -46 -44 -155 -5 -205 20 -26 58 -34 94 -20 60 23 60
215 0 238 -31 12 -72 6 -89 -13z m98 -26 c10 -15 16 -46 16 -80 0 -67 -21
-105 -58 -105 -47 0 -62 25 -62 103 0 52 4 75 17 89 24 26 67 23 87 -7z"/>
<path d="M9555 3830 c-38 -42 -38 -168 0 -210 24 -27 86 -27 110 0 40 45 37
178 -5 212 -30 24 -82 23 -105 -2z m99 -22 c10 -14 16 -44 16 -83 0 -73 -18
-105 -60 -105 -42 0 -60 32 -60 105 0 73 18 105 60 105 18 0 34 -8 44 -22z"/>
<path d="M9958 3833 c-46 -53 -52 -139 -15 -194 28 -42 80 -51 118 -20 22 18
24 26 24 106 0 79 -2 88 -24 106 -29 24 -83 25 -103 2z m99 -33 c16 -32 16
-118 0 -150 -17 -34 -66 -39 -92 -10 -24 26 -27 124 -6 164 13 23 21 26 50 24
26 -2 39 -10 48 -28z"/>
<path d="M8810 3615 c0 -8 7 -15 15 -15 8 0 15 7 15 15 0 8 -7 15 -15 15 -8 0
-15 -7 -15 -15z"/>
<path d="M9122 3618 c7 -19 38 -22 38 -4 0 10 -9 16 -21 16 -12 0 -19 -5 -17
-12z"/>
<path d="M9440 3615 c0 -8 7 -15 15 -15 8 0 15 7 15 15 0 8 -7 15 -15 15 -8 0
-15 -7 -15 -15z"/>
<path d="M382 2950 c-21 -20 -22 -29 -22 -195 0 -144 3 -176 16 -189 23 -24
365 -24 388 0 13 13 16 45 16 189 0 229 14 215 -210 215 -153 0 -168 -2 -188
-20z m338 -93 c0 -9 -114 -173 -156 -225 l-22 -26 -43 38 c-103 90 -99 86 -86
107 20 32 46 34 76 5 15 -14 32 -26 38 -26 7 0 38 37 69 83 32 45 63 85 68 89
11 7 56 -29 56 -45z"/>
<path d="M1357 2924 c-11 -11 -8 -283 3 -305 12 -21 55 -26 66 -7 4 6 0 16 -9
23 -14 10 -17 36 -19 151 -3 116 -6 139 -18 142 -9 1 -19 0 -23 -4z"/>
<path d="M1477 2924 c-13 -13 -8 -267 6 -294 16 -32 67 -41 67 -12 0 11 -7 22
-15 26 -11 4 -15 33 -17 143 -3 115 -6 138 -18 141 -9 1 -19 0 -23 -4z"/>
<path d="M4287 2912 c-9 -10 -17 -33 -17 -51 0 -24 -5 -34 -20 -38 -11 -3 -20
-11 -20 -18 0 -7 9 -15 20 -18 18 -5 20 -14 20 -96 0 -84 2 -91 20 -91 18 0
20 8 22 93 l3 92 45 0 45 0 5 -90 c5 -82 7 -90 25 -90 18 0 20 8 23 93 l3 93
47 -3 47 -3 3 -92 c2 -85 4 -93 22 -93 19 0 20 7 20 110 l0 109 -67 3 -68 3 0
30 c0 25 5 31 30 35 41 7 40 34 -2 38 -48 5 -71 -12 -80 -61 -8 -41 -10 -42
-51 -45 -32 -2 -44 1 -49 14 -8 23 9 47 38 54 38 9 30 35 -12 38 -24 2 -40 -3
-52 -16z"/>
<path d="M5020 2910 c-12 -12 -20 -33 -20 -54 0 -25 -5 -35 -20 -39 -11 -3
-20 -10 -20 -16 0 -6 9 -11 20 -11 19 0 20 -7 20 -96 0 -93 1 -95 23 -92 21 3
22 8 25 96 l3 92 29 0 c39 0 41 27 3 32 -24 2 -28 8 -28 32 0 25 5 31 33 38
35 9 41 22 16 32 -30 12 -64 6 -84 -14z"/>
<path d="M6237 2924 c-4 -4 -7 -79 -7 -166 0 -151 1 -158 20 -158 18 0 20 7
20 79 0 90 12 111 61 111 38 0 49 -27 49 -121 0 -62 2 -69 20 -69 19 0 20 7
20 98 0 83 -3 102 -18 115 -21 19 -58 22 -96 7 -28 -10 -33 -2 -38 69 -3 33
-17 49 -31 35z"/>
<path d="M1154 2899 c-22 -37 -111 -285 -104 -293 15 -15 39 2 54 39 15 34 16
35 74 35 l59 0 16 -40 c11 -29 21 -40 36 -40 12 0 21 5 21 10 0 20 -104 285
-114 292 -16 11 -34 10 -42 -3z m50 -116 c9 -26 16 -50 16 -55 0 -9 -73 -11
-82 -2 -3 3 0 22 7 42 8 20 16 45 19 55 8 27 22 13 40 -40z"/>
<path d="M2305 2898 c-3 -8 -4 -77 -3 -153 3 -132 4 -140 23 -140 18 0 20 8
23 68 l3 68 72 -3 72 -3 3 -67 c3 -60 5 -68 23 -68 19 0 19 6 17 153 -3 127
-5 152 -18 152 -11 0 -16 -14 -18 -57 -2 -32 -9 -61 -17 -68 -7 -6 -38 -10
-72 -8 l-58 3 -5 65 c-4 51 -9 66 -23 68 -9 2 -19 -3 -22 -10z"/>
<path d="M2587 2904 c-19 -20 -4 -33 41 -36 l47 -3 3 -132 c2 -125 4 -133 22
-133 22 0 22 -2 20 161 -1 107 0 109 67 109 27 0 34 4 31 18 -3 15 -18 17
-114 20 -60 1 -113 -1 -117 -4z"/>
<path d="M2857 2903 c-18 -18 -4 -32 36 -35 l42 -3 5 -130 c5 -122 6 -130 25
-130 19 0 20 8 23 125 2 84 7 127 15 132 7 4 29 8 50 8 39 0 45 8 25 28 -13
13 -209 18 -221 5z"/>
<path d="M3138 2904 c-5 -4 -8 -74 -8 -156 0 -141 1 -148 20 -148 17 0 20 7
20 44 0 69 6 76 60 76 70 0 100 27 100 89 0 69 -28 92 -117 98 -37 3 -71 2
-75 -3z m132 -54 c43 -43 13 -93 -54 -88 -40 3 -41 4 -44 42 -2 21 -1 44 2 52
8 22 72 18 96 -6z"/>
<path d="M4557 2896 c-3 -8 1 -20 9 -27 12 -10 18 -9 31 3 8 9 12 21 9 27 -10
16 -43 14 -49 -3z"/>
<path d="M6835 2900 c-9 -15 14 -40 31 -33 22 8 18 43 -5 43 -11 0 -23 -5 -26
-10z"/>
<path d="M3707 2851 c-4 -17 -14 -30 -26 -34 -27 -7 -27 -27 -1 -27 18 0 20
-7 20 -67 0 -93 14 -117 68 -121 36 -3 42 0 42 17 0 14 -8 21 -27 23 -27 3
-28 5 -31 76 l-3 72 31 0 c39 0 41 27 3 32 -22 2 -29 9 -31 31 -5 38 -37 37
-45 -2z"/>
<path d="M6080 2855 c0 -18 -7 -28 -25 -35 -14 -5 -25 -12 -25 -15 0 -3 11
-10 25 -15 24 -9 25 -13 25 -89 0 -89 12 -106 68 -99 38 4 42 36 5 40 -28 3
-28 4 -28 73 0 69 0 70 28 73 15 2 27 9 27 17 0 8 -12 15 -27 17 -22 2 -29 9
-31 31 -4 37 -42 39 -42 2z"/>
<path d="M7217 2851 c-4 -17 -14 -30 -26 -34 -27 -7 -27 -27 -1 -27 18 0 20
-7 20 -67 0 -93 14 -118 65 -118 29 0 41 4 43 17 2 12 -5 17 -25 20 -28 3 -28
4 -28 73 0 69 0 70 28 73 15 2 27 9 27 17 0 8 -12 15 -27 17 -22 2 -29 9 -31
31 -5 38 -37 37 -45 -2z"/>
<path d="M8267 2850 c-4 -17 -13 -30 -21 -30 -24 0 -30 -21 -7 -27 19 -5 21
-13 21 -77 0 -92 16 -118 68 -114 47 4 58 35 15 40 -28 3 -28 4 -31 76 l-3 72
31 0 c39 0 41 27 3 32 -22 2 -29 9 -31 31 -5 39 -38 37 -45 -3z"/>
<path d="M1639 2815 c-57 -31 -66 -148 -14 -192 28 -25 91 -31 126 -13 43 24
63 109 37 165 -23 50 -95 69 -149 40z m95 -41 c24 -23 21 -99 -4 -124 -31 -31
-62 -24 -86 22 -37 72 36 156 90 102z"/>
<path d="M3402 2814 c-35 -24 -27 -72 18 -101 76 -48 76 -49 60 -68 -11 -13
-24 -16 -58 -11 -38 5 -43 3 -40 -12 2 -13 15 -18 57 -20 62 -4 91 15 91 59 0
32 -9 41 -65 73 -55 30 -53 50 8 54 31 2 47 8 47 16 0 29 -82 36 -118 10z"/>
<path d="M3941 2818 c-14 -5 -37 -6 -53 -3 l-28 7 0 -111 c0 -104 1 -111 20
-111 18 0 20 7 20 79 0 84 5 94 53 106 33 9 41 19 24 33 -7 6 -21 6 -36 0z"/>
<path d="M4043 2820 c-39 -16 -25 -29 35 -32 54 -3 57 -4 60 -30 3 -27 2 -28
-42 -28 -54 0 -86 -25 -86 -68 0 -48 27 -63 106 -59 l69 4 3 89 c2 79 0 92
-18 112 -22 24 -83 29 -127 12z m95 -147 c4 -26 -29 -47 -58 -38 -22 7 -28 50
-7 59 28 12 62 1 65 -21z"/>
<path d="M4712 2815 c-37 -16 -52 -48 -52 -111 0 -37 6 -51 30 -75 26 -26 36
-30 77 -27 36 2 49 7 51 21 3 14 -4 17 -35 17 -44 0 -55 6 -72 38 -27 52 11
112 71 112 43 0 54 23 16 34 -33 8 -49 7 -86 -9z"/>
<path d="M5235 2819 c-11 -4 -35 -5 -53 -2 l-33 5 3 -108 c3 -93 5 -109 20
-112 15 -3 18 8 20 80 l3 83 43 15 c41 14 54 33 30 43 -7 2 -22 1 -33 -4z"/>
<path d="M5338 2810 c-35 -27 -50 -82 -38 -135 12 -51 43 -74 101 -75 37 0 52
5 73 26 22 23 26 35 26 85 0 76 -26 109 -90 116 -36 4 -51 1 -72 -17z m111
-54 c19 -41 5 -96 -31 -115 -25 -15 -29 -14 -52 8 -31 29 -35 84 -10 119 23
34 74 27 93 -12z"/>
<path d="M5635 2820 c-11 -4 -32 -5 -47 -3 l-28 6 0 -112 c0 -104 1 -111 20
-111 18 0 20 7 20 76 0 90 10 114 48 114 44 0 52 -16 52 -102 0 -63 3 -80 16
-85 25 -9 34 16 34 99 0 76 1 78 27 84 47 12 58 -5 63 -97 5 -76 7 -84 25 -84
18 0 20 8 23 79 5 130 -22 162 -114 136 -34 -10 -48 -10 -57 -1 -13 13 -52 13
-82 1z"/>
<path d="M6534 2820 c-37 -15 -54 -50 -54 -111 0 -47 4 -60 26 -83 21 -21 36
-26 75 -26 58 0 79 7 79 27 0 12 -8 14 -36 8 -44 -8 -90 9 -97 35 -7 27 0 30
63 30 73 0 88 14 72 69 -16 53 -70 75 -128 51z m81 -60 c0 -22 -5 -25 -39 -28
-46 -4 -57 5 -45 36 7 20 15 23 46 20 33 -3 38 -6 38 -28z"/>
<path d="M7036 2823 c-3 -4 -25 -7 -49 -7 l-42 -1 0 -105 c0 -98 1 -105 20
-105 18 0 20 8 23 80 3 88 12 105 51 105 43 0 51 -17 51 -108 0 -81 1 -83 23
-80 21 3 22 8 25 95 2 82 0 95 -18 113 -19 19 -69 27 -84 13z"/>
<path d="M7414 2820 c-36 -14 -54 -50 -54 -106 0 -42 5 -59 26 -84 25 -29 30
-31 88 -28 48 2 61 7 64 20 3 15 -2 17 -40 12 -35 -5 -48 -2 -70 16 -47 36
-37 50 36 50 79 0 92 11 76 70 -15 54 -66 75 -126 50z m85 -48 c7 -13 6 -23
-1 -30 -14 -14 -67 -15 -88 -2 -12 7 -12 12 4 29 24 26 72 28 85 3z"/>
<path d="M7672 2815 c-19 -8 -34 -10 -37 -4 -4 5 -13 9 -21 9 -12 0 -14 -18
-12 -107 2 -88 6 -108 18 -108 12 0 16 18 20 80 l5 80 43 15 c41 14 54 33 29
43 -7 3 -27 -1 -45 -8z"/>
<path d="M7840 2820 c-8 -5 -30 -7 -48 -4 l-33 6 3 -108 c3 -101 4 -109 23
-109 18 0 20 8 23 80 3 88 12 105 53 105 38 0 43 -12 49 -105 4 -72 7 -80 25
-80 19 0 20 7 20 98 0 86 -3 101 -19 113 -23 16 -74 18 -96 4z"/>
<path d="M8064 2820 c-58 -23 -74 -134 -28 -189 23 -28 31 -31 84 -31 36 0 62
5 69 13 16 20 2 27 -40 21 -45 -8 -89 15 -89 46 0 17 8 19 68 22 l67 3 3 36
c6 67 -63 108 -134 79z m81 -60 c0 -22 -5 -25 -42 -28 -36 -3 -43 0 -43 15 0
28 21 44 55 41 25 -2 30 -8 30 -28z"/>
<path d="M1830 2803 c1 -20 51 -171 63 -190 5 -7 17 -13 27 -13 14 0 22 15 36
70 10 39 23 69 28 67 5 -2 17 -30 26 -62 17 -62 41 -88 61 -68 12 12 69 175
69 198 0 8 -8 15 -19 15 -14 0 -22 -15 -37 -66 -26 -91 -35 -87 -64 24 -9 35
-15 42 -35 42 -21 0 -25 -8 -41 -70 -10 -38 -22 -70 -26 -70 -4 0 -17 32 -29
70 -16 55 -25 70 -40 70 -12 0 -19 -7 -19 -17z"/>
<path d="M6840 2709 c0 -100 2 -110 18 -107 15 3 17 18 20 111 3 102 2 107
-18 107 -19 0 -20 -6 -20 -111z"/>
<path d="M3770 2257 c0 -24 -5 -48 -12 -55 -9 -9 -9 -12 1 -12 9 0 12 -18 9
-70 -2 -39 -2 -70 -1 -70 1 0 8 -3 17 -6 14 -5 16 10 16 125 0 110 -2 131 -15
131 -11 0 -15 -11 -15 -43z"/>
<path d="M4976 2248 c-10 -34 -12 -57 -5 -69 5 -10 9 -47 9 -84 0 -42 4 -64
10 -60 6 3 10 38 10 77 0 56 4 74 18 84 16 13 16 13 -1 14 -27 0 -20 63 8 68
38 7 40 22 3 22 -35 0 -37 -2 -52 -52z"/>
<path d="M6690 2175 c0 -113 2 -125 19 -135 12 -6 22 -6 25 -1 3 5 -1 11 -9
15 -12 4 -15 28 -15 126 0 73 -4 120 -10 120 -6 0 -10 -48 -10 -125z"/>
<path d="M7380 2164 c0 -87 4 -133 10 -129 6 3 10 35 10 70 0 53 3 66 20 78
l21 14 -21 6 c-16 4 -20 13 -20 51 0 25 -4 46 -10 46 -6 0 -10 -52 -10 -136z"/>
<path d="M10370 2165 c0 -135 0 -136 21 -124 15 8 18 14 10 22 -18 18 -14 114
5 125 15 8 15 10 0 15 -11 5 -16 19 -16 52 0 25 -4 45 -10 45 -6 0 -10 -52
-10 -135z"/>
<path d="M1055 2270 c3 -5 21 -10 40 -10 42 0 45 -8 45 -131 0 -64 4 -98 10
-94 6 4 10 53 10 116 l0 109 34 0 c19 0 38 5 41 10 4 6 -28 10 -90 10 -62 0
-94 -4 -90 -10z"/>
<path d="M4320 2270 c0 -5 5 -10 10 -10 6 0 10 5 10 10 0 6 -4 10 -10 10 -5 0
-10 -4 -10 -10z"/>
<path d="M8965 2270 c4 -6 11 -8 16 -5 14 9 11 15 -7 15 -8 0 -12 -5 -9 -10z"/>
<path d="M4651 2253 c-1 -12 -9 -29 -18 -39 -13 -13 -14 -19 -5 -22 7 -2 12
-23 12 -55 0 -29 3 -62 6 -75 7 -25 50 -40 67 -23 8 8 6 11 -10 11 -32 0 -44
23 -41 81 3 45 7 55 28 66 24 12 24 13 3 13 -17 0 -25 8 -32 33 -7 23 -9 26
-10 10z"/>
<path d="M1960 2246 c0 -8 -7 -21 -15 -30 -9 -9 -11 -17 -5 -21 5 -3 10 -32
10 -63 0 -63 19 -102 50 -102 28 0 34 18 8 22 -21 3 -23 8 -23 73 0 65 1 69
25 76 l25 7 -27 1 c-23 1 -28 6 -28 26 0 14 -4 25 -10 25 -5 0 -10 -6 -10 -14z"/>
<path d="M8838 2254 c-5 -4 -8 -15 -8 -25 0 -9 -6 -20 -12 -23 -10 -5 -10 -7
0 -12 8 -4 12 -29 12 -75 0 -64 2 -70 24 -81 14 -6 33 -7 43 -3 17 8 17 8 -2
13 -36 8 -45 23 -45 78 0 42 4 56 20 67 20 14 20 15 1 20 -11 2 -21 15 -23 27
-1 12 -6 18 -10 14z"/>
<path d="M1601 2204 c-46 -19 -39 -50 19 -84 64 -37 62 -63 -5 -70 -35 -4 -45
-7 -32 -12 52 -22 107 2 107 45 0 20 -9 29 -44 46 -25 11 -47 25 -51 31 -10
16 13 38 43 42 19 2 22 5 11 9 -8 4 -30 1 -48 -7z"/>
<path d="M2755 2213 c-39 -10 -41 -25 -2 -18 24 5 42 3 52 -5 17 -14 20 -60 4
-60 -8 0 -8 -4 1 -14 6 -8 10 -27 8 -42 -2 -16 2 -29 10 -31 9 -4 12 16 12 75
0 75 -1 79 -25 90 -27 13 -28 13 -60 5z"/>
<path d="M3300 2211 c0 -4 12 -13 26 -20 21 -9 25 -17 21 -36 -3 -17 0 -25 9
-25 15 0 19 37 6 57 -9 15 -62 35 -62 24z"/>
<path d="M3521 2211 c-8 -5 -3 -11 14 -19 23 -11 25 -16 25 -82 0 -40 4 -70
10 -70 12 0 14 139 2 156 -10 15 -37 23 -51 15z"/>
<path d="M3695 2210 c-79 -29 -60 -178 22 -180 12 0 25 5 28 10 4 6 -6 10 -22
10 -40 0 -53 17 -53 70 0 49 17 74 55 82 15 3 17 5 5 9 -8 4 -24 3 -35 -1z"/>
<path d="M3949 2209 c-11 -7 -10 -9 4 -9 50 0 79 -97 39 -133 -23 -21 -66 -22
-86 -1 -23 22 -21 89 3 113 19 19 19 19 -5 24 -13 2 -26 2 -29 -1 -10 -10 -5
-242 5 -242 6 0 10 13 10 28 0 34 23 71 34 54 12 -20 56 -13 81 13 44 43 29
144 -24 158 -10 2 -25 1 -32 -4z"/>
<path d="M5975 2213 c-37 -9 -39 -22 -2 -16 23 3 43 1 52 -7 17 -14 21 -60 5
-60 -6 0 -5 -8 2 -20 10 -15 10 -24 1 -38 -9 -15 -7 -21 8 -30 18 -12 19 -8
19 67 0 51 -4 82 -12 89 -18 14 -50 20 -73 15z"/>
<path d="M7470 2210 c-9 -6 -7 -10 8 -14 19 -6 22 -16 24 -84 2 -45 7 -76 13
-75 12 3 19 95 10 139 -6 33 -32 48 -55 34z"/>
<path d="M8660 2213 c-47 -8 -43 -21 6 -20 44 2 49 0 58 -26 8 -22 7 -30 -4
-38 -11 -8 -12 -12 -2 -16 14 -6 16 -35 2 -49 -6 -6 -3 -14 10 -22 19 -12 20
-9 20 67 0 51 -4 82 -12 89 -18 14 -49 20 -78 15z"/>
<path d="M9146 2213 c-3 -3 4 -13 15 -22 16 -13 20 -29 22 -86 1 -39 6 -70 12
-70 14 0 19 144 5 160 -12 14 -46 26 -54 18z"/>
<path d="M9630 2213 c-14 -3 -29 -9 -35 -14 -6 -7 5 -8 32 -3 29 4 48 2 58 -6
18 -15 20 -56 3 -64 -10 -5 -10 -7 0 -12 14 -7 16 -40 2 -49 -10 -6 11 -35 24
-35 12 0 6 158 -6 168 -18 14 -49 20 -78 15z"/>
<path d="M10225 2212 c-48 -10 -72 -63 -55 -122 5 -18 17 -38 27 -46 21 -16
89 -19 98 -4 4 6 -11 10 -38 10 -25 0 -49 6 -55 13 -6 6 -10 35 -10 62 0 57
10 75 44 75 25 0 60 -42 49 -60 -3 -5 1 -10 9 -10 17 0 19 12 10 47 -7 24 -47
42 -79 35z"/>
<path d="M11460 2214 c0 -4 12 -15 26 -26 16 -14 24 -27 21 -39 -3 -12 0 -19
9 -19 20 0 18 44 -3 62 -20 17 -53 30 -53 22z"/>
<path d="M1282 2187 c-31 -33 -30 -96 3 -131 30 -32 72 -34 109 -5 22 17 26
28 26 70 0 62 -23 89 -78 89 -27 0 -45 -7 -60 -23z m98 -7 c42 -42 15 -130
-40 -130 -35 0 -60 32 -60 77 0 37 29 73 60 73 11 0 29 -9 40 -20z"/>
<path d="M1772 2203 c-7 -3 -20 -19 -28 -35 -33 -63 9 -138 77 -138 21 0 41 5
44 10 4 6 -11 10 -39 10 -33 0 -48 5 -54 18 -14 26 -8 112 9 123 35 22 86 -4
76 -40 -3 -15 -1 -21 10 -21 12 0 14 7 9 32 -3 18 -12 36 -19 40 -13 8 -65 9
-85 1z"/>
<path d="M2180 2132 c0 -47 5 -83 12 -90 15 -15 64 -16 73 -2 3 6 -4 10 -18
10 -31 0 -47 35 -47 105 0 30 -4 55 -10 55 -6 0 -10 -33 -10 -78z"/>
<path d="M2310 2141 c0 -38 -5 -73 -10 -76 -8 -5 -7 -11 1 -21 6 -7 15 -11 20
-8 12 7 11 161 -1 169 -6 4 -10 -20 -10 -64z"/>
<path d="M2400 2086 c0 -72 4 -126 9 -126 6 0 11 19 13 43 2 31 7 41 18 38 52
-14 67 -12 93 15 55 55 26 155 -46 153 l-32 -1 31 -9 c30 -8 54 -42 54 -75 0
-8 -7 -28 -15 -44 -12 -24 -22 -30 -48 -30 -45 0 -57 16 -57 77 0 39 4 55 18
62 9 6 12 11 5 11 -6 0 -18 3 -27 6 -14 5 -16 -9 -16 -120z"/>
<path d="M2920 2118 c0 -57 4 -87 10 -83 6 3 10 38 10 76 0 63 2 70 22 78 21
7 20 8 -10 13 l-32 5 0 -89z"/>
<path d="M3018 2194 c19 -13 22 -24 22 -85 0 -55 3 -69 15 -69 12 0 15 14 15
66 0 79 -11 104 -48 104 l-26 0 22 -16z"/>
<path d="M3246 2188 c-24 -35 -21 -113 6 -138 23 -21 92 -28 103 -10 4 6 -11
10 -39 10 -53 0 -64 13 -64 78 -1 31 5 48 21 62 17 16 18 20 4 20 -9 0 -23
-10 -31 -22z"/>
<path d="M3430 2120 c0 -58 4 -89 10 -85 6 3 10 35 10 70 0 55 3 66 22 79 17
12 19 16 6 16 -9 0 -23 3 -32 6 -14 5 -16 -6 -16 -86z"/>
<path d="M4110 2190 c-14 -14 -20 -33 -20 -65 0 -118 144 -131 157 -14 7 62
-22 99 -78 99 -26 0 -46 -7 -59 -20z m93 -5 c44 -43 25 -128 -30 -133 -37 -4
-63 26 -63 73 0 62 56 98 93 60z"/>
<path d="M4320 2120 c0 -53 4 -90 10 -90 6 0 10 37 10 90 0 53 -4 90 -10 90
-6 0 -10 -37 -10 -90z"/>
<path d="M4410 2118 c0 -57 4 -87 10 -83 6 3 10 38 10 76 0 63 2 70 22 78 21
7 20 8 -10 13 l-32 5 0 -89z"/>
<path d="M4515 2185 c22 -21 25 -33 25 -90 0 -42 4 -64 10 -60 13 8 13 116 0
149 -7 18 -17 26 -34 26 l-25 0 24 -25z"/>
<path d="M5122 2193 c-20 -17 -27 -49 -24 -100 4 -50 82 -82 123 -50 69 53 39
167 -44 167 -19 0 -44 -8 -55 -17z m90 -10 c24 -27 30 -57 18 -89 -13 -34 -26
-44 -60 -44 -37 0 -50 18 -50 69 0 71 54 108 92 64z"/>
<path d="M5320 2126 c0 -51 4 -86 10 -86 6 0 10 28 10 63 0 68 10 87 47 87 13
0 23 5 23 10 0 13 -16 13 -41 -1 -15 -7 -24 -7 -35 2 -12 10 -14 -1 -14 -75z"/>
<path d="M5572 2187 c-33 -35 -31 -109 4 -136 28 -22 98 -29 109 -11 4 6 -11
10 -38 10 -55 0 -76 21 -75 75 1 47 22 75 54 75 26 0 55 -35 47 -56 -3 -8 0
-14 6 -14 15 0 14 53 -1 68 -21 21 -82 14 -106 -11z"/>
<path d="M5750 2199 c0 -9 7 -22 15 -29 27 -22 27 -48 1 -87 -37 -53 -32 -65
7 -19 l33 39 27 -33 c38 -44 45 -32 11 19 l-27 41 28 36 c15 19 24 38 20 42
-4 4 -16 -5 -27 -21 -25 -34 -33 -34 -63 1 -18 20 -24 23 -25 11z"/>
<path d="M6130 2120 c0 -58 4 -89 10 -85 6 3 10 37 10 74 0 61 2 69 23 79 16
8 18 11 5 11 -9 1 -23 4 -32 7 -14 5 -16 -6 -16 -86z"/>
<path d="M6228 2195 c19 -14 22 -25 22 -85 0 -38 5 -72 10 -75 6 -4 10 20 10
64 0 59 3 72 21 84 21 15 21 15 -3 15 -13 0 -36 3 -53 7 -30 7 -30 7 -7 -10z"/>
<path d="M6338 2200 c29 -12 42 -48 42 -116 0 -34 4 -53 10 -49 14 9 13 148
-2 163 -7 7 -26 12 -42 11 -29 0 -29 -1 -8 -9z"/>
<path d="M6470 2084 c0 -71 4 -124 9 -124 6 0 11 19 13 43 2 31 7 41 18 38 52
-14 66 -12 89 13 18 19 24 37 24 71 0 56 -23 85 -67 84 -21 -1 -25 -3 -11 -6
38 -9 55 -34 55 -78 0 -48 -22 -75 -61 -75 -37 0 -49 18 -49 77 0 38 4 55 16
61 14 8 12 10 -10 14 l-26 5 0 -123z"/>
<path d="M6810 2190 c-29 -29 -28 -112 2 -140 23 -21 92 -28 103 -10 4 6 -10
10 -34 10 -55 0 -71 19 -68 81 2 30 9 54 18 60 35 22 86 -4 76 -40 -3 -14 -1
-21 9 -21 22 0 18 57 -5 70 -31 16 -79 12 -101 -10z"/>
<path d="M7070 2207 c0 -7 50 -160 56 -168 12 -20 31 7 43 61 18 81 34 78 61
-10 17 -55 24 -65 37 -48 12 16 53 136 53 157 0 26 -16 -2 -30 -51 -7 -26 -19
-53 -26 -59 -16 -13 -19 -7 -38 68 -16 63 -36 62 -54 -2 -8 -27 -16 -56 -19
-64 -6 -23 -26 3 -44 61 -9 29 -21 54 -27 56 -7 2 -12 2 -12 -1z"/>
<path d="M7610 2188 c-14 -16 -20 -35 -20 -69 0 -39 5 -51 26 -68 28 -22 98
-29 109 -11 4 6 -11 10 -38 10 -55 0 -70 16 -70 75 0 51 16 75 47 75 28 0 46
-18 46 -47 0 -14 6 -23 16 -23 21 0 11 49 -13 68 -27 20 -80 15 -103 -10z"/>
<path d="M7800 2118 c0 -111 16 -108 22 4 2 56 0 79 -9 83 -10 3 -13 -17 -13
-87z"/>
<path d="M7898 2195 c19 -14 22 -25 22 -85 0 -38 5 -72 10 -75 7 -5 10 22 8
82 l-3 88 -30 3 -30 3 23 -16z"/>
<path d="M8132 2190 c-17 -16 -22 -32 -22 -70 0 -41 4 -52 26 -69 29 -23 60
-27 84 -11 11 7 6 10 -22 10 -43 0 -68 27 -68 75 1 38 17 59 55 73 l30 10 -31
1 c-17 1 -39 -7 -52 -19z"/>
<path d="M8340 2200 c-8 -5 -25 -7 -37 -3 -22 5 -23 3 -23 -76 0 -65 3 -81 15
-81 12 0 15 14 15 63 0 68 10 87 48 87 13 0 20 4 17 10 -8 12 -16 12 -35 0z"/>
<path d="M8440 2190 c-30 -30 -28 -109 3 -138 24 -23 90 -31 102 -12 4 6 -11
10 -38 10 -25 0 -49 6 -55 13 -5 6 -10 36 -10 65 0 54 13 72 52 72 22 0 48
-31 43 -51 -3 -12 0 -19 9 -19 19 0 18 45 -2 64 -22 23 -80 20 -104 -4z"/>
<path d="M8974 2120 c0 -52 1 -74 3 -47 2 26 2 68 0 95 -2 26 -3 4 -3 -48z"/>
<path d="M9294 2196 c-14 -11 -19 -27 -19 -65 0 -54 13 -74 55 -86 24 -6 24
-6 -5 18 -53 44 -35 137 27 137 29 0 58 -36 58 -72 0 -38 -7 -50 -35 -66 -19
-11 -19 -11 3 -12 29 0 30 -32 1 -61 -17 -17 -29 -20 -61 -15 -26 4 -37 3 -33
-4 12 -19 93 -12 115 10 17 17 20 33 20 123 l0 102 -53 2 c-34 2 -61 -3 -73
-11z"/>
<path d="M9876 2201 c-4 -6 -4 -17 1 -23 4 -7 17 -42 28 -77 11 -36 26 -66 32
-68 7 -3 19 21 30 58 10 34 24 64 30 66 7 3 19 -19 29 -54 9 -32 18 -61 21
-65 9 -17 32 6 38 40 4 20 10 42 15 47 5 6 11 28 15 50 11 58 -9 33 -29 -37
-24 -83 -37 -76 -66 30 -14 54 -31 50 -47 -12 -21 -83 -46 -95 -58 -28 -8 48
-30 89 -39 73z"/>
<path d="M10467 2195 c63 -27 52 -137 -15 -143 -18 -2 -30 -8 -27 -13 12 -18
53 -9 79 17 52 53 24 155 -42 154 l-27 -1 32 -14z"/>
<path d="M10692 2198 c-20 -20 -14 -46 17 -67 16 -12 33 -21 39 -21 5 0 15 -7
22 -15 20 -24 -5 -45 -52 -45 -24 0 -37 -4 -33 -10 11 -18 81 -11 99 9 27 29
16 54 -34 78 -51 24 -59 50 -20 70 l25 13 -25 0 c-15 0 -31 -5 -38 -12z"/>
<path d="M10882 2203 c-7 -3 -20 -19 -28 -35 -33 -63 9 -138 77 -138 21 0 41
5 44 10 4 6 -11 10 -39 10 -34 0 -48 5 -55 18 -14 27 -7 112 10 123 35 22 86
-4 76 -40 -3 -14 -1 -21 9 -21 19 0 18 45 -2 64 -15 15 -65 20 -92 9z"/>
<path d="M11050 2125 c0 -50 4 -85 10 -85 6 0 10 28 10 63 0 68 10 87 47 87
13 0 23 5 23 10 0 12 -20 13 -39 1 -9 -6 -22 -6 -33 0 -17 9 -18 4 -18 -76z"/>
<path d="M11190 2202 c0 -12 51 -140 63 -159 17 -27 24 -17 68 100 12 31 19
60 15 64 -8 8 -8 8 -37 -66 -24 -65 -49 -91 -49 -52 0 11 -4 22 -9 25 -5 3
-12 21 -15 40 -6 32 -36 72 -36 48z"/>
<path d="M11408 2193 c-34 -39 -29 -120 9 -149 21 -16 89 -19 98 -4 4 6 -11
10 -38 10 -25 0 -49 6 -55 13 -6 6 -10 35 -11 62 0 40 5 54 22 67 17 14 18 18
6 18 -9 0 -23 -8 -31 -17z"/>
<path d="M11590 2121 c0 -59 4 -90 10 -86 6 3 10 34 10 69 0 67 10 86 47 86
13 0 23 5 23 10 0 13 -16 13 -41 -1 -15 -7 -24 -7 -35 2 -12 10 -14 -2 -14
-80z"/>
<path d="M9060 2121 c0 -44 5 -83 10 -86 6 -4 10 22 10 70 0 69 2 76 23 85 20
8 19 9 -10 9 l-33 1 0 -79z"/>
<path d="M2726 2117 c-22 -16 -18 -65 5 -80 9 -6 28 -7 45 -2 l29 9 -35 5
c-47 8 -54 43 -13 65 24 13 25 15 7 16 -11 0 -28 -6 -38 -13z"/>
<path d="M5940 2110 c-29 -29 -7 -80 36 -80 33 0 39 18 7 22 -40 4 -44 42 -6
62 26 14 26 15 6 16 -13 0 -32 -9 -43 -20z"/>
<path d="M8625 2110 c-36 -40 11 -97 62 -75 15 7 12 9 -12 14 -39 8 -45 38
-14 62 23 18 23 19 3 19 -11 0 -29 -9 -39 -20z"/>
<path d="M9594 2105 c-15 -23 -15 -27 0 -50 10 -15 26 -25 41 -25 34 0 41 18
8 22 -22 2 -29 9 -31 31 -2 19 1 27 12 27 8 0 18 5 21 10 14 23 -36 8 -51 -15z"/>
<path d="M4766 2038 c-3 -13 -6 -32 -5 -43 0 -14 4 -10 14 14 17 38 19 51 6
51 -5 0 -11 -10 -15 -22z"/>
<path d="M395 1408 c-11 -6 -23 -16 -27 -22 -4 -6 -8 -87 -8 -181 0 -93 4
-175 8 -181 18 -28 56 -34 202 -34 146 0 184 6 202 34 4 6 8 88 8 181 0 94 -4
175 -8 181 -18 28 -56 34 -204 34 -95 0 -161 -5 -173 -12z m307 -75 c25 -22
23 -30 -22 -93 -22 -30 -59 -83 -82 -117 -23 -35 -47 -63 -53 -63 -6 0 -36 21
-66 46 -90 76 -86 70 -59 99 13 14 27 25 31 25 5 0 24 -14 43 -30 l34 -30 23
29 c13 16 44 56 68 90 24 34 48 61 54 61 6 0 19 -7 29 -17z"/>
<path d="M4100 1360 c-12 -12 -20 -33 -20 -54 0 -25 -5 -35 -20 -39 -11 -3
-20 -10 -20 -15 0 -5 9 -12 20 -15 18 -5 20 -14 20 -97 0 -89 1 -91 23 -88 20
3 22 9 27 93 l5 90 40 0 40 0 5 -90 c5 -84 7 -90 28 -93 21 -3 22 -1 22 87 0
87 1 91 24 97 13 3 35 4 47 2 23 -3 24 -8 29 -93 5 -82 7 -90 25 -90 19 0 20
7 20 105 l0 105 -70 5 c-57 4 -70 8 -73 23 -5 25 16 47 44 47 33 0 31 28 -3
36 -40 10 -74 -14 -87 -61 -11 -38 -14 -40 -54 -43 l-43 -3 3 33 c2 24 9 34
23 36 42 7 48 11 35 27 -18 21 -66 19 -90 -5z"/>
<path d="M4831 1361 c-13 -13 -21 -34 -21 -55 0 -25 -5 -35 -20 -39 -11 -3
-20 -10 -20 -15 0 -6 9 -14 20 -17 18 -6 20 -15 20 -96 0 -88 1 -90 23 -87 20
3 22 9 27 93 5 89 5 90 33 93 38 5 36 32 -4 32 -28 0 -30 2 -27 33 2 27 8 33
31 35 20 3 27 8 25 20 -5 26 -62 28 -87 3z"/>
<path d="M1350 1229 c0 -77 5 -149 10 -160 13 -24 70 -27 70 -4 0 9 -7 18 -15
21 -12 5 -15 31 -15 145 l0 139 -25 0 -25 0 0 -141z"/>
<path d="M1470 1238 c0 -149 9 -181 53 -186 19 -2 27 1 27 13 0 8 -7 18 -15
21 -12 5 -15 31 -15 145 l0 139 -25 0 -25 0 0 -132z"/>
<path d="M6042 1213 c3 -150 4 -158 23 -158 18 0 20 8 25 85 5 82 6 85 33 94
50 18 62 1 65 -98 3 -78 5 -86 22 -86 19 0 20 7 20 98 0 86 -3 101 -20 117
-19 17 -58 17 -102 0 -16 -6 -18 0 -18 49 0 53 -1 56 -25 56 l-26 0 3 -157z"/>
<path d="M4374 1345 c-4 -9 -2 -21 4 -27 15 -15 44 -1 40 19 -4 23 -36 29 -44
8z"/>
<path d="M6644 1345 c-4 -9 -2 -21 4 -27 15 -15 44 -1 40 19 -4 23 -36 29 -44
8z"/>
<path d="M1145 1333 c-40 -101 -95 -257 -95 -269 0 -31 42 -11 54 26 11 34 12
35 72 38 l61 3 16 -41 c11 -29 21 -40 36 -40 12 0 21 3 21 8 0 4 -23 71 -52
149 -50 134 -55 143 -79 143 -16 0 -30 -7 -34 -17z m52 -85 c28 -82 29 -78
-22 -78 -34 0 -45 4 -41 13 3 6 11 31 18 55 15 50 30 54 45 10z"/>
<path d="M2300 1200 l0 -150 25 0 c23 0 24 3 27 68 l3 67 70 0 70 0 3 -67 c3
-60 5 -68 22 -68 19 0 20 8 20 150 0 142 -1 150 -20 150 -16 0 -19 -8 -22 -62
l-3 -63 -70 0 -70 0 -3 63 c-3 58 -4 62 -27 62 l-25 0 0 -150z"/>
<path d="M2585 1340 c-12 -19 6 -30 51 -30 l44 0 0 -131 c0 -127 1 -130 21
-127 20 3 21 9 22 128 l2 125 45 5 c32 4 46 10 48 23 3 15 -7 17 -112 17 -66
0 -117 -4 -121 -10z"/>
<path d="M2850 1330 c0 -17 6 -20 45 -20 l44 0 3 -127 c3 -124 4 -128 26 -131
22 -3 22 -2 22 127 l0 130 48 3 c34 2 47 7 47 18 0 12 -21 16 -117 18 -113 3
-118 2 -118 -18z"/>
<path d="M3130 1200 c0 -143 1 -150 20 -150 17 0 20 7 20 44 0 69 6 76 60 76
70 0 100 27 100 90 0 70 -28 90 -126 90 l-74 0 0 -150z m150 89 c26 -48 -12
-93 -73 -87 -31 3 -32 4 -35 56 l-3 52 50 0 c41 0 52 -4 61 -21z"/>
<path d="M3527 1323 c-4 -3 -7 -14 -7 -24 0 -10 -9 -23 -20 -29 -11 -6 -20
-15 -20 -20 0 -5 9 -12 20 -15 18 -6 20 -15 20 -84 0 -91 9 -104 67 -99 43 3
55 32 15 34 -36 2 -43 16 -40 85 l3 64 33 3 c40 4 38 25 -4 32 -23 4 -30 11
-32 33 -3 25 -20 35 -35 20z"/>
<path d="M5890 1305 c0 -14 -8 -29 -20 -35 -11 -6 -20 -15 -20 -20 0 -5 9 -12
20 -15 18 -6 20 -15 20 -84 0 -91 9 -104 67 -99 42 3 54 30 15 33 -34 3 -43
22 -40 90 l3 60 33 3 c40 4 38 25 -2 30 -21 3 -28 10 -33 33 -7 38 -43 42 -43
4z"/>
<path d="M7030 1305 c0 -16 -9 -29 -27 -39 l-28 -14 28 -13 c26 -12 27 -15 27
-89 0 -55 4 -81 14 -89 21 -17 91 -10 91 9 0 8 -6 14 -13 12 -7 -1 -22 3 -33
8 -17 10 -20 20 -17 78 l3 67 33 3 c40 4 38 25 -4 32 -23 4 -30 11 -32 33 -4
36 -42 39 -42 2z"/>
<path d="M8087 1323 c-4 -3 -7 -14 -7 -24 0 -10 -9 -23 -20 -29 -24 -13 -26
-30 -5 -30 12 0 15 -14 15 -67 0 -93 14 -117 68 -121 37 -3 42 -1 42 18 0 15
-5 20 -14 17 -8 -3 -21 0 -31 6 -13 10 -15 26 -13 77 3 63 4 65 31 68 15 2 27
9 27 17 0 8 -12 15 -27 17 -22 2 -29 9 -31 31 -3 25 -20 35 -35 20z"/>
<path d="M1643 1264 c-58 -29 -70 -138 -22 -190 18 -19 33 -24 74 -24 69 0 97
28 103 104 4 48 1 56 -24 85 -36 39 -85 49 -131 25z m89 -41 c23 -20 24 -90 2
-121 -34 -49 -99 -11 -99 58 0 66 54 102 97 63z"/>
<path d="M3857 1268 c-45 -16 -27 -33 31 -30 43 3 52 1 62 -17 16 -30 5 -41
-41 -41 -29 0 -47 -7 -64 -25 -29 -28 -31 -51 -10 -83 14 -19 24 -21 90 -19
l75 2 0 93 c0 79 -3 95 -20 112 -22 22 -75 26 -123 8z m94 -128 c14 0 10 -27
-7 -44 -30 -31 -74 -15 -74 25 0 13 41 29 58 23 8 -2 18 -4 23 -4z"/>
<path d="M4545 1272 c-53 -18 -75 -50 -75 -111 0 -81 34 -115 111 -109 33 2
45 7 47 21 3 16 -1 17 -30 12 -50 -10 -79 17 -80 75 -1 53 26 80 78 80 40 0
45 16 8 30 -28 11 -30 11 -59 2z"/>
<path d="M5165 1269 c-68 -39 -77 -159 -16 -206 23 -17 102 -16 128 2 48 34
50 147 4 189 -24 22 -89 30 -116 15z m89 -51 c50 -70 -22 -181 -77 -120 -34
37 -30 110 7 134 21 15 55 8 70 -14z"/>
<path d="M5466 1273 c-3 -4 -25 -7 -49 -7 l-42 -1 0 -105 c0 -98 1 -105 20
-105 18 0 20 8 23 87 3 85 4 88 29 94 47 12 58 -5 63 -97 5 -76 7 -84 25 -84
18 0 20 8 23 82 2 72 6 84 23 94 12 6 32 8 45 5 22 -6 23 -11 26 -94 3 -82 4
-87 26 -90 21 -3 22 -1 22 92 0 83 -3 99 -20 116 -24 24 -48 25 -95 6 -28 -12
-36 -12 -52 0 -19 14 -55 18 -67 7z"/>
<path d="M6341 1266 c-33 -18 -50 -53 -51 -103 0 -85 33 -116 120 -111 43 2
56 7 58 20 3 16 -2 17 -42 12 -51 -7 -86 12 -86 47 0 15 10 19 68 21 62 3 67
5 70 26 11 75 -69 126 -137 88z m89 -46 c16 -30 4 -40 -46 -40 -36 0 -44 3
-44 18 0 43 70 60 90 22z"/>
<path d="M6856 1273 c-4 -4 -28 -8 -54 -8 l-47 0 0 -98 c0 -106 4 -123 29
-114 13 5 16 22 16 87 0 75 2 81 24 91 14 7 36 9 50 5 24 -6 25 -9 28 -94 3
-82 4 -87 26 -90 21 -3 22 -1 22 92 0 83 -3 99 -20 116 -20 20 -60 27 -74 13z"/>
<path d="M7234 1270 c-66 -26 -87 -131 -38 -190 25 -29 30 -31 88 -28 47 2 62
7 64 19 3 14 -4 16 -43 12 -50 -6 -85 14 -85 48 0 15 10 19 68 21 66 3 67 4
70 32 8 69 -57 113 -124 86z m76 -50 c16 -30 4 -40 -46 -40 -36 0 -44 3 -44
18 0 43 70 60 90 22z"/>
<path d="M7666 1273 c-3 -4 -25 -7 -49 -7 l-42 -1 0 -105 c0 -101 1 -105 22
-108 21 -3 22 0 25 85 3 86 4 88 31 97 49 18 61 0 67 -95 5 -76 7 -84 25 -84
19 0 20 7 20 98 0 86 -2 100 -19 113 -21 15 -68 19 -80 7z"/>
<path d="M7874 1265 c-59 -31 -74 -122 -28 -182 23 -31 29 -33 83 -33 52 0 81
11 81 32 0 4 -20 5 -45 1 -51 -7 -95 15 -95 47 0 17 8 19 68 22 l67 3 3 36 c6
69 -66 108 -134 74z m86 -45 c16 -29 4 -40 -41 -40 -26 0 -42 5 -45 15 -16 41
65 64 86 25z"/>
<path d="M1830 1254 c0 -8 14 -58 31 -110 28 -82 34 -94 54 -94 20 0 26 9 41
70 10 39 22 70 26 70 6 0 22 -48 44 -127 2 -7 14 -13 27 -13 21 0 27 11 56 98
36 113 37 122 13 122 -15 0 -24 -17 -41 -75 -12 -41 -23 -75 -25 -75 -5 0 -31
80 -40 123 -5 20 -12 27 -30 27 -22 0 -26 -8 -42 -70 -18 -67 -30 -85 -39 -57
-2 6 -11 38 -20 70 -13 44 -21 57 -36 57 -11 0 -19 -7 -19 -16z"/>
<path d="M3674 1261 c-2 -2 -4 -51 -4 -108 0 -103 0 -104 23 -101 20 3 22 9
25 85 3 81 3 83 30 89 47 10 52 13 52 28 0 12 -12 15 -61 13 -33 -1 -62 -4
-65 -6z"/>
<path d="M4960 1160 c0 -103 1 -110 20 -110 17 0 19 8 22 83 l3 82 33 11 c17
5 37 15 44 22 17 17 -19 28 -53 15 -16 -7 -29 -7 -29 -2 0 5 -9 9 -20 9 -19 0
-20 -7 -20 -110z"/>
<path d="M6645 1257 c-3 -7 -4 -56 -3 -108 3 -86 5 -94 23 -94 19 0 20 7 20
105 0 92 -2 105 -18 108 -9 2 -19 -3 -22 -11z"/>
<path d="M7414 1257 c-3 -8 -3 -56 -2 -108 3 -80 6 -94 21 -97 15 -3 17 5 17
70 0 40 4 79 9 86 5 8 24 17 42 21 43 9 54 41 14 41 -14 0 -35 -5 -46 -10 -13
-7 -19 -7 -19 0 0 15 -30 12 -36 -3z"/>
<path d="M3770 700 c0 -30 -4 -50 -11 -50 -8 0 -8 -4 1 -14 7 -9 10 -40 9 -77
-2 -49 1 -63 14 -71 16 -8 17 3 17 127 0 113 -2 135 -15 135 -11 0 -15 -12
-15 -50z"/>
<path d="M4985 723 c-3 -16 -12 -39 -19 -53 -10 -21 -10 -28 1 -38 8 -8 13
-37 13 -83 0 -44 4 -68 10 -64 6 3 10 40 10 81 0 70 1 74 23 75 l22 0 -23 11
c-30 15 -28 71 3 76 38 7 40 22 2 22 -32 0 -37 -3 -42 -27z"/>
<path d="M6692 624 c3 -107 6 -129 20 -138 9 -5 21 -7 25 -2 4 4 0 12 -10 17
-15 9 -17 26 -17 129 0 76 -4 120 -10 120 -7 0 -10 -45 -8 -126z"/>
<path d="M7380 615 c0 -83 4 -135 10 -135 6 0 10 30 10 69 0 61 3 72 22 85
l22 16 -22 0 c-20 0 -22 5 -22 50 0 28 -4 50 -10 50 -6 0 -10 -52 -10 -135z"/>
<path d="M10370 615 c0 -74 4 -135 9 -135 16 0 33 28 21 35 -5 3 -10 30 -10
60 0 47 3 55 22 61 l23 7 -23 8 c-18 7 -22 16 -22 54 0 25 -4 45 -10 45 -6 0
-10 -52 -10 -135z"/>
<path d="M1050 720 c0 -5 18 -10 39 -10 26 0 41 -5 45 -16 3 -9 6 -60 6 -115
0 -59 4 -99 10 -99 6 0 10 45 10 115 l0 115 40 0 c22 0 40 5 40 10 0 6 -38 10
-95 10 -57 0 -95 -4 -95 -10z"/>
<path d="M4320 720 c0 -5 5 -10 10 -10 6 0 10 5 10 10 0 6 -4 10 -10 10 -5 0
-10 -4 -10 -10z"/>
<path d="M8960 720 c0 -5 4 -10 9 -10 6 0 13 5 16 10 3 6 -1 10 -9 10 -9 0
-16 -4 -16 -10z"/>
<path d="M1962 688 c-6 -14 -19 -31 -29 -37 -17 -10 -17 -10 0 -11 14 0 17
-10 17 -58 0 -67 19 -102 56 -102 30 0 32 18 2 22 -21 3 -23 9 -26 67 -2 45 1
67 10 73 10 6 10 10 2 16 -7 4 -14 18 -16 32 l-4 25 -12 -27z"/>
<path d="M4639 673 c-9 -18 -13 -36 -8 -39 5 -3 9 -27 9 -54 0 -69 14 -100 45
-100 14 0 25 5 25 10 0 6 -9 10 -20 10 -24 0 -33 29 -28 91 3 38 6 44 27 47
l24 4 -24 11 c-13 7 -26 22 -29 33 -4 19 -7 18 -21 -13z"/>
<path d="M8838 704 c-5 -4 -8 -15 -8 -25 0 -10 -7 -22 -16 -27 -15 -8 -15 -10
0 -15 12 -5 16 -21 16 -70 0 -68 10 -87 47 -87 29 0 30 12 1 25 -19 8 -24 19
-26 65 -3 43 1 57 14 67 16 12 16 14 2 26 -9 6 -18 20 -20 30 -1 11 -6 15 -10
11z"/>
<path d="M5973 658 c-44 -12 -42 -21 2 -12 22 4 41 2 50 -6 18 -15 20 -51 3
-68 -9 -9 -9 -12 1 -12 10 0 11 -9 7 -34 -5 -25 -3 -35 9 -40 13 -4 15 7 15
74 0 77 -1 80 -27 93 -20 10 -38 11 -60 5z"/>
<path d="M8653 658 c-45 -12 -41 -20 5 -12 29 4 43 2 55 -11 19 -19 22 -52 6
-57 -8 -3 -8 -10 2 -26 10 -17 11 -24 1 -34 -8 -8 -9 -15 -1 -25 23 -27 30
-11 27 69 -3 80 -3 82 -33 93 -20 8 -41 9 -62 3z"/>
<path d="M9620 654 l-35 -14 42 6 c31 4 47 1 58 -9 18 -19 19 -49 3 -65 -9 -9
-9 -12 0 -12 15 0 16 -36 2 -45 -8 -5 -7 -11 1 -21 23 -28 30 -12 27 68 -3 80
-3 82 -33 93 -24 10 -37 10 -65 -1z"/>
<path d="M1286 639 c-36 -29 -37 -99 -1 -134 32 -33 83 -34 113 -2 33 35 31
109 -4 136 -15 12 -39 21 -54 21 -15 0 -39 -9 -54 -21z m94 -9 c23 -23 27 -85
6 -112 -19 -26 -71 -23 -90 4 -23 32 -20 78 6 105 26 28 52 29 78 3z"/>
<path d="M1584 639 c-23 -26 -12 -46 42 -75 65 -34 56 -69 -18 -66 -24 1 -37
-2 -33 -8 9 -14 77 -12 98 4 27 21 22 61 -10 75 -60 27 -74 40 -63 61 5 10 20
21 32 23 21 4 21 4 -3 6 -15 0 -34 -8 -45 -20z"/>
<path d="M1774 650 c-48 -19 -55 -110 -11 -150 22 -21 107 -29 107 -10 0 6
-20 10 -44 10 -52 0 -59 8 -62 70 -3 69 35 99 80 65 14 -10 17 -21 12 -40 -5
-20 -3 -26 6 -23 20 7 21 36 4 63 -17 26 -51 32 -92 15z"/>
<path d="M2490 647 c46 -23 62 -94 29 -134 -14 -16 -71 -17 -87 -1 -7 7 -12
35 -12 63 0 44 3 54 23 63 21 10 20 11 -10 11 l-33 1 0 -120 c0 -73 4 -120 10
-120 6 0 10 18 10 41 l0 40 44 -6 c41 -6 48 -4 70 20 50 54 20 155 -46 155
l-23 0 25 -13z"/>
<path d="M2730 650 c-11 -7 -3 -9 25 -4 54 8 65 -6 62 -85 -1 -40 2 -66 10
-73 10 -8 13 7 13 70 0 70 -3 83 -19 92 -25 13 -71 13 -91 0z"/>
<path d="M3019 643 c16 -15 21 -31 23 -86 4 -86 22 -88 26 -2 3 76 -9 105 -44
105 l-26 0 21 -17z"/>
<path d="M3250 640 c-29 -29 -28 -112 2 -140 23 -21 108 -29 108 -10 0 6 -20
10 -44 10 -53 0 -65 13 -64 70 0 48 20 80 48 80 23 0 50 -32 50 -58 0 -12 5
-22 10 -22 16 0 12 57 -6 74 -22 23 -80 20 -104 -4z"/>
<path d="M3430 570 c0 -53 4 -90 10 -90 6 0 10 30 10 69 0 61 3 72 23 86 12
10 15 15 7 12 -8 -2 -23 0 -32 5 -17 8 -18 1 -18 -82z"/>
<path d="M3534 639 c24 -19 26 -27 26 -90 0 -39 4 -69 10 -69 15 0 13 153 -2
168 -7 7 -23 12 -36 12 l-25 0 27 -21z"/>
<path d="M3670 642 c-18 -15 -22 -28 -22 -72 0 -44 4 -57 22 -72 24 -20 65
-24 75 -8 4 6 -6 10 -22 10 -40 0 -53 17 -53 70 0 49 16 73 55 83 16 4 14 5
-6 6 -15 0 -37 -7 -49 -17z"/>
<path d="M3966 646 c35 -15 44 -32 44 -80 0 -39 -26 -66 -64 -66 -16 0 -25 -4
-21 -10 13 -20 63 -11 84 16 46 59 17 155 -46 154 l-28 -1 31 -13z"/>
<path d="M4130 653 c-27 -10 -40 -36 -40 -83 0 -58 29 -90 82 -90 50 0 73 29
73 92 0 40 -5 53 -24 69 -22 18 -60 23 -91 12z m76 -24 c22 -24 25 -89 5 -113
-8 -9 -28 -16 -47 -16 -28 0 -36 5 -45 28 -31 80 35 158 87 101z"/>
<path d="M4515 635 c22 -21 25 -33 25 -92 0 -49 3 -64 11 -56 7 7 10 38 7 83
-4 72 -13 90 -50 90 -14 0 -13 -4 7 -25z"/>
<path d="M5120 642 c-18 -15 -22 -28 -22 -72 0 -44 4 -57 22 -72 65 -52 157
14 136 97 -15 61 -88 86 -136 47z m87 -7 c29 -20 36 -58 19 -100 -13 -30 -20
-35 -48 -35 -46 0 -58 15 -58 71 0 38 5 51 22 63 28 20 38 20 65 1z"/>
<path d="M5377 650 c-16 -5 -35 -6 -43 -3 -11 4 -14 -11 -14 -81 0 -104 18
-116 22 -13 3 72 3 72 36 82 17 5 32 13 32 17 0 4 -1 8 -2 7 -2 0 -16 -5 -31
-9z"/>
<path d="M5576 639 c-36 -28 -38 -105 -3 -137 25 -23 100 -31 112 -12 4 6 -13
10 -43 10 -42 0 -51 4 -62 25 -10 19 -11 28 -3 36 9 9 8 17 0 31 -10 16 -8 22
12 39 30 24 46 24 72 -2 13 -13 18 -27 14 -40 -4 -11 -2 -19 4 -19 17 0 13 57
-5 74 -22 22 -66 20 -98 -5z"/>
<path d="M6228 644 c19 -14 22 -26 22 -85 0 -37 5 -71 10 -74 6 -4 10 20 10
64 0 59 3 72 21 84 21 15 21 15 -3 15 -13 0 -36 3 -53 7 l-30 6 23 -17z"/>
<path d="M6350 641 c21 -17 25 -29 28 -90 6 -97 22 -90 22 9 0 68 -3 81 -19
90 -11 5 -28 10 -38 10 -15 0 -14 -3 7 -19z"/>
<path d="M6568 640 c29 -18 32 -24 32 -68 0 -56 -12 -72 -55 -72 -43 0 -55 16
-55 77 0 39 4 55 18 62 14 9 13 10 -10 11 l-28 0 0 -119 c0 -69 4 -122 10
-126 6 -4 10 11 10 39 0 44 12 67 25 46 12 -19 61 -11 85 15 33 35 33 110 1
137 -13 10 -33 18 -45 18 -18 0 -16 -3 12 -20z"/>
<path d="M6878 643 c29 -14 33 -21 30 -45 -3 -19 0 -28 9 -28 20 0 16 60 -4
76 -10 7 -29 13 -43 13 -23 1 -23 -1 8 -16z"/>
<path d="M7479 643 c17 -15 21 -31 23 -87 2 -45 7 -71 16 -74 9 -3 12 15 12
68 0 84 -11 110 -46 110 l-26 0 21 -17z"/>
<path d="M7616 639 c-36 -28 -38 -105 -3 -137 25 -23 100 -31 112 -12 4 6 -11
10 -38 10 -55 0 -70 16 -70 76 0 58 21 82 60 68 22 -7 29 -17 31 -42 4 -41 28
-37 25 4 -4 54 -67 72 -117 33z"/>
<path d="M7898 643 c19 -13 22 -24 22 -84 0 -37 5 -71 10 -74 6 -4 10 25 10
78 0 88 -5 98 -48 96 -14 0 -12 -3 6 -16z"/>
<path d="M8150 649 c-33 -14 -40 -26 -40 -81 0 -36 5 -52 22 -68 23 -21 82
-28 93 -10 4 6 -8 10 -28 10 -46 0 -69 27 -65 76 2 31 10 43 37 61 35 24 25
29 -19 12z"/>
<path d="M8357 654 c-3 -4 -21 -7 -39 -8 l-33 -2 0 -78 c0 -53 4 -81 12 -83 9
-3 13 17 15 69 l3 73 34 11 c19 6 29 14 24 17 -6 4 -13 4 -16 1z"/>
<path d="M8460 653 c-27 -10 -40 -36 -40 -85 0 -62 26 -88 87 -88 24 0 43 5
43 10 0 6 -20 10 -44 10 -53 0 -65 13 -64 70 0 48 20 80 48 80 23 0 50 -32 50
-58 0 -12 5 -22 11 -22 16 0 4 71 -13 82 -14 9 -55 9 -78 1z"/>
<path d="M9157 642 c19 -14 23 -28 25 -86 2 -45 7 -71 16 -74 9 -3 12 17 12
77 0 69 -3 82 -19 91 -11 5 -28 10 -38 10 -16 0 -15 -3 4 -18z"/>
<path d="M9294 646 c-15 -11 -19 -26 -18 -70 0 -63 6 -72 49 -81 l30 -6 -27
17 c-49 32 -46 113 6 138 30 15 30 16 5 16 -14 0 -34 -6 -45 -14z"/>
<path d="M10201 647 c-45 -22 -49 -123 -7 -152 23 -17 106 -20 106 -5 0 6 -20
10 -44 10 -24 0 -48 6 -54 13 -6 7 -10 37 -9 67 2 50 4 55 31 65 24 8 31 6 47
-14 12 -14 17 -31 14 -42 -4 -13 -1 -19 9 -19 23 0 20 46 -4 70 -23 23 -54 25
-89 7z"/>
<path d="M10467 644 c63 -31 52 -136 -15 -142 -37 -4 -34 -22 4 -22 37 0 74
45 74 90 0 48 -32 90 -68 90 l-27 0 32 -16z"/>
<path d="M10695 647 c-29 -22 -13 -62 34 -80 67 -27 62 -71 -9 -69 -25 1 -39
-2 -35 -8 11 -17 81 -12 98 8 28 31 20 50 -33 77 -63 32 -65 63 -5 78 16 4 15
5 -6 6 -14 0 -33 -5 -44 -12z"/>
<path d="M10887 653 c-20 -5 -47 -52 -47 -83 0 -26 18 -61 39 -77 19 -15 101
-17 101 -3 0 6 -20 10 -44 10 -52 0 -59 8 -62 70 -3 71 41 104 80 61 12 -13
15 -27 11 -41 -5 -16 -3 -21 6 -18 21 7 23 47 3 69 -16 18 -47 22 -87 12z"/>
<path d="M11107 649 c-10 -6 -26 -7 -37 -4 -19 6 -20 2 -20 -79 0 -105 18
-115 22 -13 l3 72 34 11 c19 6 30 14 25 17 -5 3 -17 1 -27 -4z"/>
<path d="M11418 650 c-9 -6 -22 -26 -28 -45 -14 -42 1 -100 30 -115 24 -13
100 -13 100 0 0 6 -20 10 -44 10 -53 0 -65 13 -64 70 0 71 44 103 82 61 12
-13 15 -27 11 -41 -5 -16 -3 -21 6 -18 22 7 22 45 0 67 -22 22 -65 27 -93 11z"/>
<path d="M11642 649 c-12 -5 -29 -6 -37 -3 -13 5 -15 -8 -15 -82 0 -102 17
-105 22 -4 3 64 3 65 37 76 19 6 30 13 25 16 -5 3 -19 2 -32 -3z"/>
<path d="M2180 577 c0 -43 5 -78 12 -85 14 -14 78 -16 78 -2 0 6 -10 10 -21
10 -33 0 -48 29 -49 93 0 31 -4 57 -10 57 -6 0 -10 -31 -10 -73z"/>
<path d="M2310 586 c0 -36 -5 -68 -10 -71 -8 -5 -7 -11 1 -21 6 -7 15 -11 20
-8 13 7 11 164 -1 164 -6 0 -10 -28 -10 -64z"/>
<path d="M2920 564 c0 -54 4 -83 10 -79 6 3 10 37 10 74 0 61 2 69 22 78 21 9
20 10 -10 11 l-32 1 0 -85z"/>
<path d="M3870 530 c0 -66 4 -120 9 -120 9 0 22 60 20 95 -5 106 -3 117 16
131 18 13 17 14 -13 14 l-32 0 0 -120z"/>
<path d="M4320 565 c0 -50 4 -85 10 -85 6 0 10 35 10 85 0 50 -4 85 -10 85 -6
0 -10 -35 -10 -85z"/>
<path d="M4410 564 c0 -49 4 -84 10 -84 6 0 10 31 10 73 0 67 2 75 22 84 21 9
20 10 -10 11 l-32 1 0 -85z"/>
<path d="M5750 643 c0 -5 9 -19 20 -33 25 -32 25 -38 -5 -82 -26 -39 -30 -48
-17 -48 4 0 15 14 24 30 22 38 41 38 68 0 26 -36 49 -41 26 -5 -50 77 -48 68
-20 108 13 20 20 37 14 37 -5 0 -15 -9 -22 -20 -7 -11 -21 -20 -30 -20 -10 0
-23 9 -30 20 -13 20 -28 27 -28 13z"/>
<path d="M6130 565 c0 -50 4 -85 10 -85 6 0 10 30 10 69 0 61 3 72 22 85 22
16 22 16 -10 16 l-32 0 0 -85z"/>
<path d="M6800 631 c-5 -11 -10 -40 -10 -65 0 -60 27 -86 87 -86 58 0 55 18
-4 22 -42 3 -49 6 -57 31 -8 22 -7 30 4 37 10 7 11 10 3 10 -18 0 -16 30 4 52
15 16 15 18 0 18 -9 0 -21 -9 -27 -19z"/>
<path d="M7080 623 c29 -95 47 -137 57 -141 7 -2 15 2 17 10 24 85 30 104 34
111 7 15 32 -15 32 -39 0 -12 5 -26 10 -29 6 -3 10 -17 10 -31 0 -15 6 -24 15
-24 8 0 15 1 15 3 0 1 11 35 25 75 27 79 29 92 18 92 -5 0 -16 -27 -26 -60 -9
-33 -23 -60 -30 -60 -7 0 -20 25 -28 57 -20 79 -40 81 -60 7 -8 -32 -20 -59
-26 -61 -7 -3 -19 21 -29 56 -10 34 -24 61 -31 61 -8 0 -9 -8 -3 -27z"/>
<path d="M7800 563 c0 -54 4 -82 10 -78 6 3 10 37 10 74 0 60 2 69 22 78 20 9
19 10 -10 10 l-32 0 0 -84z"/>
<path d="M8974 565 c0 -49 1 -71 3 -48 2 23 2 64 0 90 -2 26 -3 8 -3 -42z"/>
<path d="M9060 564 c0 -49 4 -84 10 -84 6 0 10 31 10 73 0 67 2 75 22 84 21 9
20 10 -10 11 l-32 1 0 -85z"/>
<path d="M9390 630 c12 -12 20 -33 20 -55 0 -22 -8 -43 -20 -55 -16 -16 -17
-20 -5 -20 20 0 19 -30 -1 -59 -14 -19 -24 -22 -61 -19 -37 3 -41 1 -26 -9 25
-19 67 -16 97 8 25 20 26 24 26 125 l0 104 -25 0 -25 0 20 -20z"/>
<path d="M9873 639 c3 -8 16 -47 29 -86 12 -40 28 -73 35 -73 7 0 20 28 30 62
10 34 24 63 30 65 7 3 17 -14 23 -39 30 -111 42 -112 76 -9 27 82 28 91 15 91
-5 0 -15 -25 -22 -55 -19 -86 -40 -86 -62 1 -15 60 -42 72 -52 22 -10 -51 -27
-89 -38 -85 -5 1 -17 27 -26 57 -9 29 -22 55 -30 58 -8 3 -11 -1 -8 -9z"/>
<path d="M11190 646 c0 -24 64 -166 75 -166 7 0 21 21 31 48 10 26 21 52 24
57 4 6 10 22 14 38 11 45 -10 30 -28 -20 -10 -27 -21 -54 -25 -62 -12 -23 -31
-25 -31 -4 0 11 -4 23 -9 29 -5 5 -13 24 -18 43 -5 19 -14 36 -21 39 -7 2 -12
1 -12 -2z"/>
<path d="M2733 567 c-16 -7 -23 -19 -23 -37 0 -33 17 -50 51 -50 40 0 45 18 7
22 -42 4 -53 43 -17 56 12 5 18 11 13 14 -5 3 -19 1 -31 -5z"/>
<path d="M5954 570 c-28 -11 -36 -35 -22 -65 9 -19 19 -25 45 -25 40 0 44 17
6 22 -37 4 -45 44 -12 56 12 5 18 11 13 14 -5 3 -18 2 -30 -2z"/>
<path d="M8629 561 c-46 -37 4 -100 59 -75 13 6 10 8 -13 13 -34 7 -48 47 -21
57 17 7 22 24 7 24 -5 0 -19 -9 -32 -19z"/>
<path d="M9600 560 c-11 -11 -20 -26 -20 -33 0 -33 69 -63 85 -37 4 6 -7 10
-24 10 -26 0 -31 4 -31 25 0 14 7 28 15 31 8 4 15 10 15 15 0 15 -19 10 -40
-11z"/>
<path d="M4766 488 c-3 -13 -6 -32 -6 -43 1 -18 2 -17 15 5 16 28 19 60 6 60
-5 0 -11 -10 -15 -22z"/>
</g>
</svg>
