<?xml version="1.0" encoding="UTF-8"?>
<svg width="800px" height="416px" viewBox="0 0 800 416" version="1.1" xmlns="http://www.w3.org/2000/svg" xmlns:xlink="http://www.w3.org/1999/xlink">
    <title>track_auth</title>
    <defs>
        <linearGradient x1="50%" y1="7.61809716%" x2="50%" y2="100%" id="linearGradient-1">
            <stop stop-color="#FFFFFF" offset="0%"></stop>
            <stop stop-color="#E5E7EB" offset="100%"></stop>
        </linearGradient>
        <linearGradient x1="0%" y1="100%" x2="100%" y2="0%" id="linearGradient-2">
            <stop stop-color="#C8511B" offset="0%"></stop>
            <stop stop-color="#FF9900" offset="100%"></stop>
        </linearGradient>
    </defs>
    <g id="track_auth" stroke="none" stroke-width="1" fill="none" fill-rule="evenodd">
        <path d="M560,384 L444,384 C441.238576,384 439,381.761424 439,379 L439,376 L439,376" id="Path-6" stroke="#7B42BC" stroke-dasharray="4,4"></path>
        <rect id="Rectangle" fill="#F4ECFF" x="560" y="225" width="192" height="175" rx="2"></rect>
        <rect id="Rectangle" fill="#D4F2FF" x="560" y="16" width="192" height="176" rx="2"></rect>
        <rect id="Rectangle" stroke="#DBDBDC" x="305.5" y="96.9" width="191" height="256" rx="2"></rect>
        <rect id="Rectangle" stroke="#E5E7EB" fill="url(#linearGradient-1)" x="48.9" y="96.9" width="191" height="255" rx="2"></rect>
        <rect id="Rectangle" stroke="#DBDBDC" x="320.7" y="240.9" width="159" height="79" rx="2"></rect>
        <rect id="Rectangle" stroke="#DBDBDC" x="320.7" y="128.7" width="159" height="79" rx="2"></rect>
        <rect id="Rectangle" fill="#FFFFFF" x="576" y="64" width="160" height="32" rx="2"></rect>
        <rect id="Rectangle" fill="#FFFFFF" x="576" y="128" width="160" height="32" rx="2"></rect>
        <rect id="Rectangle" fill="#FFFFFF" x="576" y="337" width="160" height="32" rx="2"></rect>
        <rect id="Rectangle" fill="#FFFFFF" x="576" y="273" width="160" height="32" rx="2"></rect>
        <path d="M223.5,272.5 L223.5,318 C223.5,318.414214 223.332107,318.789214 223.06066,319.06066 C222.789214,319.332107 222.414214,319.5 222,319.5 L222,319.5 L66,319.5 C65.5857864,319.5 65.2107864,319.332107 64.9393398,319.06066 C64.6678932,318.789214 64.5,318.414214 64.5,318 L64.5,318 L64.5,272.5 L223.5,272.5 Z" id="Rectangle" stroke="#666666" fill="#FFFFFF"></path>
        <rect id="Rectangle" stroke="#E5E7EB" fill="#FFFFFF" x="64.1" y="128.9" width="159" height="63" rx="2"></rect>
        <g id="EC2" transform="translate(342.400000, 224.200000)">
            <rect id="Rectangle" fill="#FFFFFF" x="0.6" y="-0.2" width="38" height="38"></rect>
            <g id="Group-204" transform="translate(7.600000, 4.800000)" fill-rule="nonzero">
                <polygon id="Vector_16" fill="#9D5025" points="1.2036 5.40004167 0 6.003 0 22.997 1.2036 23.5999583 6.0756 14.9398333"></polygon>
                <polygon id="Vector_17" fill="#F58536" points="4.0092 22.9402083 1.2036 23.5999583 1.2036 5.40004167 4.0092 6.04166667"></polygon>
                <polygon id="Vector_18" fill="#9D5025" points="2.5308 4.73425 4.0092 3.998375 11.0316 15.264875 4.0092 25.001625 2.5308 24.26575"></polygon>
                <polygon id="Vector_19" fill="#F58536" points="7.5084 24.012 4.0092 25.001625 4.0092 3.998375 7.5084 4.991625"></polygon>
                <polygon id="Vector_20" fill="#9D5025" points="5.6568 3.17066667 7.5084 2.243875 17.868 16.497375 7.5084 26.756125 5.6568 25.8293333"></polygon>
                <polygon id="Vector_21" fill="#F58536" points="11.9964 25.114 7.5084 26.756125 7.5084 2.243875 11.9964 3.889625"></polygon>
                <polygon id="Vector_22" fill="#9D5025" points="9.6024 1.19745833 11.9964 0 23.2044 15.3204583 11.9964 29 9.6024 27.8025417"></polygon>
                <polygon id="Vector_23" fill="#F58536" points="24 22.993375 11.9964 29 11.9964 0 24 6.006625"></polygon>
            </g>
        </g>
        <g id="AWS" transform="translate(320.200000, 78.600000)">
            <rect id="Rectangle" fill="#FFFFFF" x="-0.2" y="0.4" width="38" height="38"></rect>
            <g id="Group_3" transform="translate(4.800000, 10.400000)">
                <path d="M7.89154968,6.17464286 C7.89154968,6.52435714 7.92864341,6.80728571 7.99325829,7.01614286 C8.06864231,7.22378571 8.16197491,7.45085714 8.29240123,7.69614286 C8.33787096,7.77142857 8.35701611,7.84792857 8.35701611,7.9135 C8.35701611,8.00821429 8.30077724,8.10292857 8.17992349,8.19764286 L7.59360331,8.59471429 C7.50984328,8.65178571 7.42608326,8.67971429 7.35069923,8.67971429 C7.25856321,8.67971429 7.16523061,8.63235714 7.07189801,8.54735714 C6.94147168,8.40528571 6.83019051,8.25471429 6.73685791,8.10292857 C6.64352531,7.94264286 6.55019271,7.76292857 6.4484841,7.54557143 C5.72216503,8.415 4.80918075,8.84971429 3.70953127,8.84971429 C2.92816989,8.84971429 2.30355942,8.62264286 1.84766557,8.1685 C1.39177172,7.71557143 1.15844022,7.10964286 1.15844022,6.35314286 C1.15844022,5.5505 1.43843801,4.89721429 2.00561304,4.40542857 C2.57398464,3.91485714 3.32782487,3.66835714 4.28747545,3.66835714 C4.60456697,3.66835714 4.9300345,3.69628571 5.27464718,3.74364286 C5.61925985,3.791 5.9734451,3.8675 6.34557893,3.9525 L6.34557893,3.26157143 C6.34557893,2.54392857 6.19600746,2.04242857 5.90763365,1.74857143 C5.60968728,1.45592857 5.10712713,1.31385714 4.39038062,1.31385714 C4.06371652,1.31385714 3.72867642,1.3515 3.38406375,1.43771429 C3.03945107,1.52271429 2.70441097,1.62592857 2.37894344,1.75828571 C2.22937197,1.82507143 2.11809079,1.86271429 2.05227934,1.88092857 C1.98766447,1.90035714 1.94099817,1.91007143 1.90390444,1.91007143 C1.77347812,1.91007143 1.70766667,1.81535714 1.70766667,1.61621429 L1.70766667,1.15357143 C1.70766667,1.00178571 1.72681182,0.888857143 1.77347812,0.822071429 C1.82014442,0.7565 1.90390444,0.689714286 2.03433077,0.624142857 C2.35979829,0.454142857 2.75107727,0.312071429 3.20697112,0.199142857 C3.66406155,0.0752857143 4.14747655,0.0194285714 4.65960928,0.0194285714 C5.76763476,0.0194285714 6.57891043,0.274428571 7.09941916,0.784428571 C7.61155189,1.29564286 7.87240454,2.07035714 7.87240454,3.111 L7.87240454,6.17464286 L7.89154968,6.17464286 Z M4.11038282,7.61114286 C4.41790177,7.61114286 4.7349933,7.55407143 5.0700334,7.44114286 C5.4050735,7.327 5.70301988,7.11935714 5.95429995,6.83642857 C6.10387143,6.65671429 6.2151526,6.45757143 6.27139148,6.2305 C6.32643378,6.00342857 6.36472408,5.73021429 6.36472408,5.40842857 L6.36472408,5.01135714 C6.09429885,4.94457143 5.80592505,4.88871429 5.50797868,4.84985714 C5.20883573,4.81221429 4.92046193,4.794 4.63208813,4.794 C4.00867422,4.794 3.5515838,4.91664286 3.24406485,5.17164286 C2.93774247,5.42664286 2.788171,5.78607143 2.788171,6.25964286 C2.788171,6.70407143 2.89945217,7.03435714 3.13278367,7.26142857 C3.3565426,7.49821429 3.68201012,7.61114286 4.11038282,7.61114286 Z M11.5889565,8.63235714 C11.4202399,8.63235714 11.3089587,8.60442857 11.2347713,8.53764286 C11.1605838,8.48057143 11.0947724,8.34821429 11.0385335,8.1685 L8.85000369,0.860928571 C8.79496139,0.6715 8.76624366,0.548857143 8.76624366,0.482071429 C8.76624366,0.3315 8.84162769,0.245285714 8.99000259,0.245285714 L9.90298687,0.245285714 C10.0800795,0.245285714 10.2009332,0.274428571 10.2655481,0.34 C10.3409321,0.397071429 10.3959744,0.529428571 10.4522133,0.709142857 L12.0173292,6.96878571 L13.4699674,0.709142857 C13.5166337,0.519714286 13.571676,0.397071429 13.64706,0.34 C13.7212475,0.284142857 13.8516738,0.245285714 14.0191938,0.245285714 L14.7634615,0.245285714 C14.9405541,0.245285714 15.0614079,0.274428571 15.1367919,0.34 C15.2109793,0.397071429 15.2755942,0.529428571 15.3138845,0.709142857 L16.7844712,7.04407143 L18.3962534,0.709142857 C18.4512957,0.519714286 18.5171072,0.397071429 18.5817221,0.34 C18.6571061,0.284142857 18.7779598,0.245285714 18.9454799,0.245285714 L19.8117979,0.245285714 C19.9601728,0.245285714 20.0439328,0.321785714 20.0439328,0.482071429 C20.0439328,0.529428571 20.0343602,0.576785714 20.0259842,0.633857143 C20.0164116,0.689714286 19.9972665,0.766214286 19.9601728,0.869428571 L17.7166007,8.17821429 C17.6603618,8.36764286 17.5945503,8.49028571 17.5203629,8.54735714 C17.4461754,8.60442857 17.3253217,8.64207143 17.1661776,8.64207143 L16.3656711,8.64207143 C16.1885785,8.64207143 16.0677247,8.61292857 15.9935373,8.54735714 C15.9181533,8.48057143 15.8535384,8.35792857 15.8164447,8.1685 L14.3733791,2.07035714 L12.9386895,8.16 C12.8920232,8.34821429 12.8357843,8.47207143 12.7615969,8.53764286 C12.6874094,8.60442857 12.5569831,8.63235714 12.389463,8.63235714 L11.5889565,8.63235714 Z M23.5546744,8.88735714 C23.0712594,8.88735714 22.5866479,8.8315 22.1211814,8.71735714 C21.655715,8.60442857 21.2919572,8.48057143 21.0502497,8.33971429 C20.9006782,8.25471429 20.7989696,8.16 20.7606793,8.075 C20.7235856,7.99 20.705637,7.89528571 20.705637,7.81028571 L20.705637,7.327 C20.705637,7.12907143 20.7798244,7.03435714 20.9198233,7.03435714 C20.9748656,7.03435714 21.0311045,7.04407143 21.0873434,7.06228571 C21.1435823,7.08171429 21.2273423,7.11935714 21.3194783,7.157 C21.6365698,7.29907143 21.9811825,7.41321429 22.3437438,7.4885 C22.7170742,7.56378571 23.0796354,7.60142857 23.4529658,7.60142857 C24.039286,7.60142857 24.4951799,7.49821429 24.8122714,7.28935714 C25.1281663,7.08171429 25.296883,6.77935714 25.296883,6.392 C25.296883,6.12728571 25.2131229,5.90992857 25.0444063,5.73021429 C24.8768863,5.5505 24.5609913,5.389 24.1039009,5.23842857 L22.7541679,4.81221429 C22.0745151,4.59485714 21.571955,4.27307143 21.264436,3.84807143 C20.9569171,3.43157143 20.7989696,2.96892857 20.7989696,2.47714286 C20.7989696,2.08007143 20.8827296,1.73035714 21.0502497,1.428 C21.2177697,1.12564286 21.4415286,0.860928571 21.7203299,0.652071429 C22.0003277,0.434714286 22.3162226,0.274428571 22.6883565,0.160285714 C23.0616869,0.0473571429 23.4529658,0 23.8621934,0 C24.0668072,0 24.2809935,0.00971428571 24.4856073,0.0376428571 C24.6997936,0.0667857143 24.8960314,0.104428571 25.0910726,0.142071429 C25.2777378,0.189428571 25.4548304,0.236785714 25.6223505,0.292642857 C25.7898705,0.349714286 25.9202969,0.406785714 26.0136295,0.463857143 C26.1440558,0.539142857 26.2373884,0.614428571 26.2924307,0.699428571 C26.3486696,0.774714286 26.3761907,0.879142857 26.3761907,1.0115 L26.3761907,1.45592857 C26.3761907,1.65507143 26.3020033,1.75828571 26.1620044,1.75828571 C26.0878169,1.75828571 25.9669632,1.72064286 25.8090157,1.64535714 C25.2777378,1.39885714 24.6818451,1.27621429 24.0201409,1.27621429 C23.4900596,1.27621429 23.0712594,1.36121429 22.7816891,1.54092857 C22.4933153,1.72064286 22.3437438,1.99507143 22.3437438,2.38242857 C22.3437438,2.64714286 22.4370764,2.87421429 22.6237416,3.05392857 C22.8104068,3.23364286 23.1550195,3.41335714 23.648007,3.57364286 L24.9702189,3.99985714 C25.6414956,4.21721429 26.1249106,4.51957143 26.4132844,4.90692857 C26.7028548,5.29428571 26.8416571,5.73871429 26.8416571,6.2305 C26.8416571,6.63728571 26.7578971,7.00642857 26.5999496,7.327 C26.4324296,7.64878571 26.2086707,7.93292857 25.9202969,8.16 C25.6319231,8.39557143 25.2873104,8.56678571 24.8864588,8.68942857 C24.4676587,8.82178571 24.0297134,8.88735714 23.5546744,8.88735714 Z" id="Vector_10" fill="#252F3E" fill-rule="nonzero"></path>
                <g id="Group_4" transform="translate(0.000000, 10.598015)" fill="#FF9900">
                    <path d="M25.3148315,2.88419912 C22.2504112,5.18284198 17.7991641,6.40198484 13.971331,6.40198484 C8.60829619,6.40198484 3.77414615,4.38748484 0.124602188,1.04091341 C-0.164968185,0.776199121 0.0958844654,0.416770549 0.440497141,0.624413407 C4.38918405,2.95098484 9.25923124,4.35955626 14.2979951,4.35955626 C17.6962589,4.35955626 21.4307595,3.64069912 24.8673137,2.16655626 C25.3794464,1.92977055 25.8173917,2.50655626 25.3148315,2.88419912 Z" id="Vector_11"></path>
                    <path d="M26.5903771,1.41005626 C26.1990981,0.898841978 24.0009957,1.16355626 23.005448,1.28741341 C22.7075016,1.32505626 22.6608353,1.06034198 22.930064,0.861199121 C24.6806485,-0.387086593 27.5584036,-0.027658022 27.8934437,0.388841978 C28.2296804,0.813841978 27.8013077,3.73541341 26.1620044,5.13548484 C25.9107243,5.35284198 25.6678202,5.23869912 25.780298,4.95577055 C26.1524318,4.01955626 26.981656,1.91034198 26.5903771,1.41005626 Z" id="Vector_12"></path>
                </g>
            </g>
        </g>
        <g id="Instruqt-Logo" transform="translate(63.600000, 79.600000)">
            <rect id="Rectangle" fill="#FFFFFF" x="0.4" y="0.4" width="38" height="38"></rect>
            <g id="Group" transform="translate(9.400000, 1.400000)">
                <path d="M16.7167655,11.9504321 C16.7167655,10.0961631 15.2095682,8.59247346 13.3509738,8.59247346 L6.62785775,8.59247346 C4.76926334,8.59247346 3.26206605,10.0961631 3.26206605,11.9504321 C3.26206605,13.804701 4.76926334,15.3083907 6.62785775,15.3083907 L13.3488569,15.3083907 C15.2095682,15.3083907 16.7167655,13.804701 16.7167655,11.9504321 Z M8.14563929,12.5797853 C8.02074513,12.8775665 7.81541067,13.1352212 7.5465707,13.3105109 C7.27773074,13.4858006 6.95808637,13.5892848 6.638442,13.5892848 C6.20448772,13.5892848 5.79170195,13.4139952 5.48264183,13.1162139 C5.17358171,12.8078731 5.0084674,12.396048 5.0084674,11.9631036 C5.0084674,11.6442031 5.10160881,11.3253027 5.28789162,11.0570884 C5.46359018,10.7888741 5.72184589,10.5840175 6.02032176,10.459414 C6.31879763,10.3348105 6.6511431,10.3052435 6.97078747,10.3664893 C7.29043184,10.4277351 7.5804403,10.5819055 7.80694327,10.8099933 C8.03344623,11.0359691 8.18797629,11.3253027 8.2514818,11.6442031 C8.3022862,11.9504321 8.27053345,12.2798922 8.14563929,12.5797853 Z M12.1930567,13.1056543 C11.8839966,12.7973134 11.7188823,12.3854883 11.7188823,11.952544 C11.7188823,11.6336435 11.8120237,11.314743 11.9983065,11.0465287 C12.1740051,10.7783144 12.4322608,10.5734578 12.7307367,10.4488543 C13.0292125,10.3242509 13.361558,10.2946839 13.6812024,10.3559297 C14.0008467,10.4171755 14.2908552,10.5713459 14.5173582,10.7994337 C14.7438611,11.0254095 14.8983912,11.314743 14.9618967,11.6336435 C15.0254022,11.952544 14.9936494,12.2820041 14.8687553,12.5818972 C14.7438611,12.8817904 14.5385267,13.1373332 14.2696867,13.3126228 C14.0008467,13.4879125 13.6812024,13.5913967 13.361558,13.5913967 C12.9276037,13.5892848 12.5042337,13.4139952 12.1930567,13.1056543 Z" id="Shape"></path>
                <path d="M11.6469094,3.59777402 C11.6257409,3.61889326 11.6045724,3.64846019 11.5855207,3.66957943 C11.3780694,3.86598833 11.130398,4.02015875 10.8636749,4.13209071 C10.5842506,4.24613458 10.296359,4.29682075 9.9957663,4.29682075 C9.69729043,4.29682075 9.39669771,4.24613458 9.1172735,4.13209071 C8.82726503,4.01804683 8.56900931,3.83430947 8.3530906,3.61678133 L8.3530906,5.32743949 L11.6469094,5.32743949 L11.6469094,3.59777402 Z" id="Path" fill="#A07DB8" fill-rule="nonzero"></path>
                <path d="M9.10668925,4.13209071 C9.38611346,4.24613458 9.68458933,4.29682075 9.98518205,4.29682075 C10.2836579,4.29682075 10.5736664,4.24613458 10.8530906,4.13209071 C11.1219306,4.01804683 11.3590178,3.8638764 11.5749365,3.66957943 C11.596105,3.64846019 11.6172735,3.61889326 11.6363251,3.59777402 C11.8120237,3.41192474 11.9453853,3.20706815 12.0491109,2.97898039 C12.1740051,2.71076609 12.2353937,2.43199217 12.2353937,2.14477055 C12.2353937,1.85543701 12.1740051,1.57877501 12.0491109,1.32112033 C11.934801,1.06346564 11.7696867,0.826930192 11.5749365,0.630521292 C11.3674852,0.434112393 11.130398,0.279941966 10.861558,0.176457707 C10.592718,0.0518542117 10.2942422,-0.00939157418 9.99364945,0.00116804407 C9.39458086,0.0117276623 8.82726503,0.237703493 8.403895,0.638968987 C8.19644369,0.835377886 8.04191363,1.07191334 7.92972058,1.32956802 C7.81541067,1.58722271 7.75402202,1.87655625 7.76460627,2.15321824 C7.76460627,2.44255178 7.81541067,2.7297734 7.92972058,2.98742809 C8.03344623,3.22396354 8.17739204,3.43093205 8.3530906,3.61678133 C8.56054191,3.83430947 8.81668078,4.00959913 9.10668925,4.13209071 Z" id="Path" fill="#18184A" fill-rule="nonzero"></path>
                <path d="M7.79635902,10.7973217 C7.56985605,10.5713459 7.27984759,10.4171755 6.96020322,10.3538178 C6.64055885,10.2904601 6.31033023,10.3221389 6.00973751,10.4467424 C5.70914479,10.5713459 5.45300593,10.7762025 5.27730737,11.0444168 C5.10160881,11.3126311 4.99788315,11.6315316 4.99788315,11.9504321 C4.99788315,12.3833764 5.17358171,12.7952015 5.47205758,13.1035424 C5.7811177,13.4118832 6.19390347,13.5766133 6.62785775,13.5766133 C6.94750212,13.5766133 7.26714649,13.4836886 7.53598645,13.2978394 C7.80482642,13.1225497 8.01016088,12.864895 8.13505504,12.5671138 C8.2599492,12.2693325 8.2895851,11.9377605 8.22819644,11.61886 C8.17739204,11.3126311 8.02286198,11.0232976 7.79635902,10.7973217 Z" id="Path" fill="#18184A" fill-rule="nonzero"></path>
                <path d="M14.8687553,12.5797853 C14.9936494,12.2820041 15.0232854,11.9504321 14.9618967,11.6315316 C14.900508,11.3126311 14.745978,11.0232976 14.5173582,10.7973217 C14.2908552,10.5713459 14.0008467,10.4171755 13.6812024,10.3538178 C13.361558,10.2904601 13.0313294,10.3221389 12.7307367,10.4467424 C12.4322608,10.5713459 12.1740051,10.7762025 11.9983065,11.0444168 C11.822608,11.3126311 11.7188823,11.6315316 11.7188823,11.9504321 C11.7188823,12.3833764 11.8945809,12.7952015 12.1930567,13.1035424 C12.5021169,13.4118832 12.9149026,13.5766133 13.3488569,13.5766133 C13.6685013,13.5766133 13.9881456,13.4836886 14.2569856,13.2978394 C14.5385267,13.1352212 14.7438611,12.8775665 14.8687553,12.5797853 Z" id="Path" fill="#18184A" fill-rule="nonzero"></path>
                <polygon id="Path" fill="#EF539E" fill-rule="nonzero" points="4.28450466 19.9229438 0.867908552 19.9229438 0.867908552 23.1689705 4.28450466 23.1689705 4.28450466 19.9335035"></polygon>
                <g transform="translate(0.000000, 5.327439)">
                    <path d="M16.7167655,6.62299257 C16.7167655,4.7687236 15.2095682,3.26503396 13.3509738,3.26503396 L6.62785775,3.26503396 C4.76926334,3.26503396 3.26206605,4.7687236 3.26206605,6.62299257 C3.26206605,8.47726154 4.76926334,9.98095118 6.62785775,9.98095118 L13.3488569,9.98095118 C15.2095682,9.98095118 16.7167655,8.47726154 16.7167655,6.62299257 Z" id="Path"></path>
                    <path d="M20,6.62299257 C20,2.96725273 17.0258256,0 13.361558,0 L11.6469094,0 L8.3530906,0 L6.638442,0 C2.97417443,0 0,2.96725273 0,6.62299257 C0,10.2787324 2.97417443,13.2459851 6.62785775,13.2459851 L6.6596105,13.2459851 C6.53471634,13.4825206 6.36960203,13.7000487 6.16426757,13.8837861 C5.66892464,14.3378497 4.9872989,14.5955044 4.28450466,14.603952 L4.28450466,17.8478668 C5.7811177,17.8478668 7.22692633,17.343117 8.3530906,16.4476614 L8.3530906,18.2406846 L11.6257409,18.2406846 L11.6257409,16.4371018 C12.7519052,17.3325574 14.195597,17.8373072 15.6943268,17.8373072 L15.6943268,14.5955044 C14.9915326,14.5955044 14.3099069,14.3378497 13.8145639,13.8753384 C13.6071126,13.6894891 13.4419983,13.4740729 13.319221,13.2375374 L13.3509738,13.2375374 C17.0152413,13.2480971 20,10.2808443 20,6.62299257 Z M6.62785775,9.98095118 C4.76926334,9.98095118 3.26206605,8.47726154 3.26206605,6.62299257 C3.26206605,4.7687236 4.76926334,3.26503396 6.62785775,3.26503396 L13.3488569,3.26503396 C15.2074513,3.26503396 16.7146486,4.7687236 16.7146486,6.62299257 C16.7146486,8.47726154 15.2074513,9.98095118 13.3488569,9.98095118 L6.62785775,9.98095118 L6.62785775,9.98095118 Z" id="Shape" fill="#18184A" fill-rule="nonzero"></path>
                </g>
                <polygon id="Path" fill="#58C9E9" fill-rule="nonzero" points="15.7049111 19.9335035 15.7049111 23.1689705 19.1215072 23.1689705 19.1215072 19.9229438 15.7049111 19.9229438"></polygon>
                <polygon id="Path" fill="#F78F2E" fill-rule="nonzero" points="8.3530906 25.1161641 8.3530906 27 11.6363251 27 11.6363251 25.1161641 11.6363251 23.5596764 8.3530906 23.5596764"></polygon>
            </g>
            <g id="Group" transform="translate(6.400000, 30.400000)" fill-rule="nonzero">
                <rect id="Rectangle" fill="#F78F2E" x="21.6982865" y="5.95629262" width="1" height="1.04370738"></rect>
                <path d="M17.279331,5.21419715 L17.279331,5.33137012 L18.2599,5.33137012 L18.2599,3.66057037 C18.2599,4.1184129 18.0765762,4.55455673 17.7568254,4.87786733 C17.6161351,5.01890887 17.4562597,5.1317421 17.279331,5.21419715 Z" id="Path" fill="#A07DB8"></path>
                <polygon id="Path" fill="#EF539E" points="6.96843486 4.34407936 5.95162745 4.34407936 5.95162745 5.32920025 6.96843486 5.32920025"></polygon>
                <rect id="Rectangle" fill="#58C9E9" x="25.0300894" y="4.45040298" width="1" height="1"></rect>
                <path d="M2.93104862,1.58183509 L2.93104862,1.46466212 L1.95047963,1.46466212 L1.95047963,3.13546187 C1.95047963,2.67761934 2.13380339,2.24147551 2.45355415,1.91816491 C2.59211281,1.77929324 2.75625154,1.66429014 2.93104862,1.58183509 Z" id="Path" fill="#A07DB8"></path>
                <path d="M21.6982865,1.69249845 C21.4062474,1.51890887 21.0694433,1.41475511 20.7070591,1.41475511 C19.6348282,1.41475511 18.7608428,2.30440174 18.7608428,3.39584625 C18.7608428,4.48729076 19.6348282,5.37693738 20.7070591,5.37693738 C21.0694433,5.37693738 21.4062474,5.27712337 21.6982865,5.09919405 L21.6982865,5.94978301 L21.6982865,5.94978301 L22.6724604,5.94978301 L22.6724604,1.46249225 L21.6982865,1.46249225 L21.6982865,1.69249845 Z M20.7070591,4.40266584 C20.1634828,4.40266584 19.7222268,3.95133292 19.7222268,3.40018599 C19.7222268,2.84686919 20.1656145,2.39770614 20.7070591,2.39770614 C21.2485037,2.39770614 21.6918914,2.84903906 21.6918914,3.40018599 C21.6918914,3.95133292 21.2506354,4.40266584 20.7070591,4.40266584 Z" id="Shape" fill="#18184A"></path>
                <path d="M21.0523899,3.04866708 C20.9841764,2.97923125 20.8967779,2.93149411 20.8029843,2.91196528 C20.7070591,2.89243645 20.6090022,2.9032858 20.5216037,2.94017359 C20.4320735,2.97923125 20.3553333,3.0399876 20.3041732,3.12244265 C20.2487497,3.20272784 20.2231696,3.30037198 20.2231696,3.39584625 C20.2231696,3.52603844 20.2743298,3.65406076 20.36386,3.74736516 C20.4555218,3.84066956 20.5791588,3.89057657 20.7091908,3.89057657 C20.805116,3.89057657 20.8989096,3.86236826 20.9777814,3.80812151 C21.0566533,3.7517049 21.1184718,3.67575945 21.1568418,3.58679479 C21.1952119,3.49566026 21.2037386,3.39584625 21.1845536,3.30037198 C21.1675002,3.20489771 21.1206034,3.11593304 21.0523899,3.04866708 Z" id="Path" fill="#18184A"></path>
                <path d="M10.948266,0.0585864848 L9.95490694,0.0585864848 L9.95490694,1.46683199 L9.95490694,2.45846249 L9.95490694,3.71481711 C9.95490694,4.17265964 10.1403624,4.6066336 10.4665082,4.93211407 C10.7926539,5.2532548 11.2360416,5.43552387 11.7007461,5.43552387 L11.7007461,4.44823311 C11.5025006,4.44823311 11.3106502,4.37011779 11.1720915,4.23124613 C11.0314012,4.09237446 10.9525293,3.90359578 10.9525293,3.71047737 L10.9525293,2.45846249 L12.1121587,2.45846249 L12.1121587,1.46683199 L10.9525293,1.46683199 L10.9525293,0.0585864848 L10.948266,0.0585864848 L10.948266,0.0585864848 Z" id="Path" fill="#18184A"></path>
                <path d="M13.5936706,1.46466212 L12.6194966,1.46466212 L12.6194966,3.16367018 L12.6194966,5.32703038 L13.5851439,5.32703038 L13.5936706,5.32703038 L13.5936706,3.05300682 C13.617119,2.90111593 13.6853325,2.75573466 13.7983111,2.6450713 C13.9347381,2.5083695 14.1201935,2.43242405 14.3120439,2.43242405 L14.3120439,1.46466212 C14.0626384,1.46466212 13.8174961,1.52107874 13.5936706,1.62523249 L13.5936706,1.46466212 L13.5936706,1.46466212 Z" id="Path" fill="#18184A"></path>
                <path d="M17.279331,3.66057037 L17.279331,3.66057037 C17.279331,3.85802852 17.2004591,4.04680719 17.0640321,4.18350899 C16.9254735,4.32238066 16.7378864,4.40049597 16.5417726,4.40049597 C16.3456588,4.40049597 16.1580717,4.32238066 16.019513,4.18350899 C15.8809543,4.04463732 15.8042142,3.85585865 15.8042142,3.66057037 L15.8042142,1.46683199 L14.8236452,1.46683199 L14.8236452,3.66057037 C14.8236452,4.1184129 15.0069689,4.55455673 15.3267197,4.87786733 C15.6486021,5.20117793 16.0855948,5.38127712 16.5417726,5.38127712 C16.7997048,5.38127712 17.0512421,5.32269064 17.279331,5.21419715 C17.4541281,5.1317421 17.6161351,5.016739 17.7546938,4.87569746 C18.0765762,4.55238686 18.2577683,4.11407316 18.2577683,3.6584005 L18.2577683,1.46466212 L17.2771993,1.46466212 L17.279331,3.66057037 L17.279331,3.66057037 Z" id="Path" fill="#18184A"></path>
                <path d="M1.10420595,1.79014259 C0.957120603,1.85089895 0.799376896,1.88344699 0.639501517,1.88127712 C0.481757809,1.88127712 0.324014102,1.85089895 0.176928753,1.79014259 L0.166270394,1.79014259 L0.157743707,1.79014259 L0.157743707,5.32920025 L1.13191768,5.32920025 L1.13191768,1.77929324 L1.11486431,1.78797272 L1.10420595,1.79014259 Z" id="Path" fill="#18184A"></path>
                <path d="M1.13618103,0.195288283 C1.07649422,0.134531928 1.00188571,0.0867947923 0.923013856,0.056416615 C0.84201033,0.0195288283 0.75461179,6.16714092e-15 0.665081577,6.16714092e-15 C0.488152824,0.00216986981 0.319750758,0.0716057037 0.191850455,0.193118413 C0.132163647,0.253874768 0.0831351972,0.323310601 0.0511601213,0.401425914 C0.0191850455,0.481711097 0,0.56416615 0,0.650960942 C0,0.739925604 0.0170533738,0.824550527 0.0511601213,0.90483571 C0.119373616,1.06323621 0.245142248,1.18691878 0.405017627,1.25418475 C0.486021153,1.2867328 0.575551365,1.30409175 0.667213249,1.30409175 C0.758875133,1.30409175 0.844142002,1.2867328 0.925145528,1.25418475 C1.00401738,1.2216367 1.07862589,1.17389957 1.14044437,1.11531308 C1.20013118,1.05455673 1.24915963,0.985120893 1.28113471,0.90700558 C1.31737312,0.826720397 1.33655817,0.739925604 1.33655817,0.653130812 C1.33655817,0.56633602 1.31737312,0.481711097 1.28113471,0.403595784 C1.24915963,0.329820211 1.20013118,0.258214507 1.13618103,0.195288283 Z" id="Path" fill="#18184A"></path>
                <path d="M9.08092154,3.27216367 C8.96581127,3.17017979 8.83577929,3.08989461 8.69082561,3.03564786 C8.53734525,2.97706138 8.37746987,2.9466832 8.21546282,2.94885307 L7.19012872,2.94885307 C7.15815364,2.94885307 7.1240469,2.94234346 7.09420349,2.92932424 C7.06436009,2.91847489 7.03664836,2.89894606 7.01533164,2.87724737 C6.99188325,2.8533788 6.97482988,2.82517049 6.95990817,2.79479231 C6.94711814,2.76441414 6.94072313,2.73186609 6.94072313,2.69714817 C6.94072313,2.63422195 6.96843486,2.56912585 7.01319997,2.52355859 C7.06009675,2.47582145 7.12191523,2.45195288 7.18799705,2.45195288 L9.18537345,2.45195288 L9.18537345,1.46466212 L7.18799705,1.46466212 C6.86185127,1.46466212 6.54849553,1.59485431 6.31401164,1.82269064 C6.20316471,1.93552387 6.11150283,2.06571606 6.04968435,2.2132672 C5.92391572,2.52138872 5.92391572,2.86639802 6.04968435,3.17451953 C6.11150283,3.32207068 6.20316471,3.45443273 6.31401164,3.56726596 C6.42485857,3.68009919 6.55915389,3.76906386 6.70410757,3.82982021 C6.85758793,3.89708617 7.01959498,3.92746435 7.18373371,3.92746435 L8.2090678,3.92746435 C8.26875461,3.92529448 8.32844142,3.93614383 8.38386488,3.9600124 C8.40731327,3.97303162 8.42649832,3.99256045 8.44142002,4.01859888 C8.45421005,4.04246745 8.46060507,4.07067576 8.45421005,4.09888407 C8.45421005,4.12926224 8.44568336,4.16181029 8.43289333,4.1900186 C8.4201033,4.21822691 8.40091826,4.24643521 8.37746987,4.26813391 C8.35615315,4.29200248 8.32844142,4.30936144 8.29859802,4.32455053 C8.26875461,4.33756975 8.23677954,4.34407936 8.20267279,4.34407936 L6.96417152,4.34407936 L6.96417152,5.32703038 L8.20267279,5.32703038 C8.36894318,5.32920025 8.53308191,5.29882207 8.6844306,5.23806572 C8.82938427,5.17513949 8.96154792,5.08617483 9.07452652,4.97551147 C9.18537345,4.86267824 9.27703534,4.72814631 9.33885382,4.5849349 C9.40493564,4.43304402 9.43691072,4.26813391 9.43691072,4.10322381 C9.43904239,3.94699318 9.40706731,3.79293242 9.3473805,3.64972102 C9.2876937,3.50867948 9.19390014,3.37631742 9.08092154,3.27216367 Z" id="Path" fill="#18184A"></path>
                <path d="M24.5014348,4.23124613 C24.3607444,4.09237446 24.2818726,3.90359578 24.2818726,3.71047737 L24.2818726,2.45846249 L25.4926621,2.45846249 L25.4926621,1.46683199 L24.2818726,1.46683199 L24.2818726,0.0585864848 L23.2885136,0.0585864848 L23.2885136,1.46683199 L23.2885136,2.45846249 L23.2885136,3.71481711 C23.2885136,4.17265964 23.473969,4.6066336 23.8001148,4.93211407 C24.1262606,5.2532548 24.5696483,5.43552387 25.0343527,5.43552387 L25.0343527,4.44823311 C24.8318439,4.44606324 24.6399934,4.37011779 24.5014348,4.23124613 Z" id="Path" fill="#18184A"></path>
                <path d="M3.66860703,1.41258524 C3.41067476,1.41258524 3.15913749,1.47117173 2.93104862,1.57966522 C2.75625154,1.66212027 2.59424449,1.77712337 2.45568582,1.91816491 C2.13380339,2.24147551 1.9526113,2.67978921 1.9526113,3.13546187 L1.9526113,5.32920025 L2.93318029,5.32920025 L2.93318029,3.13546187 C2.93318029,2.93800372 3.01205214,2.74922505 3.14847913,2.61252325 C3.2870378,2.47365158 3.47462491,2.39553627 3.67073871,2.39553627 C3.8668525,2.39553627 4.05443962,2.47365158 4.19299828,2.61252325 C4.33155694,2.75139492 4.40829712,2.94017359 4.40829712,3.13546187 L4.40829712,5.32920025 L5.38886611,5.32920025 L5.38886611,3.13546187 C5.38886611,2.67761934 5.20554235,2.24147551 4.88579159,1.91816491 C4.56177749,1.59485431 4.12478478,1.41475511 3.66860703,1.41258524 Z" id="Path" fill="#18184A"></path>
            </g>
        </g>
        <g id="Logo-Group_7" transform="translate(106.600000, 280.800000)" fill="#02A8EF">
            <polygon id="Vector_30" points="0 3.42208696 9.01 8.6666087 9.01 28 0 22.7554783"></polygon>
            <path d="M13.4725,5.68278261 L3.67685714,0 L3.67685714,3.94191304 L10.3408571,7.81808696 L10.3408571,19.6547826 L13.4749286,21.4686957 C15.4141429,22.5947826 17,21.9325217 17,19.9676522 L17,11.2827826 C16.9975714,9.33008696 15.4068571,6.81252174 13.4725,5.68278261 Z" id="Vector_31" fill-rule="nonzero"></path>
        </g>
        <g id="Logo-Group_9" transform="translate(161.000000, 280.800000)" fill="#7B42BC">
            <polygon id="Vector_34" points="8.2716 4.75815789 15.7284 9.01776316 15.7284 17.5428947 8.2716 13.2809211"></polygon>
            <polygon id="Vector_35" points="16.5456 9.01776316 16.5456 17.5428947 24 13.2809211 24 4.75815789"></polygon>
            <polygon id="Vector_36" points="0 0 0 8.52276316 7.4544 12.7859211 7.4544 4.26315789"></polygon>
            <polygon id="Vector_37" points="8.2716 22.7380263 15.726 27 15.726 18.5328947 15.726 18.4772368 8.2716 14.2140789"></polygon>
        </g>
        <g id="Terraform" transform="translate(125.200000, 141.000000)">
            <rect id="Rectangle" fill="#FFFFFF" x="-0.2" y="0" width="38" height="38"></rect>
            <g id="Logo-Group_9" transform="translate(6.800000, 6.000000)" fill="#7B42BC">
                <polygon id="Vector_34" points="8.2716 4.75815789 15.7284 9.01776316 15.7284 17.5428947 8.2716 13.2809211"></polygon>
                <polygon id="Vector_35" points="16.5456 9.01776316 16.5456 17.5428947 24 13.2809211 24 4.75815789"></polygon>
                <polygon id="Vector_36" points="0 0 0 8.52276316 7.4544 12.7859211 7.4544 4.26315789"></polygon>
                <polygon id="Vector_37" points="8.2716 22.7380263 15.726 27 15.726 18.5328947 15.726 18.4772368 8.2716 14.2140789"></polygon>
            </g>
        </g>
        <g id="HCP" transform="translate(86.800000, 141.000000)">
            <rect id="Rectangle" fill="#FFFFFF" x="0.2" y="0" width="38" height="38"></rect>
            <g id="Logo-Group_21" transform="translate(7.200000, 6.000000)" fill="#000000" fill-rule="nonzero">
                <polygon id="Vector_62" points="10.0032 0 0 5.67619048 0 5.68095238 0 19.3142857 3.7572 21.4488095 3.7572 7.81071429 10.0032 4.26428571"></polygon>
                <polygon id="Vector_63" points="13.9968 0 13.9968 10.8607143 10.0032 10.8607143 10.0032 6.80833333 6.2436 8.94285714 6.2436 22.8559524 10.0032 24.9952381 10.0032 14.1654762 13.9968 14.1654762 13.9968 18.1916667 17.754 16.0571429 17.754 2.13452381"></polygon>
                <polygon id="Vector_64" points="13.9968 25 24 19.3238095 24 19.3190476 24 5.68571429 20.2404 3.55119048 20.2404 17.1892857 13.9968 20.7357143"></polygon>
            </g>
        </g>
        <g id="Icon-Resource/Security-Identity-and-Compliance/Res_AWS-Identity-Access-Management_Role_48" transform="translate(163.600000, 141.000000)" fill="#BF0816">
            <path d="M35.26616,26.0648 C35.14136,26.0736 35.01576,26.0832 34.89656,26.0952 C34.47896,26.1296 34.04216,26.1712 33.60056,26.2176 L33.46616,26.232 C32.05416,26.3776 30.45576,26.5416 29.69496,26.4376 C29.21976,26.3696 28.34456,25.9896 27.41656,25.5872 C25.84376,24.9056 23.88536,24.056 22.11496,23.92 C19.67816,23.7328 15.46776,24.192 12.75256,25.4648 C11.18296,25.3944 9.72696,24.972 8.59576,24.2744 C8.59096,24.0568 8.58616,23.8392 8.58616,23.7552 C8.58616,20.4464 10.13656,17.3432 12.84216,15.2352 C14.67976,14.1608 16.79736,13.5936 18.97016,13.5936 C23.86696,13.5936 28.21256,16.4872 29.90776,20.7472 L29.25736,20.7472 C28.60616,20.7472 28.06056,21.208 27.92696,21.8192 C27.81656,21.7776 27.71576,21.74 27.59736,21.6944 C25.97416,21.068 23.74696,20.2112 21.17256,20.364 C17.40856,20.5848 15.55656,20.812 14.09816,21.228 L14.53736,22.7672 C15.87176,22.3856 17.63176,22.1752 21.26616,21.9608 C23.49336,21.8344 25.53576,22.6152 27.02136,23.1872 C27.33736,23.3096 27.62296,23.416 27.89416,23.5128 L27.89416,23.6768 C27.89416,24.428 28.50616,25.04 29.25736,25.04 L32.17496,25.04 C32.92456,25.04 33.53576,24.4304 33.53816,23.6816 L33.82136,23.656 C34.29576,23.6136 34.73176,23.5712 35.09736,23.5352 L35.26616,23.5184 L35.26616,26.0648 Z M7.83896,27.3992 C5.71896,27.6896 4.04536,27.4304 3.35256,27.0024 C3.77256,26.7056 4.72056,26.2904 5.38776,25.9992 C5.96536,25.7472 6.55016,25.4808 7.11576,25.196 C8.03896,25.8992 9.18216,26.4264 10.44776,26.7408 C9.71576,27.0352 8.80936,27.2672 7.83896,27.3992 L7.83896,27.3992 Z M29.49416,23.44 L31.93816,23.44 L31.93816,22.3472 L29.49416,22.3472 L29.49416,23.44 Z M21.26856,10.4 C27.96296,10.4 33.58536,15.436 34.41336,21.9936 C34.18296,22.016 33.93976,22.0392 33.68296,22.0624 L33.53496,22.0752 C33.51576,21.3408 32.91496,20.7472 32.17496,20.7472 L31.60616,20.7472 C29.84536,15.5656 24.74536,11.9936 18.97016,11.9936 C16.83096,11.9936 14.73816,12.4832 12.85736,13.4136 C12.87096,13.4024 12.88216,13.3904 12.89416,13.38 C15.24696,11.4584 18.22056,10.4 21.26856,10.4 L21.26856,10.4 Z M36.42136,22.2352 C36.30536,22.1304 36.16856,22.0544 36.02296,21.9968 C35.18616,14.548 28.83976,8.8 21.26856,8.8 C17.85336,8.8 14.51976,9.9864 11.88296,12.14 C8.40056,14.9752 6.40376,19.176 6.40376,23.6648 C6.40376,23.6976 6.40616,23.7304 6.40616,23.7632 C5.87256,24.0312 5.30856,24.2872 4.74776,24.5328 C3.03896,25.28 1.80456,25.8192 1.62056,26.7936 C1.57416,27.0408 1.56616,27.5248 2.03656,27.9952 C2.86616,28.8248 4.45816,29.1224 6.07576,29.1224 C6.74936,29.1224 7.42616,29.0712 8.05496,28.9848 C9.12616,28.8392 11.12616,28.4464 12.48376,27.4528 C14.62616,25.9 19.47016,25.3192 21.99256,25.5152 C23.49576,25.6312 25.31656,26.4208 26.78056,27.0552 C27.89736,27.5408 28.78056,27.9232 29.47336,28.0216 C30.42616,28.152 31.98216,27.992 33.62936,27.8232 L33.76776,27.8096 C34.19816,27.7632 34.62216,27.7232 35.04136,27.6888 C35.21336,27.672 35.38376,27.66 35.61096,27.644 C36.31496,27.5944 36.86616,27.004 36.86616,26.3 L36.86616,23.2368 C36.86616,22.8544 36.70456,22.4896 36.42136,22.2352 L36.42136,22.2352 Z" id="AWS-Identity-and-Access-Management_Role_Resource-Icon_light-bg"></path>
        </g>
        <path id="Line" d="M311.954062,155.087863 L320.999973,159.494846 L312.046841,164.087385 L312.005,160.087 L223.505154,160.999973 L223.005181,161.005128 L222.994872,160.005181 L223.494846,160.000027 L311.995,159.087 L311.954062,155.087863 Z" fill="#666666" fill-rule="nonzero"></path>
        <path id="Line" d="M410.1,280.9 L419.1,285.4 L410.1,289.9 L410.1,280.9 Z M385.9,284.9 L385.9,285.9 L380.9,285.9 L380.9,284.9 L385.9,284.9 Z M393.9,284.9 L393.9,285.9 L388.9,285.9 L388.9,284.9 L393.9,284.9 Z M401.9,284.9 L401.9,285.9 L396.9,285.9 L396.9,284.9 L401.9,284.9 Z M409.9,284.9 L409.9,285.9 L404.9,285.9 L404.9,284.9 L409.9,284.9 Z" fill="#979797" fill-rule="nonzero"></path>
        <path id="Line" d="M522.99863,32.0048847 C525.961823,31.9967539 528.381278,34.3375775 528.500292,37.2733573 L528.504878,37.4946289 L528.5,37.511 L528.5,99.8413092 C528.5,102.255583 530.401237,104.225798 532.788164,104.336411 L533,104.341309 L533.140556,104.339114 L551.488,103.766 L551.363591,99.7676911 L560.499756,103.984383 L551.644704,108.7633 L551.519,104.765 L533.171791,105.338626 C533.114545,105.340415 533.057274,105.341309 533,105.341309 C530.036521,105.341309 527.620461,102.997529 527.504367,100.062516 L527.5,99.8413092 L527.5,37.325 L527.499773,37.2837329 C527.390133,34.9666985 525.528845,33.110343 523.212303,33.0092056 L523.000491,33.0048826 L21.001371,33.4951153 C18.5880984,33.5017443 16.6197948,35.4031424 16.5052594,37.7883233 L16.5,38 L16.5002493,155.494457 C16.5256613,157.908597 18.4475304,159.858692 20.8354903,159.944174 L21.0473658,159.946842 L63.4947371,159.500028 L63.9947094,159.494765 L64.0052352,160.494709 L63.5052629,160.499972 L21.0578915,160.946787 C18.0945766,160.97798 15.6539804,158.65976 15.507,155.726132 L15.5003047,155.504983 L15.5000008,37.9991148 C15.5052422,35.0383564 17.8453869,32.6238397 20.7784455,32.5000772 L20.9995093,32.4951174 L522.99863,32.0048847 Z" fill="#666666" fill-rule="nonzero"></path>
        <g id="Icon-Resource/Security-Identity-and-Compliance/Res_AWS-Identity-Access-Management_Role_48" transform="translate(342.400000, 140.800000)" fill="#BF0816">
            <path d="M35.26616,26.0648 C35.14136,26.0736 35.01576,26.0832 34.89656,26.0952 C34.47896,26.1296 34.04216,26.1712 33.60056,26.2176 L33.46616,26.232 C32.05416,26.3776 30.45576,26.5416 29.69496,26.4376 C29.21976,26.3696 28.34456,25.9896 27.41656,25.5872 C25.84376,24.9056 23.88536,24.056 22.11496,23.92 C19.67816,23.7328 15.46776,24.192 12.75256,25.4648 C11.18296,25.3944 9.72696,24.972 8.59576,24.2744 C8.59096,24.0568 8.58616,23.8392 8.58616,23.7552 C8.58616,20.4464 10.13656,17.3432 12.84216,15.2352 C14.67976,14.1608 16.79736,13.5936 18.97016,13.5936 C23.86696,13.5936 28.21256,16.4872 29.90776,20.7472 L29.25736,20.7472 C28.60616,20.7472 28.06056,21.208 27.92696,21.8192 C27.81656,21.7776 27.71576,21.74 27.59736,21.6944 C25.97416,21.068 23.74696,20.2112 21.17256,20.364 C17.40856,20.5848 15.55656,20.812 14.09816,21.228 L14.53736,22.7672 C15.87176,22.3856 17.63176,22.1752 21.26616,21.9608 C23.49336,21.8344 25.53576,22.6152 27.02136,23.1872 C27.33736,23.3096 27.62296,23.416 27.89416,23.5128 L27.89416,23.6768 C27.89416,24.428 28.50616,25.04 29.25736,25.04 L32.17496,25.04 C32.92456,25.04 33.53576,24.4304 33.53816,23.6816 L33.82136,23.656 C34.29576,23.6136 34.73176,23.5712 35.09736,23.5352 L35.26616,23.5184 L35.26616,26.0648 Z M7.83896,27.3992 C5.71896,27.6896 4.04536,27.4304 3.35256,27.0024 C3.77256,26.7056 4.72056,26.2904 5.38776,25.9992 C5.96536,25.7472 6.55016,25.4808 7.11576,25.196 C8.03896,25.8992 9.18216,26.4264 10.44776,26.7408 C9.71576,27.0352 8.80936,27.2672 7.83896,27.3992 L7.83896,27.3992 Z M29.49416,23.44 L31.93816,23.44 L31.93816,22.3472 L29.49416,22.3472 L29.49416,23.44 Z M21.26856,10.4 C27.96296,10.4 33.58536,15.436 34.41336,21.9936 C34.18296,22.016 33.93976,22.0392 33.68296,22.0624 L33.53496,22.0752 C33.51576,21.3408 32.91496,20.7472 32.17496,20.7472 L31.60616,20.7472 C29.84536,15.5656 24.74536,11.9936 18.97016,11.9936 C16.83096,11.9936 14.73816,12.4832 12.85736,13.4136 C12.87096,13.4024 12.88216,13.3904 12.89416,13.38 C15.24696,11.4584 18.22056,10.4 21.26856,10.4 L21.26856,10.4 Z M36.42136,22.2352 C36.30536,22.1304 36.16856,22.0544 36.02296,21.9968 C35.18616,14.548 28.83976,8.8 21.26856,8.8 C17.85336,8.8 14.51976,9.9864 11.88296,12.14 C8.40056,14.9752 6.40376,19.176 6.40376,23.6648 C6.40376,23.6976 6.40616,23.7304 6.40616,23.7632 C5.87256,24.0312 5.30856,24.2872 4.74776,24.5328 C3.03896,25.28 1.80456,25.8192 1.62056,26.7936 C1.57416,27.0408 1.56616,27.5248 2.03656,27.9952 C2.86616,28.8248 4.45816,29.1224 6.07576,29.1224 C6.74936,29.1224 7.42616,29.0712 8.05496,28.9848 C9.12616,28.8392 11.12616,28.4464 12.48376,27.4528 C14.62616,25.9 19.47016,25.3192 21.99256,25.5152 C23.49576,25.6312 25.31656,26.4208 26.78056,27.0552 C27.89736,27.5408 28.78056,27.9232 29.47336,28.0216 C30.42616,28.152 31.98216,27.992 33.62936,27.8232 L33.76776,27.8096 C34.19816,27.7632 34.62216,27.7232 35.04136,27.6888 C35.21336,27.672 35.38376,27.66 35.61096,27.644 C36.31496,27.5944 36.86616,27.004 36.86616,26.3 L36.86616,23.2368 C36.86616,22.8544 36.70456,22.4896 36.42136,22.2352 L36.42136,22.2352 Z" id="AWS-Identity-and-Access-Management_Role_Resource-Icon_light-bg"></path>
        </g>
        <line x1="400" y1="142" x2="400" y2="178" id="Line" stroke="#343536" stroke-linecap="square" stroke-dasharray="2"></line>
        <text id="Role" font-family="Arial-BoldMT, Arial" font-size="9" font-weight="bold" letter-spacing="-0.018" fill="#1D1F25">
            <tspan x="351.884535" y="196.8">Role</tspan>
        </text>
        <text id="Policy" font-family="Arial-BoldMT, Arial" font-size="9" font-weight="bold" letter-spacing="-0.018" fill="#1D1F25">
            <tspan x="425.197896" y="196.8">Policy</tspan>
        </text>
        <text id="iteration" font-family="Arial-BoldMT, Arial" font-size="9" font-weight="bold" letter-spacing="-0.018" fill="#1D1F25">
            <tspan x="638.329291" y="82">iteration</tspan>
        </text>
        <text id="channel" font-family="Arial-BoldMT, Arial" font-size="9" font-weight="bold" letter-spacing="-0.018" fill="#1D1F25">
            <tspan x="639.058361" y="146">channel</tspan>
        </text>
        <text id="workspace" font-family="Arial-BoldMT, Arial" font-size="9" font-weight="bold" letter-spacing="-0.018" fill="#1D1F25">
            <tspan x="632.818549" y="291">workspace</tspan>
        </text>
        <text id="TFC-Token" font-family="Arial-BoldMT, Arial" font-size="9" font-weight="bold" letter-spacing="-0.018" fill="#1D1F25">
            <tspan x="54.4" y="388.8">TFC Token</tspan>
        </text>
        <text id="HCP-Service-Principa" font-family="Arial-BoldMT, Arial" font-size="9" font-weight="bold" letter-spacing="-0.018" fill="#1D1F25">
            <tspan x="65.2488145" y="49.2">HCP Service Principal</tspan>
        </text>
        <text id="Access-Key-Secret-Ke" font-family="Arial-BoldMT, Arial" font-size="9" font-weight="bold" line-spacing="12" letter-spacing="-0.118" fill="#1D1F25">
            <tspan x="248.521445" y="128.4">Access Key</tspan>
            <tspan x="250.525352" y="140.4">Secret Key</tspan>
        </text>
        <text id="run-task" transform="translate(774.400000, 224.600000) rotate(-90.000000) translate(-774.400000, -224.600000) " font-family="Arial-BoldMT, Arial" font-size="9" font-weight="bold" letter-spacing="-0.018" fill="#1D1F25">
            <tspan x="756.966385" y="223">run task</tspan>
        </text>
        <text id="run" font-family="Arial-BoldMT, Arial" font-size="9" font-weight="bold" letter-spacing="-0.018" fill="#1D1F25">
            <tspan x="648.778221" y="355">run</tspan>
        </text>
        <text id="AMI" font-family="Arial-BoldMT, Arial" font-size="9" font-weight="bold" letter-spacing="-0.018" fill="#1D1F25">
            <tspan x="353.378465" y="312">AMI</tspan>
        </text>
        <text id="Compute" font-family="Arial-BoldMT, Arial" font-size="9" font-weight="bold" letter-spacing="-0.018" fill="#1D1F25">
            <tspan x="418.964465" y="312">Compute</tspan>
        </text>
        <text id="Authentication" font-family="Arial-BoldMT, Arial" font-size="9" font-weight="bold" letter-spacing="-0.018" fill="#1D1F25">
            <tspan x="112.228197" y="120.2">Authentication</tspan>
        </text>
        <text id="Tools" font-family="Arial-BoldMT, Arial" font-size="9" font-weight="bold" letter-spacing="-0.018" fill="#1D1F25">
            <tspan x="131.979717" y="247.6">Tools</tspan>
        </text>
        <g id="Icon-Resource/Security-Identity-and-Compliance/Res_AWS-Identity-Access-Management_Permissions_48" transform="translate(419.200000, 140.800000)" fill="#BF0816">
            <path d="M16.23192,14.432 L17.36312,15.5632 L11.76472,21.1616 C11.60872,21.3176 11.40392,21.396 11.19912,21.396 C10.99432,21.396 10.78952,21.3176 10.63352,21.1616 L7.83352,18.3624 L8.96472,17.2312 L11.19912,19.4648 L16.23192,14.432 Z M16.23192,5.3336 L17.36312,6.4648 L11.76472,12.0632 C11.60872,12.2192 11.40392,12.2976 11.19912,12.2976 C10.99432,12.2976 10.78952,12.2192 10.63352,12.0632 L7.83352,9.264 L8.96472,8.1328 L11.19912,10.3664 L16.23192,5.3336 Z M15.96392,26.0608 L13.38072,28.6448 L15.96392,31.228 L14.83272,32.3592 L12.24872,29.776 L9.66472,32.3592 L8.53352,31.228 L11.11752,28.6448 L8.53352,26.0608 L9.66472,24.9296 L12.24872,27.5136 L14.83272,24.9296 L15.96392,26.0608 Z M31.39432,34.5488 C31.39432,34.904 31.10552,35.1928 30.75032,35.1928 L7.04472,35.1928 C6.68872,35.1928 6.39992,34.904 6.39992,34.5488 L6.39992,3.8448 C6.39992,3.4888 6.68872,3.2 7.04472,3.2 L30.75032,3.2 C31.10552,3.2 31.39432,3.4888 31.39432,3.8448 L31.39432,34.5488 Z M30.75032,1.6 L7.04472,1.6 C5.80712,1.6 4.79992,2.6072 4.79992,3.8448 L4.79992,34.5488 C4.79992,35.7856 5.80712,36.7928 7.04472,36.7928 L30.75032,36.7928 C31.98792,36.7928 32.99432,35.7856 32.99432,34.5488 L32.99432,3.8448 C32.99432,2.6072 31.98792,1.6 30.75032,1.6 L30.75032,1.6 Z" id="AWS-Identity-and-Access-Management_Permissions_Resource-Icon_light-bg"></path>
        </g>
        <path id="Path-2" d="M144.499941,191.992309 L144.922138,219.435112 C144.967724,222.398241 142.661387,224.850069 139.728508,225.011298 L139.507394,225.019067 L139.444189,225.019676 L20.9824904,225.480617 C18.5748752,225.489985 16.6149051,227.388807 16.5048722,229.769323 L16.5,229.980583 L16.5,395 C16.5,397.414273 18.4012365,399.384489 20.7881643,399.495102 L21,399.5 L523,399.5 C525.414273,399.5 527.384489,397.598763 527.495102,395.211836 L527.5,395 L527.5,309.17887 C527.5,306.141304 529.962434,303.67887 533,303.67887 L533.096635,303.679719 L533.096635,303.679719 L533.19324,303.682266 L551.523,304.326 L551.663353,300.329135 L560.499691,305.142567 L551.347143,309.323578 L551.487,305.325 L533.158105,304.681649 C533.105424,304.679796 533.052714,304.67887 533,304.67887 C530.585727,304.67887 528.615511,306.580107 528.504898,308.967034 L528.5,309.17887 L528.5,395 C528.5,397.963479 526.15622,400.379539 523.221207,400.495633 L523,400.5 L21,400.5 C18.0365209,400.5 15.6204609,398.15622 15.5043672,395.221207 L15.5,395 L15.5,229.980583 C15.5,227.025254 17.831384,224.612699 20.7580132,224.485827 L20.9785994,224.480624 L139.440298,224.019684 L139.492011,224.019185 C141.905999,223.982047 143.846735,222.050728 143.920617,219.662381 L143.922256,219.450495 L143.500059,192.007691 L144.499941,191.992309 Z" fill="#666666" fill-rule="nonzero"></path>
        <g id="Icon-Architecture/32/Arch_Amazon-EC2_32" transform="translate(424.000000, 270.400000)">
            <g id="Icon-Architecture-BG/32/Compute" fill="url(#linearGradient-2)">
                <rect id="Rectangle" x="0" y="0" width="28.8" height="28.8"></rect>
            </g>
            <path d="M18.75744,19.44 L18.72,10.04256 L9.36,10.08 L9.36,19.47744 L18.75744,19.44 Z M19.44,10.08 L20.88,10.08 L20.88,10.8 L19.44,10.8 L19.44,12.24 L20.88,12.24 L20.88,12.96 L19.44,12.96 L19.44,14.4 L20.88,14.4 L20.88,15.12 L19.44,15.12 L19.44,16.56 L20.88,16.56 L20.88,17.28 L19.44,17.28 L19.44,18.72 L20.88,18.72 L20.88,19.44 L19.44,19.44 L19.44,19.47744 C19.44,19.854 19.13328,20.16 18.75744,20.16 L18.72,20.16 L18.72,21.6 L18,21.6 L18,20.16 L16.56,20.16 L16.56,21.6 L15.84,21.6 L15.84,20.16 L14.4,20.16 L14.4,21.6 L13.68,21.6 L13.68,20.16 L12.24,20.16 L12.24,21.6 L11.52,21.6 L11.52,20.16 L10.08,20.16 L10.08,21.6 L9.36,21.6 L9.36,20.16 L9.32256,20.16 C8.94672,20.16 8.64,19.854 8.64,19.47744 L8.64,19.44 L7.2,19.44 L7.2,18.72 L8.64,18.72 L8.64,17.28 L7.2,17.28 L7.2,16.56 L8.64,16.56 L8.64,15.12 L7.2,15.12 L7.2,14.4 L8.64,14.4 L8.64,12.96 L7.2,12.96 L7.2,12.24 L8.64,12.24 L8.64,10.8 L7.2,10.8 L7.2,10.08 L8.64,10.08 L8.64,10.04256 C8.64,9.666 8.94672,9.36 9.32256,9.36 L9.36,9.36 L9.36,7.92 L10.08,7.92 L10.08,9.36 L11.52,9.36 L11.52,7.92 L12.24,7.92 L12.24,9.36 L13.68,9.36 L13.68,7.92 L14.4,7.92 L14.4,9.36 L15.84,9.36 L15.84,7.92 L16.56,7.92 L16.56,9.36 L18,9.36 L18,7.92 L18.72,7.92 L18.72,9.36 L18.75744,9.36 C19.13328,9.36 19.44,9.666 19.44,10.04256 L19.44,10.08 Z M15.12,23.76 L5.04,23.76 L5.04,13.68 L6.48,13.68 L6.48,12.96 L5.08464,12.96 C4.66344,12.96 4.32,13.30344 4.32,13.72464 L4.32,23.71536 C4.32,24.13656 4.66344,24.48 5.08464,24.48 L15.07608,24.48 C15.49728,24.48 15.84,24.13656 15.84,23.71536 L15.84,22.32 L15.12,22.32 L15.12,23.76 Z M24.48,5.08464 L24.48,15.07536 C24.48,15.49656 24.13728,15.84 23.71608,15.84 L21.6,15.84 L21.6,15.12 L23.76,15.12 L23.76,5.04 L13.68,5.04 L13.68,7.2 L12.96,7.2 L12.96,5.08464 C12.96,4.66344 13.30344,4.32 13.72464,4.32 L23.71608,4.32 C24.13728,4.32 24.48,4.66344 24.48,5.08464 L24.48,5.08464 Z" id="Amazon-EC2_Icon_32_Squid" fill="#FFFFFF"></path>
        </g>
        <g id="Icon-Architecture/32/Arch_AWS-EC2-Image-Builder_32" transform="translate(347.200000, 270.400000)">
            <g id="Icon-Architecture-BG/32/Compute" fill="url(#linearGradient-2)">
                <rect id="Rectangle" x="0" y="0" width="28.8" height="28.8"></rect>
            </g>
            <path d="M10.8554042,11.7894844 L8.10147379,14.5267792 L10.8554042,17.2605228 L11.3606011,16.7583777 L9.11258214,14.5267792 L11.3606011,12.2916295 L10.8554042,11.7894844 Z M5.03456421,23.0497522 L13.6093347,23.0497522 L13.6093347,6.0038062 L5.03456421,6.0038062 L5.03456421,23.0497522 Z M4.32,23.76 L14.3238989,23.76 L14.3238989,5.29355845 L4.32,5.29355845 L4.32,23.76 Z M5.49331443,14.1716553 C5.49331443,18.2101241 8.79888846,21.4957302 12.8626151,21.4957302 L12.8626151,20.7854824 C9.1933279,20.7854824 6.20787864,17.8180673 6.20787864,14.1716553 C6.20787864,10.5245331 9.1933279,7.55782828 12.8626151,7.55782828 L12.8626151,6.84758053 C8.79888846,6.84758053 5.49331443,10.1324764 5.49331443,14.1716553 L5.49331443,14.1716553 Z M15.4521958,17.9111098 L15.4521958,18.6213575 C17.8931471,18.6213575 19.8782065,16.647579 19.8782065,14.2220829 C19.8782065,11.7958766 17.8931471,9.82209811 15.4521958,9.82209811 L15.4521958,10.5323459 C17.4987077,10.5323459 19.1636423,12.1879334 19.1636423,14.2220829 C19.1636423,16.2562325 17.4987077,17.9111098 15.4521958,17.9111098 L15.4521958,17.9111098 Z M24.48,12.7511598 L24.48,15.6937163 C24.48,16.0921653 24.1541587,16.4160382 23.7532882,16.4160382 L22.4870804,16.4160382 C22.3448821,16.8805403 22.1562372,17.3315476 21.925433,17.7619577 L22.8214965,18.6526084 C23.1051785,18.9345768 23.1051785,19.3926866 22.8214965,19.6746549 L20.7278233,21.7556808 C20.4448559,22.036939 19.9825329,22.036939 19.6995654,21.7556808 L18.8027874,20.8643199 C18.370476,21.0944402 17.9167277,21.2819456 17.4501173,21.4232849 L17.4501173,22.6811337 C17.4501173,23.0802929 17.1235615,23.4048761 16.722691,23.4048761 L15.2428285,23.4048761 L15.2428285,22.6946284 L16.722691,22.6946284 L16.7355531,20.8820761 L17.001371,20.8117616 C17.5887428,20.6569276 18.1553922,20.4232561 18.6848843,20.1171393 L18.9228342,19.9793512 L20.2047623,21.2535357 L22.3162996,19.1725098 L21.0343714,17.8812794 L21.1722823,17.6447669 C21.480974,17.117763 21.7167802,16.5545366 21.8725552,15.9700027 L21.9432971,15.7057905 L23.7532882,15.7057905 L23.7654358,12.7511598 L21.9432971,12.7376651 L21.8725552,12.4741632 C21.7167802,11.8896293 21.480974,11.3264029 21.1722823,10.799399 L21.0343714,10.5635968 L22.3162996,9.2894123 L20.2226264,7.19063019 L18.9228342,8.46481466 L18.6848843,8.3270266 C18.1553922,8.02019957 17.5887428,7.78652806 17.001371,7.63169405 L16.7355531,7.56208977 L16.7355531,5.76232196 L15.2728402,5.75024775 L15.2728402,5.04 L16.722691,5.04 C17.1235615,5.04 17.4501173,5.36387297 17.4501173,5.76232196 L17.4501173,7.02088098 C17.9167277,7.16222028 18.370476,7.34972569 18.8035019,7.57913571 L19.6995654,6.68848503 C19.9825329,6.40722692 20.4448559,6.40651667 20.7278233,6.68848503 L22.8214965,8.76951095 C23.1051785,9.0514793 23.1051785,9.51029935 22.8214965,9.79155746 L21.925433,10.6822081 C22.1562372,11.1126183 22.3448821,11.5636256 22.4870804,12.0274174 L23.7532882,12.0274174 C24.1541587,12.0274174 24.48,12.3520006 24.48,12.7511598 L24.48,12.7511598 Z" id="AWS-EC2-Image-Builder_Icon_32_Squid" fill="#FFFFFF"></path>
        </g>
        <path id="Path-3" d="M400.499937,207.992064 L400.865,230.993 L404.86453,230.929651 L400.507936,239.999937 L395.865663,231.07249 L399.865,231.008 L399.500063,208.007936 L400.499937,207.992064 Z" fill="#666666" fill-rule="nonzero"></path>
        <path id="Path-3" d="M656,96.5 L656,119 L660,119 L655.5,128 L651,119 L655,119 L655,96.5 L656,96.5 Z" fill="#666666" fill-rule="nonzero"></path>
        <path id="Path-3" d="M655.100003,303.998413 L656.099997,304.001587 L656.027,327.001 L660.026961,327.014328 L655.498413,335.999997 L651.027007,326.985757 L655.027,326.998 L655.100003,303.998413 Z" fill="#666666" fill-rule="nonzero"></path>
        <path id="Path-4" d="M760.5,116.5 L751.5,112 L760.5,107.5 L760.5,111.5 L779,111.5 C781.963479,111.5 784.379539,113.84378 784.495633,116.778793 L784.5,117 L784.5,331 C784.5,333.963479 782.15622,336.379539 779.221207,336.495633 L779,336.5 L760.5,336.5 L760.5,340.5 L751.5,336 L760.5,331.5 L760.5,335.5 L779,335.5 C781.414273,335.5 783.384489,333.598763 783.495102,331.211836 L783.5,331 L783.5,117 C783.5,114.585727 781.598763,112.615511 779.211836,112.504898 L779,112.5 L760.5,112.5 L760.5,116.5 Z" fill="#666666" fill-rule="nonzero"></path>
        <g id="Terraform_Cloud_Logo_Color_RGB" transform="translate(584.000000, 233.000000)">
            <path d="M113.08041,19.0879655 L113.248786,20.4543983 C112.190131,20.6669045 111.113228,20.7753539 110.033459,20.7781975 C107.044792,20.7781975 105.652455,19.5833783 105.652455,17.0221263 L105.652455,11.3524015 C105.652455,8.7846735 107.044792,7.58985429 110.033459,7.58985429 C111.113867,7.59907203 112.190777,7.71402927 113.248786,7.93308149 L113.08041,9.2995143 C112.091248,9.13555649 111.091082,9.04679721 110.088505,9.03399892 C107.970858,9.03399892 107.248786,9.64597949 107.248786,11.4495413 L107.248786,16.9541284 C107.248786,18.7576902 107.970858,19.3664328 110.088505,19.3664328 C111.091411,19.3493531 112.091579,19.2562639 113.08041,19.0879655 L113.08041,19.0879655 Z" id="Path" fill="#000000" fill-rule="nonzero"></path>
            <polygon id="Path" fill="#000000" fill-rule="nonzero" points="115.894226 7.16891527 115.894226 20.6001079 114.336751 20.6001079 114.336751 7.39233675"></polygon>
            <path d="M124.526713,12.0712358 C123.879115,11.3944954 122.891527,11.0512682 121.61252,11.0512682 C118.309768,11.0512682 117.814355,13.2498651 117.814355,14.561252 L117.814355,17.2876417 C117.814355,18.5828386 118.309768,20.7943875 121.61252,20.7943875 C122.907717,20.7943875 123.879115,20.4511603 124.526713,19.7776579 C125.129747,19.0922771 125.443181,18.1995706 125.400971,17.2876417 L125.400971,14.561252 C125.443866,13.6492228 125.130344,12.7562669 124.526713,12.0712358 L124.526713,12.0712358 Z M123.843497,17.3459255 C123.843497,18.7415003 123.092283,19.4506206 121.602806,19.4506206 C120.11333,19.4506206 119.345926,18.7415003 119.345926,17.3459255 L119.345926,14.4997302 C119.345926,13.1073934 120.100378,12.3982731 121.583378,12.3982731 C123.066379,12.3982731 123.824069,13.1073934 123.824069,14.4997302 L123.843497,17.3459255 Z" id="Shape" fill="#000000" fill-rule="nonzero"></path>
            <path d="M134.45116,11.2455478 L134.45116,20.6033459 L133.194819,20.6033459 L133.039396,19.7711819 L133.00054,19.7906098 C131.964382,20.2892607 130.332434,20.7911495 129.221802,20.7911495 C127.865084,20.7911495 127.204533,20.0205073 127.204533,18.424177 L127.204533,11.2455478 L128.762008,11.2455478 L128.762008,18.407987 C128.762008,19.0264436 129.063141,19.3146249 129.704263,19.3146249 C130.429574,19.3146249 131.880194,18.877496 132.874258,18.3626552 L132.893686,18.3626552 L132.893686,11.2390718 L134.45116,11.2455478 Z" id="Path" fill="#000000" fill-rule="nonzero"></path>
            <path d="M142.157582,7.39233675 L142.157582,11.3524015 L142.115488,11.3524015 C141.232282,11.1755012 140.335019,11.0779726 139.434431,11.0609822 C137.397733,11.0609822 136.406908,12.0582839 136.406908,14.1046951 L136.406908,17.9449541 C136.406908,19.8618457 137.297356,20.7943875 139.123583,20.7943875 C140.239818,20.8090694 141.328697,20.4487705 142.215866,19.7711819 L142.264436,19.7388019 L142.40367,20.6195359 L143.715057,20.6195359 L143.715057,7.16891527 L142.157582,7.39233675 Z M142.157582,18.2881813 L142.157582,18.2881813 C141.41664,18.9645335 140.465188,19.3647836 139.463573,19.4214787 C138.233135,19.4214787 137.980572,18.8289261 137.980572,17.9352402 L137.980572,14.0949811 C137.980572,12.9195899 138.446843,12.417701 139.544522,12.417701 C140.414548,12.4408358 141.281078,12.5372372 142.134916,12.7058824 L142.164058,12.7058824 L142.157582,18.2881813 Z" id="Shape" fill="#000000" fill-rule="nonzero"></path>
            <polygon id="Path" fill="#000000" fill-rule="nonzero" points="31.8812736 9.86292499 28.2385321 9.86292499 28.2385321 7.68699406 37.9913654 7.68699406 37.9913654 9.86292499 34.3486239 9.86292499 34.3486239 20.7425796 31.8812736 20.7425796"></polygon>
            <path d="M40.5688073,18.9713977 C41.557152,18.9667446 42.5393037,18.8150567 43.4830005,18.5213168 L43.8553697,20.3216406 C42.72784,20.7286541 41.5376445,20.9346916 40.3389099,20.9304494 C37.3437669,20.9304494 36.3043713,19.5380464 36.3043713,17.2455478 L36.3043713,14.7199137 C36.3043713,12.7026444 37.2045332,10.9994603 40.2611981,10.9994603 C43.3178629,10.9994603 44.0043173,12.7803562 44.0043173,14.8364814 L44.0043173,16.8764166 L38.7199137,16.8764166 L38.7199137,17.3653535 C38.7199137,18.5213168 39.1181867,18.9713977 40.5688073,18.9713977 Z M38.7199137,14.9562871 L41.7571506,14.9562871 L41.7571506,14.4835402 C41.7571506,13.5833783 41.4819212,12.9584458 40.30653,12.9584458 C39.1311387,12.9584458 38.7199137,13.5833783 38.7199137,14.4835402 L38.7199137,14.9562871 Z" id="Shape" fill="#000000" fill-rule="nonzero"></path>
            <path d="M50.4025904,13.1915812 C49.5243706,13.5885501 48.6787963,14.0541032 47.8737183,14.583918 L47.8737183,20.7425796 L45.4840799,20.7425796 L45.4840799,11.1937399 L47.5013492,11.1937399 L47.6600108,12.2525634 C48.4361329,11.7255476 49.278931,11.3041485 50.1662169,10.9994603 L50.4025904,13.1915812 Z" id="Path" fill="#000000" fill-rule="nonzero"></path>
            <path d="M56.2374528,13.1915812 C55.3606301,13.5892724 54.5161873,14.0547985 53.7118187,14.583918 L53.7118187,20.7425796 L51.3221802,20.7425796 L51.3221802,11.1937399 L53.3394495,11.1937399 L53.4948732,12.2525634 C54.2721789,11.7255904 55.1160403,11.3042041 56.0043173,10.9994603 L56.2374528,13.1915812 Z" id="Path" fill="#000000" fill-rule="nonzero"></path>
            <path d="M64.2288181,20.7425796 L62.2698327,20.7425796 L62.0949811,20.0949811 C61.2493219,20.6434121 60.2631877,20.9357666 59.2552617,20.9368591 C57.5099838,20.9368591 56.7652455,19.7420399 56.7652455,18.0971398 C56.7652455,16.1543443 57.6103616,15.412844 59.5466811,15.412844 L61.8391797,15.412844 L61.8391797,14.4058284 C61.8391797,13.3502428 61.5477604,12.9778737 60.019428,12.9778737 C59.1301401,12.9871698 58.2439753,13.0847889 57.3739881,13.269293 L57.0793308,11.4495413 C58.1445423,11.1545206 59.2443982,11.0031543 60.3497032,10.9994603 C63.3480842,10.9994603 64.2352941,12.0550459 64.2352941,14.4446843 L64.2288181,20.7425796 Z M61.8391797,17.12898 L60.0906638,17.12898 C59.3070696,17.12898 59.0901241,17.3459255 59.0901241,18.0712358 C59.0901241,18.7188343 59.3070696,19.0426336 60.0615219,19.0426336 C60.6930422,19.0325411 61.3119792,18.8644485 61.8618457,18.5536967 L61.8391797,17.12898 Z" id="Shape" fill="#000000" fill-rule="nonzero"></path>
            <path d="M71.575823,9.02104695 C71.1247041,8.92202165 70.6647284,8.86886408 70.2029142,8.86238532 C69.2638964,8.86238532 69.1279007,9.27361036 69.1279007,9.99892067 L69.1279007,11.1937399 L71.556395,11.1937399 L71.4236373,13.0944414 L69.1343767,13.0944414 L69.1343767,20.7425796 L66.7447383,20.7425796 L66.7447383,13.0944414 L65.2164058,13.0944414 L65.2164058,11.1937399 L66.7447383,11.1937399 L66.7447383,9.86292499 C66.7447383,7.8845116 67.6643281,6.90334865 69.7787372,6.90334865 C70.4734629,6.90085033 71.1652652,6.99345379 71.8348624,7.17862925 L71.575823,9.02104695 Z" id="Path" fill="#000000" fill-rule="nonzero"></path>
            <path d="M76.2352941,20.9303832 C72.9649217,20.9303832 72.0712358,19.1235834 72.0712358,17.1807879 L72.0712358,14.7587696 C72.0712358,12.8159741 72.9519698,10.9994603 76.2223421,10.9994603 C79.4927145,10.9994603 80.3766865,12.7997841 80.3766865,14.7587696 L80.3766865,17.1807879 C80.3896384,19.1235834 79.5186185,20.9303832 76.2352941,20.9303832 Z M76.2352941,13.0361576 C74.9627631,13.0361576 74.4738262,13.6028063 74.4738262,14.6810577 L74.4738262,17.2455478 C74.4738262,18.3237992 74.9627631,18.8936859 76.2352941,18.8936859 C77.5078251,18.8936859 78,18.3237992 78,17.2455478 L78,14.6810577 C78,13.6189962 77.5110631,13.0361576 76.2352941,13.0361576 Z" id="Shape" fill="#000000" fill-rule="nonzero"></path>
            <path d="M86.5385861,13.1915812 C85.6617634,13.5892724 84.8173206,14.0547985 84.012952,14.583918 L84.012952,20.7425796 L81.6233135,20.7425796 L81.6233135,11.1937399 L83.6405828,11.1937399 L83.7960065,12.2525634 C84.5777158,11.7251976 85.4259077,11.3038237 86.3184026,10.9994603 L86.5385861,13.1915812 Z" id="Path" fill="#000000" fill-rule="nonzero"></path>
            <path d="M93.1181867,20.7425796 L93.1181867,14.0723152 C93.1181867,13.5639504 92.9012412,13.3081489 92.3540205,13.3081489 C91.8067998,13.3081489 90.7350243,13.6610901 89.8672423,14.1144091 L89.8672423,20.7425796 L87.4743659,20.7425796 L87.4743659,11.1937399 L89.2973556,11.1937399 L89.5337291,11.996762 C90.7232857,11.4030657 92.0233809,11.063431 93.3513222,10.9994603 C94.27415,10.9994603 94.8407987,11.3718295 95.154884,12.01619 C96.3478123,11.4072856 97.657196,11.0606191 98.995143,10.9994603 C100.581759,10.9994603 101.148408,12.1133297 101.148408,13.8197518 L101.148408,20.7425796 L98.7587696,20.7425796 L98.7587696,14.0723152 C98.7587696,13.5639504 98.5418241,13.3081489 97.9946033,13.3081489 C97.1183484,13.3997254 96.2711162,13.674414 95.5078251,14.1144091 L95.5078251,20.7425796 L93.1181867,20.7425796 Z" id="Path" fill="#000000" fill-rule="nonzero"></path>
            <polygon id="Path" fill="#7B42BC" points="6.86454398 5.3588775 13.0491096 8.93038316 13.0491096 16.0733945 6.86454398 12.5018888"></polygon>
            <polygon id="Path" fill="#7B42BC" points="13.72585 8.93038316 13.72585 16.0733945 19.9136535 12.5018888 19.9136535 5.3588775"></polygon>
            <polygon id="Path" fill="#7B42BC" points="3.45109802e-15 1.3729088 3.45109802e-15 8.51592013 6.18456557 12.0874258 6.18456557 4.94441446"></polygon>
            <polygon id="Path" fill="#7B42BC" points="6.86454398 20.4284943 13.0491096 24 13.0491096 16.9023206 13.0491096 16.8569887 6.86454398 13.285483"></polygon>
            <path d="M30.7674042,4.46195359 L30.7674042,2.62924987 L29.0933621,2.62924987 L29.0933621,4.46195359 L28.2385321,4.46195359 L28.2385321,0.0615218564 L29.0933621,0.0615218564 L29.0933621,1.90717755 L30.7674042,1.90717755 L30.7674042,0.0615218564 L31.6222342,0.0615218564 L31.6222342,4.46195359 L30.7674042,4.46195359 Z M34.7598489,4.46195359 L34.0798705,4.46195359 L34.0183486,4.24500809 C33.7271683,4.42768851 33.3906892,4.52526746 33.0469509,4.52671344 C32.4446843,4.52671344 32.1856449,4.12844037 32.1856449,3.58121964 C32.1856449,2.93362115 32.4770642,2.68753373 33.1570426,2.68753373 L33.9503508,2.68753373 L33.9503508,2.36373448 C33.9503508,2.01079331 33.849973,1.8877496 33.3027523,1.8877496 C32.9949066,1.89089749 32.6880642,1.92342494 32.3864004,1.98488937 L32.2860227,1.37938478 C32.6559231,1.28177294 33.0367593,1.23172018 33.41932,1.23043713 C34.4554776,1.23043713 34.7630869,1.58014031 34.7630869,2.37668645 L34.7598489,4.46195359 Z M33.9309228,3.2574204 L33.3189423,3.2574204 C33.0501889,3.2574204 32.9757151,3.33189423 32.9757151,3.58121964 C32.9757151,3.83054506 33.0501889,3.90501889 33.2995143,3.90501889 C33.5184338,3.90367298 33.7334401,3.84685785 33.9244468,3.73988127 L33.9309228,3.2574204 Z M36.4921749,4.52347545 C36.1055738,4.51738976 35.7218045,4.45633556 35.3524015,4.34214787 L35.4689692,3.73340529 C35.7852084,3.82246644 36.1118433,3.86928411 36.440367,3.87263896 C36.8062601,3.87263896 36.861306,3.79168915 36.861306,3.54883972 C36.861306,3.30599029 36.8192121,3.25418241 36.2849433,3.13113869 C35.4754452,2.94333513 35.3815434,2.74581759 35.3815434,2.13383702 C35.3815434,1.52185645 35.6729628,1.21748516 36.6152186,1.21748516 C36.9485368,1.21764388 37.2808209,1.25456433 37.6060443,1.3275769 L37.5380464,1.96222342 C37.2374496,1.90928259 36.9333035,1.87897621 36.6281705,1.87155963 C36.2687534,1.87155963 36.2072315,1.94927145 36.2072315,2.143551 C36.2072315,2.3993524 36.2298975,2.41878036 36.6767404,2.5288721 C37.5995683,2.76524555 37.6869941,2.88181328 37.6869941,3.53264976 C37.6869941,4.18348624 37.4894765,4.52671344 36.4921749,4.52671344 L36.4921749,4.52347545 Z M40.283864,4.4587156 L40.283864,2.24716676 C40.283864,2.07555316 40.2093902,1.99136535 40.0183486,1.99136535 C39.7163479,2.02334692 39.4236414,2.11468015 39.1570426,2.26011873 L39.1570426,4.46195359 L38.3281166,4.46195359 L38.3281166,2.30073201e-15 L39.1570426,0.123043713 L39.1570426,1.52833243 C39.5341537,1.34417413 39.9454657,1.24051909 40.3648138,1.22396114 C40.9152725,1.22396114 41.1095521,1.59309228 41.1095521,2.15974096 L41.1095521,4.46195359 L40.283864,4.4587156 Z M41.8057205,0.835402051 L41.8057205,0.058283864 L42.6346465,0.058283864 L42.6346465,0.835402051 L41.8057205,0.835402051 Z M41.8057205,4.4587156 L41.8057205,1.285483 L42.6346465,1.285483 L42.6346465,4.4587156 L41.8057205,4.4587156 Z M43.295197,1.31138694 C43.295197,0.514840799 43.7776579,0.0518078791 44.9141932,0.0518078791 C45.327524,0.0526566704 45.7393548,0.101554787 46.1413923,0.197517539 L46.0474906,0.906637885 C45.6818906,0.840434895 45.3115755,0.803619944 44.9400971,0.796546141 C44.3507825,0.796546141 44.159741,0.990825688 44.159741,1.44414463 L44.159741,3.11171074 C44.159741,3.57474366 44.3507825,3.75930923 44.9400971,3.75930923 C45.3115755,3.75223543 45.6818906,3.71542047 46.0474906,3.64921749 L46.1413923,4.36157582 C45.7392267,4.45644836 45.3273976,4.50425966 44.9141932,4.50404819 C43.7873718,4.50404819 43.295197,4.04101457 43.295197,3.24446843 L43.295197,1.31138694 Z M47.9611441,4.52347545 C46.8278467,4.52347545 46.5234754,3.92444684 46.5234754,3.27037237 L46.5234754,2.47382623 C46.5234754,1.82622774 46.8278467,1.22396114 47.9611441,1.22396114 C49.0944414,1.22396114 49.4052887,1.82298975 49.4052887,2.47382623 L49.4052887,3.27361036 C49.4052887,3.92768484 49.0814895,4.52671344 47.9611441,4.52671344 L47.9611441,4.52347545 Z M47.9611441,1.89746357 C47.5207771,1.89746357 47.3491635,2.08526713 47.3491635,2.4446843 L47.3491635,3.2995143 C47.3491635,3.65569347 47.5207771,3.84673502 47.9611441,3.84673502 C48.4015111,3.84673502 48.5731247,3.65569347 48.5731247,3.2995143 L48.5731247,2.44792229 C48.5731247,2.08850513 48.4015111,1.90070157 47.9611441,1.90070157 L47.9611441,1.89746357 Z M51.7301673,1.94927145 C51.4276517,2.08168667 51.1354233,2.23645947 50.8559093,2.41230437 L50.8559093,4.4587156 L50.0269833,4.4587156 L50.0269833,1.285483 L50.7263896,1.285483 L50.7814355,1.63518618 C51.0516365,1.4602305 51.3433121,1.32092273 51.6492175,1.22072315 L51.7301673,1.94927145 Z M55.0393956,3.40313006 C55.0393956,4.10577442 54.7155963,4.52347545 53.9481921,4.52347545 C53.651368,4.52060408 53.3554474,4.49025325 53.0642202,4.43281166 L53.0642202,5.72800863 L52.2385321,5.85105235 L52.2385321,1.28872099 L52.8861306,1.28872099 L52.9670804,1.55423637 C53.2734437,1.33995232 53.6391037,1.22674489 54.012952,1.23043713 C54.6767404,1.23043713 55.0296816,1.60604425 55.0296816,2.33135456 L55.0393956,3.40313006 Z M53.0642202,3.75930923 C53.3058879,3.81177496 53.5520125,3.8410497 53.7992445,3.84673502 C54.0971398,3.84673502 54.2137075,3.70750135 54.2137075,3.42255801 L54.2137075,2.30545062 C54.2137075,2.04317323 54.1100917,1.90070157 53.8057205,1.90070157 C53.5334954,1.90935841 53.2721881,2.00977347 53.0642202,2.1856449 L53.0642202,3.75930923 Z" id="Shape" fill="#000000" fill-rule="nonzero"></path>
        </g>
        <path id="Path-5" d="M230.846331,368 L230.846331,369 L226.846331,369 L226.846331,368 L230.846331,368 Z M238.846331,368 L238.846331,369 L234.846331,369 L234.846331,368 L238.846331,368 Z M358.759683,367.936227 L358.927163,368.922102 C358.724219,368.956578 358.518871,368.979708 358.311804,368.991296 L358,369 L354.846331,369 L354.846331,368 L358,368 C358.25674,368 358.510541,367.978551 358.759683,367.936227 Z M350.846331,368 L350.846331,369 L346.846331,369 L346.846331,368 L350.846331,368 Z M342.846331,368 L342.846331,369 L338.846331,369 L338.846331,368 L342.846331,368 Z M334.846331,368 L334.846331,369 L330.846331,369 L330.846331,368 L334.846331,368 Z M326.846331,368 L326.846331,369 L322.846331,369 L322.846331,368 L326.846331,368 Z M318.846331,368 L318.846331,369 L314.846331,369 L314.846331,368 L318.846331,368 Z M126.846331,368 L126.846331,369 L122.846331,369 L122.846331,368 L126.846331,368 Z M134.846331,368 L134.846331,369 L130.846331,369 L130.846331,368 L134.846331,368 Z M142.846331,368 L142.846331,369 L138.846331,369 L138.846331,368 L142.846331,368 Z M150.846331,368 L150.846331,369 L146.846331,369 L146.846331,368 L150.846331,368 Z M158.846331,368 L158.846331,369 L154.846331,369 L154.846331,368 L158.846331,368 Z M166.846331,368 L166.846331,369 L162.846331,369 L162.846331,368 L166.846331,368 Z M174.846331,368 L174.846331,369 L170.846331,369 L170.846331,368 L174.846331,368 Z M182.846331,368 L182.846331,369 L178.846331,369 L178.846331,368 L182.846331,368 Z M190.846331,368 L190.846331,369 L186.846331,369 L186.846331,368 L190.846331,368 Z M198.846331,368 L198.846331,369 L194.846331,369 L194.846331,368 L198.846331,368 Z M206.846331,368 L206.846331,369 L202.846331,369 L202.846331,368 L206.846331,368 Z M214.846331,368 L214.846331,369 L210.846331,369 L210.846331,368 L214.846331,368 Z M222.846331,368 L222.846331,369 L218.846331,369 L218.846331,368 L222.846331,368 Z M302.846331,368 L302.846331,369 L298.846331,369 L298.846331,368 L302.846331,368 Z M310.846331,368 L310.846331,369 L306.846331,369 L306.846331,368 L310.846331,368 Z M246.846331,368 L246.846331,369 L242.846331,369 L242.846331,368 L246.846331,368 Z M254.846331,368 L254.846331,369 L250.846331,369 L250.846331,368 L254.846331,368 Z M262.846331,368 L262.846331,369 L258.846331,369 L258.846331,368 L262.846331,368 Z M270.846331,368 L270.846331,369 L266.846331,369 L266.846331,368 L270.846331,368 Z M278.846331,368 L278.846331,369 L274.846331,369 L274.846331,368 L278.846331,368 Z M286.846331,368 L286.846331,369 L282.846331,369 L282.846331,368 L286.846331,368 Z M294.846331,368 L294.846331,369 L290.846331,369 L290.846331,368 L294.846331,368 Z M115.015808,367.540182 C115.514593,367.785659 116.055175,367.936583 116.609577,367.983822 L116.8878,367.998759 L118.846648,368 L118.846015,369 L116.876446,368.998637 C116.169082,368.983019 115.482036,368.833293 114.8444,368.561386 L114.574238,368.437409 L115.015808,367.540182 Z M362.5,362.306849 L363.5,362.307825 L363.4986,363.625234 C363.476963,364.591981 363.204651,365.518663 362.717228,366.329526 L362.564584,366.569234 L361.7352,366.010556 C362.164454,365.373308 362.423826,364.638018 362.48552,363.870501 L362.498725,363.613559 L362.5,362.306849 Z M112.5,361 L112.5,363.5 C112.5,363.866659 112.543755,364.227057 112.629302,364.575886 L112.701268,364.835254 L111.746175,365.131559 C111.616106,364.712302 111.536596,364.277466 111.509994,363.834056 L111.5,363.5 L111.5,361 L112.5,361 Z M363.5,354.307337 L363.5,358.307337 L362.5,358.307337 L362.5,354.307337 L363.5,354.307337 Z M112.5,353 L112.5,357 L111.5,357 L111.5,353 L112.5,353 Z M363.5,346.307337 L363.5,350.307337 L362.5,350.307337 L362.5,346.307337 L363.5,346.307337 Z M112.5,345 L112.5,349 L111.5,349 L111.5,345 L112.5,345 Z M363.5,338.307337 L363.5,342.307337 L362.5,342.307337 L362.5,338.307337 L363.5,338.307337 Z M112.5,337 L112.5,341 L111.5,341 L111.5,337 L112.5,337 Z M363.5,330.307337 L363.5,334.307337 L362.5,334.307337 L362.5,330.307337 L363.5,330.307337 Z M112.5,329 L112.5,333 L111.5,333 L111.5,329 L112.5,329 Z M363,320.5 L367.5,329.5 L358.5,329.5 L363,320.5 Z M112.5,321 L112.5,325 L111.5,325 L111.5,321 L112.5,321 Z" fill="#02A8EF" fill-rule="nonzero"></path>
        <path id="Path-5" d="M302.346331,383.5 L302.346331,384.5 L298.346331,384.5 L298.346331,383.5 L302.346331,383.5 Z M310.346331,383.5 L310.346331,384.5 L306.346331,384.5 L306.346331,383.5 L310.346331,383.5 Z M430.346331,383.5 L430.346331,384.5 L426.346331,384.5 L426.346331,383.5 L430.346331,383.5 Z M422.346331,383.5 L422.346331,384.5 L418.346331,384.5 L418.346331,383.5 L422.346331,383.5 Z M414.346331,383.5 L414.346331,384.5 L410.346331,384.5 L410.346331,383.5 L414.346331,383.5 Z M406.346331,383.5 L406.346331,384.5 L402.346331,384.5 L402.346331,383.5 L406.346331,383.5 Z M398.346331,383.5 L398.346331,384.5 L394.346331,384.5 L394.346331,383.5 L398.346331,383.5 Z M390.346331,383.5 L390.346331,384.5 L386.346331,384.5 L386.346331,383.5 L390.346331,383.5 Z M382.346331,383.5 L382.346331,384.5 L378.346331,384.5 L378.346331,383.5 L382.346331,383.5 Z M374.346331,383.5 L374.346331,384.5 L370.346331,384.5 L370.346331,383.5 L374.346331,383.5 Z M190.346331,383.5 L190.346331,384.5 L186.346331,384.5 L186.346331,383.5 L190.346331,383.5 Z M198.346331,383.5 L198.346331,384.5 L194.346331,384.5 L194.346331,383.5 L198.346331,383.5 Z M206.346331,383.5 L206.346331,384.5 L202.346331,384.5 L202.346331,383.5 L206.346331,383.5 Z M214.346331,383.5 L214.346331,384.5 L210.346331,384.5 L210.346331,383.5 L214.346331,383.5 Z M222.346331,383.5 L222.346331,384.5 L218.346331,384.5 L218.346331,383.5 L222.346331,383.5 Z M230.346331,383.5 L230.346331,384.5 L226.346331,384.5 L226.346331,383.5 L230.346331,383.5 Z M238.346331,383.5 L238.346331,384.5 L234.346331,384.5 L234.346331,383.5 L238.346331,383.5 Z M246.346331,383.5 L246.346331,384.5 L242.346331,384.5 L242.346331,383.5 L246.346331,383.5 Z M254.346331,383.5 L254.346331,384.5 L250.346331,384.5 L250.346331,383.5 L254.346331,383.5 Z M262.346331,383.5 L262.346331,384.5 L258.346331,384.5 L258.346331,383.5 L262.346331,383.5 Z M270.346331,383.5 L270.346331,384.5 L266.346331,384.5 L266.346331,383.5 L270.346331,383.5 Z M278.346331,383.5 L278.346331,384.5 L274.346331,384.5 L274.346331,383.5 L278.346331,383.5 Z M286.346331,383.5 L286.346331,384.5 L282.346331,384.5 L282.346331,383.5 L286.346331,383.5 Z M294.346331,383.5 L294.346331,384.5 L290.346331,384.5 L290.346331,383.5 L294.346331,383.5 Z M358.346331,383.5 L358.346331,384.5 L354.346331,384.5 L354.346331,383.5 L358.346331,383.5 Z M366.346331,383.5 L366.346331,384.5 L362.346331,384.5 L362.346331,383.5 L366.346331,383.5 Z M318.346331,383.5 L318.346331,384.5 L314.346331,384.5 L314.346331,383.5 L318.346331,383.5 Z M326.346331,383.5 L326.346331,384.5 L322.346331,384.5 L322.346331,383.5 L326.346331,383.5 Z M334.346331,383.5 L334.346331,384.5 L330.346331,384.5 L330.346331,383.5 L334.346331,383.5 Z M342.346331,383.5 L342.346331,384.5 L338.346331,384.5 L338.346331,383.5 L342.346331,383.5 Z M350.346331,383.5 L350.346331,384.5 L346.346331,384.5 L346.346331,383.5 L350.346331,383.5 Z M178.609074,382.813058 C179.214858,383.193796 179.901951,383.424833 180.616182,383.484428 L180.885184,383.498698 L182.346777,383.5 L182.345886,384.5 L180.873432,384.49857 C179.97082,384.478153 179.102752,384.239258 178.330666,383.809867 L178.076942,383.65972 L178.609074,382.813058 Z M437.503534,381.824321 L438.281638,382.452457 C437.381661,383.567306 436.083883,384.292586 434.650605,384.461854 L434.380341,384.487035 L434.312107,383.489365 C435.571424,383.403236 436.720532,382.794267 437.503534,381.824321 Z M176.5,376 L176.5,379 C176.5,379.202542 176.513349,379.403235 176.539755,379.601222 L176.58912,379.896067 L175.608905,380.094001 C175.554738,379.82575 175.520562,379.552838 175.50686,379.276894 L175.5,379 L175.5,376 L176.5,376 Z M439.5,374.307337 L439.5,378.307337 L438.5,378.307337 L438.5,374.307337 L439.5,374.307337 Z M176.5,368 L176.5,372 L175.5,372 L175.5,368 L176.5,368 Z M439.5,366.307337 L439.5,370.307337 L438.5,370.307337 L438.5,366.307337 L439.5,366.307337 Z M176.5,360 L176.5,364 L175.5,364 L175.5,360 L176.5,360 Z M439.5,358.307337 L439.5,362.307337 L438.5,362.307337 L438.5,358.307337 L439.5,358.307337 Z M176.5,352 L176.5,356 L175.5,356 L175.5,352 L176.5,352 Z M439.5,350.307337 L439.5,354.307337 L438.5,354.307337 L438.5,350.307337 L439.5,350.307337 Z M176.5,344 L176.5,348 L175.5,348 L175.5,344 L176.5,344 Z M439.5,342.307337 L439.5,346.307337 L438.5,346.307337 L438.5,342.307337 L439.5,342.307337 Z M176.5,336 L176.5,340 L175.5,340 L175.5,336 L176.5,336 Z M439.5,334.307337 L439.5,338.307337 L438.5,338.307337 L438.5,334.307337 L439.5,334.307337 Z M176.5,328 L176.5,332 L175.5,332 L175.5,328 L176.5,328 Z M439,319.5 L443.5,328.5 L439.5,328.5 L439.5,330.307337 L438.5,330.307337 L438.5,328.5 L434.5,328.5 L439,319.5 Z M176.5,320 L176.5,324 L175.5,324 L175.5,320 L176.5,320 Z" fill="#7B42BC" fill-rule="nonzero"></path>
        <g id="Group-2" transform="translate(289.000000, 373.000000)">
            <rect id="Rectangle" fill="#FFFFFF" x="0" y="0" width="38" height="24"></rect>
            <text id="Deploy" font-family="Arial-BoldMT, Arial" font-size="9" font-weight="bold" letter-spacing="-0.018" fill="#7B42BC">
                <tspan x="4.05107031" y="12">Deploy</tspan>
            </text>
        </g>
        <g id="Group-2" transform="translate(218.000000, 357.000000)">
            <rect id="Rectangle" fill="#FFFFFF" x="0" y="0" width="38" height="24"></rect>
            <text id="Build" font-family="Arial-BoldMT, Arial" font-size="9" font-weight="bold" letter-spacing="-0.018" fill="#02A8EF">
                <tspan x="7.79719727" y="11">Build</tspan>
            </text>
        </g>
        <path d="M68,256 L220,256 C222.209139,256 224,257.790861 224,260 L224,272 L224,272 L64,272 L64,260 C64,257.790861 65.790861,256 68,256 Z" id="Rectangle" fill="#666666"></path>
        <circle id="Oval" fill="#FF5D52" cx="74" cy="264" r="4"></circle>
        <circle id="Oval" fill="#FEBC2E" cx="87" cy="264" r="4"></circle>
        <circle id="Oval" fill="#28C83F" cx="100" cy="264" r="4"></circle>
        <g id="HCP_Packer_PrimaryLogo_Color_RGB" transform="translate(597.000000, 24.000000)">
            <polygon id="Path" fill="#02A8EF" points="0 2.93142857 7.77942857 7.42628571 7.77942857 24 0 19.5051429"></polygon>
            <path d="M11.6297143,4.86857143 L3.18857143,0 L3.18857143,3.38057143 L8.93828571,6.69942857 L8.93828571,16.848 L11.6434286,18.4011429 C13.32,19.368 14.688,18.7885714 14.688,17.1154286 L14.688,9.66857143 C14.6742857,7.98171429 13.3062857,5.83542857 11.6297143,4.86857143 Z" id="Path" fill="#02A8EF" fill-rule="nonzero"></path>
            <polygon id="Path" fill="#000000" fill-rule="nonzero" points="33.7405714 19.296 33.7405714 13.4674286 28.5977143 13.4674286 28.5977143 19.296 25.9851429 19.296 25.9851429 5.472 28.5977143 5.472 28.5977143 11.1565714 33.7405714 11.1565714 33.7405714 5.472 36.3531429 5.472 36.3531429 19.296"></polygon>
            <path d="M38.4308571,9.26742857 C38.4308571,6.73714286 39.9051429,5.26626144 43.3474286,5.26626144 C44.6184557,5.26404322 45.8849913,5.41717888 47.1188571,5.72228571 L46.8102857,7.98171429 C45.6948315,7.77425988 44.5641066,7.65958189 43.4297143,7.63885714 C41.6262857,7.63885714 41.0297143,8.26285714 41.0297143,9.73371429 L41.0297143,15.0342857 C41.0297143,16.5085714 41.6125714,17.1291429 43.4297143,17.1291429 C44.5642081,17.1101292 45.6950756,16.9954367 46.8102857,16.7862857 L47.1017143,19.0491429 C45.8678484,19.3542497 44.6013129,19.5073853 43.3302857,19.5051671 C39.9017143,19.5051671 38.4137143,18.0308571 38.4137143,15.5005714 L38.4308571,9.26742857 Z" id="Path" fill="#000000" fill-rule="nonzero"></path>
            <path d="M48.9188571,5.472 L54.312,5.472 C57.5074286,5.472 58.6902857,6.77828571 58.6902857,9.20571429 L58.6902857,11.0948571 C58.6902857,13.4948571 57.4045714,14.808 54.1885714,14.808 L51.5314286,14.808 L51.5314286,19.296 L48.9154286,19.296 L48.9188571,5.472 Z M54.168,7.776 L51.5314286,7.776 L51.5314286,12.504 L54.1645714,12.504 C55.6388571,12.504 56.0743041,11.9657143 56.0743041,10.824 L56.0743041,9.41485714 C56.0777143,8.27314286 55.6011429,7.776 54.168,7.776 Z" id="Shape" fill="#000000" fill-rule="nonzero"></path>
            <path d="M64.6011429,5.472 L69.9942857,5.472 C73.1897143,5.472 74.3725714,6.77828571 74.3725714,9.20571429 L74.3725714,11.0948571 C74.3725714,13.4948571 73.0868571,14.808 69.8708571,14.808 L67.2137143,14.808 L67.2137143,19.296 L64.6011429,19.296 L64.6011429,5.472 Z M69.8502857,7.776 L67.2137143,7.776 L67.2137143,12.504 L69.8502857,12.504 C71.3211429,12.504 71.7565896,11.9657143 71.7565896,10.824 L71.7565896,9.41485714 C71.76,8.27314286 71.28,7.776 69.8502857,7.776 Z" id="Shape" fill="#000000" fill-rule="nonzero"></path>
            <path d="M83.2697143,19.296 L81.1954286,19.296 L81.0171429,18.6102857 C80.1204839,19.1910923 79.0751887,19.500633 78.0068571,19.5017143 C76.1622857,19.5017143 75.3737143,18.2365714 75.3737143,16.4948571 C75.3737143,14.4377143 76.2651429,13.6525714 78.3188571,13.6525714 L80.7462857,13.6525714 L80.7462857,12.5862857 C80.7462857,11.4685714 80.4342857,11.0742857 78.816,11.0742857 C77.8755153,11.0843105 76.9383486,11.1876745 76.0182857,11.3828571 L75.7062857,9.456 C76.8341426,9.14337341 77.9987655,8.98309361 79.1691429,8.97942857 C82.344,8.97942857 83.2834286,10.0971429 83.2834286,12.6274286 L83.2697143,19.296 Z M80.7394286,15.48 L78.8708571,15.48 C78.0411429,15.48 77.8148571,15.7097143 77.8148571,16.4777143 C77.8148571,17.1634286 78.0411429,17.5062857 78.8434286,17.5062857 C79.5132629,17.4960248 80.1698413,17.3180296 80.7531429,16.9885714 L80.7394286,15.48 Z" id="Shape" fill="#000000" fill-rule="nonzero"></path>
            <path d="M84.7885714,15.6171429 L84.7885714,12.8742857 C84.7885714,10.1554286 85.9714286,8.99657143 89.1428571,8.99657143 C89.979164,9.0016224 90.8104455,9.12631462 91.6114286,9.36685714 L91.3028571,11.4102857 C90.6170923,11.2413452 89.9142135,11.1516159 89.208,11.1428571 C87.7577143,11.1428571 87.3222857,11.5782857 87.3222857,12.8228571 L87.3222857,15.624 C87.3222857,16.8685714 87.7577143,17.304 89.208,17.304 C89.9147682,17.3002195 90.6183697,17.2092464 91.3028571,17.0331429 L91.6148571,19.0902857 C90.8156548,19.339069 89.983314,19.4650761 89.1462857,19.464 C85.968,19.4948571 84.7885714,18.3325714 84.7885714,15.6171429 Z" id="Path" fill="#000000" fill-rule="nonzero"></path>
            <path d="M93.1131429,19.296 L93.1131429,5.05714286 L95.6434286,4.71428571 L95.6434286,19.296 L93.1131429,19.296 Z M101.684571,9.19542857 L98.7188571,14.1942857 L101.804571,19.296 L99.024,19.296 L95.976,14.1942857 L98.8594286,9.19542857 L101.684571,9.19542857 Z" id="Shape" fill="#000000" fill-rule="nonzero"></path>
            <path d="M106.947429,17.4205714 C107.9939,17.4150869 109.033777,17.2544837 110.033143,16.944 L110.424,18.8502857 C109.239924,19.2779841 107.990381,19.4961029 106.731429,19.4948624 C103.56,19.4948624 102.459429,18.0205714 102.459429,15.5965714 L102.459429,12.9188571 C102.459429,10.7828571 103.412571,8.97942857 106.649143,8.97942857 C109.885714,8.97942857 110.612571,10.8651429 110.612571,13.0422857 L110.612571,15.1988571 L104.989714,15.1988571 L104.989714,15.72 C104.976,16.944 105.411429,17.4205714 106.947429,17.4205714 Z M104.976,13.1691429 L108.192,13.1691429 L108.192,12.6685714 C108.192,11.7154286 107.900571,11.0537143 106.656,11.0537143 C105.411429,11.0537143 104.976,11.7154286 104.976,12.6685714 L104.976,13.1691429 Z" id="Shape" fill="#000000" fill-rule="nonzero"></path>
            <path d="M117.408,11.3005714 C116.47957,11.7216696 115.585426,12.2145953 114.733714,12.7748571 L114.733714,19.296 L112.217143,19.296 L112.217143,9.18514286 L114.356571,9.18514286 L114.521143,10.3062857 C115.342945,9.74825122 116.235348,9.30204981 117.174857,8.97942857 L117.408,11.3005714 Z" id="Path" fill="#000000" fill-rule="nonzero"></path>
        </g>
    </g>
</svg>