<?xml version="1.0" encoding="UTF-8"?>
<svg width="500px" height="288px" viewBox="0 0 500 288" version="1.1" xmlns="http://www.w3.org/2000/svg" xmlns:xlink="http://www.w3.org/1999/xlink">
    <title>Isometric_6</title>
    <g id="Isometric_6" stroke="none" stroke-width="1" fill="none" fill-rule="evenodd">
        <path id="Path" d="M189,216 L189,220 L300.5,220 L300.5,221 L189,221 L189,225 L180,220.5 L189,216 Z" fill="#292423" fill-rule="nonzero"></path>
        <line x1="240.5" y1="270.5" x2="240.5" y2="9.5" id="Line" stroke="#343536" stroke-linecap="square" stroke-dasharray="5,5"></line>
        <rect id="Rectangle" fill="#FFFFFF" x="221" y="213" width="40" height="15"></rect>
        <g id="Group" transform="translate(87.629333, 37.431667)">
            <g id="Path" stroke="#666666" stroke-width="1.112">
                <g transform="translate(0.710667, 23.384333)">
                    <line x1="0" y1="0.028" x2="40.8586667" y2="23.388"></line>
                    <line x1="40.8586667" y1="23.388" x2="81.7666667" y2="0"></line>
                    <line x1="40.8586667" y1="23.492" x2="40.8586667" y2="58.1506667"></line>
                </g>
                <path d="M39.0866667,0.659 C40.6253333,-0.219666667 42.5133333,-0.219666667 44.0506667,0.659 C51.4306667,4.879 73.192,17.319 80.62,21.5656667 C82.1773333,22.4563333 83.1373333,24.1136667 83.1373333,25.907 C83.1373333,32.6003333 83.1373333,49.0603333 83.1373333,55.7536667 C83.1373333,57.5483333 82.1773333,59.2043333 80.62,60.095 C73.192,64.3416667 51.4306667,76.783 44.0506667,81.0016667 C42.5133333,81.8816667 40.6253333,81.8816667 39.0866667,81.0016667 C31.7066667,76.783 9.94533333,64.3416667 2.51733333,60.095 C0.96,59.2043333 0,57.5483333 0,55.7536667 C0,49.0603333 0,32.6003333 0,25.907 C0,24.1136667 0.96,22.4563333 2.51733333,21.5656667 C9.94533333,17.319 31.7066667,4.879 39.0866667,0.659 Z" stroke-linejoin="round"></path>
            </g>
            <g transform="translate(18.224000, 9.734750)">
                <polygon id="Path" fill="#231F20" fill-rule="nonzero" points="8.53333333 14.6495833 0 11.57625 1.38933333 10.7735833 7.16266667 12.93625 3.632 9.47891667 5.24666667 8.54558333 11.2653333 10.6589167 7.45866667 7.26958333 8.82533333 6.48025 14.12 11.4229167 12.68 12.2549167 6.16133333 10.0375833 10.0053333 13.7989167 8.53333333 14.6495833"></polygon>
                <polygon id="Path" fill="#231F20" fill-rule="nonzero" points="16.4466667 10.08025 9.51866667 6.08025 14.504 3.20158333 15.676 3.87891667 12.048 5.97358333 13.584 6.86025 16.96 4.91091667 18.1266667 5.58425 14.7506667 7.53358333 16.6373333 8.62291667 20.3933333 6.45358333 21.5613333 7.12691667 16.4466667 10.08025"></polygon>
                <path d="M15.7893333,2.46025 L18.4773333,0.90825 C19.0093333,0.60025 19.428,0.385583333 19.736,0.26025 C20.0426667,0.13625 20.372,0.05625 20.724,0.02025 C21.0746667,-0.01575 21.44,-0.00375 21.8186667,0.05625 C22.1973333,0.11625 22.536,0.23225 22.836,0.405583333 C23.16,0.59225 23.3733333,0.813583333 23.4733333,1.06825 C23.5746667,1.32291667 23.548,1.57225 23.3933333,1.81891667 C23.9253333,1.65225 24.4506667,1.59225 24.9666667,1.63625 C25.4826667,1.68025 25.9413333,1.81758333 26.3413333,2.04825 C26.656,2.22958333 26.892,2.44825 27.048,2.70158333 C27.2026667,2.95625 27.2466667,3.20558333 27.1786667,3.45091667 C27.1106667,3.69491667 26.916,3.93358333 26.596,4.16558333 C26.3946667,4.31091667 25.8653333,4.63491667 25.0053333,5.13891667 L22.7173333,6.46025 L15.7893333,2.46025 Z M18.3,2.34158333 L19.9013333,3.26691667 L20.792,2.75358333 C21.3213333,2.44825 21.6413333,2.25358333 21.7546667,2.16958333 C21.9586667,2.01891667 22.0586667,1.86558333 22.0546667,1.71091667 C22.0506667,1.55491667 21.936,1.41225 21.7133333,1.28291667 C21.4986667,1.15891667 21.2666667,1.09091667 21.0186667,1.08025 C20.7693333,1.06958333 20.5186667,1.12158333 20.264,1.23491667 C20.1133333,1.30425 19.7186667,1.52291667 19.08,1.89225 L18.3,2.34158333 L18.3,2.34158333 Z M21.0546667,3.93225 L22.908,5.00158333 L24.164,4.27625 C24.6533333,3.99358333 24.9493333,3.80691667 25.0533333,3.71491667 C25.2173333,3.57625 25.2893333,3.42825 25.2693333,3.26958333 C25.2506667,3.11225 25.1173333,2.96291667 24.872,2.82025 C24.664,2.70025 24.4386667,2.62691667 24.196,2.59891667 C23.9533333,2.57225 23.7053333,2.59358333 23.4546667,2.66158333 C23.204,2.73091667 22.7693333,2.94291667 22.1506667,3.30025 L21.0546667,3.93225 L21.0546667,3.93225 Z" id="Shape" fill="#231F20" fill-rule="nonzero"></path>
                <g id="size-24_82" transform="translate(15.254907, 10.208154)" fill="#000001">
                    <path d="M0.993093237,4.54542919 C1.83709324,3.46676252 3.20242657,2.55876252 4.9117599,1.91209585 C6.6157599,1.25876252 8.6157599,0.904095852 10.6677599,0.878762519 C12.4850932,0.860095852 14.2757599,1.09609585 15.8944266,1.57209585 L16.5224266,1.20942919 C17.8704266,0.430762519 19.6997599,-0.00523748105 21.6130932,4.74921226e-05 C23.5250932,0.00542918561 25.3584266,0.448095852 26.7090932,1.22809585 C28.0690932,2.01209585 28.8344266,3.07076252 28.8438455,4.17476252 C28.8530932,5.28009585 28.0984266,6.33476252 26.7504266,7.11342919 L18.7744266,11.7187625 C17.3290932,12.5534292 15.5064266,13.1360959 13.5090932,13.3987625 C11.5104266,13.6627625 9.42109324,13.5987625 7.4677599,13.2067625 C5.5237599,12.8187625 3.80909324,12.1294292 2.4997599,11.2054292 C1.1997599,10.2854292 0.367759904,9.17609585 0.093093237,7.99476252 C-0.174906763,6.81876252 0.139759904,5.62809585 0.985093237,4.54942919 C0.987759904,4.54809585 0.99042657,4.54676252 0.993093237,4.54542919 L0.993093237,4.54542919 Z M2.65442657,4.99476252 C1.95442657,5.88942919 1.69442657,6.88009585 1.9197599,7.86009585 C2.1437599,8.84009585 2.8397599,9.76809585 3.92242657,10.5334292 C5.01309324,11.3040959 6.45042657,11.8840959 8.07309324,12.2067625 C9.6957599,12.5307625 11.4370932,12.5854292 13.0997599,12.3654292 C14.7624266,12.1454292 16.2784266,11.6587625 17.4810932,10.9654292 L25.4517599,6.36409585 C26.4517599,5.78676252 27.0130932,5.00142919 27.0038745,4.17742919 C27.0024266,3.35876252 26.4224266,2.56276252 25.4104266,1.97742919 C24.3970932,1.39209585 23.0277599,1.0626977 21.6077599,1.0626977 C20.1797599,1.05742919 18.8210932,1.38142919 17.8210932,1.95876252 L16.7064266,2.60276252 C16.4090932,2.77476252 15.9504266,2.80942919 15.5824266,2.68142919 C14.1037599,2.17476252 12.4157599,1.92009585 10.7037599,1.93876252 C8.9997599,1.96142919 7.34109324,2.26009585 5.9117599,2.79476252 C4.4917599,3.33476252 3.36509324,4.09476252 2.66109324,4.99209585 C2.6597599,4.99342919 2.65709324,4.99342919 2.65442657,4.99476252 L2.65442657,4.99476252 Z" id="Vector--Stroke-_15"></path>
                </g>
            </g>
            <g id="size-24_243" transform="translate(53.578667, 42.362518)" fill="#000001">
                <path d="M6.928,1.95781504 C6.088,2.44314838 5.41333333,3.61381504 5.41333333,4.58314838 L5.41333333,8.08314838 C5.41333333,9.05381504 6.088,9.44314838 6.928,8.95781504 L7.57866667,8.58314838 L7.57866667,10.0831484 L0.649333333,14.0831484 C0.294666667,14.2884817 0,14.797815 0,15.2084817 C0,15.617815 0.294666667,15.7884817 0.649333333,15.5831484 L3.68133333,13.833815 L3.68133333,15.833815 L2.59866667,16.457815 C1.75866667,16.9431484 1.08266667,18.113815 1.08266667,19.0831484 L1.08266667,22.5831484 C1.08266667,23.553815 1.75866667,23.9431484 2.59866667,23.457815 L5.62933333,21.7084817 C6.46933333,21.2231484 7.14533333,20.053815 7.14533333,19.0831484 L7.14533333,15.5831484 C7.14533333,14.613815 6.46933333,14.2231484 5.62933333,14.7084817 L4.98,15.0831484 L4.98,13.0831484 L11.908,9.08314838 L11.908,11.0831484 L11.2586667,11.457815 C10.4186667,11.9431484 9.74266667,13.113815 9.74266667,14.0831484 L9.74266667,17.5831484 C9.74266667,18.553815 10.4186667,18.9431484 11.2586667,18.457815 L14.2893333,16.7084817 C15.1293333,16.2231484 15.8053333,15.053815 15.8053333,14.0831484 L15.8053333,10.5831484 C15.8053333,9.61381504 15.1293333,9.22314838 14.2893333,9.70848171 L13.2066667,10.333815 L13.2066667,8.33381504 L16.2386667,6.58314838 C16.5933333,6.37781504 16.888,5.86848171 16.888,5.45781504 C16.888,5.04848171 16.5933333,4.87781504 16.2386667,5.08314838 L8.87733333,9.33381504 L8.87733333,7.83381504 L9.96,7.20848171 C10.8,6.72314838 11.4746667,5.55381504 11.4746667,4.58314838 L11.4746667,1.08314838 C11.4746667,0.113815043 10.8,-0.276851623 9.96,0.20848171 L6.928,1.95781504 L6.928,1.95781504 Z M6.712,3.83381504 C6.712,3.69381504 6.808,3.52848171 6.928,3.45781504 L9.96,1.70848171 C10.0813333,1.63781504 10.176,1.69381504 10.176,1.83381504 L10.176,5.33381504 C10.176,5.47381504 10.0813333,5.63781504 9.96,5.70848171 L6.928,7.45781504 C6.808,7.52848171 6.712,7.47381504 6.712,7.33381504 L6.712,3.83381504 Z M2.38133333,18.333815 C2.38133333,18.193815 2.47733333,18.0284817 2.59866667,17.957815 L5.62933333,16.2084817 C5.75066667,16.137815 5.84666667,16.193815 5.84666667,16.333815 L5.84666667,19.833815 C5.84666667,19.973815 5.75066667,20.137815 5.62933333,20.2084817 L2.59866667,21.957815 C2.47733333,22.0284817 2.38133333,21.973815 2.38133333,21.833815 L2.38133333,18.333815 Z M11.2586667,12.957815 C11.1373333,13.0284817 11.0426667,13.193815 11.0426667,13.333815 L11.0426667,16.833815 C11.0426667,16.973815 11.1373333,17.0284817 11.2586667,16.957815 L14.2893333,15.2084817 C14.4106667,15.137815 14.5066667,14.973815 14.5066667,14.833815 L14.5066667,11.333815 C14.5066667,11.193815 14.4106667,11.137815 14.2893333,11.2084817 L11.2586667,12.957815 Z" id="Union_422"></path>
            </g>
            <g id="Union_634" transform="translate(10.392000, 41.293507)" fill="#000001">
                <path d="M7.79466667,0.590826343 C5.40266667,-0.789173657 3.464,0.330826343 3.464,3.09082634 C3.464,5.85082634 5.40266667,9.21082634 7.79466667,10.5908263 C10.1853333,11.9721597 12.124,10.8508263 12.124,8.09082634 C12.124,5.33082634 10.1853333,1.97215968 7.79466667,0.590826343 L7.79466667,0.590826343 Z M4.76266667,3.84149301 C4.76266667,1.91082634 6.12,1.12549301 7.79466667,2.09082634 C9.468,3.05749301 10.8253333,5.41082634 10.8253333,7.34149301 C10.8253333,9.27082634 9.468,10.057493 7.79466667,9.09082634 C6.12,8.12549301 4.76266667,5.77082634 4.76266667,3.84149301 L4.76266667,3.84149301 Z" id="Shape"></path>
                <path d="M4.11333333,9.96682634 C1.84133333,8.65482634 0,9.72149301 0,12.341493 L0,13.341493 C0,13.7508263 0.290666667,14.2588263 0.649333333,14.4668263 C1.008,14.673493 1.29866667,14.501493 1.29866667,14.0908263 L1.29866667,13.0908263 C1.29866667,11.301493 2.55866667,10.569493 4.11333333,11.4668263 L11.4746667,15.7161597 C13.0293333,16.613493 14.2893333,18.801493 14.2893333,20.5908263 L14.2893333,21.5908263 C14.2893333,22.001493 14.58,22.509493 14.9386667,22.7161597 C15.2973333,22.9228263 15.588,22.7508263 15.588,22.341493 L15.588,21.341493 C15.588,18.721493 13.7466667,15.5281597 11.4746667,14.2161597 L4.11333333,9.96682634 L4.11333333,9.96682634 Z" id="Path" fill-rule="nonzero"></path>
                <path d="M15.8053333,17.4668263 C15.8053333,17.0561597 16.096,16.8841597 16.4546667,17.0908263 L16.6706667,17.2161597 C18.9426667,18.5281597 20.784,21.721493 20.784,24.341493 L20.784,25.341493 C20.784,25.7508263 20.4933333,25.9228263 20.1346667,25.7161597 C19.776,25.509493 19.4853333,25.001493 19.4853333,24.5908263 L19.4853333,23.5908263 C19.4853333,21.801493 18.2253333,19.613493 16.6706667,18.7161597 L16.4546667,18.5908263 C16.096,18.3841597 15.8053333,17.8761597 15.8053333,17.4668263 L15.8053333,17.4668263 Z" id="Path" fill-rule="nonzero"></path>
                <path d="M12.9906667,3.59082634 C12.632,3.38415968 12.34,3.55615968 12.34,3.96682634 C12.34,4.37615968 12.632,4.88415968 12.9906667,5.09082634 C14.664,6.05749301 16.0213333,8.41082634 16.0213333,10.341493 C16.0213333,12.2708263 14.664,13.057493 12.9906667,12.0908263 C12.632,11.8841597 12.34,12.0561597 12.34,12.4668263 C12.34,12.8761597 12.632,13.3841597 12.9906667,13.5908263 C15.3813333,14.9721597 17.32,13.8508263 17.32,11.0908263 C17.32,8.33082634 15.3813333,4.97215968 12.9906667,3.59082634 L12.9906667,3.59082634 Z" id="Path" fill-rule="nonzero"></path>
            </g>
        </g>
        <g id="Group" transform="translate(87.629333, 182.486333)">
            <g id="Path" stroke="#666666" stroke-width="1.112">
                <g transform="translate(0.710667, 23.384333)">
                    <line x1="0" y1="0.028" x2="40.8586667" y2="23.388"></line>
                    <line x1="40.8586667" y1="23.388" x2="81.7666667" y2="0"></line>
                    <line x1="40.8586667" y1="23.492" x2="40.8586667" y2="58.1493333"></line>
                </g>
                <path d="M39.0866667,0.659 C40.6253333,-0.219666667 42.5133333,-0.219666667 44.0506667,0.659 C51.4306667,4.879 73.192,17.319 80.62,21.5656667 C82.1773333,22.4563333 83.1373333,24.1123333 83.1373333,25.907 C83.1373333,32.6003333 83.1373333,49.0603333 83.1373333,55.7536667 C83.1373333,57.5483333 82.1773333,59.2043333 80.62,60.095 C73.192,64.3416667 51.4306667,76.7816667 44.0506667,81.0016667 C42.5133333,81.8816667 40.6253333,81.8816667 39.0866667,81.0016667 C31.7066667,76.7816667 9.94533333,64.3416667 2.51733333,60.095 C0.96,59.2043333 0,57.5483333 0,55.7536667 C0,49.0603333 0,32.6003333 0,25.907 C0,24.1123333 0.96,22.4563333 2.51733333,21.5656667 C9.94533333,17.319 31.7066667,4.879 39.0866667,0.659 Z" stroke-linejoin="round"></path>
            </g>
            <g transform="translate(18.224000, 9.734750)">
                <polygon id="Path" fill="#231F20" fill-rule="nonzero" points="8.53333333 14.64825 0 11.57625 1.38933333 10.7735833 7.16266667 12.93625 3.632 9.47891667 5.24666667 8.54558333 11.2653333 10.6589167 7.45866667 7.26958333 8.82533333 6.48025 14.12 11.4229167 12.68 12.2549167 6.16133333 10.0375833 10.0053333 13.7989167 8.53333333 14.64825"></polygon>
                <polygon id="Path" fill="#231F20" fill-rule="nonzero" points="16.4466667 10.08025 9.51866667 6.08025 14.504 3.20158333 15.676 3.87758333 12.048 5.97358333 13.584 6.86025 16.96 4.91091667 18.1266667 5.58425 14.7506667 7.53358333 16.6373333 8.62291667 20.3933333 6.45358333 21.5613333 7.12691667 16.4466667 10.08025"></polygon>
                <path d="M15.7893333,2.46025 L18.4773333,0.90825 C19.0093333,0.60025 19.428,0.38425 19.736,0.26025 C20.0426667,0.13625 20.372,0.05625 20.724,0.02025 C21.0746667,-0.01575 21.44,-0.00375 21.8186667,0.05625 C22.1973333,0.11625 22.536,0.23225 22.836,0.405583333 C23.16,0.59225 23.3733333,0.813583333 23.4733333,1.06825 C23.5746667,1.32291667 23.548,1.57225 23.3933333,1.81891667 C23.9253333,1.65225 24.4506667,1.59225 24.9666667,1.63625 C25.4826667,1.68025 25.9413333,1.81758333 26.3413333,2.04825 C26.656,2.22958333 26.892,2.44825 27.048,2.70158333 C27.2026667,2.95625 27.2466667,3.20558333 27.1786667,3.45091667 C27.1106667,3.69491667 26.916,3.93358333 26.596,4.16558333 C26.3946667,4.31091667 25.8653333,4.63491667 25.0053333,5.13891667 L22.7173333,6.46025 L15.7893333,2.46025 L15.7893333,2.46025 Z M18.3,2.34158333 L19.9013333,3.26691667 L20.792,2.75358333 C21.3213333,2.44691667 21.6413333,2.25358333 21.7546667,2.16958333 C21.9586667,2.01891667 22.0586667,1.86558333 22.0546667,1.70958333 C22.0506667,1.55358333 21.936,1.41225 21.7133333,1.28291667 C21.4986667,1.15891667 21.2666667,1.09091667 21.0186667,1.08025 C20.7693333,1.06958333 20.5186667,1.12025 20.264,1.23491667 C20.1133333,1.30425 19.7186667,1.52291667 19.08,1.89091667 L18.3,2.34158333 L18.3,2.34158333 Z M21.0546667,3.93225 L22.908,5.00158333 L24.164,4.27625 C24.6533333,3.99358333 24.9493333,3.80691667 25.0533333,3.71358333 C25.2173333,3.57625 25.2893333,3.42825 25.2693333,3.26958333 C25.2506667,3.11225 25.1173333,2.96158333 24.872,2.82025 C24.664,2.70025 24.4386667,2.62691667 24.196,2.59891667 C23.9533333,2.57225 23.7053333,2.59358333 23.4546667,2.66158333 C23.204,2.72958333 22.7693333,2.94291667 22.1506667,3.29891667 L21.0546667,3.93225 L21.0546667,3.93225 Z" id="Shape" fill="#231F20" fill-rule="nonzero"></path>
                <g id="size-24_821" transform="translate(15.254907, 10.208154)" fill="#000001">
                    <path d="M0.993093237,4.54542919 C1.83709324,3.46676252 3.20242657,2.55876252 4.9117599,1.91209585 C6.6157599,1.25876252 8.6157599,0.904095853 10.6677599,0.87876252 C12.4850932,0.860095853 14.2757599,1.09609585 15.8944266,1.57209585 L16.5224266,1.20809585 C17.8704266,0.43076252 19.6997599,-0.00523748048 21.6130932,4.74924042e-05 C23.5250932,0.00542918619 25.3584266,0.448095853 26.7090932,1.22809585 C28.0690932,2.01209585 28.8344266,3.07076252 28.8438455,4.17476252 C28.8530932,5.27876252 28.0984266,6.33476252 26.7504266,7.11342919 L18.7744266,11.7187625 C17.3290932,12.5534292 15.5064266,13.1360959 13.5090932,13.3987625 C11.5104266,13.6627625 9.42109324,13.5987625 7.4677599,13.2054292 C5.5237599,12.8187625 3.80909324,12.1294292 2.4997599,11.2054292 C1.1997599,10.2854292 0.367759904,9.17476252 0.093093237,7.99476252 C-0.174906763,6.81876252 0.139759904,5.62809585 0.985093237,4.54942919 C0.987759904,4.54809585 0.99042657,4.54676252 0.993093237,4.54542919 L0.993093237,4.54542919 Z M2.65442657,4.99476252 C1.95442657,5.88942919 1.69442657,6.88009585 1.9197599,7.86009585 C2.1437599,8.84009585 2.8397599,9.76809585 3.92242657,10.5334292 C5.01309324,11.3040959 6.45042657,11.8840959 8.07309324,12.2067625 C9.6957599,12.5294292 11.4370932,12.5840959 13.0997599,12.3654292 C14.7624266,12.1454292 16.2784266,11.6587625 17.4810932,10.9654292 L25.4517599,6.36409585 C26.4517599,5.78676252 27.0130932,5.00142919 27.0038745,4.17742919 C27.0024266,3.35876252 26.4224266,2.56276252 25.4104266,1.97742919 C24.3970932,1.39209585 23.0277599,1.0626977 21.6077599,1.0626977 C20.1797599,1.05742919 18.8210932,1.38142919 17.8210932,1.95876252 L16.7064266,2.60276252 C16.4090932,2.77476252 15.9504266,2.80809585 15.5824266,2.68142919 C14.1037599,2.17476252 12.4157599,1.92009585 10.7037599,1.93876252 C8.9997599,1.96142919 7.34109324,2.25876252 5.9117599,2.79476252 C4.4917599,3.33476252 3.36509324,4.09476252 2.66109324,4.99209585 C2.6597599,4.99209585 2.65709324,4.99342919 2.65442657,4.99476252 L2.65442657,4.99476252 Z" id="Vector--Stroke-_151"></path>
                </g>
            </g>
            <g id="size-24_2431" transform="translate(53.578667, 42.362277)" fill="#000001">
                <path d="M6.928,1.95805595 C6.088,2.44338928 5.41333333,3.61272261 5.41333333,4.58338928 L5.41333333,8.08338928 C5.41333333,9.05272261 6.088,9.44338928 6.928,8.95805595 L7.57866667,8.58338928 L7.57866667,10.0833893 L0.649333333,14.0833893 C0.294666667,14.2887226 0,14.7980559 0,15.2087226 C0,15.6180559 0.294666667,15.7887226 0.649333333,15.5833893 L3.68133333,13.8327226 L3.68133333,15.8327226 L2.59866667,16.4580559 C1.75866667,16.9433893 1.08266667,18.1127226 1.08266667,19.0833893 L1.08266667,22.5833893 C1.08266667,23.5527226 1.75866667,23.9433893 2.59866667,23.4580559 L5.62933333,21.7087226 C6.46933333,21.2233893 7.14533333,20.0527226 7.14533333,19.0833893 L7.14533333,15.5833893 C7.14533333,14.6127226 6.46933333,14.2233893 5.62933333,14.7087226 L4.98,15.0833893 L4.98,13.0833893 L11.908,9.08338928 L11.908,11.0833893 L11.2586667,11.4580559 C10.4186667,11.9433893 9.74266667,13.1127226 9.74266667,14.0833893 L9.74266667,17.5833893 C9.74266667,18.5527226 10.4186667,18.9433893 11.2586667,18.4580559 L14.2893333,16.7087226 C15.1293333,16.2233893 15.8053333,15.0527226 15.8053333,14.0833893 L15.8053333,10.5833893 C15.8053333,9.61272261 15.1293333,9.22338928 14.2893333,9.70872261 L13.2066667,10.3327226 L13.2066667,8.33272261 L16.2386667,6.58338928 C16.5933333,6.37805595 16.888,5.86872261 16.888,5.45805595 C16.888,5.04872261 16.5933333,4.87805595 16.2386667,5.08338928 L8.87733333,9.33272261 L8.87733333,7.83272261 L9.96,7.20872261 C10.8,6.72338928 11.4746667,5.55272261 11.4746667,4.58338928 L11.4746667,1.08338928 C11.4746667,0.112722612 10.8,-0.276610721 9.96,0.208722612 L6.928,1.95805595 Z M6.712,3.83272261 C6.712,3.69272261 6.808,3.52872261 6.928,3.45805595 L9.96,1.70872261 C10.0813333,1.63805595 10.176,1.69272261 10.176,1.83272261 L10.176,5.33272261 C10.176,5.47272261 10.0813333,5.63805595 9.96,5.70872261 L6.928,7.45805595 C6.808,7.52872261 6.712,7.47272261 6.712,7.33272261 L6.712,3.83272261 Z M2.38133333,18.3327226 C2.38133333,18.1927226 2.47733333,18.0287226 2.59866667,17.9580559 L5.62933333,16.2087226 C5.75066667,16.1380559 5.84666667,16.1927226 5.84666667,16.3327226 L5.84666667,19.8327226 C5.84666667,19.9727226 5.75066667,20.1380559 5.62933333,20.2087226 L2.59866667,21.9580559 C2.47733333,22.0287226 2.38133333,21.9727226 2.38133333,21.8327226 L2.38133333,18.3327226 Z M11.2586667,12.9580559 C11.1373333,13.0287226 11.0426667,13.1927226 11.0426667,13.3327226 L11.0426667,16.8327226 C11.0426667,16.9727226 11.1373333,17.0287226 11.2586667,16.9580559 L14.2893333,15.2087226 C14.4106667,15.1380559 14.5066667,14.9727226 14.5066667,14.8327226 L14.5066667,11.3327226 C14.5066667,11.1927226 14.4106667,11.1380559 14.2893333,11.2087226 L11.2586667,12.9580559 Z" id="Union_4221"></path>
            </g>
            <g id="Union_6341" transform="translate(10.392000, 41.293507)" fill="#000001">
                <path d="M7.79466667,0.590826343 C5.40266667,-0.789173657 3.464,0.330826343 3.464,3.09082634 C3.464,5.85082634 5.40266667,9.21082634 7.79466667,10.5908263 C10.1853333,11.9721597 12.124,10.8508263 12.124,8.09082634 C12.124,5.33082634 10.1853333,1.97215968 7.79466667,0.590826343 L7.79466667,0.590826343 Z M4.76266667,3.84149301 C4.76266667,1.91082634 6.12,1.12415968 7.79466667,2.09082634 C9.468,3.05749301 10.8253333,5.41082634 10.8253333,7.34149301 C10.8253333,9.27082634 9.468,10.057493 7.79466667,9.09082634 C6.12,8.12415968 4.76266667,5.77082634 4.76266667,3.84149301 Z" id="Shape"></path>
                <path d="M4.11333333,9.96682634 C1.84133333,8.65482634 0,9.72149301 0,12.341493 L0,13.341493 C0,13.7508263 0.290666667,14.2588263 0.649333333,14.4668263 C1.008,14.673493 1.29866667,14.501493 1.29866667,14.0908263 L1.29866667,13.0908263 C1.29866667,11.301493 2.55866667,10.5681597 4.11333333,11.4668263 L11.4746667,15.7161597 C13.0293333,16.613493 14.2893333,18.801493 14.2893333,20.5908263 L14.2893333,21.5908263 C14.2893333,22.001493 14.58,22.509493 14.9386667,22.7161597 C15.2973333,22.9228263 15.588,22.7508263 15.588,22.341493 L15.588,21.341493 C15.588,18.721493 13.7466667,15.5281597 11.4746667,14.2161597 L4.11333333,9.96682634 L4.11333333,9.96682634 Z" id="Path" fill-rule="nonzero"></path>
                <path d="M15.8053333,17.4668263 C15.8053333,17.0561597 16.096,16.8841597 16.4546667,17.0908263 L16.6706667,17.2161597 C18.9426667,18.5281597 20.784,21.721493 20.784,24.341493 L20.784,25.341493 C20.784,25.7508263 20.4933333,25.9228263 20.1346667,25.7161597 C19.776,25.509493 19.4853333,25.001493 19.4853333,24.5908263 L19.4853333,23.5908263 C19.4853333,21.801493 18.2253333,19.613493 16.6706667,18.7161597 L16.4546667,18.5908263 C16.096,18.3841597 15.8053333,17.8761597 15.8053333,17.4668263 L15.8053333,17.4668263 Z" id="Path" fill-rule="nonzero"></path>
                <path d="M12.9906667,3.59082634 C12.632,3.38415968 12.34,3.55615968 12.34,3.96682634 C12.34,4.37615968 12.632,4.88415968 12.9906667,5.09082634 C14.664,6.05749301 16.0213333,8.41082634 16.0213333,10.341493 C16.0213333,12.2708263 14.664,13.057493 12.9906667,12.0908263 C12.632,11.8841597 12.34,12.0561597 12.34,12.4668263 C12.34,12.8761597 12.632,13.3841597 12.9906667,13.5908263 C15.3813333,14.9721597 17.32,13.8508263 17.32,11.0908263 C17.32,8.33082634 15.3813333,4.97215968 12.9906667,3.59082634 L12.9906667,3.59082634 Z" id="Path" fill-rule="nonzero"></path>
            </g>
        </g>
        <g id="Group" transform="translate(310.122667, 182.034333)">
            <g id="Path" stroke="#006633" stroke-width="1.112">
                <g transform="translate(0.710667, 23.384333)">
                    <line x1="0" y1="0.028" x2="40.8586667" y2="23.388"></line>
                    <line x1="40.8586667" y1="23.388" x2="81.7666667" y2="0"></line>
                    <line x1="40.8586667" y1="23.492" x2="40.8586667" y2="58.1506667"></line>
                </g>
                <path d="M39.088,0.659 C40.6253333,-0.219666667 42.5133333,-0.219666667 44.0506667,0.659 C51.432,4.879 73.192,17.319 80.62,21.5656667 C82.1773333,22.4563333 83.1386667,24.1136667 83.1386667,25.907 C83.1386667,32.6003333 83.1386667,49.0603333 83.1386667,55.7536667 C83.1386667,57.5483333 82.1773333,59.2043333 80.62,60.095 C73.192,64.3416667 51.432,76.783 44.0506667,81.0016667 C42.5133333,81.8816667 40.6253333,81.8816667 39.088,81.0016667 C31.7066667,76.783 9.94666667,64.3416667 2.51866667,60.095 C0.961333333,59.2043333 0,57.5483333 0,55.7536667 C0,49.0603333 0,32.6003333 0,25.907 C0,24.1136667 0.961333333,22.4563333 2.51866667,21.5656667 C9.94666667,17.319 31.7066667,4.879 39.088,0.659 Z" stroke-linejoin="round"></path>
            </g>
            <g transform="translate(18.224000, 9.734750)">
                <polygon id="Path" fill="#231F20" fill-rule="nonzero" points="8.53466667 14.6495833 0 11.57625 1.39066667 10.7735833 7.16266667 12.93625 3.63333333 9.47891667 5.248 8.54558333 11.2666667 10.6589167 7.45866667 7.26958333 8.82666667 6.48025 14.1213333 11.4229167 12.6813333 12.2549167 6.16133333 10.0375833 10.0066667 13.7989167 8.53466667 14.6495833"></polygon>
                <polygon id="Path" fill="#231F20" fill-rule="nonzero" points="16.4466667 10.08025 9.51866667 6.08025 14.5053333 3.20158333 15.6773333 3.87891667 12.0493333 5.97358333 13.584 6.86025 16.9613333 4.91091667 18.128 5.58425 14.752 7.53358333 16.6373333 8.62291667 20.3946667 6.45358333 21.5613333 7.12691667"></polygon>
                <path d="M15.7893333,2.46025 L18.4773333,0.90825 C19.0093333,0.60025 19.4293333,0.385583333 19.736,0.26025 C20.044,0.13625 20.3733333,0.05625 20.724,0.02025 C21.076,-0.01575 21.44,-0.00375 21.8186667,0.05625 C22.1973333,0.11625 22.5373333,0.23225 22.836,0.405583333 C23.1613333,0.59225 23.3733333,0.813583333 23.4746667,1.06825 C23.576,1.32291667 23.5493333,1.57225 23.3946667,1.81891667 C23.9266667,1.65225 24.4506667,1.59225 24.968,1.63625 C25.484,1.68025 25.9426667,1.81758333 26.3426667,2.04825 C26.6573333,2.22958333 26.892,2.44825 27.048,2.70158333 C27.204,2.95625 27.248,3.20558333 27.1786667,3.45091667 C27.1106667,3.69491667 26.9173333,3.93358333 26.5973333,4.16558333 C26.396,4.31091667 25.8653333,4.63491667 25.0066667,5.13891667 L22.7173333,6.46025 L15.7893333,2.46025 L15.7893333,2.46025 Z M18.3,2.34158333 L19.9026667,3.26691667 L20.792,2.75358333 C21.3213333,2.44691667 21.6426667,2.25358333 21.7546667,2.16958333 C21.9586667,2.01891667 22.0586667,1.86558333 22.0546667,1.70958333 C22.0506667,1.55491667 21.9373333,1.41225 21.7133333,1.28291667 C21.5,1.15891667 21.268,1.09091667 21.02,1.08025 C20.7706667,1.06958333 20.5186667,1.12158333 20.264,1.23491667 C20.1146667,1.30425 19.72,1.52291667 19.08,1.89225 L18.3,2.34158333 L18.3,2.34158333 Z M21.056,3.93225 L22.908,5.00158333 L24.1653333,4.27625 C24.6546667,3.99358333 24.9506667,3.80691667 25.0533333,3.71491667 C25.2173333,3.57625 25.2906667,3.42825 25.2706667,3.26958333 C25.2506667,3.11225 25.1186667,2.96158333 24.872,2.82025 C24.664,2.70025 24.4386667,2.62691667 24.196,2.59891667 C23.9533333,2.57225 23.7066667,2.59358333 23.456,2.66158333 C23.204,2.73091667 22.7693333,2.94291667 22.152,3.30025 L21.056,3.93225 Z" id="Shape" fill="#231F20" fill-rule="nonzero"></path>
                <g id="size-24_823" transform="translate(15.255471, 10.208154)" fill="#000001">
                    <path d="M0.992528979,4.54542919 C1.83786231,3.46676252 3.20186231,2.55876252 4.91252898,1.91209585 C6.61652898,1.25876252 8.61519565,0.904095852 10.668529,0.878762519 C12.4858623,0.860095852 14.2751956,1.09609585 15.8938623,1.57209585 L16.5231956,1.20942919 C17.8711956,0.430762519 19.6991956,-0.00523748105 21.612529,4.74921226e-05 C23.5258623,0.00542918561 25.3578623,0.448095852 26.708529,1.22809585 C28.068529,2.01209585 28.8338623,3.07076252 28.8446145,4.17476252 C28.8538623,5.28009585 28.0991956,6.33476252 26.7498623,7.11342919 L18.7751956,11.7187625 C17.3298623,12.5534292 15.5058623,13.1360959 13.508529,13.3987625 C11.5098623,13.6627625 9.42186231,13.5987625 7.46852898,13.2067625 C5.52452898,12.8187625 3.80852898,12.1294292 2.50052898,11.2054292 C1.19919565,10.2854292 0.368528979,9.17609585 0.092528979,7.99476252 C-0.174137688,6.81876252 0.139195646,5.62809585 0.985862312,4.54942919 C0.988528979,4.54809585 0.991195646,4.54676252 0.992528979,4.54542919 L0.992528979,4.54542919 Z M2.65519565,4.99476252 C1.95386231,5.88942919 1.69519565,6.88009585 1.92052898,7.86009585 C2.14452898,8.84009585 2.84052898,9.76809585 3.92186231,10.5334292 C5.01252898,11.3040959 6.45119565,11.8840959 8.07386231,12.2067625 C9.69652898,12.5307625 11.4378623,12.5840959 13.100529,12.3654292 C14.7631956,12.1454292 16.2791956,11.6587625 17.4818623,10.9654292 L25.4511956,6.36409585 C26.4511956,5.78676252 27.0138623,5.00142919 27.0033446,4.17742919 C27.0033446,3.35876252 26.4231956,2.56276252 25.4098623,1.97742919 C24.396529,1.39209585 23.0271956,1.0626977 21.608529,1.0626977 C20.180529,1.05742919 18.8218623,1.38142919 17.8218623,1.95876252 L16.7058623,2.60276252 C16.4098623,2.77476252 15.9511956,2.80809585 15.5831956,2.68142919 C14.104529,2.17476252 12.416529,1.92009585 10.7031956,1.93876252 C9.00052898,1.96142919 7.34186231,2.26009585 5.91252898,2.79476252 C4.49252898,3.33476252 3.36586231,4.09476252 2.66186231,4.99209585 C2.65919565,4.99342919 2.65786231,4.99342919 2.65519565,4.99476252 L2.65519565,4.99476252 Z" id="Vector--Stroke-_153"></path>
                </g>
            </g>
            <g id="size-24_2433" transform="translate(53.580000, 42.362518)" fill="#000001">
                <path d="M6.928,1.95781504 C6.088,2.44314838 5.412,3.61381504 5.412,4.58314838 L5.412,8.08314838 C5.412,9.05381504 6.088,9.44314838 6.928,8.95781504 L7.57733333,8.58314838 L7.57733333,10.0831484 L0.649333333,14.0831484 C0.294666667,14.2884817 0,14.797815 0,15.2084817 C0,15.617815 0.294666667,15.7884817 0.649333333,15.5831484 L3.68,13.833815 L3.68,15.833815 L2.59733333,16.457815 C1.75733333,16.9431484 1.08266667,18.113815 1.08266667,19.0831484 L1.08266667,22.5831484 C1.08266667,23.553815 1.75733333,23.9431484 2.59733333,23.457815 L5.62933333,21.7084817 C6.46933333,21.2231484 7.144,20.053815 7.144,19.0831484 L7.144,15.5831484 C7.144,14.613815 6.46933333,14.2231484 5.62933333,14.7084817 L4.98,15.0831484 L4.98,13.0831484 L11.908,9.08314838 L11.908,11.0831484 L11.2586667,11.457815 C10.4186667,11.9431484 9.74266667,13.113815 9.74266667,14.0831484 L9.74266667,17.5831484 C9.74266667,18.553815 10.4186667,18.9431484 11.2586667,18.457815 L14.2893333,16.7084817 C15.1293333,16.2231484 15.8053333,15.053815 15.8053333,14.0831484 L15.8053333,10.5831484 C15.8053333,9.61381504 15.1293333,9.22314838 14.2893333,9.70848171 L13.2066667,10.333815 L13.2066667,8.33381504 L16.2373333,6.58314838 C16.5933333,6.37781504 16.888,5.86848171 16.888,5.45781504 C16.888,5.04848171 16.5933333,4.87781504 16.2373333,5.08314838 L8.876,9.33381504 L8.876,7.83381504 L9.95866667,7.20848171 C10.7986667,6.72314838 11.4746667,5.55381504 11.4746667,4.58314838 L11.4746667,1.08314838 C11.4746667,0.113815043 10.7986667,-0.276851623 9.95866667,0.20848171 L6.928,1.95781504 L6.928,1.95781504 Z M6.712,3.83381504 C6.712,3.69381504 6.80666667,3.52848171 6.928,3.45781504 L9.95866667,1.70848171 C10.08,1.63781504 10.176,1.69381504 10.176,1.83381504 L10.176,5.33381504 C10.176,5.47381504 10.08,5.63781504 9.95866667,5.70848171 L6.928,7.45781504 C6.80666667,7.52848171 6.712,7.47381504 6.712,7.33381504 L6.712,3.83381504 Z M2.38133333,18.333815 C2.38133333,18.193815 2.47733333,18.0284817 2.59733333,17.957815 L5.62933333,16.2084817 C5.75066667,16.137815 5.84533333,16.193815 5.84533333,16.333815 L5.84533333,19.833815 C5.84533333,19.973815 5.75066667,20.137815 5.62933333,20.2084817 L2.59733333,21.957815 C2.47733333,22.0284817 2.38133333,21.973815 2.38133333,21.833815 L2.38133333,18.333815 Z M11.2586667,12.957815 C11.1373333,13.0284817 11.0413333,13.193815 11.0413333,13.333815 L11.0413333,16.833815 C11.0413333,16.973815 11.1373333,17.0284817 11.2586667,16.957815 L14.2893333,15.2084817 C14.4106667,15.137815 14.5053333,14.973815 14.5053333,14.833815 L14.5053333,11.333815 C14.5053333,11.193815 14.4106667,11.137815 14.2893333,11.2084817 L11.2586667,12.957815 Z" id="Union_4223"></path>
            </g>
            <g id="Union_6343" transform="translate(10.392000, 41.293507)" fill="#000001">
                <path d="M7.79466667,0.590826343 C5.404,-0.789173657 3.46533333,0.330826343 3.46533333,3.09082634 C3.46533333,5.85082634 5.404,9.21082634 7.79466667,10.5908263 C10.1853333,11.9721597 12.1253333,10.8508263 12.1253333,8.09082634 C12.1253333,5.33082634 10.1853333,1.97215968 7.79466667,0.590826343 Z M4.764,3.84149301 C4.764,1.91082634 6.12133333,1.12415968 7.79466667,2.09082634 C9.46933333,3.05749301 10.8253333,5.41082634 10.8253333,7.34149301 C10.8253333,9.27082634 9.46933333,10.057493 7.79466667,9.09082634 C6.12133333,8.12415968 4.764,5.77082634 4.764,3.84149301 Z" id="Shape"></path>
                <path d="M4.11466667,9.96682634 C1.84266667,8.65482634 0,9.72149301 0,12.341493 L0,13.341493 C0,13.7508263 0.292,14.2588263 0.650666667,14.4668263 C1.008,14.673493 1.3,14.501493 1.3,14.0908263 L1.3,13.0908263 C1.3,11.301493 2.56,10.5681597 4.11466667,11.4668263 L11.476,15.7161597 C13.0293333,16.613493 14.2906667,18.801493 14.2906667,20.5908263 L14.2906667,21.5908263 C14.2906667,22.001493 14.5813333,22.509493 14.94,22.7161597 C15.2986667,22.9228263 15.5893333,22.7508263 15.5893333,22.341493 L15.5893333,21.341493 C15.5893333,18.721493 13.7466667,15.5281597 11.476,14.2161597 L4.11466667,9.96682634 L4.11466667,9.96682634 Z" id="Path" fill-rule="nonzero"></path>
                <path d="M15.8053333,17.4668263 C15.8053333,17.0561597 16.096,16.8841597 16.4546667,17.0908263 L16.672,17.2161597 C18.9426667,18.5281597 20.7853333,21.721493 20.7853333,24.341493 L20.7853333,25.341493 C20.7853333,25.7508263 20.4946667,25.9228263 20.136,25.7161597 C19.7773333,25.509493 19.4866667,25.001493 19.4866667,24.5908263 L19.4866667,23.5908263 C19.4866667,21.801493 18.2266667,19.613493 16.672,18.7161597 L16.4546667,18.5908263 C16.096,18.3841597 15.8053333,17.8761597 15.8053333,17.4668263 L15.8053333,17.4668263 Z" id="Path" fill-rule="nonzero"></path>
                <path d="M12.9906667,3.59082634 C12.632,3.38415968 12.3413333,3.55615968 12.3413333,3.96682634 C12.3413333,4.37615968 12.632,4.88415968 12.9906667,5.09082634 C14.6653333,6.05749301 16.0226667,8.41082634 16.0226667,10.341493 C16.0226667,12.2708263 14.6653333,13.057493 12.9906667,12.0908263 C12.632,11.8841597 12.3413333,12.0561597 12.3413333,12.4668263 C12.3413333,12.8761597 12.632,13.3841597 12.9906667,13.5908263 C15.3826667,14.9721597 17.3213333,13.8508263 17.3213333,11.0908263 C17.3213333,8.33082634 15.3826667,4.97215968 12.9906667,3.59082634 Z" id="Path" fill-rule="nonzero"></path>
            </g>
        </g>
        <line x1="-110.5" y1="144.5" x2="366.727431" y2="144.480903" id="Line" stroke="#343536" stroke-linecap="square" stroke-dasharray="5,5"></line>
        <g id="Group-5" transform="translate(19.000000, 20.000000)" fill="#343536" font-family="Gilmer-Regular, Gilmer" font-size="8" font-weight="normal">
            <text id="Ubuntu-Bionic-18.04">
                <tspan x="31.344" y="8">Ubuntu</tspan>
                <tspan x="36.384" y="18">Bionic</tspan>
                <tspan x="40.496" y="28">18.04</tspan>
            </text>
        </g>
        <g id="Group-5" transform="translate(19.000000, 250.000000)" fill="#343536" font-family="Gilmer-Regular, Gilmer" font-size="8" font-weight="normal">
            <text id="Ubuntu-Bionic-18.04">
                <tspan x="31.344" y="8">Ubuntu</tspan>
                <tspan x="36.384" y="18">Bionic</tspan>
                <tspan x="40.496" y="28">18.04</tspan>
            </text>
        </g>
        <text id="DEVELOPMENT" font-family="Gilmer-Bold, Gilmer" font-size="8" font-weight="bold" fill="#343536">
            <tspan x="6" y="11">DEVELOPMENT</tspan>
        </text>
        <g id="Group-4" transform="translate(10.000000, 130.000000)" font-family="Gilmer-Bold, Gilmer" font-size="8" font-weight="bold">
            <text id="Channel:-Development" fill="#00CA8E">
                <tspan x="0" y="8">Channel: Development</tspan>
            </text>
            <text id="Channel:-Production" fill="#7B42BC">
                <tspan x="0" y="28">Channel: Production</tspan>
            </text>
        </g>
        <text id="Create-new-Interatio" font-family="Gilmer-Bold, Gilmer" font-size="8" font-weight="bold" fill="#343536">
            <tspan x="300" y="38">Create new Interation for Ubuntu Focal</tspan>
        </text>
        <text id="Revoke-Ubuntu-Bionic" font-family="Gilmer-Bold, Gilmer" font-size="8" font-weight="bold" fill="#343536">
            <tspan x="300" y="78">Revoke Ubuntu Bionic image</tspan>
        </text>
        <text id="Attempt-to-deploy-Ub" font-family="Gilmer-Bold, Gilmer" font-size="8" font-weight="bold" fill="#343536">
            <tspan x="300" y="118">Attempt to deploy Ubuntu Bionic image</tspan>
        </text>
        <text id="UPDATE" font-family="Gilmer-Bold, Gilmer" font-size="8" font-weight="bold" fill="#343536">
            <tspan x="224.08" y="225">UPDATE</tspan>
        </text>
        <text id="PRODUCTION" font-family="Gilmer-Bold, Gilmer" font-size="8" font-weight="bold" fill="#343536">
            <tspan x="442.302194" y="273.65625">PRODUCTION</tspan>
        </text>
        <line x1="86" y1="264" x2="104.003185" y2="255.288781" id="Path" stroke="#292423" stroke-width="2"></line>
        <g id="Group-5" transform="translate(240.000000, 246.000000)" fill="#343536" font-family="Gilmer-Regular, Gilmer" font-size="8" font-weight="normal">
            <text id="Ubuntu-Focal-20.04">
                <tspan x="31.344" y="8">Ubuntu</tspan>
                <tspan x="38.88" y="18">Focal</tspan>
                <tspan x="38.728" y="28">20.04</tspan>
            </text>
        </g>
        <line x1="307" y1="260" x2="325.003185" y2="251.288781" id="Path" stroke="#292423" stroke-width="2"></line>
        <line x1="87.2356471" y1="47" x2="105" y2="37.8115416" id="Path" stroke="#292423" stroke-width="2" transform="translate(96.117824, 42.405771) scale(-1, 1) translate(-96.117824, -42.405771) "></line>
        <g id="Group-4" transform="translate(259.880118, 20.000000)">
            <circle id="Oval" stroke="#00ACFF" stroke-width="2" fill-opacity="0.75" fill="#00ACFF" cx="15.1198823" cy="15" r="14"></circle>
            <text id="1" transform="translate(15.119882, 14.000000) rotate(1.000000) translate(-15.119882, -14.000000) " font-family="Gilmer-Heavy, Gilmer" font-size="14" font-weight="700" letter-spacing="-0.028" fill="#FFFFFF">
                <tspan x="12.0118823" y="21">1</tspan>
            </text>
        </g>
        <g id="Group-4" transform="translate(259.880118, 60.000000)">
            <circle id="Oval" stroke="#00ACFF" stroke-width="2" fill-opacity="0.75" fill="#00ACFF" cx="15.1198823" cy="15" r="14"></circle>
            <text id="2" transform="translate(15.119882, 14.000000) rotate(1.000000) translate(-15.119882, -14.000000) " font-family="Gilmer-Heavy, Gilmer" font-size="14" font-weight="700" letter-spacing="-0.028" fill="#FFFFFF">
                <tspan x="10.9828823" y="21">2</tspan>
            </text>
        </g>
        <g id="Group-4" transform="translate(259.862665, 100.000000)">
            <circle id="Oval" stroke="#00ACFF" stroke-width="2" fill-opacity="0.75" fill="#00ACFF" cx="15.1373347" cy="15" r="14"></circle>
            <text id="3" transform="translate(15.137335, 15.000000) rotate(1.000000) translate(-15.137335, -15.000000) " font-family="Gilmer-Heavy, Gilmer" font-size="14" font-weight="700" letter-spacing="-0.028" fill="#FFFFFF">
                <tspan x="10.8883347" y="21">3</tspan>
            </text>
        </g>
    </g>
</svg>