<?xml version="1.0" encoding="UTF-8"?>
<svg width="800px" height="416px" viewBox="0 0 800 416" version="1.1" xmlns="http://www.w3.org/2000/svg" xmlns:xlink="http://www.w3.org/1999/xlink">
    <title>TFC_run_task</title>
    <g id="TFC_run_task" stroke="none" stroke-width="1" fill="none" fill-rule="evenodd">
        <g id="TFC-Env" transform="translate(48.000000, 144.000000)">
            <rect id="Rectangle" fill="#F4ECFF" x="0" y="0" width="192" height="192" rx="2"></rect>
            <rect id="Rectangle" fill="#FFFFFF" x="16" y="144" width="160" height="32" rx="2"></rect>
            <rect id="Rectangle" fill="#FFFFFF" x="16" y="96" width="160" height="32" rx="2"></rect>
            <text id="workspace" font-family="Arial-BoldMT, Arial" font-size="9" font-weight="bold" letter-spacing="-0.018" fill="#1D1F25">
                <tspan x="73.8185488" y="115">workspace</tspan>
            </text>
            <rect id="Rectangle" fill="#FFFFFF" x="16" y="48" width="160" height="32" rx="2"></rect>
            <text id="runtask" font-family="Arial-BoldMT, Arial" font-size="9" font-weight="bold" letter-spacing="-0.018" fill="#1D1F25">
                <tspan x="80.8076289" y="67">runtask</tspan>
            </text>
            <text id="run" font-family="Arial-BoldMT, Arial" font-size="9" font-weight="bold" letter-spacing="-0.018" fill="#1D1F25">
                <tspan x="88.7782207" y="163">run</tspan>
            </text>
            <path id="Path-3" d="M97,128.5 L97,135 L101,135 L96.5,144 L92,135 L96,135 L96,128.5 L97,128.5 Z" fill="#666666" fill-rule="nonzero"></path>
            <path id="Path-3" d="M97,80.5 L97,87 L101,87 L96.5,96 L92,87 L96,87 L96,80.5 L97,80.5 Z" fill="#666666" fill-rule="nonzero"></path>
            <g id="Terraform_Cloud_Logo_Color_RGB" transform="translate(24.000000, 9.000000)">
                <path d="M113.08041,19.0879655 L113.248786,20.4543983 C112.190131,20.6669045 111.113228,20.7753539 110.033459,20.7781975 C107.044792,20.7781975 105.652455,19.5833783 105.652455,17.0221263 L105.652455,11.3524015 C105.652455,8.7846735 107.044792,7.58985429 110.033459,7.58985429 C111.113867,7.59907203 112.190777,7.71402927 113.248786,7.93308149 L113.08041,9.2995143 C112.091248,9.13555649 111.091082,9.04679721 110.088505,9.03399892 C107.970858,9.03399892 107.248786,9.64597949 107.248786,11.4495413 L107.248786,16.9541284 C107.248786,18.7576902 107.970858,19.3664328 110.088505,19.3664328 C111.091411,19.3493531 112.091579,19.2562639 113.08041,19.0879655 L113.08041,19.0879655 Z" id="Path" fill="#000000" fill-rule="nonzero"></path>
                <polygon id="Path" fill="#000000" fill-rule="nonzero" points="115.894226 7.16891527 115.894226 20.6001079 114.336751 20.6001079 114.336751 7.39233675"></polygon>
                <path d="M124.526713,12.0712358 C123.879115,11.3944954 122.891527,11.0512682 121.61252,11.0512682 C118.309768,11.0512682 117.814355,13.2498651 117.814355,14.561252 L117.814355,17.2876417 C117.814355,18.5828386 118.309768,20.7943875 121.61252,20.7943875 C122.907717,20.7943875 123.879115,20.4511603 124.526713,19.7776579 C125.129747,19.0922771 125.443181,18.1995706 125.400971,17.2876417 L125.400971,14.561252 C125.443866,13.6492228 125.130344,12.7562669 124.526713,12.0712358 L124.526713,12.0712358 Z M123.843497,17.3459255 C123.843497,18.7415003 123.092283,19.4506206 121.602806,19.4506206 C120.11333,19.4506206 119.345926,18.7415003 119.345926,17.3459255 L119.345926,14.4997302 C119.345926,13.1073934 120.100378,12.3982731 121.583378,12.3982731 C123.066379,12.3982731 123.824069,13.1073934 123.824069,14.4997302 L123.843497,17.3459255 Z" id="Shape" fill="#000000" fill-rule="nonzero"></path>
                <path d="M134.45116,11.2455478 L134.45116,20.6033459 L133.194819,20.6033459 L133.039396,19.7711819 L133.00054,19.7906098 C131.964382,20.2892607 130.332434,20.7911495 129.221802,20.7911495 C127.865084,20.7911495 127.204533,20.0205073 127.204533,18.424177 L127.204533,11.2455478 L128.762008,11.2455478 L128.762008,18.407987 C128.762008,19.0264436 129.063141,19.3146249 129.704263,19.3146249 C130.429574,19.3146249 131.880194,18.877496 132.874258,18.3626552 L132.893686,18.3626552 L132.893686,11.2390718 L134.45116,11.2455478 Z" id="Path" fill="#000000" fill-rule="nonzero"></path>
                <path d="M142.157582,7.39233675 L142.157582,11.3524015 L142.115488,11.3524015 C141.232282,11.1755012 140.335019,11.0779726 139.434431,11.0609822 C137.397733,11.0609822 136.406908,12.0582839 136.406908,14.1046951 L136.406908,17.9449541 C136.406908,19.8618457 137.297356,20.7943875 139.123583,20.7943875 C140.239818,20.8090694 141.328697,20.4487705 142.215866,19.7711819 L142.264436,19.7388019 L142.40367,20.6195359 L143.715057,20.6195359 L143.715057,7.16891527 L142.157582,7.39233675 Z M142.157582,18.2881813 L142.157582,18.2881813 C141.41664,18.9645335 140.465188,19.3647836 139.463573,19.4214787 C138.233135,19.4214787 137.980572,18.8289261 137.980572,17.9352402 L137.980572,14.0949811 C137.980572,12.9195899 138.446843,12.417701 139.544522,12.417701 C140.414548,12.4408358 141.281078,12.5372372 142.134916,12.7058824 L142.164058,12.7058824 L142.157582,18.2881813 Z" id="Shape" fill="#000000" fill-rule="nonzero"></path>
                <polygon id="Path" fill="#000000" fill-rule="nonzero" points="31.8812736 9.86292499 28.2385321 9.86292499 28.2385321 7.68699406 37.9913654 7.68699406 37.9913654 9.86292499 34.3486239 9.86292499 34.3486239 20.7425796 31.8812736 20.7425796"></polygon>
                <path d="M40.5688073,18.9713977 C41.557152,18.9667446 42.5393037,18.8150567 43.4830005,18.5213168 L43.8553697,20.3216406 C42.72784,20.7286541 41.5376445,20.9346916 40.3389099,20.9304494 C37.3437669,20.9304494 36.3043713,19.5380464 36.3043713,17.2455478 L36.3043713,14.7199137 C36.3043713,12.7026444 37.2045332,10.9994603 40.2611981,10.9994603 C43.3178629,10.9994603 44.0043173,12.7803562 44.0043173,14.8364814 L44.0043173,16.8764166 L38.7199137,16.8764166 L38.7199137,17.3653535 C38.7199137,18.5213168 39.1181867,18.9713977 40.5688073,18.9713977 Z M38.7199137,14.9562871 L41.7571506,14.9562871 L41.7571506,14.4835402 C41.7571506,13.5833783 41.4819212,12.9584458 40.30653,12.9584458 C39.1311387,12.9584458 38.7199137,13.5833783 38.7199137,14.4835402 L38.7199137,14.9562871 Z" id="Shape" fill="#000000" fill-rule="nonzero"></path>
                <path d="M50.4025904,13.1915812 C49.5243706,13.5885501 48.6787963,14.0541032 47.8737183,14.583918 L47.8737183,20.7425796 L45.4840799,20.7425796 L45.4840799,11.1937399 L47.5013492,11.1937399 L47.6600108,12.2525634 C48.4361329,11.7255476 49.278931,11.3041485 50.1662169,10.9994603 L50.4025904,13.1915812 Z" id="Path" fill="#000000" fill-rule="nonzero"></path>
                <path d="M56.2374528,13.1915812 C55.3606301,13.5892724 54.5161873,14.0547985 53.7118187,14.583918 L53.7118187,20.7425796 L51.3221802,20.7425796 L51.3221802,11.1937399 L53.3394495,11.1937399 L53.4948732,12.2525634 C54.2721789,11.7255904 55.1160403,11.3042041 56.0043173,10.9994603 L56.2374528,13.1915812 Z" id="Path" fill="#000000" fill-rule="nonzero"></path>
                <path d="M64.2288181,20.7425796 L62.2698327,20.7425796 L62.0949811,20.0949811 C61.2493219,20.6434121 60.2631877,20.9357666 59.2552617,20.9368591 C57.5099838,20.9368591 56.7652455,19.7420399 56.7652455,18.0971398 C56.7652455,16.1543443 57.6103616,15.412844 59.5466811,15.412844 L61.8391797,15.412844 L61.8391797,14.4058284 C61.8391797,13.3502428 61.5477604,12.9778737 60.019428,12.9778737 C59.1301401,12.9871698 58.2439753,13.0847889 57.3739881,13.269293 L57.0793308,11.4495413 C58.1445423,11.1545206 59.2443982,11.0031543 60.3497032,10.9994603 C63.3480842,10.9994603 64.2352941,12.0550459 64.2352941,14.4446843 L64.2288181,20.7425796 Z M61.8391797,17.12898 L60.0906638,17.12898 C59.3070696,17.12898 59.0901241,17.3459255 59.0901241,18.0712358 C59.0901241,18.7188343 59.3070696,19.0426336 60.0615219,19.0426336 C60.6930422,19.0325411 61.3119792,18.8644485 61.8618457,18.5536967 L61.8391797,17.12898 Z" id="Shape" fill="#000000" fill-rule="nonzero"></path>
                <path d="M71.575823,9.02104695 C71.1247041,8.92202165 70.6647284,8.86886408 70.2029142,8.86238532 C69.2638964,8.86238532 69.1279007,9.27361036 69.1279007,9.99892067 L69.1279007,11.1937399 L71.556395,11.1937399 L71.4236373,13.0944414 L69.1343767,13.0944414 L69.1343767,20.7425796 L66.7447383,20.7425796 L66.7447383,13.0944414 L65.2164058,13.0944414 L65.2164058,11.1937399 L66.7447383,11.1937399 L66.7447383,9.86292499 C66.7447383,7.8845116 67.6643281,6.90334865 69.7787372,6.90334865 C70.4734629,6.90085033 71.1652652,6.99345379 71.8348624,7.17862925 L71.575823,9.02104695 Z" id="Path" fill="#000000" fill-rule="nonzero"></path>
                <path d="M76.2352941,20.9303832 C72.9649217,20.9303832 72.0712358,19.1235834 72.0712358,17.1807879 L72.0712358,14.7587696 C72.0712358,12.8159741 72.9519698,10.9994603 76.2223421,10.9994603 C79.4927145,10.9994603 80.3766865,12.7997841 80.3766865,14.7587696 L80.3766865,17.1807879 C80.3896384,19.1235834 79.5186185,20.9303832 76.2352941,20.9303832 Z M76.2352941,13.0361576 C74.9627631,13.0361576 74.4738262,13.6028063 74.4738262,14.6810577 L74.4738262,17.2455478 C74.4738262,18.3237992 74.9627631,18.8936859 76.2352941,18.8936859 C77.5078251,18.8936859 78,18.3237992 78,17.2455478 L78,14.6810577 C78,13.6189962 77.5110631,13.0361576 76.2352941,13.0361576 Z" id="Shape" fill="#000000" fill-rule="nonzero"></path>
                <path d="M86.5385861,13.1915812 C85.6617634,13.5892724 84.8173206,14.0547985 84.012952,14.583918 L84.012952,20.7425796 L81.6233135,20.7425796 L81.6233135,11.1937399 L83.6405828,11.1937399 L83.7960065,12.2525634 C84.5777158,11.7251976 85.4259077,11.3038237 86.3184026,10.9994603 L86.5385861,13.1915812 Z" id="Path" fill="#000000" fill-rule="nonzero"></path>
                <path d="M93.1181867,20.7425796 L93.1181867,14.0723152 C93.1181867,13.5639504 92.9012412,13.3081489 92.3540205,13.3081489 C91.8067998,13.3081489 90.7350243,13.6610901 89.8672423,14.1144091 L89.8672423,20.7425796 L87.4743659,20.7425796 L87.4743659,11.1937399 L89.2973556,11.1937399 L89.5337291,11.996762 C90.7232857,11.4030657 92.0233809,11.063431 93.3513222,10.9994603 C94.27415,10.9994603 94.8407987,11.3718295 95.154884,12.01619 C96.3478123,11.4072856 97.657196,11.0606191 98.995143,10.9994603 C100.581759,10.9994603 101.148408,12.1133297 101.148408,13.8197518 L101.148408,20.7425796 L98.7587696,20.7425796 L98.7587696,14.0723152 C98.7587696,13.5639504 98.5418241,13.3081489 97.9946033,13.3081489 C97.1183484,13.3997254 96.2711162,13.674414 95.5078251,14.1144091 L95.5078251,20.7425796 L93.1181867,20.7425796 Z" id="Path" fill="#000000" fill-rule="nonzero"></path>
                <polygon id="Path" fill="#7B42BC" points="6.86454398 5.3588775 13.0491096 8.93038316 13.0491096 16.0733945 6.86454398 12.5018888"></polygon>
                <polygon id="Path" fill="#7B42BC" points="13.72585 8.93038316 13.72585 16.0733945 19.9136535 12.5018888 19.9136535 5.3588775"></polygon>
                <polygon id="Path" fill="#7B42BC" points="3.45109802e-15 1.3729088 3.45109802e-15 8.51592013 6.18456557 12.0874258 6.18456557 4.94441446"></polygon>
                <polygon id="Path" fill="#7B42BC" points="6.86454398 20.4284943 13.0491096 24 13.0491096 16.9023206 13.0491096 16.8569887 6.86454398 13.285483"></polygon>
                <path d="M30.7674042,4.46195359 L30.7674042,2.62924987 L29.0933621,2.62924987 L29.0933621,4.46195359 L28.2385321,4.46195359 L28.2385321,0.0615218564 L29.0933621,0.0615218564 L29.0933621,1.90717755 L30.7674042,1.90717755 L30.7674042,0.0615218564 L31.6222342,0.0615218564 L31.6222342,4.46195359 L30.7674042,4.46195359 Z M34.7598489,4.46195359 L34.0798705,4.46195359 L34.0183486,4.24500809 C33.7271683,4.42768851 33.3906892,4.52526746 33.0469509,4.52671344 C32.4446843,4.52671344 32.1856449,4.12844037 32.1856449,3.58121964 C32.1856449,2.93362115 32.4770642,2.68753373 33.1570426,2.68753373 L33.9503508,2.68753373 L33.9503508,2.36373448 C33.9503508,2.01079331 33.849973,1.8877496 33.3027523,1.8877496 C32.9949066,1.89089749 32.6880642,1.92342494 32.3864004,1.98488937 L32.2860227,1.37938478 C32.6559231,1.28177294 33.0367593,1.23172018 33.41932,1.23043713 C34.4554776,1.23043713 34.7630869,1.58014031 34.7630869,2.37668645 L34.7598489,4.46195359 Z M33.9309228,3.2574204 L33.3189423,3.2574204 C33.0501889,3.2574204 32.9757151,3.33189423 32.9757151,3.58121964 C32.9757151,3.83054506 33.0501889,3.90501889 33.2995143,3.90501889 C33.5184338,3.90367298 33.7334401,3.84685785 33.9244468,3.73988127 L33.9309228,3.2574204 Z M36.4921749,4.52347545 C36.1055738,4.51738976 35.7218045,4.45633556 35.3524015,4.34214787 L35.4689692,3.73340529 C35.7852084,3.82246644 36.1118433,3.86928411 36.440367,3.87263896 C36.8062601,3.87263896 36.861306,3.79168915 36.861306,3.54883972 C36.861306,3.30599029 36.8192121,3.25418241 36.2849433,3.13113869 C35.4754452,2.94333513 35.3815434,2.74581759 35.3815434,2.13383702 C35.3815434,1.52185645 35.6729628,1.21748516 36.6152186,1.21748516 C36.9485368,1.21764388 37.2808209,1.25456433 37.6060443,1.3275769 L37.5380464,1.96222342 C37.2374496,1.90928259 36.9333035,1.87897621 36.6281705,1.87155963 C36.2687534,1.87155963 36.2072315,1.94927145 36.2072315,2.143551 C36.2072315,2.3993524 36.2298975,2.41878036 36.6767404,2.5288721 C37.5995683,2.76524555 37.6869941,2.88181328 37.6869941,3.53264976 C37.6869941,4.18348624 37.4894765,4.52671344 36.4921749,4.52671344 L36.4921749,4.52347545 Z M40.283864,4.4587156 L40.283864,2.24716676 C40.283864,2.07555316 40.2093902,1.99136535 40.0183486,1.99136535 C39.7163479,2.02334692 39.4236414,2.11468015 39.1570426,2.26011873 L39.1570426,4.46195359 L38.3281166,4.46195359 L38.3281166,2.30073201e-15 L39.1570426,0.123043713 L39.1570426,1.52833243 C39.5341537,1.34417413 39.9454657,1.24051909 40.3648138,1.22396114 C40.9152725,1.22396114 41.1095521,1.59309228 41.1095521,2.15974096 L41.1095521,4.46195359 L40.283864,4.4587156 Z M41.8057205,0.835402051 L41.8057205,0.058283864 L42.6346465,0.058283864 L42.6346465,0.835402051 L41.8057205,0.835402051 Z M41.8057205,4.4587156 L41.8057205,1.285483 L42.6346465,1.285483 L42.6346465,4.4587156 L41.8057205,4.4587156 Z M43.295197,1.31138694 C43.295197,0.514840799 43.7776579,0.0518078791 44.9141932,0.0518078791 C45.327524,0.0526566704 45.7393548,0.101554787 46.1413923,0.197517539 L46.0474906,0.906637885 C45.6818906,0.840434895 45.3115755,0.803619944 44.9400971,0.796546141 C44.3507825,0.796546141 44.159741,0.990825688 44.159741,1.44414463 L44.159741,3.11171074 C44.159741,3.57474366 44.3507825,3.75930923 44.9400971,3.75930923 C45.3115755,3.75223543 45.6818906,3.71542047 46.0474906,3.64921749 L46.1413923,4.36157582 C45.7392267,4.45644836 45.3273976,4.50425966 44.9141932,4.50404819 C43.7873718,4.50404819 43.295197,4.04101457 43.295197,3.24446843 L43.295197,1.31138694 Z M47.9611441,4.52347545 C46.8278467,4.52347545 46.5234754,3.92444684 46.5234754,3.27037237 L46.5234754,2.47382623 C46.5234754,1.82622774 46.8278467,1.22396114 47.9611441,1.22396114 C49.0944414,1.22396114 49.4052887,1.82298975 49.4052887,2.47382623 L49.4052887,3.27361036 C49.4052887,3.92768484 49.0814895,4.52671344 47.9611441,4.52671344 L47.9611441,4.52347545 Z M47.9611441,1.89746357 C47.5207771,1.89746357 47.3491635,2.08526713 47.3491635,2.4446843 L47.3491635,3.2995143 C47.3491635,3.65569347 47.5207771,3.84673502 47.9611441,3.84673502 C48.4015111,3.84673502 48.5731247,3.65569347 48.5731247,3.2995143 L48.5731247,2.44792229 C48.5731247,2.08850513 48.4015111,1.90070157 47.9611441,1.90070157 L47.9611441,1.89746357 Z M51.7301673,1.94927145 C51.4276517,2.08168667 51.1354233,2.23645947 50.8559093,2.41230437 L50.8559093,4.4587156 L50.0269833,4.4587156 L50.0269833,1.285483 L50.7263896,1.285483 L50.7814355,1.63518618 C51.0516365,1.4602305 51.3433121,1.32092273 51.6492175,1.22072315 L51.7301673,1.94927145 Z M55.0393956,3.40313006 C55.0393956,4.10577442 54.7155963,4.52347545 53.9481921,4.52347545 C53.651368,4.52060408 53.3554474,4.49025325 53.0642202,4.43281166 L53.0642202,5.72800863 L52.2385321,5.85105235 L52.2385321,1.28872099 L52.8861306,1.28872099 L52.9670804,1.55423637 C53.2734437,1.33995232 53.6391037,1.22674489 54.012952,1.23043713 C54.6767404,1.23043713 55.0296816,1.60604425 55.0296816,2.33135456 L55.0393956,3.40313006 Z M53.0642202,3.75930923 C53.3058879,3.81177496 53.5520125,3.8410497 53.7992445,3.84673502 C54.0971398,3.84673502 54.2137075,3.70750135 54.2137075,3.42255801 L54.2137075,2.30545062 C54.2137075,2.04317323 54.1100917,1.90070157 53.8057205,1.90070157 C53.5334954,1.90935841 53.2721881,2.00977347 53.0642202,2.1856449 L53.0642202,3.75930923 Z" id="Shape" fill="#000000" fill-rule="nonzero"></path>
            </g>
        </g>
        <g id="HCP-Env" transform="translate(560.000000, 144.000000)">
            <rect id="Rectangle" fill="#D4F2FF" x="0" y="0" width="192" height="192" rx="2"></rect>
            <rect id="Rectangle" fill="#FFFFFF" x="16" y="48" width="160" height="128" rx="2"></rect>
            <rect id="Rectangle" stroke="#DBDBDC" fill="#FFFFFF" x="32.5" y="80.5" width="127" height="32" rx="2"></rect>
            <rect id="Rectangle" stroke="#DBDBDC" fill="#FFFFFF" x="32.5" y="128.5" width="127" height="31" rx="2"></rect>
            <text id="iteration" font-family="Arial-BoldMT, Arial" font-size="9" font-weight="bold" letter-spacing="-0.018" fill="#1D1F25">
                <tspan x="78.329291" y="99">iteration</tspan>
            </text>
            <text id="bucket" font-family="Arial-BoldMT, Arial" font-size="9" font-weight="bold" letter-spacing="-0.018" fill="#1D1F25">
                <tspan x="81.5498496" y="61">bucket</tspan>
            </text>
            <text id="channel" font-family="Arial-BoldMT, Arial" font-size="9" font-weight="bold" letter-spacing="-0.018" fill="#1D1F25">
                <tspan x="79.0583613" y="145">channel</tspan>
            </text>
            <g id="HCP_Packer_PrimaryLogo_Color_RGB" transform="translate(37.000000, 7.000000)">
                <polygon id="Path" fill="#02A8EF" points="0 2.68714286 7.75239458 6.80742857 7.75239458 22 0 17.8797143"></polygon>
                <path d="M11.5893003,4.46285714 L3.17749095,0 L3.17749095,3.09885714 L8.90722462,6.14114286 L8.90722462,15.444 L11.6029669,16.8677143 C13.2737122,17.754 14.6369583,17.2228571 14.6369583,15.6891429 L14.6369583,8.86285714 C14.6232917,7.31657143 13.2600456,5.34914286 11.5893003,4.46285714 Z" id="Path" fill="#02A8EF" fill-rule="nonzero"></path>
                <polygon id="Path" fill="#000000" fill-rule="nonzero" points="33.6233209 17.688 33.6233209 12.3451429 28.4983355 12.3451429 28.4983355 17.688 25.8948429 17.688 25.8948429 5.016 28.4983355 5.016 28.4983355 10.2268571 33.6233209 10.2268571 33.6233209 5.016 36.2268135 5.016 36.2268135 17.688"></polygon>
                <path d="M38.2973076,8.49514286 C38.2973076,6.17571429 39.76647,4.82740632 43.1967936,4.82740632 C44.4634039,4.82537295 45.7255381,4.96574731 46.9551162,5.24542857 L46.6476171,7.31657143 C45.5360392,7.12640489 44.4092436,7.0212834 43.2787934,7.00228571 C41.4816318,7.00228571 40.8871335,7.57428571 40.8871335,8.92257143 L40.8871335,13.7814286 C40.8871335,15.1328571 41.4679652,15.7017143 43.2787934,15.7017143 C44.4093448,15.6842851 45.5362824,15.5791503 46.6476171,15.3874286 L46.9380329,17.4617143 C45.7084549,17.7413955 44.4463206,17.8817699 43.1797103,17.8797365 C39.7630534,17.8797365 38.2802243,16.5282857 38.2802243,14.2088571 L38.2973076,8.49514286 Z" id="Path" fill="#000000" fill-rule="nonzero"></path>
                <path d="M48.7488611,5.016 L54.1232625,5.016 C57.3075867,5.016 58.4863334,6.21342857 58.4863334,8.43857143 L58.4863334,10.1702857 C58.4863334,12.3702857 57.205087,13.574 54.0002628,13.574 L51.3523537,13.574 L51.3523537,17.688 L48.7454445,17.688 L48.7488611,5.016 Z M53.9797629,7.128 L51.3523537,7.128 L51.3523537,11.462 L53.9763462,11.462 C55.4455087,11.462 55.8794424,10.9685714 55.8794424,9.922 L55.8794424,8.63028571 C55.8828408,7.58371429 55.4079255,7.128 53.9797629,7.128 Z" id="Shape" fill="#000000" fill-rule="nonzero"></path>
                <path d="M64.3766499,5.016 L69.7510513,5.016 C72.9353755,5.016 74.1141222,6.21342857 74.1141222,8.43857143 L74.1141222,10.1702857 C74.1141222,12.3702857 72.8328758,13.574 69.6280516,13.574 L66.9801425,13.574 L66.9801425,17.688 L64.3766499,17.688 L64.3766499,5.016 Z M69.6075517,7.128 L66.9801425,7.128 L66.9801425,11.462 L69.6075517,11.462 C71.0732975,11.462 71.5072311,10.9685714 71.5072311,9.922 L71.5072311,8.63028571 C71.5106296,7.58371429 71.0322976,7.128 69.6075517,7.128 Z" id="Shape" fill="#000000" fill-rule="nonzero"></path>
                <path d="M82.9803469,17.688 L80.9132695,17.688 L80.7356033,17.0594286 C79.8420603,17.5918346 78.8003976,17.8755803 77.7357785,17.8765714 C75.8976171,17.8765714 75.111786,16.7168571 75.111786,15.1202857 C75.111786,13.2345714 76.0001168,12.5148571 78.0466943,12.5148571 L80.4656874,12.5148571 L80.4656874,11.5374286 C80.4656874,10.5128571 80.1547716,10.1514286 78.5421096,10.1514286 C77.6048931,10.160618 76.6709831,10.2553683 75.7541175,10.4342857 L75.4432017,8.668 C76.5671392,8.38142563 77.7277151,8.23450248 78.8940252,8.23114286 C82.0578496,8.23114286 82.9940135,9.25571429 82.9940135,11.5751429 L82.9803469,17.688 Z M80.4588541,14.19 L78.5967761,14.19 C77.7699451,14.19 77.5444457,14.4005714 77.5444457,15.1045714 C77.5444457,15.7331429 77.7699451,16.0474286 78.5694428,16.0474286 C79.2369495,16.0380227 79.8912462,15.8748604 80.4725207,15.5728571 L80.4588541,14.19 Z" id="Shape" fill="#000000" fill-rule="nonzero"></path>
                <path d="M84.4939259,14.3157143 L84.4939259,11.8014286 C84.4939259,9.30914286 85.6726726,8.24685714 88.8330802,8.24685714 C89.6664809,8.2514872 90.4948736,8.3657884 91.2930732,8.58628571 L90.9855741,10.4594286 C90.3021924,10.3045664 89.6017561,10.2223146 88.8979967,10.2142857 C87.4527508,10.2142857 87.0188354,10.6134286 87.0188354,11.7542857 L87.0188354,14.322 C87.0188354,15.4628571 87.4527508,15.862 88.8979967,15.862 C89.6023089,15.8585345 90.3034653,15.7751426 90.9855741,15.6137143 L91.2964899,17.4994286 C90.5000648,17.7274799 89.6706165,17.8429865 88.8364969,17.842 C85.6692559,17.8702857 84.4939259,16.8048571 84.4939259,14.3157143 Z" id="Path" fill="#000000" fill-rule="nonzero"></path>
                <path d="M92.789569,17.688 L92.789569,4.63571429 L95.3110618,4.32142857 L95.3110618,17.688 L92.789569,17.688 Z M101.331211,8.42914286 L98.3758031,13.0114286 L101.450794,17.688 L98.6798855,17.688 L95.6424775,13.0114286 L98.515886,8.42914286 L101.331211,8.42914286 Z" id="Shape" fill="#000000" fill-rule="nonzero"></path>
                <path d="M106.57578,15.9688571 C107.618615,15.9638296 108.654878,15.8166101 109.650771,15.532 L110.04027,17.2794286 C108.860308,17.6714854 107.615108,17.8714277 106.36053,17.8702906 C103.200123,17.8702906 102.103376,16.5188571 102.103376,14.2968571 L102.103376,11.8422857 C102.103376,9.88428571 103.053206,8.23114286 106.278531,8.23114286 C109.503855,8.23114286 110.228186,9.95971429 110.228186,11.9554286 L110.228186,13.9322857 L104.624869,13.9322857 L104.624869,14.41 C104.611202,15.532 105.045117,15.9688571 106.57578,15.9688571 Z M104.611202,12.0717143 L107.816026,12.0717143 L107.816026,11.6128571 C107.816026,10.7391429 107.52561,10.1325714 106.285364,10.1325714 C105.045117,10.1325714 104.611202,10.7391429 104.611202,11.6128571 L104.611202,12.0717143 Z" id="Shape" fill="#000000" fill-rule="nonzero"></path>
                <path d="M117,10.3588571 C116.074796,10.7448638 115.183759,11.1967123 114.335008,11.7102857 L114.335008,17.688 L111.827181,17.688 L111.827181,8.41971429 L113.959175,8.41971429 L114.123175,9.44742857 C114.942121,8.93589695 115.831423,8.52687899 116.767667,8.23114286 L117,10.3588571 Z" id="Path" fill="#000000" fill-rule="nonzero"></path>
            </g>
        </g>
        <g id="AWS-Env" transform="translate(304.000000, 95.600000)">
            <g>
                <rect id="Rectangle" stroke="#DBDBDC" x="0.5" y="16.9" width="191" height="207" rx="2"></rect>
                <g id="AWS" transform="translate(16.200000, 0.000000)">
                    <rect id="Rectangle" fill="#FFFFFF" x="-0.2" y="0.4" width="38" height="38"></rect>
                    <g id="Group_3" transform="translate(4.800000, 10.400000)">
                        <path d="M7.89154968,6.17464286 C7.89154968,6.52435714 7.92864341,6.80728571 7.99325829,7.01614286 C8.06864231,7.22378571 8.16197491,7.45085714 8.29240123,7.69614286 C8.33787096,7.77142857 8.35701611,7.84792857 8.35701611,7.9135 C8.35701611,8.00821429 8.30077724,8.10292857 8.17992349,8.19764286 L7.59360331,8.59471429 C7.50984328,8.65178571 7.42608326,8.67971429 7.35069923,8.67971429 C7.25856321,8.67971429 7.16523061,8.63235714 7.07189801,8.54735714 C6.94147168,8.40528571 6.83019051,8.25471429 6.73685791,8.10292857 C6.64352531,7.94264286 6.55019271,7.76292857 6.4484841,7.54557143 C5.72216503,8.415 4.80918075,8.84971429 3.70953127,8.84971429 C2.92816989,8.84971429 2.30355942,8.62264286 1.84766557,8.1685 C1.39177172,7.71557143 1.15844022,7.10964286 1.15844022,6.35314286 C1.15844022,5.5505 1.43843801,4.89721429 2.00561304,4.40542857 C2.57398464,3.91485714 3.32782487,3.66835714 4.28747545,3.66835714 C4.60456697,3.66835714 4.9300345,3.69628571 5.27464718,3.74364286 C5.61925985,3.791 5.9734451,3.8675 6.34557893,3.9525 L6.34557893,3.26157143 C6.34557893,2.54392857 6.19600746,2.04242857 5.90763365,1.74857143 C5.60968728,1.45592857 5.10712713,1.31385714 4.39038062,1.31385714 C4.06371652,1.31385714 3.72867642,1.3515 3.38406375,1.43771429 C3.03945107,1.52271429 2.70441097,1.62592857 2.37894344,1.75828571 C2.22937197,1.82507143 2.11809079,1.86271429 2.05227934,1.88092857 C1.98766447,1.90035714 1.94099817,1.91007143 1.90390444,1.91007143 C1.77347812,1.91007143 1.70766667,1.81535714 1.70766667,1.61621429 L1.70766667,1.15357143 C1.70766667,1.00178571 1.72681182,0.888857143 1.77347812,0.822071429 C1.82014442,0.7565 1.90390444,0.689714286 2.03433077,0.624142857 C2.35979829,0.454142857 2.75107727,0.312071429 3.20697112,0.199142857 C3.66406155,0.0752857143 4.14747655,0.0194285714 4.65960928,0.0194285714 C5.76763476,0.0194285714 6.57891043,0.274428571 7.09941916,0.784428571 C7.61155189,1.29564286 7.87240454,2.07035714 7.87240454,3.111 L7.87240454,6.17464286 L7.89154968,6.17464286 Z M4.11038282,7.61114286 C4.41790177,7.61114286 4.7349933,7.55407143 5.0700334,7.44114286 C5.4050735,7.327 5.70301988,7.11935714 5.95429995,6.83642857 C6.10387143,6.65671429 6.2151526,6.45757143 6.27139148,6.2305 C6.32643378,6.00342857 6.36472408,5.73021429 6.36472408,5.40842857 L6.36472408,5.01135714 C6.09429885,4.94457143 5.80592505,4.88871429 5.50797868,4.84985714 C5.20883573,4.81221429 4.92046193,4.794 4.63208813,4.794 C4.00867422,4.794 3.5515838,4.91664286 3.24406485,5.17164286 C2.93774247,5.42664286 2.788171,5.78607143 2.788171,6.25964286 C2.788171,6.70407143 2.89945217,7.03435714 3.13278367,7.26142857 C3.3565426,7.49821429 3.68201012,7.61114286 4.11038282,7.61114286 Z M11.5889565,8.63235714 C11.4202399,8.63235714 11.3089587,8.60442857 11.2347713,8.53764286 C11.1605838,8.48057143 11.0947724,8.34821429 11.0385335,8.1685 L8.85000369,0.860928571 C8.79496139,0.6715 8.76624366,0.548857143 8.76624366,0.482071429 C8.76624366,0.3315 8.84162769,0.245285714 8.99000259,0.245285714 L9.90298687,0.245285714 C10.0800795,0.245285714 10.2009332,0.274428571 10.2655481,0.34 C10.3409321,0.397071429 10.3959744,0.529428571 10.4522133,0.709142857 L12.0173292,6.96878571 L13.4699674,0.709142857 C13.5166337,0.519714286 13.571676,0.397071429 13.64706,0.34 C13.7212475,0.284142857 13.8516738,0.245285714 14.0191938,0.245285714 L14.7634615,0.245285714 C14.9405541,0.245285714 15.0614079,0.274428571 15.1367919,0.34 C15.2109793,0.397071429 15.2755942,0.529428571 15.3138845,0.709142857 L16.7844712,7.04407143 L18.3962534,0.709142857 C18.4512957,0.519714286 18.5171072,0.397071429 18.5817221,0.34 C18.6571061,0.284142857 18.7779598,0.245285714 18.9454799,0.245285714 L19.8117979,0.245285714 C19.9601728,0.245285714 20.0439328,0.321785714 20.0439328,0.482071429 C20.0439328,0.529428571 20.0343602,0.576785714 20.0259842,0.633857143 C20.0164116,0.689714286 19.9972665,0.766214286 19.9601728,0.869428571 L17.7166007,8.17821429 C17.6603618,8.36764286 17.5945503,8.49028571 17.5203629,8.54735714 C17.4461754,8.60442857 17.3253217,8.64207143 17.1661776,8.64207143 L16.3656711,8.64207143 C16.1885785,8.64207143 16.0677247,8.61292857 15.9935373,8.54735714 C15.9181533,8.48057143 15.8535384,8.35792857 15.8164447,8.1685 L14.3733791,2.07035714 L12.9386895,8.16 C12.8920232,8.34821429 12.8357843,8.47207143 12.7615969,8.53764286 C12.6874094,8.60442857 12.5569831,8.63235714 12.389463,8.63235714 L11.5889565,8.63235714 Z M23.5546744,8.88735714 C23.0712594,8.88735714 22.5866479,8.8315 22.1211814,8.71735714 C21.655715,8.60442857 21.2919572,8.48057143 21.0502497,8.33971429 C20.9006782,8.25471429 20.7989696,8.16 20.7606793,8.075 C20.7235856,7.99 20.705637,7.89528571 20.705637,7.81028571 L20.705637,7.327 C20.705637,7.12907143 20.7798244,7.03435714 20.9198233,7.03435714 C20.9748656,7.03435714 21.0311045,7.04407143 21.0873434,7.06228571 C21.1435823,7.08171429 21.2273423,7.11935714 21.3194783,7.157 C21.6365698,7.29907143 21.9811825,7.41321429 22.3437438,7.4885 C22.7170742,7.56378571 23.0796354,7.60142857 23.4529658,7.60142857 C24.039286,7.60142857 24.4951799,7.49821429 24.8122714,7.28935714 C25.1281663,7.08171429 25.296883,6.77935714 25.296883,6.392 C25.296883,6.12728571 25.2131229,5.90992857 25.0444063,5.73021429 C24.8768863,5.5505 24.5609913,5.389 24.1039009,5.23842857 L22.7541679,4.81221429 C22.0745151,4.59485714 21.571955,4.27307143 21.264436,3.84807143 C20.9569171,3.43157143 20.7989696,2.96892857 20.7989696,2.47714286 C20.7989696,2.08007143 20.8827296,1.73035714 21.0502497,1.428 C21.2177697,1.12564286 21.4415286,0.860928571 21.7203299,0.652071429 C22.0003277,0.434714286 22.3162226,0.274428571 22.6883565,0.160285714 C23.0616869,0.0473571429 23.4529658,0 23.8621934,0 C24.0668072,0 24.2809935,0.00971428571 24.4856073,0.0376428571 C24.6997936,0.0667857143 24.8960314,0.104428571 25.0910726,0.142071429 C25.2777378,0.189428571 25.4548304,0.236785714 25.6223505,0.292642857 C25.7898705,0.349714286 25.9202969,0.406785714 26.0136295,0.463857143 C26.1440558,0.539142857 26.2373884,0.614428571 26.2924307,0.699428571 C26.3486696,0.774714286 26.3761907,0.879142857 26.3761907,1.0115 L26.3761907,1.45592857 C26.3761907,1.65507143 26.3020033,1.75828571 26.1620044,1.75828571 C26.0878169,1.75828571 25.9669632,1.72064286 25.8090157,1.64535714 C25.2777378,1.39885714 24.6818451,1.27621429 24.0201409,1.27621429 C23.4900596,1.27621429 23.0712594,1.36121429 22.7816891,1.54092857 C22.4933153,1.72064286 22.3437438,1.99507143 22.3437438,2.38242857 C22.3437438,2.64714286 22.4370764,2.87421429 22.6237416,3.05392857 C22.8104068,3.23364286 23.1550195,3.41335714 23.648007,3.57364286 L24.9702189,3.99985714 C25.6414956,4.21721429 26.1249106,4.51957143 26.4132844,4.90692857 C26.7028548,5.29428571 26.8416571,5.73871429 26.8416571,6.2305 C26.8416571,6.63728571 26.7578971,7.00642857 26.5999496,7.327 C26.4324296,7.64878571 26.2086707,7.93292857 25.9202969,8.16 C25.6319231,8.39557143 25.2873104,8.56678571 24.8864588,8.68942857 C24.4676587,8.82178571 24.0297134,8.88735714 23.5546744,8.88735714 Z" id="Vector_10" fill="#252F3E" fill-rule="nonzero"></path>
                        <g id="Group_4" transform="translate(0.000000, 10.598015)" fill="#FF9900">
                            <path d="M25.3148315,2.88419912 C22.2504112,5.18284198 17.7991641,6.40198484 13.971331,6.40198484 C8.60829619,6.40198484 3.77414615,4.38748484 0.124602188,1.04091341 C-0.164968185,0.776199121 0.0958844654,0.416770549 0.440497141,0.624413407 C4.38918405,2.95098484 9.25923124,4.35955626 14.2979951,4.35955626 C17.6962589,4.35955626 21.4307595,3.64069912 24.8673137,2.16655626 C25.3794464,1.92977055 25.8173917,2.50655626 25.3148315,2.88419912 Z" id="Vector_11"></path>
                            <path d="M26.5903771,1.41005626 C26.1990981,0.898841978 24.0009957,1.16355626 23.005448,1.28741341 C22.7075016,1.32505626 22.6608353,1.06034198 22.930064,0.861199121 C24.6806485,-0.387086593 27.5584036,-0.027658022 27.8934437,0.388841978 C28.2296804,0.813841978 27.8013077,3.73541341 26.1620044,5.13548484 C25.9107243,5.35284198 25.6678202,5.23869912 25.780298,4.95577055 C26.1524318,4.01955626 26.981656,1.91034198 26.5903771,1.41005626 Z" id="Vector_12"></path>
                        </g>
                    </g>
                </g>
            </g>
            <text id="AMI" font-family="Arial-BoldMT, Arial" font-size="9" font-weight="bold" letter-spacing="-0.018" fill="#1D1F25">
                <tspan x="46.7784648" y="130.4">AMI</tspan>
            </text>
            <text id="EC2-instance" font-family="Arial-BoldMT, Arial" font-size="9" font-weight="bold" letter-spacing="-0.018" fill="#1D1F25">
                <tspan x="125.273094" y="210.4">EC2 </tspan>
                <tspan x="115.81492" y="220.4">instance</tspan>
            </text>
            <g id="Amazon-Containers-AMI_Resource-Icon_light-bg" transform="translate(31.000000, 64.400000)" fill="#D45B07">
                <path d="M30.143,37.727 L38.599,37.727 L38.599,26.656 L30.143,26.656 L30.143,37.727 Z M9.229,37.727 L17.686,37.727 L17.686,26.656 L9.229,26.656 L9.229,37.727 Z M19.686,37.727 L28.143,37.727 L28.143,26.656 L19.686,26.656 L19.686,37.727 Z M39.599,24.656 L8.229,24.656 C7.676,24.656 7.229,25.104 7.229,25.656 L7.229,38.727 C7.229,39.279 7.676,39.727 8.229,39.727 L39.599,39.727 C40.151,39.727 40.599,39.279 40.599,38.727 L40.599,25.656 C40.599,25.104 40.151,24.656 39.599,24.656 L39.599,24.656 Z M30.143,19.428 L38.599,19.428 L38.599,10.971 L30.143,10.971 L30.143,19.428 Z M9.229,19.428 L17.686,19.428 L17.686,10.971 L9.229,10.971 L9.229,19.428 Z M19.686,19.428 L28.143,19.428 L28.143,10.971 L19.686,10.971 L19.686,19.428 Z M39.599,8.971 L8.229,8.971 C7.676,8.971 7.229,9.419 7.229,9.971 L7.229,20.428 C7.229,20.98 7.676,21.428 8.229,21.428 L39.599,21.428 C40.151,21.428 40.599,20.98 40.599,20.428 L40.599,9.971 C40.599,9.419 40.151,8.971 39.599,8.971 L39.599,8.971 Z M43.827,39.379 C43.827,41.832 41.832,43.827 39.38,43.827 L8.448,43.827 C5.995,43.827 4,41.832 4,39.379 L4,8.448 C4,5.995 5.995,4 8.448,4 L39.38,4 C41.832,4 43.827,5.995 43.827,8.448 L43.827,39.379 Z M39.38,2 L8.448,2 C4.893,2 2,4.892 2,8.448 L2,39.379 C2,42.934 4.893,45.827 8.448,45.827 L39.38,45.827 C42.935,45.827 45.827,42.934 45.827,39.379 L45.827,8.448 C45.827,4.892 42.935,2 39.38,2 L39.38,2 Z"></path>
            </g>
            <g id="Amazon-EC2-Instance_Resource-Icon_light-bg" transform="translate(109.752613, 144.400000)" fill="#D45B07">
                <path d="M9,39 L39,39 L39,9 L9,9 L9,39 Z M46,13 L46,11 L41,11 L41,8 C41,7.448 40.552,7 40,7 L37,7 L37,2 L35,2 L35,7 L31,7 L31,2 L29,2 L29,7 L25,7 L25,2 L23,2 L23,7 L19,7 L19,2 L17,2 L17,7 L13,7 L13,2 L11,2 L11,7 L8,7 C7.447,7 7,7.448 7,8 L7,11 L2,11 L2,13 L7,13 L7,17 L2,17 L2,19 L7,19 L7,23 L2,23 L2,25 L7,25 L7,29 L2,29 L2,31 L7,31 L7,35 L2,35 L2,37 L7,37 L7,40 C7,40.553 7.447,41 8,41 L11,41 L11,46 L13,46 L13,41 L17,41 L17,46 L19,46 L19,41 L23,41 L23,46 L25,46 L25,41 L29,41 L29,46 L31,46 L31,41 L35,41 L35,46 L37,46 L37,41 L40,41 C40.552,41 41,40.553 41,40 L41,37 L46,37 L46,35 L41,35 L41,31 L46,31 L46,29 L41,29 L41,25 L46,25 L46,23 L41,23 L41,19 L46,19 L46,17 L41,17 L41,13 L46,13 Z"></path>
            </g>
            <path id="Path-8" d="M85.5,171.9 L94.5,176.4 L85.5,180.9 L85.5,171.9 Z M59.5,175.9 L59.5,176.9 L55.5,176.9 L55.5,175.9 L59.5,175.9 Z M67.5,175.9 L67.5,176.9 L63.5,176.9 L63.5,175.9 L67.5,175.9 Z M75.5,175.9 L75.5,176.9 L71.5,176.9 L71.5,175.9 L75.5,175.9 Z M83.5,175.9 L83.5,176.9 L79.5,176.9 L79.5,175.9 L83.5,175.9 Z M56,168.4 L56,172.4 L55,172.4 L55,168.4 L56,168.4 Z M56,160.4 L56,164.4 L55,164.4 L55,160.4 L56,160.4 Z M56,152.4 L56,156.4 L55,156.4 L55,152.4 L56,152.4 Z M56,144.4 L56,148.4 L55,148.4 L55,144.4 L56,144.4 Z" fill="#979797" fill-rule="nonzero"></path>
        </g>
        <path id="Path-15" d="M651,47.5 C653.963479,47.5 656.379539,49.84378 656.495633,52.7787929 L656.5,53 L656.500707,139.027543 C658.750342,139.276586 660.5,141.183966 660.5,143.5 C660.5,145.985281 658.485281,148 656,148 C653.514719,148 651.5,145.985281 651.5,143.5 C651.5,141.183621 653.250179,139.276019 655.500297,139.027432 L655.5,53 C655.5,50.5857267 653.598763,48.6155109 651.211836,48.504898 L651,48.5 L149.026247,48.5 C146.611973,48.5 144.641757,50.4012365 144.531145,52.7881643 L144.526247,53 L144.526308,53.0235599 L144.977901,139.025048 C147.228514,139.262591 148.987814,141.160649 148.999938,143.47644 C149.01295,145.961687 147.008807,147.986927 144.52356,147.999938 C142.038313,148.01295 140.013073,146.008807 140.000062,143.52356 C139.987934,141.207083 141.728297,139.290258 143.977266,139.030065 L143.526322,53.0287954 L143.526247,53 C143.526247,50.0365209 145.870027,47.6204609 148.805039,47.5043672 L149.026247,47.5 L651,47.5 Z" fill="#979797" fill-rule="nonzero"></path>
        <path id="Path-16" d="M655.5,331.5 C657.985281,331.5 660,333.514719 660,336 C660,338.316034 658.250342,340.223414 656.000707,340.472457 L656,379 C656,381.963479 653.65622,384.379539 650.721207,384.495633 L650.5,384.5 L149,384.5 C146.036521,384.5 143.620461,382.15622 143.504367,379.221207 L143.5,379 L143.500297,340.472568 C141.250179,340.223981 139.5,338.316379 139.5,336 C139.5,333.514719 141.514719,331.5 144,331.5 C146.485281,331.5 148.5,333.514719 148.5,336 C148.5,338.316034 146.750342,340.223414 144.500707,340.472457 L144.5,379 C144.5,381.414273 146.401237,383.384489 148.788164,383.495102 L149,383.5 L650.5,383.5 C652.914273,383.5 654.884489,381.598763 654.995102,379.211836 L655,379 L655.000297,340.472568 C652.750179,340.223981 651,338.316379 651,336 C651,333.514719 653.014719,331.5 655.5,331.5 Z" fill="#979797" fill-rule="nonzero"></path>
        <path id="Path-17" d="M389.474279,299.548924 L398.499992,303.997126 L389.526002,308.548775 L389.503,304.548 L224.002874,305.499992 L223.997126,304.500008 L389.497,303.548 L389.474279,299.548924 Z" fill="#7B42BC" fill-rule="nonzero"></path>
        <path id="Path-7" d="M532.10536,239.871994 C532.333005,239.917896 532.564862,239.946198 532.79956,239.956441 L533.035155,239.960648 L535.997803,239.937502 L536.005615,240.937471 L533.042967,240.960617 C532.754709,240.962869 532.468967,240.94288 532.187574,240.901181 L531.907698,240.852264 L532.10536,239.871994 Z M543.997559,239.875004 L544.005371,240.874973 L540.005493,240.906222 L539.997681,239.906253 L543.997559,239.875004 Z M551.997315,239.812506 L552.005127,240.812475 L548.005249,240.843724 L547.997437,239.843755 L551.997315,239.812506 Z M559.99707,239.750008 L560.004883,240.749977 L556.005005,240.781226 L555.997192,239.781257 L559.99707,239.750008 Z M567.996826,239.68751 L568.004639,240.687479 L564.004761,240.718728 L563.996948,239.718759 L567.996826,239.68751 Z M575.996582,239.625011 L576.004394,240.624981 L572.004516,240.65623 L571.996704,239.65626 L575.996582,239.625011 Z M583.996338,239.562513 L584.00415,240.562483 L580.004272,240.593732 L579.99646,239.593762 L583.996338,239.562513 Z M591.996094,239.500015 L592.003906,240.499985 L588.004028,240.531234 L587.996216,239.531264 L591.996094,239.500015 Z M528.5,234.116253 L528.500439,235.499118 C528.500748,235.518275 528.501268,235.548986 528.502133,235.600171 C528.524066,236.319262 528.714809,237.008961 529.053463,237.624969 L529.187351,237.852431 L528.340788,238.38472 C527.824487,237.563584 527.532737,236.618798 527.502446,235.624412 C527.5015,235.570016 527.500933,235.537379 527.500587,235.516027 L527.5,234.116253 L528.5,234.116253 Z M528.5,226.116253 L528.5,230.116253 L527.5,230.116253 L527.5,226.116253 L528.5,226.116253 Z M528.5,218.116253 L528.5,222.116253 L527.5,222.116253 L527.5,218.116253 L528.5,218.116253 Z M528.5,210.116253 L528.5,214.116253 L527.5,214.116253 L527.5,210.116253 L528.5,210.116253 Z M528.5,202.116253 L528.5,206.116253 L527.5,206.116253 L527.5,202.116253 L528.5,202.116253 Z M528.5,194.116253 L528.5,198.116253 L527.5,198.116253 L527.5,194.116253 L528.5,194.116253 Z M526.420084,186.192428 C527.541913,187.08421 528.27703,188.377128 528.456904,189.808738 L528.484083,190.078726 L527.486946,190.15435 C527.397891,188.980106 526.853863,187.904282 525.988186,187.135249 L525.797809,186.975227 L526.420084,186.192428 Z M392,181 L392,185 L394.269922,185 L394.269922,186 L392,186 L392,190 L383,185.5 L392,181 Z M522.269922,185 L522.269922,186 L518.269922,186 L518.269922,185 L522.269922,185 Z M514.269922,185 L514.269922,186 L510.269922,186 L510.269922,185 L514.269922,185 Z M506.269922,185 L506.269922,186 L502.269922,186 L502.269922,185 L506.269922,185 Z M498.269922,185 L498.269922,186 L494.269922,186 L494.269922,185 L498.269922,185 Z M490.269922,185 L490.269922,186 L486.269922,186 L486.269922,185 L490.269922,185 Z M482.269922,185 L482.269922,186 L478.269922,186 L478.269922,185 L482.269922,185 Z M474.269922,185 L474.269922,186 L470.269922,186 L470.269922,185 L474.269922,185 Z M466.269922,185 L466.269922,186 L462.269922,186 L462.269922,185 L466.269922,185 Z M458.269922,185 L458.269922,186 L454.269922,186 L454.269922,185 L458.269922,185 Z M450.269922,185 L450.269922,186 L446.269922,186 L446.269922,185 L450.269922,185 Z M442.269922,185 L442.269922,186 L438.269922,186 L438.269922,185 L442.269922,185 Z M434.269922,185 L434.269922,186 L430.269922,186 L430.269922,185 L434.269922,185 Z M426.269922,185 L426.269922,186 L422.269922,186 L422.269922,185 L426.269922,185 Z M418.269922,185 L418.269922,186 L414.269922,186 L414.269922,185 L418.269922,185 Z M410.269922,185 L410.269922,186 L406.269922,186 L406.269922,185 L410.269922,185 Z M402.269922,185 L402.269922,186 L398.269922,186 L398.269922,185 L402.269922,185 Z" fill="#979797" fill-rule="nonzero"></path>
        <g id="Label" transform="translate(454.000000, 176.000000)">
            <rect id="Rectangle" fill="#FFFFFF" x="0" y="0" width="53" height="24"></rect>
            <text id="Registry-reference" font-family="Arial-BoldMT, Arial" font-size="9" font-weight="bold" letter-spacing="-0.018" fill="#404247">
                <tspan x="8.5654082" y="11">Registry </tspan>
                <tspan x="6.31781641" y="21">reference</tspan>
            </text>
        </g>
        <rect id="Rectangle" stroke="#979797" fill="#343536" x="480.5" y="30.5" width="79" height="37" rx="3"></rect>
        <rect id="Rectangle" stroke="#979797" fill="#343536" x="368.5" y="30.5" width="79" height="37" rx="3"></rect>
        <text id="resource-image-valid" font-family="Arial-BoldMT, Arial" font-size="9" font-weight="bold" line-spacing="9" letter-spacing="-0.018" fill="#FFFFFF">
            <tspan x="500.97492" y="44">resource </tspan>
            <tspan x="506.953047" y="53">image</tspan>
            <tspan x="499" y="62">validation</tspan>
        </text>
        <text id="data-source-image-va" font-family="Arial-BoldMT, Arial" font-size="9" font-weight="bold" line-spacing="9" letter-spacing="-0.018" fill="#FFFFFF">
            <tspan x="382.954756" y="48">data source </tspan>
            <tspan x="373" y="57">image validation</tspan>
        </text>
        <g id="Label" transform="translate(176.000000, 36.000000)">
            <rect id="Rectangle" fill="#FFFFFF" x="0" y="0" width="80" height="24"></rect>
            <text id="Run-Task-for-HCP-Pac" font-family="Arial-BoldMT, Arial" font-size="9" font-weight="bold" letter-spacing="-0.018" fill="#404247">
                <tspan x="12.9388105" y="10">Run Task for </tspan>
                <tspan x="14.6566504" y="20">HCP Packer</tspan>
            </text>
        </g>
        <g id="Label" transform="translate(176.000000, 372.000000)">
            <rect id="Rectangle" fill="#FFFFFF" x="0" y="0" width="80" height="24"></rect>
            <text id="terraform-apply" font-family="Arial-BoldMT, Arial" font-size="9" font-weight="bold" letter-spacing="-0.018" fill="#404247">
                <tspan x="7.12547852" y="10">terraform apply</tspan>
            </text>
        </g>
        <g id="Label" transform="translate(292.000000, 292.000000)">
            <rect id="Rectangle" fill="#FFFFFF" x="0" y="0" width="38" height="24"></rect>
            <text id="Deploy" font-family="Arial-BoldMT, Arial" font-size="9" font-weight="bold" letter-spacing="-0.018" fill="#7B42BC">
                <tspan x="4.05107031" y="14">Deploy</tspan>
            </text>
        </g>
        <rect id="Rectangle" stroke="#979797" fill="#343536" x="481.5" y="364.5" width="79" height="37" rx="3"></rect>
        <text id="image-details" font-family="Arial-BoldMT, Arial" font-size="9" font-weight="bold" line-spacing="9" letter-spacing="-0.018" fill="#FFFFFF">
            <tspan x="506.232244" y="384">image</tspan>
            <tspan x="505" y="393">details</tspan>
        </text>
        <line x1="655.5" y1="256.7" x2="655.5" y2="271.7" id="Path-3" stroke="#666666"></line>
        <g id="Group-4" transform="translate(96.880118, 49.259349)">
            <circle id="Oval" stroke="#00ACFF" stroke-width="2" fill-opacity="0.75" fill="#00ACFF" cx="15.1198823" cy="15" r="14"></circle>
            <text id="1" transform="translate(15.119882, 14.000000) rotate(1.000000) translate(-15.119882, -14.000000) " font-family="Gilmer-Heavy, Gilmer" font-size="14" font-weight="700" letter-spacing="-0.028" fill="#FFFFFF">
                <tspan x="12.0118823" y="21">1</tspan>
            </text>
        </g>
        <g id="Group-4" transform="translate(96.862665, 354.259349)">
            <circle id="Oval" stroke="#00ACFF" stroke-width="2" fill-opacity="0.75" fill="#00ACFF" cx="15.1373347" cy="15" r="14"></circle>
            <text id="2" transform="translate(15.137335, 15.000000) rotate(1.000000) translate(-15.137335, -15.000000) " font-family="Gilmer-Heavy, Gilmer" font-size="14" font-weight="700" letter-spacing="-0.028" fill="#FFFFFF">
                <tspan x="11.0003347" y="21">2</tspan>
            </text>
        </g>
        <g id="Group-4" transform="translate(256.880118, 257.259349)">
            <circle id="Oval" stroke="#00ACFF" stroke-width="2" fill-opacity="0.75" fill="#00ACFF" cx="15.1198823" cy="15" r="14"></circle>
            <text id="3" transform="translate(15.119882, 14.000000) rotate(1.000000) translate(-15.119882, -14.000000) " font-family="Gilmer-Heavy, Gilmer" font-size="14" font-weight="700" letter-spacing="-0.028" fill="#FFFFFF">
                <tspan x="10.8708823" y="21">3</tspan>
            </text>
        </g>
        <path id="Path-18" d="M64,300.5 C66.4852814,300.5 68.5,302.514719 68.5,305 C68.5,307.485281 66.4852814,309.5 64,309.5 C61.6839659,309.5 59.7765864,307.750342 59.5275426,305.500707 L56,305.5 L56,304.5 L59.5274316,304.500297 C59.7760186,302.250179 61.6836212,300.5 64,300.5 Z M52,304.5 L52,305.5 L48,305.5 L48,304.5 L52,304.5 Z M44,304.5 L44,305.5 L40,305.5 L40,304.5 L44,304.5 Z M32.5,304 L32.5,304.5 L36,304.5 L36,305.5 L31.5,305.5 L31.5,304 L32.5,304 Z M32.5,297 L32.5,301 L31.5,301 L31.5,297 L32.5,297 Z M32.5,289 L32.5,293 L31.5,293 L31.5,289 L32.5,289 Z M32.5,281 L32.5,285 L31.5,285 L31.5,281 L32.5,281 Z M32.5,273 L32.5,277 L31.5,277 L31.5,273 L32.5,273 Z M32.5,265 L32.5,269 L31.5,269 L31.5,265 L32.5,265 Z M32.5,257 L32.5,261 L31.5,261 L31.5,257 L32.5,257 Z M32.5,249 L32.5,253 L31.5,253 L31.5,249 L32.5,249 Z M32.5,241 L32.5,245 L31.5,245 L31.5,241 L32.5,241 Z M32.5,233 L32.5,237 L31.5,237 L31.5,233 L32.5,233 Z M32.5,225 L32.5,229 L31.5,229 L31.5,225 L32.5,225 Z M32.5,217 L32.5,221 L31.5,221 L31.5,217 L32.5,217 Z M32.5,209 L32.5,213 L31.5,213 L31.5,209 L32.5,209 Z M55.5,203.5 L64.5,208 L55.5,212.5 L55.5,203.5 Z M39,207.5 L39,208.5 L35,208.5 L35,207.5 L39,207.5 Z M47,207.5 L47,208.5 L43,208.5 L43,207.5 L47,207.5 Z M55,207.5 L55,208.5 L51,208.5 L51,207.5 L55,207.5 Z" fill="#979797" fill-rule="nonzero"></path>
        <text id="triggers" transform="translate(22.400000, 257.600000) rotate(-90.000000) translate(-22.400000, -257.600000) " font-family="Arial-BoldMT, Arial" font-size="9" font-weight="bold" letter-spacing="-0.018" fill="#1D1F25">
            <tspan x="5.71784961" y="256">triggers</tspan>
        </text>
    </g>
</svg>