<?xml version="1.0" encoding="UTF-8"?>
<svg width="800px" height="416px" viewBox="0 0 800 416" version="1.1" xmlns="http://www.w3.org/2000/svg" xmlns:xlink="http://www.w3.org/1999/xlink">
    <title>aws_cli_deploy</title>
    <defs>
        <linearGradient x1="50%" y1="7.61809716%" x2="50%" y2="100%" id="linearGradient-1">
            <stop stop-color="#FFFFFF" offset="0%"></stop>
            <stop stop-color="#E5E7EB" offset="100%"></stop>
        </linearGradient>
    </defs>
    <g id="aws_cli_deploy" stroke="none" stroke-width="1" fill="none" fill-rule="evenodd">
        <rect id="Rectangle" stroke="#E5E7EB" fill="url(#linearGradient-1)" x="128.5" y="32.9" width="319" height="367" rx="2"></rect>
        <g id="AWS-Env" transform="translate(512.000000, 16.000000)">
            <rect id="Rectangle" stroke="#DBDBDC" x="0.5" y="16.9" width="159" height="207" rx="2"></rect>
            <g id="AWS" transform="translate(16.200000, 0.000000)">
                <rect id="Rectangle" fill="#FFFFFF" x="-0.2" y="0.4" width="38" height="38"></rect>
                <g id="Group_3" transform="translate(4.800000, 10.400000)">
                    <path d="M7.89154968,6.17464286 C7.89154968,6.52435714 7.92864341,6.80728571 7.99325829,7.01614286 C8.06864231,7.22378571 8.16197491,7.45085714 8.29240123,7.69614286 C8.33787096,7.77142857 8.35701611,7.84792857 8.35701611,7.9135 C8.35701611,8.00821429 8.30077724,8.10292857 8.17992349,8.19764286 L7.59360331,8.59471429 C7.50984328,8.65178571 7.42608326,8.67971429 7.35069923,8.67971429 C7.25856321,8.67971429 7.16523061,8.63235714 7.07189801,8.54735714 C6.94147168,8.40528571 6.83019051,8.25471429 6.73685791,8.10292857 C6.64352531,7.94264286 6.55019271,7.76292857 6.4484841,7.54557143 C5.72216503,8.415 4.80918075,8.84971429 3.70953127,8.84971429 C2.92816989,8.84971429 2.30355942,8.62264286 1.84766557,8.1685 C1.39177172,7.71557143 1.15844022,7.10964286 1.15844022,6.35314286 C1.15844022,5.5505 1.43843801,4.89721429 2.00561304,4.40542857 C2.57398464,3.91485714 3.32782487,3.66835714 4.28747545,3.66835714 C4.60456697,3.66835714 4.9300345,3.69628571 5.27464718,3.74364286 C5.61925985,3.791 5.9734451,3.8675 6.34557893,3.9525 L6.34557893,3.26157143 C6.34557893,2.54392857 6.19600746,2.04242857 5.90763365,1.74857143 C5.60968728,1.45592857 5.10712713,1.31385714 4.39038062,1.31385714 C4.06371652,1.31385714 3.72867642,1.3515 3.38406375,1.43771429 C3.03945107,1.52271429 2.70441097,1.62592857 2.37894344,1.75828571 C2.22937197,1.82507143 2.11809079,1.86271429 2.05227934,1.88092857 C1.98766447,1.90035714 1.94099817,1.91007143 1.90390444,1.91007143 C1.77347812,1.91007143 1.70766667,1.81535714 1.70766667,1.61621429 L1.70766667,1.15357143 C1.70766667,1.00178571 1.72681182,0.888857143 1.77347812,0.822071429 C1.82014442,0.7565 1.90390444,0.689714286 2.03433077,0.624142857 C2.35979829,0.454142857 2.75107727,0.312071429 3.20697112,0.199142857 C3.66406155,0.0752857143 4.14747655,0.0194285714 4.65960928,0.0194285714 C5.76763476,0.0194285714 6.57891043,0.274428571 7.09941916,0.784428571 C7.61155189,1.29564286 7.87240454,2.07035714 7.87240454,3.111 L7.87240454,6.17464286 L7.89154968,6.17464286 Z M4.11038282,7.61114286 C4.41790177,7.61114286 4.7349933,7.55407143 5.0700334,7.44114286 C5.4050735,7.327 5.70301988,7.11935714 5.95429995,6.83642857 C6.10387143,6.65671429 6.2151526,6.45757143 6.27139148,6.2305 C6.32643378,6.00342857 6.36472408,5.73021429 6.36472408,5.40842857 L6.36472408,5.01135714 C6.09429885,4.94457143 5.80592505,4.88871429 5.50797868,4.84985714 C5.20883573,4.81221429 4.92046193,4.794 4.63208813,4.794 C4.00867422,4.794 3.5515838,4.91664286 3.24406485,5.17164286 C2.93774247,5.42664286 2.788171,5.78607143 2.788171,6.25964286 C2.788171,6.70407143 2.89945217,7.03435714 3.13278367,7.26142857 C3.3565426,7.49821429 3.68201012,7.61114286 4.11038282,7.61114286 Z M11.5889565,8.63235714 C11.4202399,8.63235714 11.3089587,8.60442857 11.2347713,8.53764286 C11.1605838,8.48057143 11.0947724,8.34821429 11.0385335,8.1685 L8.85000369,0.860928571 C8.79496139,0.6715 8.76624366,0.548857143 8.76624366,0.482071429 C8.76624366,0.3315 8.84162769,0.245285714 8.99000259,0.245285714 L9.90298687,0.245285714 C10.0800795,0.245285714 10.2009332,0.274428571 10.2655481,0.34 C10.3409321,0.397071429 10.3959744,0.529428571 10.4522133,0.709142857 L12.0173292,6.96878571 L13.4699674,0.709142857 C13.5166337,0.519714286 13.571676,0.397071429 13.64706,0.34 C13.7212475,0.284142857 13.8516738,0.245285714 14.0191938,0.245285714 L14.7634615,0.245285714 C14.9405541,0.245285714 15.0614079,0.274428571 15.1367919,0.34 C15.2109793,0.397071429 15.2755942,0.529428571 15.3138845,0.709142857 L16.7844712,7.04407143 L18.3962534,0.709142857 C18.4512957,0.519714286 18.5171072,0.397071429 18.5817221,0.34 C18.6571061,0.284142857 18.7779598,0.245285714 18.9454799,0.245285714 L19.8117979,0.245285714 C19.9601728,0.245285714 20.0439328,0.321785714 20.0439328,0.482071429 C20.0439328,0.529428571 20.0343602,0.576785714 20.0259842,0.633857143 C20.0164116,0.689714286 19.9972665,0.766214286 19.9601728,0.869428571 L17.7166007,8.17821429 C17.6603618,8.36764286 17.5945503,8.49028571 17.5203629,8.54735714 C17.4461754,8.60442857 17.3253217,8.64207143 17.1661776,8.64207143 L16.3656711,8.64207143 C16.1885785,8.64207143 16.0677247,8.61292857 15.9935373,8.54735714 C15.9181533,8.48057143 15.8535384,8.35792857 15.8164447,8.1685 L14.3733791,2.07035714 L12.9386895,8.16 C12.8920232,8.34821429 12.8357843,8.47207143 12.7615969,8.53764286 C12.6874094,8.60442857 12.5569831,8.63235714 12.389463,8.63235714 L11.5889565,8.63235714 Z M23.5546744,8.88735714 C23.0712594,8.88735714 22.5866479,8.8315 22.1211814,8.71735714 C21.655715,8.60442857 21.2919572,8.48057143 21.0502497,8.33971429 C20.9006782,8.25471429 20.7989696,8.16 20.7606793,8.075 C20.7235856,7.99 20.705637,7.89528571 20.705637,7.81028571 L20.705637,7.327 C20.705637,7.12907143 20.7798244,7.03435714 20.9198233,7.03435714 C20.9748656,7.03435714 21.0311045,7.04407143 21.0873434,7.06228571 C21.1435823,7.08171429 21.2273423,7.11935714 21.3194783,7.157 C21.6365698,7.29907143 21.9811825,7.41321429 22.3437438,7.4885 C22.7170742,7.56378571 23.0796354,7.60142857 23.4529658,7.60142857 C24.039286,7.60142857 24.4951799,7.49821429 24.8122714,7.28935714 C25.1281663,7.08171429 25.296883,6.77935714 25.296883,6.392 C25.296883,6.12728571 25.2131229,5.90992857 25.0444063,5.73021429 C24.8768863,5.5505 24.5609913,5.389 24.1039009,5.23842857 L22.7541679,4.81221429 C22.0745151,4.59485714 21.571955,4.27307143 21.264436,3.84807143 C20.9569171,3.43157143 20.7989696,2.96892857 20.7989696,2.47714286 C20.7989696,2.08007143 20.8827296,1.73035714 21.0502497,1.428 C21.2177697,1.12564286 21.4415286,0.860928571 21.7203299,0.652071429 C22.0003277,0.434714286 22.3162226,0.274428571 22.6883565,0.160285714 C23.0616869,0.0473571429 23.4529658,0 23.8621934,0 C24.0668072,0 24.2809935,0.00971428571 24.4856073,0.0376428571 C24.6997936,0.0667857143 24.8960314,0.104428571 25.0910726,0.142071429 C25.2777378,0.189428571 25.4548304,0.236785714 25.6223505,0.292642857 C25.7898705,0.349714286 25.9202969,0.406785714 26.0136295,0.463857143 C26.1440558,0.539142857 26.2373884,0.614428571 26.2924307,0.699428571 C26.3486696,0.774714286 26.3761907,0.879142857 26.3761907,1.0115 L26.3761907,1.45592857 C26.3761907,1.65507143 26.3020033,1.75828571 26.1620044,1.75828571 C26.0878169,1.75828571 25.9669632,1.72064286 25.8090157,1.64535714 C25.2777378,1.39885714 24.6818451,1.27621429 24.0201409,1.27621429 C23.4900596,1.27621429 23.0712594,1.36121429 22.7816891,1.54092857 C22.4933153,1.72064286 22.3437438,1.99507143 22.3437438,2.38242857 C22.3437438,2.64714286 22.4370764,2.87421429 22.6237416,3.05392857 C22.8104068,3.23364286 23.1550195,3.41335714 23.648007,3.57364286 L24.9702189,3.99985714 C25.6414956,4.21721429 26.1249106,4.51957143 26.4132844,4.90692857 C26.7028548,5.29428571 26.8416571,5.73871429 26.8416571,6.2305 C26.8416571,6.63728571 26.7578971,7.00642857 26.5999496,7.327 C26.4324296,7.64878571 26.2086707,7.93292857 25.9202969,8.16 C25.6319231,8.39557143 25.2873104,8.56678571 24.8864588,8.68942857 C24.4676587,8.82178571 24.0297134,8.88735714 23.5546744,8.88735714 Z" id="Vector_10" fill="#252F3E" fill-rule="nonzero"></path>
                    <g id="Group_4" transform="translate(0.000000, 10.598015)" fill="#FF9900">
                        <path d="M25.3148315,2.88419912 C22.2504112,5.18284198 17.7991641,6.40198484 13.971331,6.40198484 C8.60829619,6.40198484 3.77414615,4.38748484 0.124602188,1.04091341 C-0.164968185,0.776199121 0.0958844654,0.416770549 0.440497141,0.624413407 C4.38918405,2.95098484 9.25923124,4.35955626 14.2979951,4.35955626 C17.6962589,4.35955626 21.4307595,3.64069912 24.8673137,2.16655626 C25.3794464,1.92977055 25.8173917,2.50655626 25.3148315,2.88419912 Z" id="Vector_11"></path>
                        <path d="M26.5903771,1.41005626 C26.1990981,0.898841978 24.0009957,1.16355626 23.005448,1.28741341 C22.7075016,1.32505626 22.6608353,1.06034198 22.930064,0.861199121 C24.6806485,-0.387086593 27.5584036,-0.027658022 27.8934437,0.388841978 C28.2296804,0.813841978 27.8013077,3.73541341 26.1620044,5.13548484 C25.9107243,5.35284198 25.6678202,5.23869912 25.780298,4.95577055 C26.1524318,4.01955626 26.981656,1.91034198 26.5903771,1.41005626 Z" id="Vector_12"></path>
                    </g>
                </g>
            </g>
        </g>
        <g id="Instruqt-Logo" transform="translate(143.600000, 16.000000)">
            <rect id="Rectangle" fill="#FFFFFF" x="0.4" y="0.4" width="38" height="38"></rect>
            <g id="Group" transform="translate(9.400000, 1.400000)">
                <path d="M16.7167655,11.9504321 C16.7167655,10.0961631 15.2095682,8.59247346 13.3509738,8.59247346 L6.62785775,8.59247346 C4.76926334,8.59247346 3.26206605,10.0961631 3.26206605,11.9504321 C3.26206605,13.804701 4.76926334,15.3083907 6.62785775,15.3083907 L13.3488569,15.3083907 C15.2095682,15.3083907 16.7167655,13.804701 16.7167655,11.9504321 Z M8.14563929,12.5797853 C8.02074513,12.8775665 7.81541067,13.1352212 7.5465707,13.3105109 C7.27773074,13.4858006 6.95808637,13.5892848 6.638442,13.5892848 C6.20448772,13.5892848 5.79170195,13.4139952 5.48264183,13.1162139 C5.17358171,12.8078731 5.0084674,12.396048 5.0084674,11.9631036 C5.0084674,11.6442031 5.10160881,11.3253027 5.28789162,11.0570884 C5.46359018,10.7888741 5.72184589,10.5840175 6.02032176,10.459414 C6.31879763,10.3348105 6.6511431,10.3052435 6.97078747,10.3664893 C7.29043184,10.4277351 7.5804403,10.5819055 7.80694327,10.8099933 C8.03344623,11.0359691 8.18797629,11.3253027 8.2514818,11.6442031 C8.3022862,11.9504321 8.27053345,12.2798922 8.14563929,12.5797853 Z M12.1930567,13.1056543 C11.8839966,12.7973134 11.7188823,12.3854883 11.7188823,11.952544 C11.7188823,11.6336435 11.8120237,11.314743 11.9983065,11.0465287 C12.1740051,10.7783144 12.4322608,10.5734578 12.7307367,10.4488543 C13.0292125,10.3242509 13.361558,10.2946839 13.6812024,10.3559297 C14.0008467,10.4171755 14.2908552,10.5713459 14.5173582,10.7994337 C14.7438611,11.0254095 14.8983912,11.314743 14.9618967,11.6336435 C15.0254022,11.952544 14.9936494,12.2820041 14.8687553,12.5818972 C14.7438611,12.8817904 14.5385267,13.1373332 14.2696867,13.3126228 C14.0008467,13.4879125 13.6812024,13.5913967 13.361558,13.5913967 C12.9276037,13.5892848 12.5042337,13.4139952 12.1930567,13.1056543 Z" id="Shape"></path>
                <path d="M11.6469094,3.59777402 C11.6257409,3.61889326 11.6045724,3.64846019 11.5855207,3.66957943 C11.3780694,3.86598833 11.130398,4.02015875 10.8636749,4.13209071 C10.5842506,4.24613458 10.296359,4.29682075 9.9957663,4.29682075 C9.69729043,4.29682075 9.39669771,4.24613458 9.1172735,4.13209071 C8.82726503,4.01804683 8.56900931,3.83430947 8.3530906,3.61678133 L8.3530906,5.32743949 L11.6469094,5.32743949 L11.6469094,3.59777402 Z" id="Path" fill="#A07DB8" fill-rule="nonzero"></path>
                <path d="M9.10668925,4.13209071 C9.38611346,4.24613458 9.68458933,4.29682075 9.98518205,4.29682075 C10.2836579,4.29682075 10.5736664,4.24613458 10.8530906,4.13209071 C11.1219306,4.01804683 11.3590178,3.8638764 11.5749365,3.66957943 C11.596105,3.64846019 11.6172735,3.61889326 11.6363251,3.59777402 C11.8120237,3.41192474 11.9453853,3.20706815 12.0491109,2.97898039 C12.1740051,2.71076609 12.2353937,2.43199217 12.2353937,2.14477055 C12.2353937,1.85543701 12.1740051,1.57877501 12.0491109,1.32112033 C11.934801,1.06346564 11.7696867,0.826930192 11.5749365,0.630521292 C11.3674852,0.434112393 11.130398,0.279941966 10.861558,0.176457707 C10.592718,0.0518542117 10.2942422,-0.00939157418 9.99364945,0.00116804407 C9.39458086,0.0117276623 8.82726503,0.237703493 8.403895,0.638968987 C8.19644369,0.835377886 8.04191363,1.07191334 7.92972058,1.32956802 C7.81541067,1.58722271 7.75402202,1.87655625 7.76460627,2.15321824 C7.76460627,2.44255178 7.81541067,2.7297734 7.92972058,2.98742809 C8.03344623,3.22396354 8.17739204,3.43093205 8.3530906,3.61678133 C8.56054191,3.83430947 8.81668078,4.00959913 9.10668925,4.13209071 Z" id="Path" fill="#18184A" fill-rule="nonzero"></path>
                <path d="M7.79635902,10.7973217 C7.56985605,10.5713459 7.27984759,10.4171755 6.96020322,10.3538178 C6.64055885,10.2904601 6.31033023,10.3221389 6.00973751,10.4467424 C5.70914479,10.5713459 5.45300593,10.7762025 5.27730737,11.0444168 C5.10160881,11.3126311 4.99788315,11.6315316 4.99788315,11.9504321 C4.99788315,12.3833764 5.17358171,12.7952015 5.47205758,13.1035424 C5.7811177,13.4118832 6.19390347,13.5766133 6.62785775,13.5766133 C6.94750212,13.5766133 7.26714649,13.4836886 7.53598645,13.2978394 C7.80482642,13.1225497 8.01016088,12.864895 8.13505504,12.5671138 C8.2599492,12.2693325 8.2895851,11.9377605 8.22819644,11.61886 C8.17739204,11.3126311 8.02286198,11.0232976 7.79635902,10.7973217 Z" id="Path" fill="#18184A" fill-rule="nonzero"></path>
                <path d="M14.8687553,12.5797853 C14.9936494,12.2820041 15.0232854,11.9504321 14.9618967,11.6315316 C14.900508,11.3126311 14.745978,11.0232976 14.5173582,10.7973217 C14.2908552,10.5713459 14.0008467,10.4171755 13.6812024,10.3538178 C13.361558,10.2904601 13.0313294,10.3221389 12.7307367,10.4467424 C12.4322608,10.5713459 12.1740051,10.7762025 11.9983065,11.0444168 C11.822608,11.3126311 11.7188823,11.6315316 11.7188823,11.9504321 C11.7188823,12.3833764 11.8945809,12.7952015 12.1930567,13.1035424 C12.5021169,13.4118832 12.9149026,13.5766133 13.3488569,13.5766133 C13.6685013,13.5766133 13.9881456,13.4836886 14.2569856,13.2978394 C14.5385267,13.1352212 14.7438611,12.8775665 14.8687553,12.5797853 Z" id="Path" fill="#18184A" fill-rule="nonzero"></path>
                <polygon id="Path" fill="#EF539E" fill-rule="nonzero" points="4.28450466 19.9229438 0.867908552 19.9229438 0.867908552 23.1689705 4.28450466 23.1689705 4.28450466 19.9335035"></polygon>
                <g transform="translate(0.000000, 5.327439)">
                    <path d="M16.7167655,6.62299257 C16.7167655,4.7687236 15.2095682,3.26503396 13.3509738,3.26503396 L6.62785775,3.26503396 C4.76926334,3.26503396 3.26206605,4.7687236 3.26206605,6.62299257 C3.26206605,8.47726154 4.76926334,9.98095118 6.62785775,9.98095118 L13.3488569,9.98095118 C15.2095682,9.98095118 16.7167655,8.47726154 16.7167655,6.62299257 Z" id="Path"></path>
                    <path d="M20,6.62299257 C20,2.96725273 17.0258256,0 13.361558,0 L11.6469094,0 L8.3530906,0 L6.638442,0 C2.97417443,0 0,2.96725273 0,6.62299257 C0,10.2787324 2.97417443,13.2459851 6.62785775,13.2459851 L6.6596105,13.2459851 C6.53471634,13.4825206 6.36960203,13.7000487 6.16426757,13.8837861 C5.66892464,14.3378497 4.9872989,14.5955044 4.28450466,14.603952 L4.28450466,17.8478668 C5.7811177,17.8478668 7.22692633,17.343117 8.3530906,16.4476614 L8.3530906,18.2406846 L11.6257409,18.2406846 L11.6257409,16.4371018 C12.7519052,17.3325574 14.195597,17.8373072 15.6943268,17.8373072 L15.6943268,14.5955044 C14.9915326,14.5955044 14.3099069,14.3378497 13.8145639,13.8753384 C13.6071126,13.6894891 13.4419983,13.4740729 13.319221,13.2375374 L13.3509738,13.2375374 C17.0152413,13.2480971 20,10.2808443 20,6.62299257 Z M6.62785775,9.98095118 C4.76926334,9.98095118 3.26206605,8.47726154 3.26206605,6.62299257 C3.26206605,4.7687236 4.76926334,3.26503396 6.62785775,3.26503396 L13.3488569,3.26503396 C15.2074513,3.26503396 16.7146486,4.7687236 16.7146486,6.62299257 C16.7146486,8.47726154 15.2074513,9.98095118 13.3488569,9.98095118 L6.62785775,9.98095118 L6.62785775,9.98095118 Z" id="Shape" fill="#18184A" fill-rule="nonzero"></path>
                </g>
                <polygon id="Path" fill="#58C9E9" fill-rule="nonzero" points="15.7049111 19.9335035 15.7049111 23.1689705 19.1215072 23.1689705 19.1215072 19.9229438 15.7049111 19.9229438"></polygon>
                <polygon id="Path" fill="#F78F2E" fill-rule="nonzero" points="8.3530906 25.1161641 8.3530906 27 11.6363251 27 11.6363251 25.1161641 11.6363251 23.5596764 8.3530906 23.5596764"></polygon>
            </g>
            <g id="Group" transform="translate(6.400000, 30.400000)" fill-rule="nonzero">
                <rect id="Rectangle" fill="#F78F2E" x="21.6982865" y="5.95629262" width="1" height="1.04370738"></rect>
                <path d="M17.279331,5.21419715 L17.279331,5.33137012 L18.2599,5.33137012 L18.2599,3.66057037 C18.2599,4.1184129 18.0765762,4.55455673 17.7568254,4.87786733 C17.6161351,5.01890887 17.4562597,5.1317421 17.279331,5.21419715 Z" id="Path" fill="#A07DB8"></path>
                <polygon id="Path" fill="#EF539E" points="6.96843486 4.34407936 5.95162745 4.34407936 5.95162745 5.32920025 6.96843486 5.32920025"></polygon>
                <rect id="Rectangle" fill="#58C9E9" x="25.0300894" y="4.45040298" width="1" height="1"></rect>
                <path d="M2.93104862,1.58183509 L2.93104862,1.46466212 L1.95047963,1.46466212 L1.95047963,3.13546187 C1.95047963,2.67761934 2.13380339,2.24147551 2.45355415,1.91816491 C2.59211281,1.77929324 2.75625154,1.66429014 2.93104862,1.58183509 Z" id="Path" fill="#A07DB8"></path>
                <path d="M21.6982865,1.69249845 C21.4062474,1.51890887 21.0694433,1.41475511 20.7070591,1.41475511 C19.6348282,1.41475511 18.7608428,2.30440174 18.7608428,3.39584625 C18.7608428,4.48729076 19.6348282,5.37693738 20.7070591,5.37693738 C21.0694433,5.37693738 21.4062474,5.27712337 21.6982865,5.09919405 L21.6982865,5.94978301 L21.6982865,5.94978301 L22.6724604,5.94978301 L22.6724604,1.46249225 L21.6982865,1.46249225 L21.6982865,1.69249845 Z M20.7070591,4.40266584 C20.1634828,4.40266584 19.7222268,3.95133292 19.7222268,3.40018599 C19.7222268,2.84686919 20.1656145,2.39770614 20.7070591,2.39770614 C21.2485037,2.39770614 21.6918914,2.84903906 21.6918914,3.40018599 C21.6918914,3.95133292 21.2506354,4.40266584 20.7070591,4.40266584 Z" id="Shape" fill="#18184A"></path>
                <path d="M21.0523899,3.04866708 C20.9841764,2.97923125 20.8967779,2.93149411 20.8029843,2.91196528 C20.7070591,2.89243645 20.6090022,2.9032858 20.5216037,2.94017359 C20.4320735,2.97923125 20.3553333,3.0399876 20.3041732,3.12244265 C20.2487497,3.20272784 20.2231696,3.30037198 20.2231696,3.39584625 C20.2231696,3.52603844 20.2743298,3.65406076 20.36386,3.74736516 C20.4555218,3.84066956 20.5791588,3.89057657 20.7091908,3.89057657 C20.805116,3.89057657 20.8989096,3.86236826 20.9777814,3.80812151 C21.0566533,3.7517049 21.1184718,3.67575945 21.1568418,3.58679479 C21.1952119,3.49566026 21.2037386,3.39584625 21.1845536,3.30037198 C21.1675002,3.20489771 21.1206034,3.11593304 21.0523899,3.04866708 Z" id="Path" fill="#18184A"></path>
                <path d="M10.948266,0.0585864848 L9.95490694,0.0585864848 L9.95490694,1.46683199 L9.95490694,2.45846249 L9.95490694,3.71481711 C9.95490694,4.17265964 10.1403624,4.6066336 10.4665082,4.93211407 C10.7926539,5.2532548 11.2360416,5.43552387 11.7007461,5.43552387 L11.7007461,4.44823311 C11.5025006,4.44823311 11.3106502,4.37011779 11.1720915,4.23124613 C11.0314012,4.09237446 10.9525293,3.90359578 10.9525293,3.71047737 L10.9525293,2.45846249 L12.1121587,2.45846249 L12.1121587,1.46683199 L10.9525293,1.46683199 L10.9525293,0.0585864848 L10.948266,0.0585864848 L10.948266,0.0585864848 Z" id="Path" fill="#18184A"></path>
                <path d="M13.5936706,1.46466212 L12.6194966,1.46466212 L12.6194966,3.16367018 L12.6194966,5.32703038 L13.5851439,5.32703038 L13.5936706,5.32703038 L13.5936706,3.05300682 C13.617119,2.90111593 13.6853325,2.75573466 13.7983111,2.6450713 C13.9347381,2.5083695 14.1201935,2.43242405 14.3120439,2.43242405 L14.3120439,1.46466212 C14.0626384,1.46466212 13.8174961,1.52107874 13.5936706,1.62523249 L13.5936706,1.46466212 L13.5936706,1.46466212 Z" id="Path" fill="#18184A"></path>
                <path d="M17.279331,3.66057037 L17.279331,3.66057037 C17.279331,3.85802852 17.2004591,4.04680719 17.0640321,4.18350899 C16.9254735,4.32238066 16.7378864,4.40049597 16.5417726,4.40049597 C16.3456588,4.40049597 16.1580717,4.32238066 16.019513,4.18350899 C15.8809543,4.04463732 15.8042142,3.85585865 15.8042142,3.66057037 L15.8042142,1.46683199 L14.8236452,1.46683199 L14.8236452,3.66057037 C14.8236452,4.1184129 15.0069689,4.55455673 15.3267197,4.87786733 C15.6486021,5.20117793 16.0855948,5.38127712 16.5417726,5.38127712 C16.7997048,5.38127712 17.0512421,5.32269064 17.279331,5.21419715 C17.4541281,5.1317421 17.6161351,5.016739 17.7546938,4.87569746 C18.0765762,4.55238686 18.2577683,4.11407316 18.2577683,3.6584005 L18.2577683,1.46466212 L17.2771993,1.46466212 L17.279331,3.66057037 L17.279331,3.66057037 Z" id="Path" fill="#18184A"></path>
                <path d="M1.10420595,1.79014259 C0.957120603,1.85089895 0.799376896,1.88344699 0.639501517,1.88127712 C0.481757809,1.88127712 0.324014102,1.85089895 0.176928753,1.79014259 L0.166270394,1.79014259 L0.157743707,1.79014259 L0.157743707,5.32920025 L1.13191768,5.32920025 L1.13191768,1.77929324 L1.11486431,1.78797272 L1.10420595,1.79014259 Z" id="Path" fill="#18184A"></path>
                <path d="M1.13618103,0.195288283 C1.07649422,0.134531928 1.00188571,0.0867947923 0.923013856,0.056416615 C0.84201033,0.0195288283 0.75461179,6.16714092e-15 0.665081577,6.16714092e-15 C0.488152824,0.00216986981 0.319750758,0.0716057037 0.191850455,0.193118413 C0.132163647,0.253874768 0.0831351972,0.323310601 0.0511601213,0.401425914 C0.0191850455,0.481711097 0,0.56416615 0,0.650960942 C0,0.739925604 0.0170533738,0.824550527 0.0511601213,0.90483571 C0.119373616,1.06323621 0.245142248,1.18691878 0.405017627,1.25418475 C0.486021153,1.2867328 0.575551365,1.30409175 0.667213249,1.30409175 C0.758875133,1.30409175 0.844142002,1.2867328 0.925145528,1.25418475 C1.00401738,1.2216367 1.07862589,1.17389957 1.14044437,1.11531308 C1.20013118,1.05455673 1.24915963,0.985120893 1.28113471,0.90700558 C1.31737312,0.826720397 1.33655817,0.739925604 1.33655817,0.653130812 C1.33655817,0.56633602 1.31737312,0.481711097 1.28113471,0.403595784 C1.24915963,0.329820211 1.20013118,0.258214507 1.13618103,0.195288283 Z" id="Path" fill="#18184A"></path>
                <path d="M9.08092154,3.27216367 C8.96581127,3.17017979 8.83577929,3.08989461 8.69082561,3.03564786 C8.53734525,2.97706138 8.37746987,2.9466832 8.21546282,2.94885307 L7.19012872,2.94885307 C7.15815364,2.94885307 7.1240469,2.94234346 7.09420349,2.92932424 C7.06436009,2.91847489 7.03664836,2.89894606 7.01533164,2.87724737 C6.99188325,2.8533788 6.97482988,2.82517049 6.95990817,2.79479231 C6.94711814,2.76441414 6.94072313,2.73186609 6.94072313,2.69714817 C6.94072313,2.63422195 6.96843486,2.56912585 7.01319997,2.52355859 C7.06009675,2.47582145 7.12191523,2.45195288 7.18799705,2.45195288 L9.18537345,2.45195288 L9.18537345,1.46466212 L7.18799705,1.46466212 C6.86185127,1.46466212 6.54849553,1.59485431 6.31401164,1.82269064 C6.20316471,1.93552387 6.11150283,2.06571606 6.04968435,2.2132672 C5.92391572,2.52138872 5.92391572,2.86639802 6.04968435,3.17451953 C6.11150283,3.32207068 6.20316471,3.45443273 6.31401164,3.56726596 C6.42485857,3.68009919 6.55915389,3.76906386 6.70410757,3.82982021 C6.85758793,3.89708617 7.01959498,3.92746435 7.18373371,3.92746435 L8.2090678,3.92746435 C8.26875461,3.92529448 8.32844142,3.93614383 8.38386488,3.9600124 C8.40731327,3.97303162 8.42649832,3.99256045 8.44142002,4.01859888 C8.45421005,4.04246745 8.46060507,4.07067576 8.45421005,4.09888407 C8.45421005,4.12926224 8.44568336,4.16181029 8.43289333,4.1900186 C8.4201033,4.21822691 8.40091826,4.24643521 8.37746987,4.26813391 C8.35615315,4.29200248 8.32844142,4.30936144 8.29859802,4.32455053 C8.26875461,4.33756975 8.23677954,4.34407936 8.20267279,4.34407936 L6.96417152,4.34407936 L6.96417152,5.32703038 L8.20267279,5.32703038 C8.36894318,5.32920025 8.53308191,5.29882207 8.6844306,5.23806572 C8.82938427,5.17513949 8.96154792,5.08617483 9.07452652,4.97551147 C9.18537345,4.86267824 9.27703534,4.72814631 9.33885382,4.5849349 C9.40493564,4.43304402 9.43691072,4.26813391 9.43691072,4.10322381 C9.43904239,3.94699318 9.40706731,3.79293242 9.3473805,3.64972102 C9.2876937,3.50867948 9.19390014,3.37631742 9.08092154,3.27216367 Z" id="Path" fill="#18184A"></path>
                <path d="M24.5014348,4.23124613 C24.3607444,4.09237446 24.2818726,3.90359578 24.2818726,3.71047737 L24.2818726,2.45846249 L25.4926621,2.45846249 L25.4926621,1.46683199 L24.2818726,1.46683199 L24.2818726,0.0585864848 L23.2885136,0.0585864848 L23.2885136,1.46683199 L23.2885136,2.45846249 L23.2885136,3.71481711 C23.2885136,4.17265964 23.473969,4.6066336 23.8001148,4.93211407 C24.1262606,5.2532548 24.5696483,5.43552387 25.0343527,5.43552387 L25.0343527,4.44823311 C24.8318439,4.44606324 24.6399934,4.37011779 24.5014348,4.23124613 Z" id="Path" fill="#18184A"></path>
                <path d="M3.66860703,1.41258524 C3.41067476,1.41258524 3.15913749,1.47117173 2.93104862,1.57966522 C2.75625154,1.66212027 2.59424449,1.77712337 2.45568582,1.91816491 C2.13380339,2.24147551 1.9526113,2.67978921 1.9526113,3.13546187 L1.9526113,5.32920025 L2.93318029,5.32920025 L2.93318029,3.13546187 C2.93318029,2.93800372 3.01205214,2.74922505 3.14847913,2.61252325 C3.2870378,2.47365158 3.47462491,2.39553627 3.67073871,2.39553627 C3.8668525,2.39553627 4.05443962,2.47365158 4.19299828,2.61252325 C4.33155694,2.75139492 4.40829712,2.94017359 4.40829712,3.13546187 L4.40829712,5.32920025 L5.38886611,5.32920025 L5.38886611,3.13546187 C5.38886611,2.67761934 5.20554235,2.24147551 4.88579159,1.91816491 C4.56177749,1.59485431 4.12478478,1.41475511 3.66860703,1.41258524 Z" id="Path" fill="#18184A"></path>
            </g>
        </g>
        <g id="Terminal" transform="translate(144.000000, 80.400000)">
            <path d="M287.5,16.5 L287.5,254 C287.5,254.414214 287.332107,254.789214 287.06066,255.06066 C286.789214,255.332107 286.414214,255.5 286,255.5 L286,255.5 L2,255.5 C1.58578644,255.5 1.21078644,255.332107 0.939339828,255.06066 C0.667893219,254.789214 0.5,254.414214 0.5,254 L0.5,254 L0.5,16.5 L287.5,16.5 Z" id="Rectangle" stroke="#666666" fill="#FFFFFF"></path>
            <path d="M4,0 L284,0 C286.209139,-4.05812251e-16 288,1.790861 288,4 L288,16 L288,16 L0,16 L0,4 C-2.705415e-16,1.790861 1.790861,4.05812251e-16 4,0 Z" id="Rectangle" fill="#666666"></path>
            <circle id="Oval" fill="#FF5D52" cx="10" cy="8" r="4"></circle>
            <circle id="Oval" fill="#FEBC2E" cx="23" cy="8" r="4"></circle>
            <circle id="Oval" fill="#28C83F" cx="36" cy="8" r="4"></circle>
            <text id="#-Obtain-the-AWS-AMI" font-family="Courier-Bold, Courier" font-size="10" font-weight="bold" letter-spacing="-0.02">
                <tspan x="16" y="52" fill="#00CA8E"># Obtain the AWS AMI ID to create </tspan>
                <tspan x="16" y="64" fill="#00CA8E"># a new EC2 instance</tspan>
                <tspan x="135.619531" y="64" fill="#1D1F25"></tspan>
                <tspan x="16" y="76" fill="#1D1F25"></tspan>
                <tspan x="16" y="88" fill="#1D1F25">&gt; ec2 describe-images</tspan>
                <tspan x="16" y="100" fill="#1D1F25"></tspan>
                <tspan x="16" y="112" fill="#00CA8E"># Declare an AWS EC2 security group</tspan>
                <tspan x="225.33418" y="112" fill="#1D1F25"></tspan>
                <tspan x="16" y="124" fill="#1D1F25"></tspan>
                <tspan x="16" y="136" fill="#1D1F25">&gt; aws ec2 create-security-group</tspan>
                <tspan x="16" y="148" fill="#1D1F25"></tspan>
                <tspan x="16" y="160" fill="#00CA8E"># Open HTTP ports for testing</tspan>
                <tspan x="189.44832" y="160" fill="#1D1F25"></tspan>
                <tspan x="16" y="172" fill="#1D1F25"></tspan>
                <tspan x="16" y="184" fill="#1D1F25">&gt; aws ec2 authorize-security-group-ingress</tspan>
                <tspan x="16" y="196" fill="#1D1F25"></tspan>
                <tspan x="16" y="208" fill="#00CA8E"># Launch a new EC2 instance</tspan>
                <tspan x="177.486367" y="208" fill="#1D1F25"></tspan>
                <tspan x="16" y="220" fill="#1D1F25"></tspan>
                <tspan x="16" y="232" fill="#1D1F25">&gt; aws ec2 run-instances</tspan>
            </text>
        </g>
        <text id="AMI" font-family="Arial-BoldMT, Arial" font-size="9" font-weight="bold" letter-spacing="-0.018" fill="#1D1F25">
            <tspan x="544.778465" y="146.4">AMI</tspan>
        </text>
        <text id="EC2-instance" font-family="Arial-BoldMT, Arial" font-size="9" font-weight="bold" letter-spacing="-0.018" fill="#1D1F25">
            <tspan x="623.273094" y="226.4">EC2 </tspan>
            <tspan x="613.81492" y="236.4">instance</tspan>
        </text>
        <g id="Amazon-Containers-AMI_Resource-Icon_light-bg" transform="translate(529.000000, 80.400000)" fill="#D45B07">
            <path d="M30.143,37.727 L38.599,37.727 L38.599,26.656 L30.143,26.656 L30.143,37.727 Z M9.229,37.727 L17.686,37.727 L17.686,26.656 L9.229,26.656 L9.229,37.727 Z M19.686,37.727 L28.143,37.727 L28.143,26.656 L19.686,26.656 L19.686,37.727 Z M39.599,24.656 L8.229,24.656 C7.676,24.656 7.229,25.104 7.229,25.656 L7.229,38.727 C7.229,39.279 7.676,39.727 8.229,39.727 L39.599,39.727 C40.151,39.727 40.599,39.279 40.599,38.727 L40.599,25.656 C40.599,25.104 40.151,24.656 39.599,24.656 L39.599,24.656 Z M30.143,19.428 L38.599,19.428 L38.599,10.971 L30.143,10.971 L30.143,19.428 Z M9.229,19.428 L17.686,19.428 L17.686,10.971 L9.229,10.971 L9.229,19.428 Z M19.686,19.428 L28.143,19.428 L28.143,10.971 L19.686,10.971 L19.686,19.428 Z M39.599,8.971 L8.229,8.971 C7.676,8.971 7.229,9.419 7.229,9.971 L7.229,20.428 C7.229,20.98 7.676,21.428 8.229,21.428 L39.599,21.428 C40.151,21.428 40.599,20.98 40.599,20.428 L40.599,9.971 C40.599,9.419 40.151,8.971 39.599,8.971 L39.599,8.971 Z M43.827,39.379 C43.827,41.832 41.832,43.827 39.38,43.827 L8.448,43.827 C5.995,43.827 4,41.832 4,39.379 L4,8.448 C4,5.995 5.995,4 8.448,4 L39.38,4 C41.832,4 43.827,5.995 43.827,8.448 L43.827,39.379 Z M39.38,2 L8.448,2 C4.893,2 2,4.892 2,8.448 L2,39.379 C2,42.934 4.893,45.827 8.448,45.827 L39.38,45.827 C42.935,45.827 45.827,42.934 45.827,39.379 L45.827,8.448 C45.827,4.892 42.935,2 39.38,2 L39.38,2 Z"></path>
        </g>
        <path id="Path-5" d="M632,245.9 L636.5,254.9 L632.5,254.9 L632.5,268.296225 C632.497203,271.258252 630.155363,273.673489 627.221392,273.793676 L627.000261,273.798359 L432.000261,273.9 L431.999739,272.9 L626.999268,272.79836 C629.413008,272.794822 631.382203,270.893499 631.494909,268.507504 L631.5,268.295753 L631.5,254.9 L627.5,254.9 L632,245.9 Z" fill="#666666" fill-rule="nonzero"></path>
        <g id="Label" transform="translate(513.000000, 261.400000)">
            <rect id="Rectangle" fill="#FFFFFF" x="0" y="0" width="38" height="24"></rect>
            <text id="Deploy" font-family="Arial-BoldMT, Arial" font-size="9" font-weight="bold" letter-spacing="-0.018" fill="#666666">
                <tspan x="4.05107031" y="11">Deploy</tspan>
            </text>
        </g>
        <text id="The-complexity-and-s" font-family="Arial-BoldMT, Arial" font-size="12" font-weight="bold" line-spacing="20" letter-spacing="-0.024" fill="#404247">
            <tspan x="464" y="315.4">The complexity and scope of the </tspan>
            <tspan x="464" y="335.4">deployment can involve multiple </tspan>
            <tspan x="464" y="355.4">teams who provide their own </tspan>
            <tspan x="464" y="375.4">perspective to the properties that </tspan>
            <tspan x="464" y="395.4">make up their technology stack.</tspan>
        </text>
        <g id="Amazon-EC2-Instance_Resource-Icon_light-bg" transform="translate(607.752613, 160.400000)" fill="#D45B07">
            <path d="M9,39 L39,39 L39,9 L9,9 L9,39 Z M46,13 L46,11 L41,11 L41,8 C41,7.448 40.552,7 40,7 L37,7 L37,2 L35,2 L35,7 L31,7 L31,2 L29,2 L29,7 L25,7 L25,2 L23,2 L23,7 L19,7 L19,2 L17,2 L17,7 L13,7 L13,2 L11,2 L11,7 L8,7 C7.447,7 7,7.448 7,8 L7,11 L2,11 L2,13 L7,13 L7,17 L2,17 L2,19 L7,19 L7,23 L2,23 L2,25 L7,25 L7,29 L2,29 L2,31 L7,31 L7,35 L2,35 L2,37 L7,37 L7,40 C7,40.553 7.447,41 8,41 L11,41 L11,46 L13,46 L13,41 L17,41 L17,46 L19,46 L19,41 L23,41 L23,46 L25,46 L25,41 L29,41 L29,46 L31,46 L31,41 L35,41 L35,46 L37,46 L37,41 L40,41 C40.552,41 41,40.553 41,40 L41,37 L46,37 L46,35 L41,35 L41,31 L46,31 L46,29 L41,29 L41,25 L46,25 L46,23 L41,23 L41,19 L46,19 L46,17 L41,17 L41,13 L46,13 Z"></path>
        </g>
        <path id="Path-8" d="M583.5,187.9 L592.5,192.4 L583.5,196.9 L583.5,187.9 Z M557.5,191.9 L557.5,192.9 L553.5,192.9 L553.5,191.9 L557.5,191.9 Z M565.5,191.9 L565.5,192.9 L561.5,192.9 L561.5,191.9 L565.5,191.9 Z M573.5,191.9 L573.5,192.9 L569.5,192.9 L569.5,191.9 L573.5,191.9 Z M581.5,191.9 L581.5,192.9 L577.5,192.9 L577.5,191.9 L581.5,191.9 Z M554,184.4 L554,188.4 L553,188.4 L553,184.4 L554,184.4 Z M554,176.4 L554,180.4 L553,180.4 L553,176.4 L554,176.4 Z M554,168.4 L554,172.4 L553,172.4 L553,168.4 L554,168.4 Z M554,160.4 L554,164.4 L553,164.4 L553,160.4 L554,160.4 Z" fill="#979797" fill-rule="nonzero"></path>
    </g>
</svg>