<?xml version="1.0" encoding="UTF-8"?>
<svg width="800px" height="416px" viewBox="0 0 800 416" version="1.1" xmlns="http://www.w3.org/2000/svg" xmlns:xlink="http://www.w3.org/1999/xlink">
    <title>TFC_deploy_instance</title>
    <defs>
        <linearGradient x1="50%" y1="7.61809716%" x2="50%" y2="100%" id="linearGradient-1">
            <stop stop-color="#FFFFFF" offset="0%"></stop>
            <stop stop-color="#E5E7EB" offset="100%"></stop>
        </linearGradient>
    </defs>
    <g id="TFC_deploy_instance" stroke="none" stroke-width="1" fill="none" fill-rule="evenodd">
        <rect id="Rectangle" fill="#F4ECFF" x="560" y="224" width="192" height="176" rx="2"></rect>
        <rect id="Rectangle" stroke="#E5E7EB" fill="url(#linearGradient-1)" x="16.9" y="32.9" width="191" height="367" rx="2"></rect>
        <g id="HCP-Env" transform="translate(560.000000, 16.000000)">
            <rect id="Rectangle" fill="#D4F2FF" x="0" y="0" width="192" height="192" rx="2"></rect>
            <rect id="Rectangle" fill="#FFFFFF" x="16" y="48" width="160" height="128" rx="2"></rect>
            <rect id="Rectangle" stroke="#DBDBDC" fill="#FFFFFF" x="32.5" y="80.5" width="127" height="32" rx="2"></rect>
            <rect id="Rectangle" stroke="#DBDBDC" fill="#FFFFFF" x="32.5" y="128.5" width="127" height="31" rx="2"></rect>
            <text id="iteration" font-family="Arial-BoldMT, Arial" font-size="9" font-weight="bold" letter-spacing="-0.018" fill="#1D1F25">
                <tspan x="78.329291" y="99">iteration</tspan>
            </text>
            <text id="bucket" font-family="Arial-BoldMT, Arial" font-size="9" font-weight="bold" letter-spacing="-0.018" fill="#1D1F25">
                <tspan x="81.5498496" y="61">bucket</tspan>
            </text>
            <text id="channel" font-family="Arial-BoldMT, Arial" font-size="9" font-weight="bold" letter-spacing="-0.018" fill="#1D1F25">
                <tspan x="79.0583613" y="145">channel</tspan>
            </text>
            <g id="HCP_Packer_PrimaryLogo_Color_RGB" transform="translate(37.000000, 7.000000)">
                <polygon id="Path" fill="#02A8EF" points="0 2.68714286 7.75239458 6.80742857 7.75239458 22 0 17.8797143"></polygon>
                <path d="M11.5893003,4.46285714 L3.17749095,0 L3.17749095,3.09885714 L8.90722462,6.14114286 L8.90722462,15.444 L11.6029669,16.8677143 C13.2737122,17.754 14.6369583,17.2228571 14.6369583,15.6891429 L14.6369583,8.86285714 C14.6232917,7.31657143 13.2600456,5.34914286 11.5893003,4.46285714 Z" id="Path" fill="#02A8EF" fill-rule="nonzero"></path>
                <polygon id="Path" fill="#000000" fill-rule="nonzero" points="33.6233209 17.688 33.6233209 12.3451429 28.4983355 12.3451429 28.4983355 17.688 25.8948429 17.688 25.8948429 5.016 28.4983355 5.016 28.4983355 10.2268571 33.6233209 10.2268571 33.6233209 5.016 36.2268135 5.016 36.2268135 17.688"></polygon>
                <path d="M38.2973076,8.49514286 C38.2973076,6.17571429 39.76647,4.82740632 43.1967936,4.82740632 C44.4634039,4.82537295 45.7255381,4.96574731 46.9551162,5.24542857 L46.6476171,7.31657143 C45.5360392,7.12640489 44.4092436,7.0212834 43.2787934,7.00228571 C41.4816318,7.00228571 40.8871335,7.57428571 40.8871335,8.92257143 L40.8871335,13.7814286 C40.8871335,15.1328571 41.4679652,15.7017143 43.2787934,15.7017143 C44.4093448,15.6842851 45.5362824,15.5791503 46.6476171,15.3874286 L46.9380329,17.4617143 C45.7084549,17.7413955 44.4463206,17.8817699 43.1797103,17.8797365 C39.7630534,17.8797365 38.2802243,16.5282857 38.2802243,14.2088571 L38.2973076,8.49514286 Z" id="Path" fill="#000000" fill-rule="nonzero"></path>
                <path d="M48.7488611,5.016 L54.1232625,5.016 C57.3075867,5.016 58.4863334,6.21342857 58.4863334,8.43857143 L58.4863334,10.1702857 C58.4863334,12.3702857 57.205087,13.574 54.0002628,13.574 L51.3523537,13.574 L51.3523537,17.688 L48.7454445,17.688 L48.7488611,5.016 Z M53.9797629,7.128 L51.3523537,7.128 L51.3523537,11.462 L53.9763462,11.462 C55.4455087,11.462 55.8794424,10.9685714 55.8794424,9.922 L55.8794424,8.63028571 C55.8828408,7.58371429 55.4079255,7.128 53.9797629,7.128 Z" id="Shape" fill="#000000" fill-rule="nonzero"></path>
                <path d="M64.3766499,5.016 L69.7510513,5.016 C72.9353755,5.016 74.1141222,6.21342857 74.1141222,8.43857143 L74.1141222,10.1702857 C74.1141222,12.3702857 72.8328758,13.574 69.6280516,13.574 L66.9801425,13.574 L66.9801425,17.688 L64.3766499,17.688 L64.3766499,5.016 Z M69.6075517,7.128 L66.9801425,7.128 L66.9801425,11.462 L69.6075517,11.462 C71.0732975,11.462 71.5072311,10.9685714 71.5072311,9.922 L71.5072311,8.63028571 C71.5106296,7.58371429 71.0322976,7.128 69.6075517,7.128 Z" id="Shape" fill="#000000" fill-rule="nonzero"></path>
                <path d="M82.9803469,17.688 L80.9132695,17.688 L80.7356033,17.0594286 C79.8420603,17.5918346 78.8003976,17.8755803 77.7357785,17.8765714 C75.8976171,17.8765714 75.111786,16.7168571 75.111786,15.1202857 C75.111786,13.2345714 76.0001168,12.5148571 78.0466943,12.5148571 L80.4656874,12.5148571 L80.4656874,11.5374286 C80.4656874,10.5128571 80.1547716,10.1514286 78.5421096,10.1514286 C77.6048931,10.160618 76.6709831,10.2553683 75.7541175,10.4342857 L75.4432017,8.668 C76.5671392,8.38142563 77.7277151,8.23450248 78.8940252,8.23114286 C82.0578496,8.23114286 82.9940135,9.25571429 82.9940135,11.5751429 L82.9803469,17.688 Z M80.4588541,14.19 L78.5967761,14.19 C77.7699451,14.19 77.5444457,14.4005714 77.5444457,15.1045714 C77.5444457,15.7331429 77.7699451,16.0474286 78.5694428,16.0474286 C79.2369495,16.0380227 79.8912462,15.8748604 80.4725207,15.5728571 L80.4588541,14.19 Z" id="Shape" fill="#000000" fill-rule="nonzero"></path>
                <path d="M84.4939259,14.3157143 L84.4939259,11.8014286 C84.4939259,9.30914286 85.6726726,8.24685714 88.8330802,8.24685714 C89.6664809,8.2514872 90.4948736,8.3657884 91.2930732,8.58628571 L90.9855741,10.4594286 C90.3021924,10.3045664 89.6017561,10.2223146 88.8979967,10.2142857 C87.4527508,10.2142857 87.0188354,10.6134286 87.0188354,11.7542857 L87.0188354,14.322 C87.0188354,15.4628571 87.4527508,15.862 88.8979967,15.862 C89.6023089,15.8585345 90.3034653,15.7751426 90.9855741,15.6137143 L91.2964899,17.4994286 C90.5000648,17.7274799 89.6706165,17.8429865 88.8364969,17.842 C85.6692559,17.8702857 84.4939259,16.8048571 84.4939259,14.3157143 Z" id="Path" fill="#000000" fill-rule="nonzero"></path>
                <path d="M92.789569,17.688 L92.789569,4.63571429 L95.3110618,4.32142857 L95.3110618,17.688 L92.789569,17.688 Z M101.331211,8.42914286 L98.3758031,13.0114286 L101.450794,17.688 L98.6798855,17.688 L95.6424775,13.0114286 L98.515886,8.42914286 L101.331211,8.42914286 Z" id="Shape" fill="#000000" fill-rule="nonzero"></path>
                <path d="M106.57578,15.9688571 C107.618615,15.9638296 108.654878,15.8166101 109.650771,15.532 L110.04027,17.2794286 C108.860308,17.6714854 107.615108,17.8714277 106.36053,17.8702906 C103.200123,17.8702906 102.103376,16.5188571 102.103376,14.2968571 L102.103376,11.8422857 C102.103376,9.88428571 103.053206,8.23114286 106.278531,8.23114286 C109.503855,8.23114286 110.228186,9.95971429 110.228186,11.9554286 L110.228186,13.9322857 L104.624869,13.9322857 L104.624869,14.41 C104.611202,15.532 105.045117,15.9688571 106.57578,15.9688571 Z M104.611202,12.0717143 L107.816026,12.0717143 L107.816026,11.6128571 C107.816026,10.7391429 107.52561,10.1325714 106.285364,10.1325714 C105.045117,10.1325714 104.611202,10.7391429 104.611202,11.6128571 L104.611202,12.0717143 Z" id="Shape" fill="#000000" fill-rule="nonzero"></path>
                <path d="M117,10.3588571 C116.074796,10.7448638 115.183759,11.1967123 114.335008,11.7102857 L114.335008,17.688 L111.827181,17.688 L111.827181,8.41971429 L113.959175,8.41971429 L114.123175,9.44742857 C114.942121,8.93589695 115.831423,8.52687899 116.767667,8.23114286 L117,10.3588571 Z" id="Path" fill="#000000" fill-rule="nonzero"></path>
            </g>
        </g>
        <g id="AWS-Env" transform="translate(289.000000, 15.600000)">
            <rect id="Rectangle" stroke="#DBDBDC" x="0.5" y="16.9" width="191" height="207" rx="2"></rect>
            <g id="AWS" transform="translate(16.200000, 0.000000)">
                <rect id="Rectangle" fill="#FFFFFF" x="-0.2" y="0.4" width="38" height="38"></rect>
                <g id="Group_3" transform="translate(4.800000, 10.400000)">
                    <path d="M7.89154968,6.17464286 C7.89154968,6.52435714 7.92864341,6.80728571 7.99325829,7.01614286 C8.06864231,7.22378571 8.16197491,7.45085714 8.29240123,7.69614286 C8.33787096,7.77142857 8.35701611,7.84792857 8.35701611,7.9135 C8.35701611,8.00821429 8.30077724,8.10292857 8.17992349,8.19764286 L7.59360331,8.59471429 C7.50984328,8.65178571 7.42608326,8.67971429 7.35069923,8.67971429 C7.25856321,8.67971429 7.16523061,8.63235714 7.07189801,8.54735714 C6.94147168,8.40528571 6.83019051,8.25471429 6.73685791,8.10292857 C6.64352531,7.94264286 6.55019271,7.76292857 6.4484841,7.54557143 C5.72216503,8.415 4.80918075,8.84971429 3.70953127,8.84971429 C2.92816989,8.84971429 2.30355942,8.62264286 1.84766557,8.1685 C1.39177172,7.71557143 1.15844022,7.10964286 1.15844022,6.35314286 C1.15844022,5.5505 1.43843801,4.89721429 2.00561304,4.40542857 C2.57398464,3.91485714 3.32782487,3.66835714 4.28747545,3.66835714 C4.60456697,3.66835714 4.9300345,3.69628571 5.27464718,3.74364286 C5.61925985,3.791 5.9734451,3.8675 6.34557893,3.9525 L6.34557893,3.26157143 C6.34557893,2.54392857 6.19600746,2.04242857 5.90763365,1.74857143 C5.60968728,1.45592857 5.10712713,1.31385714 4.39038062,1.31385714 C4.06371652,1.31385714 3.72867642,1.3515 3.38406375,1.43771429 C3.03945107,1.52271429 2.70441097,1.62592857 2.37894344,1.75828571 C2.22937197,1.82507143 2.11809079,1.86271429 2.05227934,1.88092857 C1.98766447,1.90035714 1.94099817,1.91007143 1.90390444,1.91007143 C1.77347812,1.91007143 1.70766667,1.81535714 1.70766667,1.61621429 L1.70766667,1.15357143 C1.70766667,1.00178571 1.72681182,0.888857143 1.77347812,0.822071429 C1.82014442,0.7565 1.90390444,0.689714286 2.03433077,0.624142857 C2.35979829,0.454142857 2.75107727,0.312071429 3.20697112,0.199142857 C3.66406155,0.0752857143 4.14747655,0.0194285714 4.65960928,0.0194285714 C5.76763476,0.0194285714 6.57891043,0.274428571 7.09941916,0.784428571 C7.61155189,1.29564286 7.87240454,2.07035714 7.87240454,3.111 L7.87240454,6.17464286 L7.89154968,6.17464286 Z M4.11038282,7.61114286 C4.41790177,7.61114286 4.7349933,7.55407143 5.0700334,7.44114286 C5.4050735,7.327 5.70301988,7.11935714 5.95429995,6.83642857 C6.10387143,6.65671429 6.2151526,6.45757143 6.27139148,6.2305 C6.32643378,6.00342857 6.36472408,5.73021429 6.36472408,5.40842857 L6.36472408,5.01135714 C6.09429885,4.94457143 5.80592505,4.88871429 5.50797868,4.84985714 C5.20883573,4.81221429 4.92046193,4.794 4.63208813,4.794 C4.00867422,4.794 3.5515838,4.91664286 3.24406485,5.17164286 C2.93774247,5.42664286 2.788171,5.78607143 2.788171,6.25964286 C2.788171,6.70407143 2.89945217,7.03435714 3.13278367,7.26142857 C3.3565426,7.49821429 3.68201012,7.61114286 4.11038282,7.61114286 Z M11.5889565,8.63235714 C11.4202399,8.63235714 11.3089587,8.60442857 11.2347713,8.53764286 C11.1605838,8.48057143 11.0947724,8.34821429 11.0385335,8.1685 L8.85000369,0.860928571 C8.79496139,0.6715 8.76624366,0.548857143 8.76624366,0.482071429 C8.76624366,0.3315 8.84162769,0.245285714 8.99000259,0.245285714 L9.90298687,0.245285714 C10.0800795,0.245285714 10.2009332,0.274428571 10.2655481,0.34 C10.3409321,0.397071429 10.3959744,0.529428571 10.4522133,0.709142857 L12.0173292,6.96878571 L13.4699674,0.709142857 C13.5166337,0.519714286 13.571676,0.397071429 13.64706,0.34 C13.7212475,0.284142857 13.8516738,0.245285714 14.0191938,0.245285714 L14.7634615,0.245285714 C14.9405541,0.245285714 15.0614079,0.274428571 15.1367919,0.34 C15.2109793,0.397071429 15.2755942,0.529428571 15.3138845,0.709142857 L16.7844712,7.04407143 L18.3962534,0.709142857 C18.4512957,0.519714286 18.5171072,0.397071429 18.5817221,0.34 C18.6571061,0.284142857 18.7779598,0.245285714 18.9454799,0.245285714 L19.8117979,0.245285714 C19.9601728,0.245285714 20.0439328,0.321785714 20.0439328,0.482071429 C20.0439328,0.529428571 20.0343602,0.576785714 20.0259842,0.633857143 C20.0164116,0.689714286 19.9972665,0.766214286 19.9601728,0.869428571 L17.7166007,8.17821429 C17.6603618,8.36764286 17.5945503,8.49028571 17.5203629,8.54735714 C17.4461754,8.60442857 17.3253217,8.64207143 17.1661776,8.64207143 L16.3656711,8.64207143 C16.1885785,8.64207143 16.0677247,8.61292857 15.9935373,8.54735714 C15.9181533,8.48057143 15.8535384,8.35792857 15.8164447,8.1685 L14.3733791,2.07035714 L12.9386895,8.16 C12.8920232,8.34821429 12.8357843,8.47207143 12.7615969,8.53764286 C12.6874094,8.60442857 12.5569831,8.63235714 12.389463,8.63235714 L11.5889565,8.63235714 Z M23.5546744,8.88735714 C23.0712594,8.88735714 22.5866479,8.8315 22.1211814,8.71735714 C21.655715,8.60442857 21.2919572,8.48057143 21.0502497,8.33971429 C20.9006782,8.25471429 20.7989696,8.16 20.7606793,8.075 C20.7235856,7.99 20.705637,7.89528571 20.705637,7.81028571 L20.705637,7.327 C20.705637,7.12907143 20.7798244,7.03435714 20.9198233,7.03435714 C20.9748656,7.03435714 21.0311045,7.04407143 21.0873434,7.06228571 C21.1435823,7.08171429 21.2273423,7.11935714 21.3194783,7.157 C21.6365698,7.29907143 21.9811825,7.41321429 22.3437438,7.4885 C22.7170742,7.56378571 23.0796354,7.60142857 23.4529658,7.60142857 C24.039286,7.60142857 24.4951799,7.49821429 24.8122714,7.28935714 C25.1281663,7.08171429 25.296883,6.77935714 25.296883,6.392 C25.296883,6.12728571 25.2131229,5.90992857 25.0444063,5.73021429 C24.8768863,5.5505 24.5609913,5.389 24.1039009,5.23842857 L22.7541679,4.81221429 C22.0745151,4.59485714 21.571955,4.27307143 21.264436,3.84807143 C20.9569171,3.43157143 20.7989696,2.96892857 20.7989696,2.47714286 C20.7989696,2.08007143 20.8827296,1.73035714 21.0502497,1.428 C21.2177697,1.12564286 21.4415286,0.860928571 21.7203299,0.652071429 C22.0003277,0.434714286 22.3162226,0.274428571 22.6883565,0.160285714 C23.0616869,0.0473571429 23.4529658,0 23.8621934,0 C24.0668072,0 24.2809935,0.00971428571 24.4856073,0.0376428571 C24.6997936,0.0667857143 24.8960314,0.104428571 25.0910726,0.142071429 C25.2777378,0.189428571 25.4548304,0.236785714 25.6223505,0.292642857 C25.7898705,0.349714286 25.9202969,0.406785714 26.0136295,0.463857143 C26.1440558,0.539142857 26.2373884,0.614428571 26.2924307,0.699428571 C26.3486696,0.774714286 26.3761907,0.879142857 26.3761907,1.0115 L26.3761907,1.45592857 C26.3761907,1.65507143 26.3020033,1.75828571 26.1620044,1.75828571 C26.0878169,1.75828571 25.9669632,1.72064286 25.8090157,1.64535714 C25.2777378,1.39885714 24.6818451,1.27621429 24.0201409,1.27621429 C23.4900596,1.27621429 23.0712594,1.36121429 22.7816891,1.54092857 C22.4933153,1.72064286 22.3437438,1.99507143 22.3437438,2.38242857 C22.3437438,2.64714286 22.4370764,2.87421429 22.6237416,3.05392857 C22.8104068,3.23364286 23.1550195,3.41335714 23.648007,3.57364286 L24.9702189,3.99985714 C25.6414956,4.21721429 26.1249106,4.51957143 26.4132844,4.90692857 C26.7028548,5.29428571 26.8416571,5.73871429 26.8416571,6.2305 C26.8416571,6.63728571 26.7578971,7.00642857 26.5999496,7.327 C26.4324296,7.64878571 26.2086707,7.93292857 25.9202969,8.16 C25.6319231,8.39557143 25.2873104,8.56678571 24.8864588,8.68942857 C24.4676587,8.82178571 24.0297134,8.88735714 23.5546744,8.88735714 Z" id="Vector_10" fill="#252F3E" fill-rule="nonzero"></path>
                    <g id="Group_4" transform="translate(0.000000, 10.598015)" fill="#FF9900">
                        <path d="M25.3148315,2.88419912 C22.2504112,5.18284198 17.7991641,6.40198484 13.971331,6.40198484 C8.60829619,6.40198484 3.77414615,4.38748484 0.124602188,1.04091341 C-0.164968185,0.776199121 0.0958844654,0.416770549 0.440497141,0.624413407 C4.38918405,2.95098484 9.25923124,4.35955626 14.2979951,4.35955626 C17.6962589,4.35955626 21.4307595,3.64069912 24.8673137,2.16655626 C25.3794464,1.92977055 25.8173917,2.50655626 25.3148315,2.88419912 Z" id="Vector_11"></path>
                        <path d="M26.5903771,1.41005626 C26.1990981,0.898841978 24.0009957,1.16355626 23.005448,1.28741341 C22.7075016,1.32505626 22.6608353,1.06034198 22.930064,0.861199121 C24.6806485,-0.387086593 27.5584036,-0.027658022 27.8934437,0.388841978 C28.2296804,0.813841978 27.8013077,3.73541341 26.1620044,5.13548484 C25.9107243,5.35284198 25.6678202,5.23869912 25.780298,4.95577055 C26.1524318,4.01955626 26.981656,1.91034198 26.5903771,1.41005626 Z" id="Vector_12"></path>
                    </g>
                </g>
            </g>
        </g>
        <g id="Instruqt-Logo" transform="translate(31.600000, 15.600000)">
            <rect id="Rectangle" fill="#FFFFFF" x="0.4" y="0.4" width="38" height="38"></rect>
            <g id="Group" transform="translate(9.400000, 1.400000)">
                <path d="M16.7167655,11.9504321 C16.7167655,10.0961631 15.2095682,8.59247346 13.3509738,8.59247346 L6.62785775,8.59247346 C4.76926334,8.59247346 3.26206605,10.0961631 3.26206605,11.9504321 C3.26206605,13.804701 4.76926334,15.3083907 6.62785775,15.3083907 L13.3488569,15.3083907 C15.2095682,15.3083907 16.7167655,13.804701 16.7167655,11.9504321 Z M8.14563929,12.5797853 C8.02074513,12.8775665 7.81541067,13.1352212 7.5465707,13.3105109 C7.27773074,13.4858006 6.95808637,13.5892848 6.638442,13.5892848 C6.20448772,13.5892848 5.79170195,13.4139952 5.48264183,13.1162139 C5.17358171,12.8078731 5.0084674,12.396048 5.0084674,11.9631036 C5.0084674,11.6442031 5.10160881,11.3253027 5.28789162,11.0570884 C5.46359018,10.7888741 5.72184589,10.5840175 6.02032176,10.459414 C6.31879763,10.3348105 6.6511431,10.3052435 6.97078747,10.3664893 C7.29043184,10.4277351 7.5804403,10.5819055 7.80694327,10.8099933 C8.03344623,11.0359691 8.18797629,11.3253027 8.2514818,11.6442031 C8.3022862,11.9504321 8.27053345,12.2798922 8.14563929,12.5797853 Z M12.1930567,13.1056543 C11.8839966,12.7973134 11.7188823,12.3854883 11.7188823,11.952544 C11.7188823,11.6336435 11.8120237,11.314743 11.9983065,11.0465287 C12.1740051,10.7783144 12.4322608,10.5734578 12.7307367,10.4488543 C13.0292125,10.3242509 13.361558,10.2946839 13.6812024,10.3559297 C14.0008467,10.4171755 14.2908552,10.5713459 14.5173582,10.7994337 C14.7438611,11.0254095 14.8983912,11.314743 14.9618967,11.6336435 C15.0254022,11.952544 14.9936494,12.2820041 14.8687553,12.5818972 C14.7438611,12.8817904 14.5385267,13.1373332 14.2696867,13.3126228 C14.0008467,13.4879125 13.6812024,13.5913967 13.361558,13.5913967 C12.9276037,13.5892848 12.5042337,13.4139952 12.1930567,13.1056543 Z" id="Shape"></path>
                <path d="M11.6469094,3.59777402 C11.6257409,3.61889326 11.6045724,3.64846019 11.5855207,3.66957943 C11.3780694,3.86598833 11.130398,4.02015875 10.8636749,4.13209071 C10.5842506,4.24613458 10.296359,4.29682075 9.9957663,4.29682075 C9.69729043,4.29682075 9.39669771,4.24613458 9.1172735,4.13209071 C8.82726503,4.01804683 8.56900931,3.83430947 8.3530906,3.61678133 L8.3530906,5.32743949 L11.6469094,5.32743949 L11.6469094,3.59777402 Z" id="Path" fill="#A07DB8" fill-rule="nonzero"></path>
                <path d="M9.10668925,4.13209071 C9.38611346,4.24613458 9.68458933,4.29682075 9.98518205,4.29682075 C10.2836579,4.29682075 10.5736664,4.24613458 10.8530906,4.13209071 C11.1219306,4.01804683 11.3590178,3.8638764 11.5749365,3.66957943 C11.596105,3.64846019 11.6172735,3.61889326 11.6363251,3.59777402 C11.8120237,3.41192474 11.9453853,3.20706815 12.0491109,2.97898039 C12.1740051,2.71076609 12.2353937,2.43199217 12.2353937,2.14477055 C12.2353937,1.85543701 12.1740051,1.57877501 12.0491109,1.32112033 C11.934801,1.06346564 11.7696867,0.826930192 11.5749365,0.630521292 C11.3674852,0.434112393 11.130398,0.279941966 10.861558,0.176457707 C10.592718,0.0518542117 10.2942422,-0.00939157418 9.99364945,0.00116804407 C9.39458086,0.0117276623 8.82726503,0.237703493 8.403895,0.638968987 C8.19644369,0.835377886 8.04191363,1.07191334 7.92972058,1.32956802 C7.81541067,1.58722271 7.75402202,1.87655625 7.76460627,2.15321824 C7.76460627,2.44255178 7.81541067,2.7297734 7.92972058,2.98742809 C8.03344623,3.22396354 8.17739204,3.43093205 8.3530906,3.61678133 C8.56054191,3.83430947 8.81668078,4.00959913 9.10668925,4.13209071 Z" id="Path" fill="#18184A" fill-rule="nonzero"></path>
                <path d="M7.79635902,10.7973217 C7.56985605,10.5713459 7.27984759,10.4171755 6.96020322,10.3538178 C6.64055885,10.2904601 6.31033023,10.3221389 6.00973751,10.4467424 C5.70914479,10.5713459 5.45300593,10.7762025 5.27730737,11.0444168 C5.10160881,11.3126311 4.99788315,11.6315316 4.99788315,11.9504321 C4.99788315,12.3833764 5.17358171,12.7952015 5.47205758,13.1035424 C5.7811177,13.4118832 6.19390347,13.5766133 6.62785775,13.5766133 C6.94750212,13.5766133 7.26714649,13.4836886 7.53598645,13.2978394 C7.80482642,13.1225497 8.01016088,12.864895 8.13505504,12.5671138 C8.2599492,12.2693325 8.2895851,11.9377605 8.22819644,11.61886 C8.17739204,11.3126311 8.02286198,11.0232976 7.79635902,10.7973217 Z" id="Path" fill="#18184A" fill-rule="nonzero"></path>
                <path d="M14.8687553,12.5797853 C14.9936494,12.2820041 15.0232854,11.9504321 14.9618967,11.6315316 C14.900508,11.3126311 14.745978,11.0232976 14.5173582,10.7973217 C14.2908552,10.5713459 14.0008467,10.4171755 13.6812024,10.3538178 C13.361558,10.2904601 13.0313294,10.3221389 12.7307367,10.4467424 C12.4322608,10.5713459 12.1740051,10.7762025 11.9983065,11.0444168 C11.822608,11.3126311 11.7188823,11.6315316 11.7188823,11.9504321 C11.7188823,12.3833764 11.8945809,12.7952015 12.1930567,13.1035424 C12.5021169,13.4118832 12.9149026,13.5766133 13.3488569,13.5766133 C13.6685013,13.5766133 13.9881456,13.4836886 14.2569856,13.2978394 C14.5385267,13.1352212 14.7438611,12.8775665 14.8687553,12.5797853 Z" id="Path" fill="#18184A" fill-rule="nonzero"></path>
                <polygon id="Path" fill="#EF539E" fill-rule="nonzero" points="4.28450466 19.9229438 0.867908552 19.9229438 0.867908552 23.1689705 4.28450466 23.1689705 4.28450466 19.9335035"></polygon>
                <g transform="translate(0.000000, 5.327439)">
                    <path d="M16.7167655,6.62299257 C16.7167655,4.7687236 15.2095682,3.26503396 13.3509738,3.26503396 L6.62785775,3.26503396 C4.76926334,3.26503396 3.26206605,4.7687236 3.26206605,6.62299257 C3.26206605,8.47726154 4.76926334,9.98095118 6.62785775,9.98095118 L13.3488569,9.98095118 C15.2095682,9.98095118 16.7167655,8.47726154 16.7167655,6.62299257 Z" id="Path"></path>
                    <path d="M20,6.62299257 C20,2.96725273 17.0258256,0 13.361558,0 L11.6469094,0 L8.3530906,0 L6.638442,0 C2.97417443,0 0,2.96725273 0,6.62299257 C0,10.2787324 2.97417443,13.2459851 6.62785775,13.2459851 L6.6596105,13.2459851 C6.53471634,13.4825206 6.36960203,13.7000487 6.16426757,13.8837861 C5.66892464,14.3378497 4.9872989,14.5955044 4.28450466,14.603952 L4.28450466,17.8478668 C5.7811177,17.8478668 7.22692633,17.343117 8.3530906,16.4476614 L8.3530906,18.2406846 L11.6257409,18.2406846 L11.6257409,16.4371018 C12.7519052,17.3325574 14.195597,17.8373072 15.6943268,17.8373072 L15.6943268,14.5955044 C14.9915326,14.5955044 14.3099069,14.3378497 13.8145639,13.8753384 C13.6071126,13.6894891 13.4419983,13.4740729 13.319221,13.2375374 L13.3509738,13.2375374 C17.0152413,13.2480971 20,10.2808443 20,6.62299257 Z M6.62785775,9.98095118 C4.76926334,9.98095118 3.26206605,8.47726154 3.26206605,6.62299257 C3.26206605,4.7687236 4.76926334,3.26503396 6.62785775,3.26503396 L13.3488569,3.26503396 C15.2074513,3.26503396 16.7146486,4.7687236 16.7146486,6.62299257 C16.7146486,8.47726154 15.2074513,9.98095118 13.3488569,9.98095118 L6.62785775,9.98095118 L6.62785775,9.98095118 Z" id="Shape" fill="#18184A" fill-rule="nonzero"></path>
                </g>
                <polygon id="Path" fill="#58C9E9" fill-rule="nonzero" points="15.7049111 19.9335035 15.7049111 23.1689705 19.1215072 23.1689705 19.1215072 19.9229438 15.7049111 19.9229438"></polygon>
                <polygon id="Path" fill="#F78F2E" fill-rule="nonzero" points="8.3530906 25.1161641 8.3530906 27 11.6363251 27 11.6363251 25.1161641 11.6363251 23.5596764 8.3530906 23.5596764"></polygon>
            </g>
            <g id="Group" transform="translate(6.400000, 30.400000)" fill-rule="nonzero">
                <rect id="Rectangle" fill="#F78F2E" x="21.6982865" y="5.95629262" width="1" height="1.04370738"></rect>
                <path d="M17.279331,5.21419715 L17.279331,5.33137012 L18.2599,5.33137012 L18.2599,3.66057037 C18.2599,4.1184129 18.0765762,4.55455673 17.7568254,4.87786733 C17.6161351,5.01890887 17.4562597,5.1317421 17.279331,5.21419715 Z" id="Path" fill="#A07DB8"></path>
                <polygon id="Path" fill="#EF539E" points="6.96843486 4.34407936 5.95162745 4.34407936 5.95162745 5.32920025 6.96843486 5.32920025"></polygon>
                <rect id="Rectangle" fill="#58C9E9" x="25.0300894" y="4.45040298" width="1" height="1"></rect>
                <path d="M2.93104862,1.58183509 L2.93104862,1.46466212 L1.95047963,1.46466212 L1.95047963,3.13546187 C1.95047963,2.67761934 2.13380339,2.24147551 2.45355415,1.91816491 C2.59211281,1.77929324 2.75625154,1.66429014 2.93104862,1.58183509 Z" id="Path" fill="#A07DB8"></path>
                <path d="M21.6982865,1.69249845 C21.4062474,1.51890887 21.0694433,1.41475511 20.7070591,1.41475511 C19.6348282,1.41475511 18.7608428,2.30440174 18.7608428,3.39584625 C18.7608428,4.48729076 19.6348282,5.37693738 20.7070591,5.37693738 C21.0694433,5.37693738 21.4062474,5.27712337 21.6982865,5.09919405 L21.6982865,5.94978301 L21.6982865,5.94978301 L22.6724604,5.94978301 L22.6724604,1.46249225 L21.6982865,1.46249225 L21.6982865,1.69249845 Z M20.7070591,4.40266584 C20.1634828,4.40266584 19.7222268,3.95133292 19.7222268,3.40018599 C19.7222268,2.84686919 20.1656145,2.39770614 20.7070591,2.39770614 C21.2485037,2.39770614 21.6918914,2.84903906 21.6918914,3.40018599 C21.6918914,3.95133292 21.2506354,4.40266584 20.7070591,4.40266584 Z" id="Shape" fill="#18184A"></path>
                <path d="M21.0523899,3.04866708 C20.9841764,2.97923125 20.8967779,2.93149411 20.8029843,2.91196528 C20.7070591,2.89243645 20.6090022,2.9032858 20.5216037,2.94017359 C20.4320735,2.97923125 20.3553333,3.0399876 20.3041732,3.12244265 C20.2487497,3.20272784 20.2231696,3.30037198 20.2231696,3.39584625 C20.2231696,3.52603844 20.2743298,3.65406076 20.36386,3.74736516 C20.4555218,3.84066956 20.5791588,3.89057657 20.7091908,3.89057657 C20.805116,3.89057657 20.8989096,3.86236826 20.9777814,3.80812151 C21.0566533,3.7517049 21.1184718,3.67575945 21.1568418,3.58679479 C21.1952119,3.49566026 21.2037386,3.39584625 21.1845536,3.30037198 C21.1675002,3.20489771 21.1206034,3.11593304 21.0523899,3.04866708 Z" id="Path" fill="#18184A"></path>
                <path d="M10.948266,0.0585864848 L9.95490694,0.0585864848 L9.95490694,1.46683199 L9.95490694,2.45846249 L9.95490694,3.71481711 C9.95490694,4.17265964 10.1403624,4.6066336 10.4665082,4.93211407 C10.7926539,5.2532548 11.2360416,5.43552387 11.7007461,5.43552387 L11.7007461,4.44823311 C11.5025006,4.44823311 11.3106502,4.37011779 11.1720915,4.23124613 C11.0314012,4.09237446 10.9525293,3.90359578 10.9525293,3.71047737 L10.9525293,2.45846249 L12.1121587,2.45846249 L12.1121587,1.46683199 L10.9525293,1.46683199 L10.9525293,0.0585864848 L10.948266,0.0585864848 L10.948266,0.0585864848 Z" id="Path" fill="#18184A"></path>
                <path d="M13.5936706,1.46466212 L12.6194966,1.46466212 L12.6194966,3.16367018 L12.6194966,5.32703038 L13.5851439,5.32703038 L13.5936706,5.32703038 L13.5936706,3.05300682 C13.617119,2.90111593 13.6853325,2.75573466 13.7983111,2.6450713 C13.9347381,2.5083695 14.1201935,2.43242405 14.3120439,2.43242405 L14.3120439,1.46466212 C14.0626384,1.46466212 13.8174961,1.52107874 13.5936706,1.62523249 L13.5936706,1.46466212 L13.5936706,1.46466212 Z" id="Path" fill="#18184A"></path>
                <path d="M17.279331,3.66057037 L17.279331,3.66057037 C17.279331,3.85802852 17.2004591,4.04680719 17.0640321,4.18350899 C16.9254735,4.32238066 16.7378864,4.40049597 16.5417726,4.40049597 C16.3456588,4.40049597 16.1580717,4.32238066 16.019513,4.18350899 C15.8809543,4.04463732 15.8042142,3.85585865 15.8042142,3.66057037 L15.8042142,1.46683199 L14.8236452,1.46683199 L14.8236452,3.66057037 C14.8236452,4.1184129 15.0069689,4.55455673 15.3267197,4.87786733 C15.6486021,5.20117793 16.0855948,5.38127712 16.5417726,5.38127712 C16.7997048,5.38127712 17.0512421,5.32269064 17.279331,5.21419715 C17.4541281,5.1317421 17.6161351,5.016739 17.7546938,4.87569746 C18.0765762,4.55238686 18.2577683,4.11407316 18.2577683,3.6584005 L18.2577683,1.46466212 L17.2771993,1.46466212 L17.279331,3.66057037 L17.279331,3.66057037 Z" id="Path" fill="#18184A"></path>
                <path d="M1.10420595,1.79014259 C0.957120603,1.85089895 0.799376896,1.88344699 0.639501517,1.88127712 C0.481757809,1.88127712 0.324014102,1.85089895 0.176928753,1.79014259 L0.166270394,1.79014259 L0.157743707,1.79014259 L0.157743707,5.32920025 L1.13191768,5.32920025 L1.13191768,1.77929324 L1.11486431,1.78797272 L1.10420595,1.79014259 Z" id="Path" fill="#18184A"></path>
                <path d="M1.13618103,0.195288283 C1.07649422,0.134531928 1.00188571,0.0867947923 0.923013856,0.056416615 C0.84201033,0.0195288283 0.75461179,6.16714092e-15 0.665081577,6.16714092e-15 C0.488152824,0.00216986981 0.319750758,0.0716057037 0.191850455,0.193118413 C0.132163647,0.253874768 0.0831351972,0.323310601 0.0511601213,0.401425914 C0.0191850455,0.481711097 0,0.56416615 0,0.650960942 C0,0.739925604 0.0170533738,0.824550527 0.0511601213,0.90483571 C0.119373616,1.06323621 0.245142248,1.18691878 0.405017627,1.25418475 C0.486021153,1.2867328 0.575551365,1.30409175 0.667213249,1.30409175 C0.758875133,1.30409175 0.844142002,1.2867328 0.925145528,1.25418475 C1.00401738,1.2216367 1.07862589,1.17389957 1.14044437,1.11531308 C1.20013118,1.05455673 1.24915963,0.985120893 1.28113471,0.90700558 C1.31737312,0.826720397 1.33655817,0.739925604 1.33655817,0.653130812 C1.33655817,0.56633602 1.31737312,0.481711097 1.28113471,0.403595784 C1.24915963,0.329820211 1.20013118,0.258214507 1.13618103,0.195288283 Z" id="Path" fill="#18184A"></path>
                <path d="M9.08092154,3.27216367 C8.96581127,3.17017979 8.83577929,3.08989461 8.69082561,3.03564786 C8.53734525,2.97706138 8.37746987,2.9466832 8.21546282,2.94885307 L7.19012872,2.94885307 C7.15815364,2.94885307 7.1240469,2.94234346 7.09420349,2.92932424 C7.06436009,2.91847489 7.03664836,2.89894606 7.01533164,2.87724737 C6.99188325,2.8533788 6.97482988,2.82517049 6.95990817,2.79479231 C6.94711814,2.76441414 6.94072313,2.73186609 6.94072313,2.69714817 C6.94072313,2.63422195 6.96843486,2.56912585 7.01319997,2.52355859 C7.06009675,2.47582145 7.12191523,2.45195288 7.18799705,2.45195288 L9.18537345,2.45195288 L9.18537345,1.46466212 L7.18799705,1.46466212 C6.86185127,1.46466212 6.54849553,1.59485431 6.31401164,1.82269064 C6.20316471,1.93552387 6.11150283,2.06571606 6.04968435,2.2132672 C5.92391572,2.52138872 5.92391572,2.86639802 6.04968435,3.17451953 C6.11150283,3.32207068 6.20316471,3.45443273 6.31401164,3.56726596 C6.42485857,3.68009919 6.55915389,3.76906386 6.70410757,3.82982021 C6.85758793,3.89708617 7.01959498,3.92746435 7.18373371,3.92746435 L8.2090678,3.92746435 C8.26875461,3.92529448 8.32844142,3.93614383 8.38386488,3.9600124 C8.40731327,3.97303162 8.42649832,3.99256045 8.44142002,4.01859888 C8.45421005,4.04246745 8.46060507,4.07067576 8.45421005,4.09888407 C8.45421005,4.12926224 8.44568336,4.16181029 8.43289333,4.1900186 C8.4201033,4.21822691 8.40091826,4.24643521 8.37746987,4.26813391 C8.35615315,4.29200248 8.32844142,4.30936144 8.29859802,4.32455053 C8.26875461,4.33756975 8.23677954,4.34407936 8.20267279,4.34407936 L6.96417152,4.34407936 L6.96417152,5.32703038 L8.20267279,5.32703038 C8.36894318,5.32920025 8.53308191,5.29882207 8.6844306,5.23806572 C8.82938427,5.17513949 8.96154792,5.08617483 9.07452652,4.97551147 C9.18537345,4.86267824 9.27703534,4.72814631 9.33885382,4.5849349 C9.40493564,4.43304402 9.43691072,4.26813391 9.43691072,4.10322381 C9.43904239,3.94699318 9.40706731,3.79293242 9.3473805,3.64972102 C9.2876937,3.50867948 9.19390014,3.37631742 9.08092154,3.27216367 Z" id="Path" fill="#18184A"></path>
                <path d="M24.5014348,4.23124613 C24.3607444,4.09237446 24.2818726,3.90359578 24.2818726,3.71047737 L24.2818726,2.45846249 L25.4926621,2.45846249 L25.4926621,1.46683199 L24.2818726,1.46683199 L24.2818726,0.0585864848 L23.2885136,0.0585864848 L23.2885136,1.46683199 L23.2885136,2.45846249 L23.2885136,3.71481711 C23.2885136,4.17265964 23.473969,4.6066336 23.8001148,4.93211407 C24.1262606,5.2532548 24.5696483,5.43552387 25.0343527,5.43552387 L25.0343527,4.44823311 C24.8318439,4.44606324 24.6399934,4.37011779 24.5014348,4.23124613 Z" id="Path" fill="#18184A"></path>
                <path d="M3.66860703,1.41258524 C3.41067476,1.41258524 3.15913749,1.47117173 2.93104862,1.57966522 C2.75625154,1.66212027 2.59424449,1.77712337 2.45568582,1.91816491 C2.13380339,2.24147551 1.9526113,2.67978921 1.9526113,3.13546187 L1.9526113,5.32920025 L2.93318029,5.32920025 L2.93318029,3.13546187 C2.93318029,2.93800372 3.01205214,2.74922505 3.14847913,2.61252325 C3.2870378,2.47365158 3.47462491,2.39553627 3.67073871,2.39553627 C3.8668525,2.39553627 4.05443962,2.47365158 4.19299828,2.61252325 C4.33155694,2.75139492 4.40829712,2.94017359 4.40829712,3.13546187 L4.40829712,5.32920025 L5.38886611,5.32920025 L5.38886611,3.13546187 C5.38886611,2.67761934 5.20554235,2.24147551 4.88579159,1.91816491 C4.56177749,1.59485431 4.12478478,1.41475511 3.66860703,1.41258524 Z" id="Path" fill="#18184A"></path>
            </g>
        </g>
        <g id="Terminal" transform="translate(32.000000, 80.000000)">
            <path d="M159.5,16.5 L159.5,62 C159.5,62.4142136 159.332107,62.7892136 159.06066,63.0606602 C158.789214,63.3321068 158.414214,63.5 158,63.5 L158,63.5 L2,63.5 C1.58578644,63.5 1.21078644,63.3321068 0.939339828,63.0606602 C0.667893219,62.7892136 0.5,62.4142136 0.5,62 L0.5,62 L0.5,16.5 L159.5,16.5 Z" id="Rectangle" stroke="#666666" fill="#FFFFFF"></path>
            <path d="M4,0 L156,0 C158.209139,-4.05812251e-16 160,1.790861 160,4 L160,16 L160,16 L0,16 L0,4 C-2.705415e-16,1.790861 1.790861,4.05812251e-16 4,0 Z" id="Rectangle" fill="#666666"></path>
            <circle id="Oval" fill="#FF5D52" cx="10" cy="8" r="4"></circle>
            <circle id="Oval" fill="#FEBC2E" cx="23" cy="8" r="4"></circle>
            <circle id="Oval" fill="#28C83F" cx="36" cy="8" r="4"></circle>
            <text id="&gt;-workflow-watchdog" font-family="Courier-Bold, Courier" font-size="10" font-weight="bold" letter-spacing="-0.02" fill="#1D1F25">
                <tspan x="16" y="42">&gt; workflow-watchdog</tspan>
            </text>
        </g>
        <text id="AMI" font-family="Arial-BoldMT, Arial" font-size="9" font-weight="bold" letter-spacing="-0.018" fill="#1D1F25">
            <tspan x="335.778465" y="146">AMI</tspan>
        </text>
        <text id="PRODUCTION" font-family="Arial-BoldMT, Arial" font-size="9" font-weight="bold" letter-spacing="-0.018" fill="#1D1F25">
            <tspan x="105.840244" y="168">PRODUCTION</tspan>
        </text>
        <text id="EC2-instance" font-family="Arial-BoldMT, Arial" font-size="9" font-weight="bold" letter-spacing="-0.018" fill="#1D1F25">
            <tspan x="414.273094" y="226">EC2 </tspan>
            <tspan x="404.81492" y="236">instance</tspan>
        </text>
        <line x1="656.5" y1="128.5" x2="656.5" y2="143.5" id="Path-3" stroke="#666666"></line>
        <g id="Amazon-Containers-AMI_Resource-Icon_light-bg" transform="translate(320.000000, 80.000000)" fill="#D45B07">
            <path d="M30.143,37.727 L38.599,37.727 L38.599,26.656 L30.143,26.656 L30.143,37.727 Z M9.229,37.727 L17.686,37.727 L17.686,26.656 L9.229,26.656 L9.229,37.727 Z M19.686,37.727 L28.143,37.727 L28.143,26.656 L19.686,26.656 L19.686,37.727 Z M39.599,24.656 L8.229,24.656 C7.676,24.656 7.229,25.104 7.229,25.656 L7.229,38.727 C7.229,39.279 7.676,39.727 8.229,39.727 L39.599,39.727 C40.151,39.727 40.599,39.279 40.599,38.727 L40.599,25.656 C40.599,25.104 40.151,24.656 39.599,24.656 L39.599,24.656 Z M30.143,19.428 L38.599,19.428 L38.599,10.971 L30.143,10.971 L30.143,19.428 Z M9.229,19.428 L17.686,19.428 L17.686,10.971 L9.229,10.971 L9.229,19.428 Z M19.686,19.428 L28.143,19.428 L28.143,10.971 L19.686,10.971 L19.686,19.428 Z M39.599,8.971 L8.229,8.971 C7.676,8.971 7.229,9.419 7.229,9.971 L7.229,20.428 C7.229,20.98 7.676,21.428 8.229,21.428 L39.599,21.428 C40.151,21.428 40.599,20.98 40.599,20.428 L40.599,9.971 C40.599,9.419 40.151,8.971 39.599,8.971 L39.599,8.971 Z M43.827,39.379 C43.827,41.832 41.832,43.827 39.38,43.827 L8.448,43.827 C5.995,43.827 4,41.832 4,39.379 L4,8.448 C4,5.995 5.995,4 8.448,4 L39.38,4 C41.832,4 43.827,5.995 43.827,8.448 L43.827,39.379 Z M39.38,2 L8.448,2 C4.893,2 2,4.892 2,8.448 L2,39.379 C2,42.934 4.893,45.827 8.448,45.827 L39.38,45.827 C42.935,45.827 45.827,42.934 45.827,39.379 L45.827,8.448 C45.827,4.892 42.935,2 39.38,2 L39.38,2 Z"></path>
        </g>
        <path id="Path-5" d="M655.507575,374.500057 L659.87071,383.567198 L655.87,383.506 L655.574629,403.07826 C655.530181,406.011852 653.19507,408.379971 650.288635,408.490874 L650.069608,408.494933 L79.9994862,407.909091 L79.5,407.908577 L79.500297,388.472568 C77.2501788,388.223981 75.5,386.316379 75.5,384 C75.5,381.514719 77.5147186,379.5 80,379.5 C82.4852814,379.5 84.5,381.514719 84.5,384 C84.5,386.316034 82.7503421,388.223414 80.5007074,388.472457 L80.5,406.91 L650.070636,407.494934 C652.458766,407.497388 654.419055,405.637743 654.566383,403.278889 L654.574744,403.06311 L654.871,383.491 L650.871743,383.430851 L655.507575,374.500057 Z" fill="#7B42BC" fill-rule="nonzero"></path>
        <path id="Path-5" d="M544.640201,124.244607 L553.499771,129.015145 L544.367599,133.240478 L544.488,129.242 L525.136301,128.655875 L525,128.65381 C522.585727,128.65381 520.615511,130.555047 520.504898,132.941975 L520.5,133.15381 L520.5,315 C520.5,317.414273 522.401237,319.384489 524.788164,319.495102 L525,319.5 L544.5,319.5 L544.5,315.5 L553.5,320 L544.5,324.5 L544.5,320.5 L525,320.5 C522.036521,320.5 519.620461,318.15622 519.504367,315.221207 L519.5,315 L519.5,133.15381 C519.5,130.116244 521.962434,127.65381 525,127.65381 L525.083305,127.654441 L525.083305,127.654441 L525.16659,127.656334 L544.519,128.242 L544.640201,124.244607 Z" fill="#7B42BC" fill-rule="nonzero"></path>
        <g id="Label" transform="translate(340.000000, 400.000000)">
            <rect id="Rectangle" fill="#FFFFFF" x="0" y="0" width="56" height="16"></rect>
            <text id="Trigger-run" font-family="Arial-BoldMT, Arial" font-size="9" font-weight="bold" letter-spacing="-0.018" fill="#7B42BC">
                <tspan x="4.34655859" y="12">Trigger run</tspan>
            </text>
        </g>
        <g id="Label" transform="translate(488.000000, 208.000000)">
            <rect id="Rectangle" fill="#FFFFFF" x="0" y="0" width="64" height="32"></rect>
            <text id="References-image-art" font-family="Arial-BoldMT, Arial" font-size="9" font-weight="bold" letter-spacing="-0.018" fill="#7B42BC">
                <tspan x="7.8255957" y="11">References</tspan>
                <tspan x="2.86501367" y="21">image artifact</tspan>
            </text>
        </g>
        <path id="Path-7" d="M383,85 L383,89 L384.5,89 L384.5,90 L383,90 L383,94 L374,89.5 L383,85 Z M568.5,89 L568.5,90 L564.5,90 L564.5,89 L568.5,89 Z M560.5,89 L560.5,90 L556.5,90 L556.5,89 L560.5,89 Z M552.5,89 L552.5,90 L548.5,90 L548.5,89 L552.5,89 Z M544.5,89 L544.5,90 L540.5,90 L540.5,89 L544.5,89 Z M536.5,89 L536.5,90 L532.5,90 L532.5,89 L536.5,89 Z M528.5,89 L528.5,90 L524.5,90 L524.5,89 L528.5,89 Z M520.5,89 L520.5,90 L516.5,90 L516.5,89 L520.5,89 Z M512.5,89 L512.5,90 L508.5,90 L508.5,89 L512.5,89 Z M504.5,89 L504.5,90 L500.5,90 L500.5,89 L504.5,89 Z M496.5,89 L496.5,90 L492.5,90 L492.5,89 L496.5,89 Z M488.5,89 L488.5,90 L484.5,90 L484.5,89 L488.5,89 Z M480.5,89 L480.5,90 L476.5,90 L476.5,89 L480.5,89 Z M472.5,89 L472.5,90 L468.5,90 L468.5,89 L472.5,89 Z M464.5,89 L464.5,90 L460.5,90 L460.5,89 L464.5,89 Z M456.5,89 L456.5,90 L452.5,90 L452.5,89 L456.5,89 Z M448.5,89 L448.5,90 L444.5,90 L444.5,89 L448.5,89 Z M440.5,89 L440.5,90 L436.5,90 L436.5,89 L440.5,89 Z M432.5,89 L432.5,90 L428.5,90 L428.5,89 L432.5,89 Z M424.5,89 L424.5,90 L420.5,90 L420.5,89 L424.5,89 Z M416.5,89 L416.5,90 L412.5,90 L412.5,89 L416.5,89 Z M408.5,89 L408.5,90 L404.5,90 L404.5,89 L408.5,89 Z M400.5,89 L400.5,90 L396.5,90 L396.5,89 L400.5,89 Z M392.5,89 L392.5,90 L388.5,90 L388.5,89 L392.5,89 Z" fill="#979797" fill-rule="nonzero"></path>
        <g id="Label" transform="translate(445.000000, 80.000000)">
            <rect id="Rectangle" fill="#FFFFFF" x="0" y="0" width="53" height="24"></rect>
            <text id="Registry-reference" font-family="Arial-BoldMT, Arial" font-size="9" font-weight="bold" letter-spacing="-0.018" fill="#404247">
                <tspan x="8.5654082" y="11">Registry </tspan>
                <tspan x="6.31781641" y="21">reference</tspan>
            </text>
        </g>
        <g id="Group-2" transform="translate(40.000000, 224.000000)">
            <g id="Label" transform="translate(56.000000, 40.000000)">
                <rect id="Rectangle" x="0" y="0" width="96" height="27"></rect>
                <text id="Create-branch" font-family="Arial-BoldMT, Arial" font-size="9" font-weight="bold" letter-spacing="-0.018" fill="#404247">
                    <tspan x="0" y="11">Create branch</tspan>
                </text>
            </g>
            <g id="Label" transform="translate(56.000000, 80.000000)">
                <rect id="Rectangle" x="0" y="0" width="96" height="27"></rect>
                <text id="Build-TFC-workspace" font-family="Arial-BoldMT, Arial" font-size="9" font-weight="bold" letter-spacing="-0.018" fill="#404247">
                    <tspan x="0" y="11">Build TFC workspace</tspan>
                </text>
            </g>
            <g id="Label" transform="translate(56.000000, 128.000000)">
                <rect id="Rectangle" x="0" y="0" width="96" height="27"></rect>
                <text id="Trigger-apply-run" font-family="Arial-BoldMT, Arial" font-size="9" font-weight="bold" letter-spacing="-0.018" fill="#404247">
                    <tspan x="0" y="11">Trigger apply run</tspan>
                </text>
            </g>
            <circle id="Oval" stroke="#979797" fill="#D8D8D8" cx="8" cy="24" r="7.5"></circle>
            <circle id="Oval" stroke="#979797" fill="#D8D8D8" cx="40" cy="48" r="7.5"></circle>
            <circle id="Oval" stroke="#979797" fill="#D8D8D8" cx="40" cy="88" r="7.5"></circle>
            <circle id="Oval" stroke="#979797" fill="#D8D8D8" cx="40" cy="135" r="7.5"></circle>
            <line x1="8.5" y1="0" x2="8.5" y2="16" id="Path-10" stroke="#979797"></line>
            <line x1="8.5" y1="32" x2="8.5" y2="48" id="Path-10" stroke="#979797"></line>
            <path d="M16,25.5 L30.338884,25.5 C35.7275968,25.5 40.1472367,29.7698654 40.332944,35.1553772 L40.5,40 L40.5,40" id="Path-11" stroke="#979797"></path>
            <line x1="40.5" y1="56" x2="41" y2="81" id="Path-12" stroke="#979797" transform="translate(40.750000, 68.500000) rotate(1.145763) translate(-40.750000, -68.500000) "></line>
            <line x1="40.5" y1="95" x2="40.5" y2="127" id="Path-13" stroke="#979797"></line>
        </g>
        <g id="Group-3" transform="translate(16.000000, 160.000000)">
            <g id="Label" transform="translate(0.000000, 29.000000)">
                <rect id="Rectangle" x="0" y="0" width="64" height="27"></rect>
                <text id="CHANGE" font-family="Arial-BoldMT, Arial" font-size="9" font-weight="bold" letter-spacing="-0.018" fill="#404247">
                    <tspan x="12.5532676" y="11">CHANGE</tspan>
                </text>
            </g>
            <g id="Path_319" transform="translate(16.000000, 0.000000)" fill="#000001">
                <path d="M15.6363636,12.3636364 C16.2385455,12.3636364 16.7272727,12.8581818 16.7272727,13.4545455 L16.7272727,16.7272727 L20,16.7272727 C20.6021818,16.7272727 21.0909091,17.2218182 21.0909091,17.8181818 C21.0909091,18.4145455 20.6021818,18.9090909 20,18.9090909 L16.7272727,18.9090909 L16.7272727,22.1818182 C16.7272727,22.7781818 16.2385455,23.2727273 15.6363636,23.2727273 C15.0341818,23.2727273 14.5454545,22.7781818 14.5454545,22.1818182 L14.5454545,18.9090909 L11.2727273,18.9090909 C10.6705455,18.9090909 10.1818182,18.4145455 10.1818182,17.8181818 C10.1818182,17.2218182 10.6705455,16.7272727 11.2727273,16.7272727 L14.5454545,16.7272727 L14.5454545,13.4545455 C14.5454545,12.8581818 15.0341818,12.3636364 15.6363636,12.3636364 Z" id="Path" fill-rule="nonzero"></path>
                <path d="M4,0 C1.79054545,0 0,1.78909091 0,4 L0,25.0909091 C0,27.3018182 1.79054545,29.0909091 4,29.0909091 L28,29.0909091 C30.2094545,29.0909091 32,27.3018182 32,25.0909091 L32,6.90909091 C32,4.69818182 30.2094545,2.90909091 28,2.90909091 L17.568,2.90909091 C17.0865455,2.90909091 16.624,2.72 16.2836364,2.37090909 L15.0778182,1.17818182 C14.3272727,0.421818182 13.3105455,0 12.2501818,0 L4,0 Z M2.18181818,4 C2.18181818,2.99636364 2.99636364,2.18181818 4,2.18181818 L12.2501818,2.18181818 C12.7316364,2.18181818 13.1941818,2.37090909 13.5345455,2.72 L14.7403636,3.91272727 C15.4909091,4.66909091 16.5076364,5.09090909 17.568,5.09090909 L28,5.09090909 C29.0036364,5.09090909 29.8181818,5.90545455 29.8181818,6.90909091 L29.8181818,25.0909091 C29.8181818,26.0945455 29.0036364,26.9090909 28,26.9090909 L4,26.9090909 C2.99636364,26.9090909 2.18181818,26.0945455 2.18181818,25.0909091 L2.18181818,9.45454545 L26.5454545,9.45454545 C27.1476364,9.45454545 27.6363636,8.96 27.6363636,8.36363636 C27.6363636,7.76727273 27.1476364,7.27272727 26.5454545,7.27272727 L2.18181818,7.27272727 L2.18181818,4 Z" id="Shape"></path>
            </g>
        </g>
        <g id="Amazon-EC2-Instance_Resource-Icon_light-bg" transform="translate(398.752613, 160.000000)" fill="#D45B07">
            <path d="M9,39 L39,39 L39,9 L9,9 L9,39 Z M46,13 L46,11 L41,11 L41,8 C41,7.448 40.552,7 40,7 L37,7 L37,2 L35,2 L35,7 L31,7 L31,2 L29,2 L29,7 L25,7 L25,2 L23,2 L23,7 L19,7 L19,2 L17,2 L17,7 L13,7 L13,2 L11,2 L11,7 L8,7 C7.447,7 7,7.448 7,8 L7,11 L2,11 L2,13 L7,13 L7,17 L2,17 L2,19 L7,19 L7,23 L2,23 L2,25 L7,25 L7,29 L2,29 L2,31 L7,31 L7,35 L2,35 L2,37 L7,37 L7,40 C7,40.553 7.447,41 8,41 L11,41 L11,46 L13,46 L13,41 L17,41 L17,46 L19,46 L19,41 L23,41 L23,46 L25,46 L25,41 L29,41 L29,46 L31,46 L31,41 L35,41 L35,46 L37,46 L37,41 L40,41 C40.552,41 41,40.553 41,40 L41,37 L46,37 L46,35 L41,35 L41,31 L46,31 L46,29 L41,29 L41,25 L46,25 L46,23 L41,23 L41,19 L46,19 L46,17 L41,17 L41,13 L46,13 Z"></path>
        </g>
        <path id="Path-8" d="M374.5,187.5 L383.5,192 L374.5,196.5 L374.5,187.5 Z M348.5,191.5 L348.5,192.5 L344.5,192.5 L344.5,191.5 L348.5,191.5 Z M356.5,191.5 L356.5,192.5 L352.5,192.5 L352.5,191.5 L356.5,191.5 Z M364.5,191.5 L364.5,192.5 L360.5,192.5 L360.5,191.5 L364.5,191.5 Z M372.5,191.5 L372.5,192.5 L368.5,192.5 L368.5,191.5 L372.5,191.5 Z M345,184 L345,188 L344,188 L344,184 L345,184 Z M345,176 L345,180 L344,180 L344,176 L345,176 Z M345,168 L345,172 L344,172 L344,168 L345,168 Z M345,160 L345,164 L344,164 L344,160 L345,160 Z" fill="#979797" fill-rule="nonzero"></path>
        <rect id="Rectangle" fill="#FFFFFF" x="576" y="336" width="160" height="32" rx="2"></rect>
        <rect id="Rectangle" fill="#FFFFFF" x="575" y="272" width="160" height="32" rx="2"></rect>
        <text id="workspace" font-family="Arial-BoldMT, Arial" font-size="9" font-weight="bold" letter-spacing="-0.018" fill="#1D1F25">
            <tspan x="632.818549" y="291">workspace</tspan>
        </text>
        <text id="run-task" transform="translate(774.400000, 224.600000) rotate(-90.000000) translate(-774.400000, -224.600000) " font-family="Arial-BoldMT, Arial" font-size="9" font-weight="bold" letter-spacing="-0.018" fill="#1D1F25">
            <tspan x="756.966385" y="223">run task</tspan>
        </text>
        <text id="run" font-family="Arial-BoldMT, Arial" font-size="9" font-weight="bold" letter-spacing="-0.018" fill="#1D1F25">
            <tspan x="648.778221" y="355">run</tspan>
        </text>
        <path id="Path-3" d="M655.100003,303.998413 L656.099997,304.001587 L656.027,327.001 L660.026961,327.014328 L655.498413,335.999997 L651.027007,326.985757 L655.027,326.998 L655.100003,303.998413 Z" fill="#666666" fill-rule="nonzero"></path>
        <path id="Path-4" d="M760.5,116.5 L751.5,112 L760.5,107.5 L760.5,111.5 L779,111.5 C781.963479,111.5 784.379539,113.84378 784.495633,116.778793 L784.5,117 L784.5,331 C784.5,333.963479 782.15622,336.379539 779.221207,336.495633 L779,336.5 L760.5,336.5 L760.5,340.5 L751.5,336 L760.5,331.5 L760.5,335.5 L779,335.5 C781.414273,335.5 783.384489,333.598763 783.495102,331.211836 L783.5,331 L783.5,117 C783.5,114.585727 781.598763,112.615511 779.211836,112.504898 L779,112.5 L760.5,112.5 L760.5,116.5 Z" fill="#666666" fill-rule="nonzero"></path>
        <g id="Terraform_Cloud_Logo_Color_RGB" transform="translate(584.000000, 233.000000)">
            <path d="M113.08041,19.0879655 L113.248786,20.4543983 C112.190131,20.6669045 111.113228,20.7753539 110.033459,20.7781975 C107.044792,20.7781975 105.652455,19.5833783 105.652455,17.0221263 L105.652455,11.3524015 C105.652455,8.7846735 107.044792,7.58985429 110.033459,7.58985429 C111.113867,7.59907203 112.190777,7.71402927 113.248786,7.93308149 L113.08041,9.2995143 C112.091248,9.13555649 111.091082,9.04679721 110.088505,9.03399892 C107.970858,9.03399892 107.248786,9.64597949 107.248786,11.4495413 L107.248786,16.9541284 C107.248786,18.7576902 107.970858,19.3664328 110.088505,19.3664328 C111.091411,19.3493531 112.091579,19.2562639 113.08041,19.0879655 L113.08041,19.0879655 Z" id="Path" fill="#000000" fill-rule="nonzero"></path>
            <polygon id="Path" fill="#000000" fill-rule="nonzero" points="115.894226 7.16891527 115.894226 20.6001079 114.336751 20.6001079 114.336751 7.39233675"></polygon>
            <path d="M124.526713,12.0712358 C123.879115,11.3944954 122.891527,11.0512682 121.61252,11.0512682 C118.309768,11.0512682 117.814355,13.2498651 117.814355,14.561252 L117.814355,17.2876417 C117.814355,18.5828386 118.309768,20.7943875 121.61252,20.7943875 C122.907717,20.7943875 123.879115,20.4511603 124.526713,19.7776579 C125.129747,19.0922771 125.443181,18.1995706 125.400971,17.2876417 L125.400971,14.561252 C125.443866,13.6492228 125.130344,12.7562669 124.526713,12.0712358 L124.526713,12.0712358 Z M123.843497,17.3459255 C123.843497,18.7415003 123.092283,19.4506206 121.602806,19.4506206 C120.11333,19.4506206 119.345926,18.7415003 119.345926,17.3459255 L119.345926,14.4997302 C119.345926,13.1073934 120.100378,12.3982731 121.583378,12.3982731 C123.066379,12.3982731 123.824069,13.1073934 123.824069,14.4997302 L123.843497,17.3459255 Z" id="Shape" fill="#000000" fill-rule="nonzero"></path>
            <path d="M134.45116,11.2455478 L134.45116,20.6033459 L133.194819,20.6033459 L133.039396,19.7711819 L133.00054,19.7906098 C131.964382,20.2892607 130.332434,20.7911495 129.221802,20.7911495 C127.865084,20.7911495 127.204533,20.0205073 127.204533,18.424177 L127.204533,11.2455478 L128.762008,11.2455478 L128.762008,18.407987 C128.762008,19.0264436 129.063141,19.3146249 129.704263,19.3146249 C130.429574,19.3146249 131.880194,18.877496 132.874258,18.3626552 L132.893686,18.3626552 L132.893686,11.2390718 L134.45116,11.2455478 Z" id="Path" fill="#000000" fill-rule="nonzero"></path>
            <path d="M142.157582,7.39233675 L142.157582,11.3524015 L142.115488,11.3524015 C141.232282,11.1755012 140.335019,11.0779726 139.434431,11.0609822 C137.397733,11.0609822 136.406908,12.0582839 136.406908,14.1046951 L136.406908,17.9449541 C136.406908,19.8618457 137.297356,20.7943875 139.123583,20.7943875 C140.239818,20.8090694 141.328697,20.4487705 142.215866,19.7711819 L142.264436,19.7388019 L142.40367,20.6195359 L143.715057,20.6195359 L143.715057,7.16891527 L142.157582,7.39233675 Z M142.157582,18.2881813 L142.157582,18.2881813 C141.41664,18.9645335 140.465188,19.3647836 139.463573,19.4214787 C138.233135,19.4214787 137.980572,18.8289261 137.980572,17.9352402 L137.980572,14.0949811 C137.980572,12.9195899 138.446843,12.417701 139.544522,12.417701 C140.414548,12.4408358 141.281078,12.5372372 142.134916,12.7058824 L142.164058,12.7058824 L142.157582,18.2881813 Z" id="Shape" fill="#000000" fill-rule="nonzero"></path>
            <polygon id="Path" fill="#000000" fill-rule="nonzero" points="31.8812736 9.86292499 28.2385321 9.86292499 28.2385321 7.68699406 37.9913654 7.68699406 37.9913654 9.86292499 34.3486239 9.86292499 34.3486239 20.7425796 31.8812736 20.7425796"></polygon>
            <path d="M40.5688073,18.9713977 C41.557152,18.9667446 42.5393037,18.8150567 43.4830005,18.5213168 L43.8553697,20.3216406 C42.72784,20.7286541 41.5376445,20.9346916 40.3389099,20.9304494 C37.3437669,20.9304494 36.3043713,19.5380464 36.3043713,17.2455478 L36.3043713,14.7199137 C36.3043713,12.7026444 37.2045332,10.9994603 40.2611981,10.9994603 C43.3178629,10.9994603 44.0043173,12.7803562 44.0043173,14.8364814 L44.0043173,16.8764166 L38.7199137,16.8764166 L38.7199137,17.3653535 C38.7199137,18.5213168 39.1181867,18.9713977 40.5688073,18.9713977 Z M38.7199137,14.9562871 L41.7571506,14.9562871 L41.7571506,14.4835402 C41.7571506,13.5833783 41.4819212,12.9584458 40.30653,12.9584458 C39.1311387,12.9584458 38.7199137,13.5833783 38.7199137,14.4835402 L38.7199137,14.9562871 Z" id="Shape" fill="#000000" fill-rule="nonzero"></path>
            <path d="M50.4025904,13.1915812 C49.5243706,13.5885501 48.6787963,14.0541032 47.8737183,14.583918 L47.8737183,20.7425796 L45.4840799,20.7425796 L45.4840799,11.1937399 L47.5013492,11.1937399 L47.6600108,12.2525634 C48.4361329,11.7255476 49.278931,11.3041485 50.1662169,10.9994603 L50.4025904,13.1915812 Z" id="Path" fill="#000000" fill-rule="nonzero"></path>
            <path d="M56.2374528,13.1915812 C55.3606301,13.5892724 54.5161873,14.0547985 53.7118187,14.583918 L53.7118187,20.7425796 L51.3221802,20.7425796 L51.3221802,11.1937399 L53.3394495,11.1937399 L53.4948732,12.2525634 C54.2721789,11.7255904 55.1160403,11.3042041 56.0043173,10.9994603 L56.2374528,13.1915812 Z" id="Path" fill="#000000" fill-rule="nonzero"></path>
            <path d="M64.2288181,20.7425796 L62.2698327,20.7425796 L62.0949811,20.0949811 C61.2493219,20.6434121 60.2631877,20.9357666 59.2552617,20.9368591 C57.5099838,20.9368591 56.7652455,19.7420399 56.7652455,18.0971398 C56.7652455,16.1543443 57.6103616,15.412844 59.5466811,15.412844 L61.8391797,15.412844 L61.8391797,14.4058284 C61.8391797,13.3502428 61.5477604,12.9778737 60.019428,12.9778737 C59.1301401,12.9871698 58.2439753,13.0847889 57.3739881,13.269293 L57.0793308,11.4495413 C58.1445423,11.1545206 59.2443982,11.0031543 60.3497032,10.9994603 C63.3480842,10.9994603 64.2352941,12.0550459 64.2352941,14.4446843 L64.2288181,20.7425796 Z M61.8391797,17.12898 L60.0906638,17.12898 C59.3070696,17.12898 59.0901241,17.3459255 59.0901241,18.0712358 C59.0901241,18.7188343 59.3070696,19.0426336 60.0615219,19.0426336 C60.6930422,19.0325411 61.3119792,18.8644485 61.8618457,18.5536967 L61.8391797,17.12898 Z" id="Shape" fill="#000000" fill-rule="nonzero"></path>
            <path d="M71.575823,9.02104695 C71.1247041,8.92202165 70.6647284,8.86886408 70.2029142,8.86238532 C69.2638964,8.86238532 69.1279007,9.27361036 69.1279007,9.99892067 L69.1279007,11.1937399 L71.556395,11.1937399 L71.4236373,13.0944414 L69.1343767,13.0944414 L69.1343767,20.7425796 L66.7447383,20.7425796 L66.7447383,13.0944414 L65.2164058,13.0944414 L65.2164058,11.1937399 L66.7447383,11.1937399 L66.7447383,9.86292499 C66.7447383,7.8845116 67.6643281,6.90334865 69.7787372,6.90334865 C70.4734629,6.90085033 71.1652652,6.99345379 71.8348624,7.17862925 L71.575823,9.02104695 Z" id="Path" fill="#000000" fill-rule="nonzero"></path>
            <path d="M76.2352941,20.9303832 C72.9649217,20.9303832 72.0712358,19.1235834 72.0712358,17.1807879 L72.0712358,14.7587696 C72.0712358,12.8159741 72.9519698,10.9994603 76.2223421,10.9994603 C79.4927145,10.9994603 80.3766865,12.7997841 80.3766865,14.7587696 L80.3766865,17.1807879 C80.3896384,19.1235834 79.5186185,20.9303832 76.2352941,20.9303832 Z M76.2352941,13.0361576 C74.9627631,13.0361576 74.4738262,13.6028063 74.4738262,14.6810577 L74.4738262,17.2455478 C74.4738262,18.3237992 74.9627631,18.8936859 76.2352941,18.8936859 C77.5078251,18.8936859 78,18.3237992 78,17.2455478 L78,14.6810577 C78,13.6189962 77.5110631,13.0361576 76.2352941,13.0361576 Z" id="Shape" fill="#000000" fill-rule="nonzero"></path>
            <path d="M86.5385861,13.1915812 C85.6617634,13.5892724 84.8173206,14.0547985 84.012952,14.583918 L84.012952,20.7425796 L81.6233135,20.7425796 L81.6233135,11.1937399 L83.6405828,11.1937399 L83.7960065,12.2525634 C84.5777158,11.7251976 85.4259077,11.3038237 86.3184026,10.9994603 L86.5385861,13.1915812 Z" id="Path" fill="#000000" fill-rule="nonzero"></path>
            <path d="M93.1181867,20.7425796 L93.1181867,14.0723152 C93.1181867,13.5639504 92.9012412,13.3081489 92.3540205,13.3081489 C91.8067998,13.3081489 90.7350243,13.6610901 89.8672423,14.1144091 L89.8672423,20.7425796 L87.4743659,20.7425796 L87.4743659,11.1937399 L89.2973556,11.1937399 L89.5337291,11.996762 C90.7232857,11.4030657 92.0233809,11.063431 93.3513222,10.9994603 C94.27415,10.9994603 94.8407987,11.3718295 95.154884,12.01619 C96.3478123,11.4072856 97.657196,11.0606191 98.995143,10.9994603 C100.581759,10.9994603 101.148408,12.1133297 101.148408,13.8197518 L101.148408,20.7425796 L98.7587696,20.7425796 L98.7587696,14.0723152 C98.7587696,13.5639504 98.5418241,13.3081489 97.9946033,13.3081489 C97.1183484,13.3997254 96.2711162,13.674414 95.5078251,14.1144091 L95.5078251,20.7425796 L93.1181867,20.7425796 Z" id="Path" fill="#000000" fill-rule="nonzero"></path>
            <polygon id="Path" fill="#7B42BC" points="6.86454398 5.3588775 13.0491096 8.93038316 13.0491096 16.0733945 6.86454398 12.5018888"></polygon>
            <polygon id="Path" fill="#7B42BC" points="13.72585 8.93038316 13.72585 16.0733945 19.9136535 12.5018888 19.9136535 5.3588775"></polygon>
            <polygon id="Path" fill="#7B42BC" points="3.45109802e-15 1.3729088 3.45109802e-15 8.51592013 6.18456557 12.0874258 6.18456557 4.94441446"></polygon>
            <polygon id="Path" fill="#7B42BC" points="6.86454398 20.4284943 13.0491096 24 13.0491096 16.9023206 13.0491096 16.8569887 6.86454398 13.285483"></polygon>
            <path d="M30.7674042,4.46195359 L30.7674042,2.62924987 L29.0933621,2.62924987 L29.0933621,4.46195359 L28.2385321,4.46195359 L28.2385321,0.0615218564 L29.0933621,0.0615218564 L29.0933621,1.90717755 L30.7674042,1.90717755 L30.7674042,0.0615218564 L31.6222342,0.0615218564 L31.6222342,4.46195359 L30.7674042,4.46195359 Z M34.7598489,4.46195359 L34.0798705,4.46195359 L34.0183486,4.24500809 C33.7271683,4.42768851 33.3906892,4.52526746 33.0469509,4.52671344 C32.4446843,4.52671344 32.1856449,4.12844037 32.1856449,3.58121964 C32.1856449,2.93362115 32.4770642,2.68753373 33.1570426,2.68753373 L33.9503508,2.68753373 L33.9503508,2.36373448 C33.9503508,2.01079331 33.849973,1.8877496 33.3027523,1.8877496 C32.9949066,1.89089749 32.6880642,1.92342494 32.3864004,1.98488937 L32.2860227,1.37938478 C32.6559231,1.28177294 33.0367593,1.23172018 33.41932,1.23043713 C34.4554776,1.23043713 34.7630869,1.58014031 34.7630869,2.37668645 L34.7598489,4.46195359 Z M33.9309228,3.2574204 L33.3189423,3.2574204 C33.0501889,3.2574204 32.9757151,3.33189423 32.9757151,3.58121964 C32.9757151,3.83054506 33.0501889,3.90501889 33.2995143,3.90501889 C33.5184338,3.90367298 33.7334401,3.84685785 33.9244468,3.73988127 L33.9309228,3.2574204 Z M36.4921749,4.52347545 C36.1055738,4.51738976 35.7218045,4.45633556 35.3524015,4.34214787 L35.4689692,3.73340529 C35.7852084,3.82246644 36.1118433,3.86928411 36.440367,3.87263896 C36.8062601,3.87263896 36.861306,3.79168915 36.861306,3.54883972 C36.861306,3.30599029 36.8192121,3.25418241 36.2849433,3.13113869 C35.4754452,2.94333513 35.3815434,2.74581759 35.3815434,2.13383702 C35.3815434,1.52185645 35.6729628,1.21748516 36.6152186,1.21748516 C36.9485368,1.21764388 37.2808209,1.25456433 37.6060443,1.3275769 L37.5380464,1.96222342 C37.2374496,1.90928259 36.9333035,1.87897621 36.6281705,1.87155963 C36.2687534,1.87155963 36.2072315,1.94927145 36.2072315,2.143551 C36.2072315,2.3993524 36.2298975,2.41878036 36.6767404,2.5288721 C37.5995683,2.76524555 37.6869941,2.88181328 37.6869941,3.53264976 C37.6869941,4.18348624 37.4894765,4.52671344 36.4921749,4.52671344 L36.4921749,4.52347545 Z M40.283864,4.4587156 L40.283864,2.24716676 C40.283864,2.07555316 40.2093902,1.99136535 40.0183486,1.99136535 C39.7163479,2.02334692 39.4236414,2.11468015 39.1570426,2.26011873 L39.1570426,4.46195359 L38.3281166,4.46195359 L38.3281166,2.30073201e-15 L39.1570426,0.123043713 L39.1570426,1.52833243 C39.5341537,1.34417413 39.9454657,1.24051909 40.3648138,1.22396114 C40.9152725,1.22396114 41.1095521,1.59309228 41.1095521,2.15974096 L41.1095521,4.46195359 L40.283864,4.4587156 Z M41.8057205,0.835402051 L41.8057205,0.058283864 L42.6346465,0.058283864 L42.6346465,0.835402051 L41.8057205,0.835402051 Z M41.8057205,4.4587156 L41.8057205,1.285483 L42.6346465,1.285483 L42.6346465,4.4587156 L41.8057205,4.4587156 Z M43.295197,1.31138694 C43.295197,0.514840799 43.7776579,0.0518078791 44.9141932,0.0518078791 C45.327524,0.0526566704 45.7393548,0.101554787 46.1413923,0.197517539 L46.0474906,0.906637885 C45.6818906,0.840434895 45.3115755,0.803619944 44.9400971,0.796546141 C44.3507825,0.796546141 44.159741,0.990825688 44.159741,1.44414463 L44.159741,3.11171074 C44.159741,3.57474366 44.3507825,3.75930923 44.9400971,3.75930923 C45.3115755,3.75223543 45.6818906,3.71542047 46.0474906,3.64921749 L46.1413923,4.36157582 C45.7392267,4.45644836 45.3273976,4.50425966 44.9141932,4.50404819 C43.7873718,4.50404819 43.295197,4.04101457 43.295197,3.24446843 L43.295197,1.31138694 Z M47.9611441,4.52347545 C46.8278467,4.52347545 46.5234754,3.92444684 46.5234754,3.27037237 L46.5234754,2.47382623 C46.5234754,1.82622774 46.8278467,1.22396114 47.9611441,1.22396114 C49.0944414,1.22396114 49.4052887,1.82298975 49.4052887,2.47382623 L49.4052887,3.27361036 C49.4052887,3.92768484 49.0814895,4.52671344 47.9611441,4.52671344 L47.9611441,4.52347545 Z M47.9611441,1.89746357 C47.5207771,1.89746357 47.3491635,2.08526713 47.3491635,2.4446843 L47.3491635,3.2995143 C47.3491635,3.65569347 47.5207771,3.84673502 47.9611441,3.84673502 C48.4015111,3.84673502 48.5731247,3.65569347 48.5731247,3.2995143 L48.5731247,2.44792229 C48.5731247,2.08850513 48.4015111,1.90070157 47.9611441,1.90070157 L47.9611441,1.89746357 Z M51.7301673,1.94927145 C51.4276517,2.08168667 51.1354233,2.23645947 50.8559093,2.41230437 L50.8559093,4.4587156 L50.0269833,4.4587156 L50.0269833,1.285483 L50.7263896,1.285483 L50.7814355,1.63518618 C51.0516365,1.4602305 51.3433121,1.32092273 51.6492175,1.22072315 L51.7301673,1.94927145 Z M55.0393956,3.40313006 C55.0393956,4.10577442 54.7155963,4.52347545 53.9481921,4.52347545 C53.651368,4.52060408 53.3554474,4.49025325 53.0642202,4.43281166 L53.0642202,5.72800863 L52.2385321,5.85105235 L52.2385321,1.28872099 L52.8861306,1.28872099 L52.9670804,1.55423637 C53.2734437,1.33995232 53.6391037,1.22674489 54.012952,1.23043713 C54.6767404,1.23043713 55.0296816,1.60604425 55.0296816,2.33135456 L55.0393956,3.40313006 Z M53.0642202,3.75930923 C53.3058879,3.81177496 53.5520125,3.8410497 53.7992445,3.84673502 C54.0971398,3.84673502 54.2137075,3.70750135 54.2137075,3.42255801 L54.2137075,2.30545062 C54.2137075,2.04317323 54.1100917,1.90070157 53.8057205,1.90070157 C53.5334954,1.90935841 53.2721881,2.00977347 53.0642202,2.1856449 L53.0642202,3.75930923 Z" id="Shape" fill="#000000" fill-rule="nonzero"></path>
        </g>
        <path id="Path-9" d="M423,246.5 L427.5,255.5 L423.5,255.5 L423.5,347 C423.5,349.414273 425.401237,351.384489 427.788164,351.495102 L428,351.5 L552,351.5 L552,352.5 L428,352.5 C425.036521,352.5 422.620461,350.15622 422.504367,347.221207 L422.5,347 L422.5,255.5 L418.5,255.5 L423,246.5 Z" fill="#7B42BC" fill-rule="nonzero"></path>
        <g id="Label" transform="translate(24.000000, 208.000000)">
            <rect id="Rectangle" x="0" y="0" width="53" height="20"></rect>
            <text id="master" font-family="Arial-BoldMT, Arial" font-size="9" font-weight="bold" letter-spacing="-0.018" fill="#404247">
                <tspan x="11.7949668" y="8">master</tspan>
            </text>
        </g>
        <g id="Label" transform="translate(469.000000, 341.000000)">
            <rect id="Rectangle" fill="#FFFFFF" x="0" y="0" width="38" height="24"></rect>
            <text id="Deploy" font-family="Arial-BoldMT, Arial" font-size="9" font-weight="bold" letter-spacing="-0.018" fill="#7B42BC">
                <tspan x="4.05107031" y="11">Deploy</tspan>
            </text>
        </g>
        <path id="Path-14" d="M104.5,176.5 L104.5,185.5 L95.5,181 L104.5,176.5 Z M165.653669,180.5 L165.653669,181.5 L161.653669,181.5 L161.653669,180.5 L165.653669,180.5 Z M157.653669,180.5 L157.653669,181.5 L153.653669,181.5 L153.653669,180.5 L157.653669,180.5 Z M149.653669,180.5 L149.653669,181.5 L145.653669,181.5 L145.653669,180.5 L149.653669,180.5 Z M141.653669,180.5 L141.653669,181.5 L137.653669,181.5 L137.653669,180.5 L141.653669,180.5 Z M133.653669,180.5 L133.653669,181.5 L129.653669,181.5 L129.653669,180.5 L133.653669,180.5 Z M125.653669,180.5 L125.653669,181.5 L121.653669,181.5 L121.653669,180.5 L125.653669,180.5 Z M117.653669,180.5 L117.653669,181.5 L113.653669,181.5 L113.653669,180.5 L117.653669,180.5 Z M109.653669,180.5 L109.653669,181.5 L105.653669,181.5 L105.653669,180.5 L109.653669,180.5 Z M173.390926,179.813058 L173.923058,180.65972 C173.173059,181.131098 172.320252,181.415089 171.418157,181.483804 L171.115707,181.498697 L169.654114,181.5 L169.653223,180.5 L171.103954,180.498826 C171.925006,180.480253 172.709419,180.241389 173.390926,179.813058 Z M176.5,173 L176.5,176 C176.5,176.277783 176.479367,176.553079 176.438581,176.824257 L176.391095,177.094001 L175.41088,176.896067 C175.450269,176.700999 175.476749,176.502798 175.490025,176.302319 L175.5,176 L175.5,173 L176.5,173 Z M176.5,165 L176.5,169 L175.5,169 L175.5,165 L176.5,165 Z M176.5,157 L176.5,161 L175.5,161 L175.5,157 L176.5,157 Z M176.5,149 L176.5,153 L175.5,153 L175.5,149 L176.5,149 Z" fill="#666666" fill-rule="nonzero"></path>
    </g>
</svg>